<svg width="466" height="434" viewBox="0 0 466 434" fill="none" xmlns="http://www.w3.org/2000/svg">
<g clip-path="url(#clip0_580_327)">
<path d="M302.1 64.3401C301.063 65.1733 299.854 65.7674 298.56 66.0801C295.01 66.8701 285.56 66.4701 283.96 70.8101C283.449 72.1124 282.652 73.2839 281.63 74.2389C280.607 75.194 279.384 75.9084 278.05 76.3301C278.05 76.3301 270.56 76.7301 270.16 78.3301C269.76 79.9301 267.01 82.6701 267.01 82.6701H396C396 82.6701 400.34 75.9701 393.24 69.6701C387.03 64.1501 375.68 72.5101 374.24 65.6701" stroke="#263238" stroke-linecap="round" stroke-linejoin="round"/>
<path d="M373.07 55.63C371.63 50.44 368.6 43.44 362.45 40.84C352.19 36.5 343.52 42.42 341.15 48.33C338.78 54.24 337.21 58.19 328.15 53.06C319.09 47.93 311.15 48.33 308.43 55.06C307.645 57.0084 306.664 58.8714 305.5 60.62" stroke="#263238" stroke-linecap="round" stroke-linejoin="round"/>
<path d="M83.0498 133.1H127.84C127.84 133.1 130.46 129.1 126.17 125.23C121.88 121.36 113.52 128.57 114.72 120.46C114.72 120.46 113.72 110.46 107.56 107.82C105.974 107.094 104.227 106.795 102.49 106.953C100.753 107.111 99.0883 107.72 97.6598 108.72" stroke="#263238" stroke-linecap="round" stroke-linejoin="round"/>
<path d="M94.68 112.35C93.25 115.93 92.29 118.35 86.81 115.21C81.33 112.07 76.55 112.35 74.88 116.41C73.21 120.47 71.06 122.61 68.88 123.08C66.7 123.55 61.01 123.32 60.05 125.95C59.7383 126.737 59.2554 127.446 58.6362 128.023C58.017 128.601 57.2771 129.034 56.47 129.29C56.47 129.29 51.94 129.52 51.7 130.48C51.2229 131.459 50.5763 132.346 49.79 133.1H76" stroke="#263238" stroke-linecap="round" stroke-linejoin="round"/>
<path d="M307.25 133.1H328.4C328.4 133.1 331.02 129.1 326.73 125.23C322.44 121.36 314.09 128.57 315.28 120.46C315.28 120.46 314.33 110.46 308.12 107.82C301.91 105.18 296.68 108.82 295.24 112.35C293.8 115.88 292.86 118.35 287.37 115.21C281.88 112.07 277.11 112.35 275.45 116.41C273.79 120.47 271.63 122.61 269.45 123.08C267.27 123.55 261.58 123.32 260.63 125.95C260.317 126.737 259.834 127.444 259.215 128.022C258.596 128.599 257.857 129.032 257.05 129.29C257.05 129.29 252.52 129.52 252.28 130.48C251.803 131.459 251.156 132.346 250.37 133.1H300.19" stroke="#263238" stroke-linecap="round" stroke-linejoin="round"/>
<g opacity="0.1">
<path opacity="0.1" d="M3.23001 199.17C7.17001 199.95 15.92 197.84 15.92 197.84C15.92 197.84 12.78 192.49 12.54 192.18C9.73001 188.56 2.17001 183.18 -2.63999 184.98C-3.43136 185.295 -4.1478 185.772 -4.74289 186.381C-5.33799 186.991 -5.79847 187.718 -6.0945 188.516C-6.39052 189.315 -6.51549 190.167 -6.46132 191.017C-6.40714 191.867 -6.17502 192.696 -5.77999 193.45C-4.20999 196.71 -0.119994 198.5 3.23001 199.17Z" fill="black"/>
<path opacity="0.1" d="M11.8202 224C15.6602 223.73 23.0101 219.75 23.6001 219.43C25.8717 223.638 28.4207 227.69 31.2302 231.56C32.8502 233.82 34.5602 236.05 36.3002 238.26C35.3502 237.37 34.5002 236.58 34.3702 236.48C30.7102 233.74 22.0102 230.59 17.8302 233.55C17.1499 234.063 16.5849 234.713 16.1718 235.457C15.7587 236.202 15.5068 237.026 15.4323 237.874C15.3578 238.723 15.4625 239.578 15.7394 240.383C16.0164 241.189 16.4596 241.927 17.0402 242.55C19.4202 245.27 23.8302 245.92 27.2402 245.68C30.6502 245.44 37.0402 242.16 38.7002 241.28C39.3802 242.12 40.0402 242.97 40.7002 243.81C43.9602 247.81 47.2302 251.81 50.3202 255.87C51.4102 257.29 52.4201 258.73 53.4501 260.16C52.6101 259.37 51.9002 258.71 51.7802 258.62C48.1102 255.87 39.4202 252.72 35.2402 255.69C34.5572 256.201 33.9898 256.85 33.5749 257.595C33.16 258.34 32.907 259.164 32.8324 260.013C32.7578 260.863 32.8634 261.719 33.1422 262.524C33.4209 263.33 33.8666 264.068 34.4502 264.69C36.8302 267.42 41.2402 268.06 44.6502 267.82C48.0602 267.58 53.8302 264.62 55.8102 263.58C56.8102 265.08 57.8102 266.58 58.7302 268.08C59.3302 269.08 59.9702 270.08 60.5102 271.15L62.1702 274.28C63.1702 276.28 64.1702 278.4 65.0802 280.4C65.7202 281.79 66.3102 283.12 66.9002 284.47C65.8302 283.04 63.6902 280.29 63.4802 280.08C60.2802 276.82 52.1602 272.39 47.5702 274.68C46.8202 275.083 46.1634 275.639 45.6424 276.312C45.1214 276.986 44.7478 277.761 44.546 278.588C44.3442 279.415 44.3186 280.276 44.471 281.113C44.6233 281.951 44.9501 282.747 45.4302 283.45C47.3702 286.51 51.6302 287.81 55.0402 288.09C58.7902 288.4 66.3702 285.72 67.3102 285.38C68.3102 287.61 69.2102 289.78 70.0502 291.85C70.6835 293.37 71.2735 294.84 71.8202 296.26L74.9402 295.58C74.2735 294.013 73.5768 292.373 72.8502 290.66C71.8502 288.4 70.7801 286 69.6301 283.55C71.7732 282.102 73.8269 280.526 75.7802 278.83C78.9502 281.05 86.2302 282.83 87.1702 283.1C86.7502 285.49 86.3302 287.81 85.8902 290C85.6602 291.16 85.4301 292.25 85.2001 293.34L88.5002 292.62C88.6302 291.94 88.7502 291.27 88.8702 290.56C89.3102 288.13 89.7202 285.56 90.1202 282.85C91.1202 282.85 99.1202 282.72 102.57 281.13C105.67 279.68 109.21 276.98 109.97 273.44C110.176 272.614 110.206 271.753 110.057 270.914C109.908 270.076 109.585 269.277 109.108 268.572C108.631 267.866 108.01 267.269 107.287 266.819C106.564 266.369 105.754 266.077 104.91 265.96C99.8202 265.4 93.7402 272.37 91.9102 276.55C91.8002 276.8 90.9102 279.61 90.3702 281.39C90.5202 280.29 90.6902 279.23 90.8302 278.1C91.1402 275.87 91.3802 273.64 91.6502 271.23C91.7402 270.07 91.8302 268.89 91.9202 267.7C92.0102 266.51 92.0102 265.27 92.0602 264.04C92.0602 261.18 92.0601 258.29 91.8801 255.38C93.8801 255.64 100.79 256.48 104.08 255.52C107.37 254.56 111.28 252.42 112.56 249.04C112.891 248.255 113.052 247.409 113.033 246.558C113.015 245.706 112.817 244.868 112.453 244.098C112.089 243.328 111.566 242.643 110.919 242.089C110.273 241.535 109.517 241.123 108.7 240.88C103.7 239.55 96.7001 245.52 94.2001 249.37C94.0501 249.61 92.5802 252.57 91.8002 254.21C91.7002 252.46 91.6002 250.72 91.4402 248.95C90.9702 243.85 90.3402 238.7 89.7402 233.56C89.5502 231.98 89.3802 230.41 89.2102 228.84C89.9002 228.94 98.1501 230.12 101.84 229.04C105.12 228.04 109.03 225.94 110.32 222.56C110.649 221.774 110.808 220.928 110.788 220.076C110.768 219.225 110.57 218.387 110.205 217.617C109.84 216.848 109.317 216.163 108.67 215.609C108.023 215.055 107.267 214.643 106.45 214.4C101.45 213.07 94.4502 219.05 91.9602 222.89C91.7702 223.18 89.6602 227.45 89.1802 228.56C88.8002 225.09 88.4502 221.64 88.2502 218.22C87.9501 213.605 87.9501 208.975 88.2502 204.36C88.5702 204.41 97.1701 205.68 100.95 204.57C104.23 203.57 108.15 201.48 109.43 198.09C109.759 197.305 109.919 196.459 109.9 195.608C109.88 194.757 109.682 193.92 109.318 193.15C108.954 192.381 108.432 191.696 107.787 191.141C107.141 190.587 106.386 190.174 105.57 189.93C100.57 188.61 93.5702 194.58 91.0702 198.43C90.8802 198.73 88.6102 203.31 88.2602 204.18C88.2602 203.91 88.2602 203.63 88.2602 203.36C88.689 198.741 89.529 194.17 90.7701 189.7C91.4201 187.22 92.1902 184.89 92.9802 182.64C94.5602 183.04 101.79 184.79 105.3 184.17C108.81 183.55 112.79 181.88 114.44 178.66C114.852 177.915 115.103 177.092 115.176 176.244C115.249 175.396 115.143 174.542 114.865 173.738C114.587 172.934 114.143 172.197 113.561 171.575C112.98 170.954 112.274 170.461 111.49 170.13C106.71 168.26 99.0402 173.43 96.1502 176.98C96.0002 177.17 94.6201 179.31 93.6301 180.88C94.0101 179.88 94.3702 178.82 94.7502 177.88C96.1602 174.27 97.6702 171.05 99.0302 168.2C99.8202 166.59 100.56 165.2 101.27 163.81C103.02 163.4 110.07 161.64 112.85 159.51C115.63 157.38 118.44 154.03 118.42 150.41C118.444 149.558 118.288 148.711 117.963 147.924C117.638 147.136 117.15 146.426 116.532 145.839C115.914 145.253 115.18 144.803 114.377 144.518C113.574 144.234 112.719 144.122 111.87 144.19C106.77 144.74 102.34 152.85 101.42 157.34C101.34 157.72 100.78 163.93 100.87 163.91H100.97C100.26 165.19 99.5202 166.56 98.7302 168.08C97.3102 170.9 95.7302 174.08 94.2302 177.69C92.5935 181.518 91.1811 185.438 90.0002 189.43C88.6439 193.929 87.6935 198.541 87.1602 203.21C87.1553 203.267 87.1553 203.324 87.1602 203.38C86.8602 201.91 85.9002 197.82 85.7902 197.51C84.2502 193.2 78.7402 185.78 73.6102 185.94C72.7617 185.993 71.9338 186.223 71.18 186.616C70.4263 187.009 69.7635 187.557 69.2346 188.222C68.7057 188.888 68.3226 189.657 68.1099 190.48C67.8973 191.303 67.8599 192.162 68.0002 193C68.4802 196.58 71.8002 199.55 74.7802 201.24C78.1402 203.13 86.4701 203.86 87.1301 203.92C86.7029 208.684 86.5927 213.471 86.8002 218.25C86.9102 221.03 87.1002 223.83 87.3302 226.64C87.0402 225.37 86.7602 224.24 86.7102 224.09C85.1702 219.78 79.6502 212.36 74.5302 212.52C73.6803 212.57 72.8504 212.798 72.0947 213.19C71.339 213.583 70.6743 214.129 70.1441 214.796C69.6139 215.462 69.2299 216.232 69.0173 217.056C68.8047 217.881 68.7682 218.741 68.9102 219.58C69.3902 223.17 72.7102 226.14 75.6902 227.82C78.6702 229.5 85.8002 230.3 87.6902 230.48C87.7902 231.55 87.8702 232.63 87.9802 233.7C88.4702 238.86 88.9801 244 89.3401 249.07C89.4701 250.85 89.5201 252.61 89.5901 254.37C89.3201 253.25 89.0902 252.31 89.0402 252.17C87.5002 247.85 82.0402 240.43 76.8602 240.59C76.0098 240.641 75.1798 240.871 74.4241 241.264C73.6683 241.657 73.0038 242.205 72.4737 242.872C71.9436 243.539 71.5598 244.31 71.3473 245.135C71.1348 245.96 71.0983 246.82 71.2402 247.66C71.7202 251.25 75.0501 254.22 78.0201 255.9C80.9901 257.58 87.4402 258.3 89.6702 258.52C89.6702 260.32 89.6702 262.13 89.6702 263.88C89.5902 265.08 89.6002 266.23 89.4602 267.43C89.3202 268.63 89.2302 269.79 89.1202 270.95C88.8102 273.19 88.5202 275.49 88.1202 277.66C87.8902 279.17 87.6402 280.61 87.3902 282.06C87.2902 280.28 87.0102 276.8 86.9602 276.52C86.0337 272.595 84.1159 268.973 81.3902 266C81.3114 265.559 81.1874 265.126 81.0201 264.71C80.7373 263.907 80.2884 263.172 79.7027 262.554C79.1169 261.936 78.4074 261.448 77.6205 261.123C76.8336 260.797 75.987 260.641 75.1357 260.665C74.2845 260.689 73.4478 260.891 72.6802 261.26C68.1202 263.6 66.9002 272.77 67.6802 277.26C67.6802 277.52 68.5302 280.36 69.0602 282.14C68.5902 281.14 68.1402 280.14 67.6402 279.14C66.6402 277.14 65.6402 275.14 64.5302 272.96L62.8102 269.87C62.2502 268.87 61.5402 267.79 60.9002 266.74C59.3702 264.33 57.7002 261.96 55.9702 259.62C57.7502 258.76 63.9702 255.62 66.2302 253C68.4902 250.38 70.5202 246.45 69.7302 242.92C69.5668 242.086 69.2303 241.295 68.7424 240.599C68.2545 239.903 67.626 239.317 66.8976 238.879C66.1692 238.441 65.357 238.16 64.5134 238.055C63.6698 237.95 62.8137 238.024 62.0002 238.27C57.1402 239.9 54.5502 248.78 54.6002 253.35C54.6002 253.64 55.0102 256.92 55.2602 258.72C54.2602 257.32 53.1702 255.91 52.0602 254.52C48.8602 250.52 45.4902 246.58 42.1502 242.63C41.1502 241.42 40.1502 240.2 39.1502 238.99C39.7802 238.69 47.3102 235.12 49.7902 232.18C52.0002 229.57 54.0802 225.63 53.2902 222.1C53.132 221.263 52.7991 220.468 52.3129 219.768C51.8268 219.068 51.1985 218.478 50.469 218.037C49.7395 217.597 48.9252 217.315 48.0793 217.21C47.2335 217.105 46.3751 217.18 45.5602 217.43C40.7002 219.05 38.1102 227.93 38.1602 232.51C38.1602 232.85 38.7602 237.57 38.9602 238.76C36.7402 236.09 34.5402 233.4 32.4902 230.66C29.6981 226.975 27.1462 223.113 24.8501 219.1C25.1401 218.96 33.0102 215.27 35.5502 212.26C37.7602 209.65 39.8502 205.71 39.0502 202.18C38.8918 201.344 38.5591 200.55 38.0736 199.851C37.5881 199.152 36.9608 198.563 36.2325 198.122C35.5041 197.681 34.6912 197.399 33.8465 197.294C33.0018 197.188 32.1444 197.262 31.3302 197.51C26.4602 199.13 23.8701 208.01 23.9201 212.59C23.9201 212.95 24.5702 218.03 24.7502 218.94C24.6202 218.7 24.4502 218.48 24.3202 218.24C22.1364 214.147 20.3161 209.871 18.8802 205.46C18.0602 203.04 17.4102 200.67 16.8802 198.35C18.4202 197.82 25.4102 195.29 28.0002 192.83C30.5902 190.37 33.0002 186.83 32.5802 183.2C32.516 182.351 32.2735 181.524 31.8683 180.775C31.4632 180.025 30.9046 179.369 30.2289 178.85C29.5533 178.331 28.7758 177.961 27.9472 177.763C27.1186 177.564 26.2575 177.543 25.4201 177.7C20.4201 178.78 16.8601 187.32 16.4201 191.88C16.4201 192.13 16.4202 194.67 16.4802 196.53C16.2302 195.48 15.9602 194.4 15.7402 193.39C14.9202 189.6 14.4002 186.08 13.9702 182.96C13.7402 181.18 13.5701 179.57 13.4201 178.06C14.6501 176.75 19.5502 171.39 20.7002 168.06C21.8502 164.73 22.3402 160.4 20.3302 157.4C19.8795 156.677 19.2818 156.056 18.5758 155.578C17.8698 155.101 17.0713 154.777 16.232 154.628C15.3928 154.479 14.5316 154.508 13.7043 154.714C12.8771 154.919 12.1023 155.296 11.4302 155.82C7.49015 159.09 8.27015 168.31 9.97015 172.56C10.1101 172.93 13.0702 178.41 13.1302 178.34L13.2101 178.26C13.3201 179.72 13.4602 181.26 13.6402 182.98C14.0102 186.11 14.4501 189.65 15.1901 193.48C15.9525 197.608 16.9542 201.688 18.1901 205.7C19.5412 210.197 21.2915 214.565 23.4201 218.75C23.4201 218.75 23.4802 218.85 23.5002 218.9C22.5002 217.83 19.3902 214.95 19.1302 214.76C15.4602 212.01 6.77015 208.86 2.59015 211.83C1.90723 212.341 1.33977 212.99 0.924864 213.735C0.509961 214.48 0.256957 215.304 0.182392 216.153C0.107828 217.003 0.21338 217.859 0.492151 218.664C0.770923 219.47 1.21663 220.208 1.80015 220.83C4.00015 223.57 8.41015 224.21 11.8202 224Z" fill="black"/>
<path opacity="0.1" d="M92.5802 181.71C92.6702 181.71 92.9102 175.52 92.8802 175.13C92.5302 170.56 89.1702 161.95 84.1902 160.75C83.3567 160.575 82.4956 160.576 81.6629 160.756C80.8302 160.935 80.0445 161.287 79.3569 161.79C78.6693 162.293 78.0953 162.934 77.672 163.674C77.2487 164.413 76.9858 165.233 76.9002 166.08C76.4202 169.67 78.8402 173.41 81.2602 175.82C84.1102 178.65 92.5802 181.71 92.5802 181.71Z" fill="black"/>
</g>
<g opacity="0.1">
<path opacity="0.1" d="M449.06 285.29C445.68 285.41 438.69 282.49 438.69 282.49C438.69 282.49 442.01 278.49 442.26 278.24C445.07 275.61 452.06 272.19 455.83 274.24C456.446 274.607 456.977 275.1 457.391 275.686C457.804 276.272 458.09 276.938 458.229 277.641C458.369 278.344 458.359 279.069 458.201 279.768C458.042 280.467 457.739 281.126 457.31 281.7C455.56 284.24 451.93 285.18 449.06 285.29Z" fill="black"/>
<path opacity="0.1" d="M438.61 304.75C435.45 304.02 429.88 299.75 429.43 299.38C426.971 302.577 424.298 305.604 421.43 308.44C419.78 310.11 418.07 311.73 416.33 313.34C417.23 312.72 418.04 312.18 418.17 312.12C421.58 310.32 429.22 308.87 432.3 311.89C432.797 312.406 433.181 313.021 433.425 313.694C433.67 314.368 433.77 315.086 433.719 315.8C433.668 316.515 433.467 317.211 433.13 317.844C432.792 318.476 432.325 319.03 431.76 319.47C429.42 321.42 425.67 321.36 422.87 320.71C420.07 320.06 415.19 316.48 413.93 315.52C413.25 316.13 412.59 316.75 411.93 317.35C408.69 320.27 405.44 323.16 402.33 326.1C401.24 327.1 400.2 328.19 399.16 329.24C399.96 328.7 400.64 328.24 400.75 328.18C404.16 326.39 411.81 324.94 414.89 327.96C415.387 328.475 415.77 329.089 416.015 329.762C416.259 330.435 416.359 331.152 416.308 331.866C416.257 332.58 416.057 333.275 415.719 333.906C415.382 334.538 414.915 335.091 414.35 335.53C412.01 337.53 408.26 337.43 405.45 336.78C402.64 336.13 398.25 332.89 396.74 331.78C395.74 332.89 394.67 334.01 393.74 335.13C393.1 335.91 392.44 336.62 391.85 337.45L390.05 339.83C388.97 341.38 387.84 342.98 386.82 344.52C386.1 345.59 385.44 346.62 384.76 347.66C385.84 346.61 387.99 344.66 388.19 344.47C391.29 342.18 398.62 339.59 402.13 342.1C402.699 342.536 403.17 343.086 403.513 343.716C403.856 344.345 404.063 345.04 404.121 345.754C404.178 346.469 404.085 347.188 403.847 347.864C403.609 348.54 403.232 349.159 402.74 349.68C400.74 351.96 397 352.48 394.13 352.25C390.98 352.01 385.04 348.77 384.3 348.36C383.19 350.08 382.13 351.76 381.16 353.36C380.44 354.54 379.75 355.69 379.1 356.79L376.6 355.79C377.35 354.57 378.15 353.31 378.99 351.98C380.11 350.23 381.34 348.39 382.62 346.5C381.032 345.012 379.536 343.429 378.14 341.76C375.21 343.18 368.92 343.76 368.14 343.76C368.14 345.76 368.21 347.76 368.29 349.66C368.29 350.66 368.37 351.6 368.41 352.53L365.77 351.53C365.77 350.94 365.77 350.37 365.77 349.76C365.77 347.68 365.77 345.46 365.77 343.19C364.95 343.05 358.27 341.88 355.65 340.1C353.27 338.48 350.65 335.76 350.53 332.72C350.468 332.006 350.557 331.286 350.792 330.609C351.027 329.932 351.401 329.311 351.892 328.788C352.383 328.266 352.978 327.852 353.64 327.575C354.301 327.298 355.013 327.163 355.73 327.18C360.03 327.4 364.15 334 365.15 337.72C365.21 337.94 365.58 340.39 365.79 341.95C365.79 341.01 365.79 340.11 365.84 339.15C365.84 337.26 365.98 335.37 366.07 333.34C366.16 332.34 366.24 331.34 366.32 330.34C366.4 329.34 366.57 328.34 366.7 327.28C367.03 324.9 367.49 322.51 368 320.11C366.34 320.11 360.45 319.84 357.84 318.6C355.23 317.36 352.28 315.07 351.66 312.08C351.493 311.384 351.473 310.66 351.604 309.956C351.734 309.252 352.011 308.583 352.416 307.993C352.822 307.403 353.347 306.904 353.957 306.53C354.568 306.156 355.25 305.914 355.96 305.82C360.25 305.38 365.32 311.28 366.87 314.82C366.97 315.04 367.8 317.7 368.22 319.16C368.54 317.72 368.85 316.28 369.22 314.84C370.29 310.66 371.5 306.47 372.69 302.28C373.06 300.99 373.4 299.71 373.76 298.43C373.17 298.43 366.16 298.3 363.24 296.91C360.64 295.67 357.67 293.37 357.06 290.39C356.889 289.694 356.868 288.969 356.997 288.264C357.126 287.558 357.402 286.888 357.808 286.297C358.214 285.706 358.74 285.208 359.352 284.834C359.965 284.461 360.649 284.221 361.36 284.13C365.65 283.69 370.72 289.59 372.27 293.13C372.38 293.39 373.57 297.22 373.82 298.2C374.6 295.38 375.35 292.55 375.97 289.74C376.836 285.948 377.454 282.103 377.82 278.23C377.54 278.23 370.23 278.13 367.24 276.7C364.64 275.47 361.67 273.17 361.05 270.19C360.881 269.493 360.861 268.769 360.99 268.063C361.12 267.358 361.396 266.688 361.802 266.096C362.207 265.505 362.733 265.006 363.344 264.631C363.956 264.256 364.639 264.014 365.35 263.92C369.65 263.48 374.71 269.39 376.26 272.92C376.39 273.2 377.66 277.32 377.84 278.08C377.84 277.85 377.9 277.62 377.92 277.4C378.179 273.503 378.089 269.591 377.65 265.71C377.44 263.57 377.12 261.53 376.76 259.55C375.4 259.67 369.16 260.16 366.32 259.18C363.48 258.2 360.4 256.28 359.46 253.38C359.216 252.706 359.117 251.988 359.169 251.273C359.221 250.558 359.423 249.862 359.762 249.23C360.1 248.598 360.568 248.044 361.134 247.605C361.701 247.166 362.354 246.851 363.05 246.68C367.26 245.77 372.95 251.08 374.88 254.42C374.98 254.6 375.88 256.56 376.45 258C376.28 257.11 376.11 256.19 375.93 255.34C375.24 252.15 374.41 249.27 373.66 246.73C373.22 245.29 372.79 243.99 372.38 242.73C370.98 242.15 365.38 239.73 363.38 237.61C361.38 235.49 359.46 232.31 359.96 229.31C360.052 228.598 360.293 227.914 360.668 227.302C361.042 226.69 361.542 226.164 362.133 225.758C362.725 225.352 363.396 225.076 364.102 224.947C364.808 224.818 365.533 224.84 366.23 225.01C370.39 226.15 372.99 233.48 373.17 237.33C373.17 237.67 372.82 242.89 372.75 242.86H372.66C373.08 244.02 373.52 245.26 373.97 246.63C374.78 249.16 375.67 252.03 376.43 255.21C377.296 258.635 377.964 262.108 378.43 265.61C378.954 269.53 379.132 273.489 378.96 277.44C378.954 277.487 378.954 277.534 378.96 277.58C379.4 276.39 380.75 273.12 380.88 272.88C382.73 269.51 388.3 264.07 392.54 264.88C393.239 265.036 393.898 265.337 394.473 265.765C395.049 266.192 395.528 266.735 395.88 267.359C396.231 267.983 396.448 268.675 396.515 269.388C396.582 270.102 396.499 270.821 396.27 271.5C395.39 274.42 392.27 276.5 389.54 277.5C386.49 278.63 379.47 278.12 378.92 278.08C378.576 282.089 377.968 286.071 377.1 290C376.64 292.3 376.1 294.6 375.54 296.9C375.95 295.9 376.33 294.99 376.4 294.9C378.26 291.52 383.83 286.09 388.06 286.9C388.76 287.055 389.42 287.355 389.996 287.782C390.572 288.209 391.052 288.752 391.404 289.377C391.756 290.001 391.972 290.693 392.039 291.407C392.105 292.121 392.02 292.841 391.79 293.52C390.91 296.43 387.79 298.46 385.06 299.46C382.33 300.46 376.33 300.17 374.74 300.06C374.52 300.94 374.3 301.83 374.07 302.7C372.97 306.92 371.86 311.13 370.89 315.29C370.55 316.76 370.26 318.21 369.98 319.67C370.35 318.77 370.66 318.02 370.72 317.91C372.58 314.53 378.15 309.1 382.39 309.91C383.089 310.066 383.748 310.367 384.323 310.795C384.899 311.222 385.378 311.765 385.73 312.389C386.081 313.013 386.298 313.705 386.365 314.418C386.432 315.132 386.349 315.851 386.12 316.53C385.24 319.44 382.12 321.47 379.38 322.47C376.64 323.47 371.24 323.2 369.38 323.09C369.13 324.59 368.88 326.09 368.7 327.56C368.61 328.56 368.45 329.56 368.4 330.56L368.22 333.56C368.17 335.46 368.11 337.41 368.11 339.26C368.11 340.55 368.11 341.78 368.11 343.01C368.43 341.55 369.11 338.7 369.21 338.47C370.493 335.334 372.559 332.58 375.21 330.47C375.337 330.122 375.498 329.787 375.69 329.47C376.034 328.842 376.505 328.293 377.075 327.859C377.644 327.425 378.299 327.115 378.995 326.95C379.692 326.785 380.416 326.768 381.119 326.901C381.823 327.034 382.491 327.313 383.08 327.72C386.56 330.28 386.35 338.06 385.08 341.72C385.01 341.93 383.97 344.19 383.29 345.6C383.82 344.83 384.29 344.08 384.87 343.29C385.95 341.74 387.07 340.21 388.28 338.57L390.12 336.23C390.72 335.44 391.45 334.67 392.12 333.88C393.72 332.09 395.42 330.34 397.17 328.62C395.8 327.67 391.02 324.23 389.53 321.76C388.04 319.29 386.83 315.76 387.97 312.91C388.214 312.241 388.595 311.631 389.089 311.118C389.583 310.606 390.179 310.202 390.838 309.934C391.498 309.665 392.206 309.538 392.917 309.56C393.629 309.581 394.328 309.752 394.97 310.06C398.79 312.06 399.76 319.78 399.11 323.58C399.11 323.81 398.29 326.49 397.84 327.94C398.9 326.94 399.95 325.89 401.06 324.89C404.26 321.99 407.58 319.16 410.88 316.33L413.88 313.7C413.39 313.37 407.61 309.4 405.94 306.63C404.45 304.17 403.25 300.63 404.38 297.79C404.624 297.121 405.005 296.511 405.499 295.998C405.993 295.485 406.588 295.081 407.247 294.812C407.906 294.543 408.614 294.414 409.326 294.434C410.038 294.455 410.737 294.624 411.38 294.93C415.2 296.93 416.17 304.65 415.52 308.45C415.52 308.74 414.35 312.58 414.02 313.54C416.23 311.62 418.41 309.67 420.48 307.67C423.343 304.961 426.022 302.065 428.5 299C428.27 298.84 422.23 294.73 420.5 291.89C419.01 289.42 417.8 285.89 418.93 283.04C419.175 282.367 419.56 281.752 420.058 281.237C420.556 280.721 421.157 280.316 421.821 280.047C422.486 279.779 423.199 279.653 423.916 279.677C424.632 279.702 425.335 279.877 425.98 280.19C429.8 282.19 430.77 289.91 430.12 293.71C430.07 294.01 428.86 298.14 428.59 298.87C428.73 298.7 428.89 298.53 429.03 298.35C431.395 295.244 433.48 291.935 435.26 288.46C436.26 286.55 437.12 284.67 437.91 282.83C436.7 282.18 431.23 279.14 429.41 276.76C427.59 274.38 426.07 271.07 426.88 268.14C427.047 267.442 427.359 266.788 427.797 266.219C428.234 265.65 428.786 265.18 429.418 264.839C430.049 264.499 430.745 264.295 431.461 264.242C432.176 264.188 432.895 264.287 433.57 264.53C437.57 266.1 439.4 273.66 439.17 277.53C439.17 277.74 438.79 279.85 438.51 281.38C438.85 280.55 439.22 279.69 439.51 278.88C440.69 275.88 441.59 272.98 442.37 270.44C442.8 269 443.16 267.68 443.48 266.44C442.63 265.18 439.27 260.08 438.76 257.18C438.25 254.28 438.42 250.59 440.49 248.37C440.96 247.829 441.539 247.392 442.188 247.089C442.838 246.786 443.544 246.623 444.261 246.611C444.978 246.599 445.689 246.738 446.349 247.018C447.008 247.299 447.602 247.715 448.09 248.24C450.94 251.49 449.09 259.04 447.09 262.34C446.92 262.63 443.73 266.79 443.69 266.73L443.63 266.65C443.35 267.85 443.02 269.12 442.63 270.51C442 273 441.12 275.92 440 279C438.825 282.331 437.456 285.59 435.9 288.76C434.178 292.319 432.14 295.716 429.81 298.91C429.783 298.949 429.753 298.986 429.72 299.02C430.72 298.28 433.67 296.29 433.91 296.16C437.32 294.37 444.97 292.91 448.05 295.93C448.547 296.446 448.931 297.061 449.175 297.734C449.42 298.408 449.52 299.126 449.469 299.84C449.418 300.555 449.217 301.251 448.88 301.884C448.542 302.516 448.075 303.07 447.51 303.51C445.17 305.46 441.41 305.41 438.61 304.75Z" fill="black"/>
<path opacity="0.1" d="M377.14 258.87C377.06 258.87 377.69 253.68 377.77 253.35C378.67 249.61 382.61 242.9 386.91 242.57C387.625 242.535 388.34 242.651 389.008 242.911C389.676 243.171 390.282 243.568 390.785 244.078C391.289 244.587 391.68 245.197 391.932 245.868C392.185 246.539 392.293 247.255 392.25 247.97C392.18 250.97 389.67 253.8 387.33 255.48C384.58 257.45 377.14 258.86 377.14 258.87Z" fill="black"/>
</g>
<path d="M188.65 0.360107L201.15 119.15" stroke="#263238" stroke-linecap="round" stroke-linejoin="round"/>
<path d="M226.14 25.6001L216.82 27.7401L208.29 44.6101L194.78 40.7501L194.4 44.4301L211.2 51.4001L217.21 43.0601V57.6101L235.25 58.3901L238.94 41.9001L245.53 47.7201V63.0401H249.41L251.74 43.8401L241.46 27.1601L226.14 25.6001Z" fill="white" stroke="#263238" stroke-linecap="round" stroke-linejoin="round"/>
<path d="M217.21 43.0601L217.07 34.8501" stroke="#263238" stroke-linecap="round" stroke-linejoin="round"/>
<path d="M226 31.0001L228.53 35.7501C228.53 35.7501 235.53 37.9701 236.77 38.2801C238.01 38.5901 241.84 37.3301 245 36.7001C248.16 36.0701 258.31 41.1301 258.31 41.1301L267.18 41.4501L262.43 35.7501L245.32 33.2101L236.45 36.0701L230.45 34.4801L231.73 32.0001L228.88 27.5601L226 31.0001Z" fill="black" stroke="#263238" stroke-linecap="round" stroke-linejoin="round"/>
<path d="M226.91 24.2402C226.395 24.1428 225.862 24.2517 225.426 24.5435C224.99 24.8353 224.686 25.2866 224.58 25.8002C224.2 27.7402 223.81 32.5902 223.81 32.5902L228.46 31.2302L233.9 33.5602C233.9 33.5602 235.64 28.5102 234.67 26.7702C233.7 25.0302 229.24 22.6902 226.91 24.2402Z" fill="white" stroke="#263238" stroke-linecap="round" stroke-linejoin="round"/>
<path d="M225.94 21.53C225.94 21.53 226.52 26.96 226.72 28.9C226.92 30.84 228.08 33.75 228.85 33.17C229.62 32.59 232.34 27.17 232.34 27.17L233.7 23.49L225.94 21.53Z" fill="white" stroke="#263238" stroke-linecap="round" stroke-linejoin="round"/>
<path d="M226 13.6001C226 13.6001 224.3 13.4501 224.3 16.2301C224.3 19.0101 225.53 19.1601 225.53 19.1601L226 13.6001Z" fill="white" stroke="#263238" stroke-linecap="round" stroke-linejoin="round"/>
<path d="M237.37 15.9202C237.59 15.932 237.805 15.9919 238 16.0957C238.195 16.1995 238.364 16.3446 238.497 16.521C238.629 16.6973 238.721 16.9005 238.767 17.1163C238.812 17.3322 238.81 17.5553 238.76 17.7702C238.45 19.4702 235.52 21.7702 235.52 21.7702L237.37 15.9202Z" fill="white" stroke="#263238" stroke-linecap="round" stroke-linejoin="round"/>
<path d="M231.76 8.00002C231.76 8.00002 228.66 7.22002 226.91 10.91C225.16 14.6 225.55 19.06 225.91 21.58C226.27 24.1 228.63 25.26 230.96 25.26C233.29 25.26 236.77 20.42 237.55 16.73C238.33 13.04 237.77 8.00002 231.76 8.00002Z" fill="white" stroke="#263238" stroke-linecap="round" stroke-linejoin="round"/>
<path d="M191.03 38.6002L191.8 44.4202L195.29 44.8102L194.71 38.2102L191.03 38.6002Z" fill="white" stroke="#263238" stroke-linecap="round" stroke-linejoin="round"/>
<path d="M194.78 38.5101L196.19 38.3201L196.47 41.4201L195.06 41.6101L194.78 38.5101Z" fill="white" stroke="#263238" stroke-linecap="round" stroke-linejoin="round"/>
<path d="M245.53 63.04L243.41 66.36L243.96 69.69L245.81 69.51L248.96 68.4L249.41 63.04H245.53Z" fill="white" stroke="#263238" stroke-linecap="round" stroke-linejoin="round"/>
<path d="M217.21 57.6101L215.84 63.5901L200.66 83.5701L210.84 112.26L213.43 111.7L211.21 84.3101L223.61 71.1701L225.09 72.1001L225.13 86.7601L239.34 110.78L242.3 110.03L235.64 86.9001L236.01 62.2901L235.25 58.3901L217.21 57.6101Z" fill="#263238" stroke="#263238" stroke-linecap="round" stroke-linejoin="round"/>
<path d="M210.84 112.26L208.62 115.4C208.62 115.4 205.1 117.07 204.55 117.99C204 118.91 207.55 118.73 207.55 118.73L211.62 118.36L215.88 115.59L213.47 111.7L210.84 112.26Z" fill="white" stroke="#263238" stroke-linecap="round" stroke-linejoin="round"/>
<path d="M189.18 4.59009C189.18 4.59009 187.32 8.83009 179.64 11.7401C171.96 14.6501 160.84 16.2401 157.93 22.3301C155.02 28.4201 155.02 27.9001 154.49 31.3301C154.207 33.3351 153.276 35.1927 151.84 36.6201C151.84 36.6201 154.49 36.8901 155.84 35.0401C157.19 33.1901 157.7 27.8901 159.84 27.0901C161.98 26.2901 165.87 25.0001 165.87 25.0001C165.87 25.0001 162.17 28.1801 161.87 29.7701C161.57 31.3601 161.34 35.0701 160.81 37.4501C160.579 38.7513 159.946 39.9474 159 40.8701C159 40.8701 162.44 40.8701 163.5 38.4901C164.56 36.1101 163.5 32.9301 166.94 30.5401C170.38 28.1501 174.09 29.2201 179.94 29.4801C185.79 29.7401 191.33 26.3101 191.33 26.3101L189.18 4.59009Z" fill="black" stroke="#263238" stroke-linecap="round" stroke-linejoin="round"/>
<path d="M239.34 110.78L236.79 119.25L243.12 119L242.3 110.03L239.34 110.78Z" fill="white" stroke="#263238" stroke-linecap="round" stroke-linejoin="round"/>
<path d="M229.64 15.43C229.53 15.93 229.18 16.28 228.84 16.21C228.5 16.14 228.32 15.67 228.43 15.21C228.54 14.75 228.89 14.36 229.23 14.43C229.57 14.5 229.74 14.93 229.64 15.43Z" fill="#263238"/>
<path d="M234.27 16.5101C234.16 17.0101 233.81 17.3601 233.47 17.2901C233.13 17.2201 232.95 16.7501 233.06 16.2901C233.17 15.8301 233.52 15.4401 233.86 15.5101C234.2 15.5801 234.37 16.0001 234.27 16.5101Z" fill="#263238"/>
<path d="M231.19 16.0701L229.96 19.7801H231.97" stroke="#263238" stroke-linecap="round" stroke-linejoin="round"/>
<path d="M228.42 20.8601C228.42 20.8601 229.5 22.7101 232.28 21.6301" stroke="#263238" stroke-linecap="round" stroke-linejoin="round"/>
<path d="M228.26 12.8302C228.662 12.613 229.127 12.5402 229.576 12.6239C230.025 12.7076 230.433 12.9427 230.73 13.2902" stroke="#263238" stroke-linecap="round" stroke-linejoin="round"/>
<path d="M233.05 13.9101C233.32 13.7618 233.619 13.6722 233.926 13.6473C234.234 13.6224 234.543 13.6627 234.834 13.7656C235.125 13.8685 235.39 14.0317 235.614 14.2444C235.837 14.4572 236.013 14.7147 236.13 15.0001" stroke="#263238" stroke-linecap="round" stroke-linejoin="round"/>
<path d="M225.33 12.3701L236.44 11.0001C236.44 11.0001 235.98 12.8502 236.6 13.3102C237.22 13.7702 237.37 15.9401 237.37 15.9401L236.91 18.4101L239.38 14.0901C239.38 14.0901 240.15 10.6902 239.53 9.61015C239.327 9.2842 239.057 9.0051 238.738 8.79132C238.419 8.57755 238.059 8.43399 237.68 8.37015C237.019 7.36969 236.087 6.57798 234.992 6.08749C233.898 5.59701 232.687 5.42798 231.5 5.60015C227.18 6.06015 225.33 8.22015 225.33 9.92015V12.3701Z" fill="#263238" stroke="#263238" stroke-linecap="round" stroke-linejoin="round"/>
<path d="M217.13 432.2L236.73 319.73L162.75 251.84L189.6 160.36L160.86 161L148.72 171.86L123.35 171.24L119.92 183.61L112.96 182.74L110.56 187.08L98.6898 210.78L92.5198 234.45L69.5198 263.2L66.9998 331.04L29.9198 384.56L18.2598 432.2H217.13Z" fill="#808080" stroke="#39515E" stroke-linecap="round" stroke-linejoin="round"/>
<path d="M384.06 432.2L359.51 378.37L399.51 405.02V362.37L376 334.52L379.48 303.19L343.78 235.3L342 211.8L329.82 200.48L267.3 205L262.84 183.05L222.84 160.42L198.84 218.53L176.73 228.31L192.31 249.67L189.79 266.6L195 292.74L108 311.89C108 311.89 107.13 353.67 107.13 357.15C107.13 360.63 89.7197 380.65 89.7197 380.65L88.9097 432.2H384.06Z" fill="#ABABAB" stroke="#39515E" stroke-linecap="round" stroke-linejoin="round"/>
<path d="M432.51 432.2L422.12 427.65L409.06 399.8L393.39 388.49L386.43 371.95L379.47 358.89L342.27 340.72L348.04 432.2H432.51Z" fill="#CCCCCC" stroke="#39515E" stroke-linecap="round" stroke-linejoin="round"/>
<path d="M43.1497 432.09H89.6597L90.4997 405.02L86.1497 389.36V347.58L75.7097 345.84L66.9997 355.41L53.0797 363.25L22.9097 432.2H43.1497V432.09Z" fill="#CCCCCC" stroke="#39515E" stroke-linecap="round" stroke-linejoin="round"/>
<path d="M59.2397 386.77L60.2598 382.43" stroke="#39515E" stroke-miterlimit="10"/>
<path d="M43.1499 432.2L49.3499 407.71L55.1999 403.99L58.6199 389.41" stroke="#39515E" stroke-miterlimit="10"/>
<path d="M33.1099 432.46L42.9599 404.52" stroke="#39515E" stroke-miterlimit="10"/>
<path d="M75.8496 357.4L74.8896 361.94" stroke="#39515E" stroke-miterlimit="10"/>
<path d="M78.0798 346.78L76.2598 355.45" stroke="#39515E" stroke-miterlimit="10"/>
<path d="M89.6599 432.09L90.4999 405.02L86.1499 389.36V347.58L77.4499 403.28L69.6099 405.89L66.9999 421.56L65.3799 432.09H89.6599Z" fill="white" stroke="#39515E" stroke-linecap="round" stroke-linejoin="round"/>
<path d="M238.61 401.22C243.558 400.55 248.396 399.232 253 397.3C256.676 395.801 259.91 393.392 262.4 390.3C262.69 389.91 262.96 389.5 263.22 389.09L256.35 358.09L242.8 346.27L240.54 336.13L227.54 325.99L223.04 341.77L215.71 351.91L215.15 389.1L222.15 402.48C227.659 402.433 233.158 402.012 238.61 401.22V401.22Z" fill="white" stroke="#39515E" stroke-linecap="round" stroke-linejoin="round"/>
<path d="M238.61 401.22L237.23 389.64L241.3 378.67V372.17L240.48 362.01" stroke="#39515E" stroke-miterlimit="10"/>
<path d="M246.86 366.02L249.02 378.26L253.08 379.07L252.27 389.23L253.89 394.52" stroke="#39515E" stroke-miterlimit="10"/>
<path d="M245.36 357.54L246.08 361.62" stroke="#39515E" stroke-miterlimit="10"/>
<path d="M231.95 331.53L235.2 364.85" stroke="#39515E" stroke-miterlimit="10"/>
<path d="M192.25 400.39C201.599 401.811 211.043 402.513 220.5 402.49C222.4 402.49 224.26 402.44 226.09 402.37L225.89 391.91L222.51 387.41V355.29L228.15 349.65L227.58 326L220.82 338.4L211.82 346.28L206.18 362.62L197.18 373.33L194.92 384.6L184.22 393.6L179.95 398.15C183.983 399.01 188.083 399.757 192.25 400.39Z" fill="#CCCCCC" stroke="#39515E" stroke-linecap="round" stroke-linejoin="round"/>
<path d="M355.1 432.2L402.35 432.11L341.17 395.45L326.38 359.76L314.19 358.02L303.75 344.1L298.52 349.32L302 379.78L288.95 401.54V415.47L282.86 431.13L312.3 432.2H355.1Z" fill="white" stroke="#39515E" stroke-linecap="round" stroke-linejoin="round"/>
<path d="M331.4 432.14L329.17 419.69L332.68 412.34L331.72 397.97L334.6 400.85L354.08 432.14H331.4Z" fill="#CCCCCC" stroke="#39515E" stroke-linecap="round" stroke-linejoin="round"/>
<path d="M331.72 397.97L345.46 404.68L350.88 411.38L366.53 419.37L377.39 426.08L384.06 432.2L354.08 432.14L331.72 397.97Z" fill="white" stroke="#39515E" stroke-linecap="round" stroke-linejoin="round"/>
<path d="M288.95 401.54V415.47L282.39 431.92L307.24 432.24L302 402.41L312.45 392.84L298.52 349.32L302 379.78L288.95 401.54Z" fill="#CCCCCC" stroke="#39515E" stroke-linecap="round" stroke-linejoin="round"/>
<path d="M314.19 358.02L323.38 377.45L327.44 377.86L330.69 387.61" stroke="#39515E" stroke-miterlimit="10"/>
<path d="M320.36 416.8L321.76 421.34" stroke="#39515E" stroke-miterlimit="10"/>
<path d="M314.85 381.51L317.69 392.49L322.57 400.61L316.88 405.49L319.34 413.48" stroke="#39515E" stroke-miterlimit="10"/>
<path d="M198.74 158.25L178.34 180.56L177.64 139.66L197.95 115L198.74 158.25Z" fill="#CCCCCC" stroke="#39515E" stroke-linecap="round" stroke-linejoin="round"/>
<path d="M184.58 247.57L205.44 229.16C206.936 227.862 208.601 226.772 210.39 225.92C212.634 224.855 214.979 224.018 217.39 223.42C220.48 222.668 223.622 222.147 226.79 221.86C230.778 221.492 234.785 221.345 238.79 221.42C248.473 221.548 258.133 222.401 267.69 223.97C275.632 225.285 283.485 227.099 291.2 229.4C298.14 231.47 304.2 233.69 309.43 235.74C314.66 237.79 318.98 239.67 322.48 241.05L295.41 258.6C292.1 257.3 287.99 255.53 283.06 253.6C278.13 251.67 272.38 249.6 265.81 247.6C258.512 245.432 251.084 243.732 243.57 242.51C234.522 241.039 225.376 240.251 216.21 240.15C212.411 240.085 208.612 240.231 204.83 240.59C201.833 240.866 198.862 241.364 195.94 242.08C193.641 242.644 191.406 243.442 189.27 244.46C187.573 245.281 185.996 246.327 184.58 247.57V247.57Z" fill="#CCCCCC" stroke="#39515E" stroke-linecap="round" stroke-linejoin="round"/>
<path d="M251 398.11L227.46 407.11C229.517 406.346 231.488 405.367 233.34 404.19C234.98 403.144 236.457 401.86 237.72 400.38C238.912 398.978 239.834 397.368 240.44 395.63C241.063 393.779 241.354 391.832 241.3 389.88C241.283 386.474 240.238 383.152 238.3 380.35C235.815 377.055 232.641 374.342 229 372.4C223.755 369.535 218.242 367.19 212.54 365.4C205.74 363.11 197.54 360.85 187.89 358.5C174.747 355.439 161.877 351.306 149.41 346.14C138.151 341.526 127.581 335.381 118 327.88C109.2 321.006 101.952 312.35 96.73 302.48C91.435 291.991 88.6938 280.4 88.73 268.65C88.6799 263.878 89.0144 259.109 89.73 254.39C90.4132 249.854 91.4838 245.384 92.93 241.03C94.354 236.764 96.1509 232.631 98.3 228.68C100.465 224.726 102.972 220.969 105.79 217.45L122 197.12C116.022 204.557 111.423 213.003 108.42 222.06C106.874 226.663 105.73 231.39 105 236.19C104.259 241.188 103.925 246.238 104 251.29C103.992 263.746 106.921 276.028 112.55 287.14C118.088 297.603 125.768 306.782 135.09 314.08C144.57 321.71 155.84 328.08 168.37 333.41C181.561 338.895 195.18 343.29 209.09 346.55C219.34 349.05 227.97 351.46 235.16 353.89C241.196 355.808 247.027 358.316 252.57 361.38C257.05 363.99 260.26 366.75 262.38 369.79C264.446 372.751 265.566 376.269 265.59 379.88C265.657 381.948 265.352 384.01 264.69 385.97C264.053 387.799 263.083 389.494 261.83 390.97C260.493 392.526 258.933 393.874 257.2 394.97C255.25 396.232 253.171 397.285 251 398.11V398.11Z" fill="#CCCCCC" stroke="#39515E" stroke-linecap="round" stroke-linejoin="round"/>
<path d="M135.09 314.08C144.57 321.71 155.84 328.08 168.37 333.41C181.561 338.895 195.18 343.29 209.09 346.55C219.34 349.05 227.97 351.46 235.16 353.89C241.196 355.808 247.027 358.316 252.57 361.38C257.05 363.99 260.26 366.75 262.38 369.79C264.446 372.751 265.566 376.269 265.59 379.88C265.755 383.628 264.617 387.317 262.37 390.32C259.88 393.412 256.646 395.821 252.97 397.32C248.375 399.249 243.547 400.567 238.61 401.24C232.613 402.108 226.56 402.532 220.5 402.51C211.043 402.533 201.599 401.831 192.25 400.41C183.272 399.049 174.386 397.142 165.64 394.7C157.14 392.33 149.05 389.59 141.51 386.7C133.97 383.81 126.97 380.7 120.66 377.7L107.88 432H337.57C344.727 424.028 350.327 414.785 354.08 404.75C358.013 394.058 359.84 382.706 359.46 371.32C359.12 359.15 357.27 348.32 353.64 338.61C350.028 328.903 344.405 320.07 337.14 312.69C329.67 305.03 320.14 298.28 308.28 292.26C296.42 286.24 282.14 280.91 265.28 276.1C254.426 272.94 244.936 269.907 236.81 267C229.871 264.599 223.103 261.732 216.55 258.42C211.15 255.59 207.1 252.78 204.4 249.9C201.7 247.02 200.32 244.09 200.26 241.01C200.184 238.491 200.726 235.991 201.84 233.73C203.228 231.101 205.301 228.897 207.84 227.35C211.487 225.152 215.507 223.643 219.7 222.9C226.018 221.718 232.445 221.218 238.87 221.41C248.553 221.538 258.214 222.391 267.77 223.96C275.713 225.275 283.565 227.089 291.28 229.39C298.22 231.46 304.28 233.68 309.51 235.73C314.74 237.78 319.06 239.66 322.56 241.04L337.44 174.04C332.76 172.04 327.73 170.04 322.22 168.14C316.71 166.24 310.71 164.46 304.12 162.85C297.53 161.24 290.33 159.85 282.41 158.64C274.49 157.43 265.82 156.57 256.32 156.01L255.45 116.39L198 115L198.79 158.25C184.819 160.178 171.187 164.052 158.29 169.76C147.185 174.667 137.049 181.521 128.36 190C120.41 197.85 114.161 207.251 110 217.62C105.803 228.339 103.764 239.781 104 251.29C103.992 263.746 106.921 276.028 112.55 287.14C118.088 297.603 125.768 306.782 135.09 314.08V314.08Z" fill="white" stroke="#39515E" stroke-linecap="round" stroke-linejoin="round"/>
<path d="M107.88 432L120.66 377.67L104.29 387.91L93.8696 432H107.88Z" fill="#CCCCCC" stroke="#39515E" stroke-linecap="round" stroke-linejoin="round"/>
<path d="M384.15 418.89C383.143 418.7 382.101 418.904 381.24 419.46L385.72 422.15C385.84 421.833 385.893 421.496 385.878 421.158C385.863 420.82 385.78 420.489 385.633 420.184C385.486 419.879 385.279 419.607 385.024 419.385C384.769 419.162 384.472 418.994 384.15 418.89V418.89Z" fill="#263238"/>
<path d="M385.41 383.49C385.41 383.49 386.01 380.97 386.03 380.81C386.23 378.92 385.5 375.14 383.55 374.27C383.222 374.135 382.869 374.071 382.515 374.083C382.16 374.094 381.812 374.179 381.493 374.334C381.174 374.489 380.891 374.709 380.663 374.981C380.435 375.252 380.267 375.569 380.17 375.91C379.7 377.34 380.41 379.05 381.22 380.22C382.18 381.6 385.41 383.48 385.41 383.49Z" fill="#263238"/>
<path d="M415.06 398.87C416.28 397.4 417.75 393.87 416.6 392.05C416.402 391.756 416.144 391.507 415.843 391.32C415.541 391.133 415.204 391.012 414.852 390.964C414.501 390.917 414.143 390.945 413.803 391.046C413.463 391.147 413.149 391.319 412.88 391.55C412.339 392.094 411.925 392.751 411.665 393.473C411.406 394.196 411.309 394.966 411.38 395.73C411.38 397.4 413.07 400.73 413.08 400.73C413.09 400.73 415 399 415.06 398.87Z" fill="#263238"/>
<path d="M373.86 412.77C375.273 413.672 376.818 414.347 378.44 414.77C378.31 415.51 378.18 416.25 378.02 416.96C378.02 417.14 377.93 417.32 377.89 417.51L378.83 418.07C378.89 417.78 378.95 417.48 379.02 417.19C379.25 416.02 379.44 414.83 379.59 413.63C381.195 414.222 382.882 414.559 384.59 414.63C385.363 414.61 386.121 414.42 386.812 414.074C387.504 413.729 388.11 413.236 388.59 412.63C388.782 412.33 388.909 411.993 388.962 411.642C389.016 411.29 388.995 410.931 388.9 410.587C388.806 410.244 388.641 409.925 388.415 409.649C388.189 409.374 387.908 409.15 387.59 408.99C385.66 408.08 382.32 409.99 381.01 411.38C380.93 411.47 380.11 412.57 379.67 413.19C379.76 412.46 379.85 411.74 379.92 411C380.11 408.88 380.24 406.72 380.37 404.57C380.37 403.92 380.46 403.26 380.51 402.57C380.79 402.67 384.07 403.77 385.67 403.57C387.08 403.42 388.85 402.84 389.67 401.57C389.862 401.271 389.989 400.935 390.042 400.584C390.095 400.233 390.074 399.874 389.98 399.532C389.886 399.189 389.72 398.871 389.495 398.596C389.269 398.322 388.988 398.099 388.67 397.94C386.74 397.03 383.4 398.94 382.09 400.33C382 400.44 380.81 402.03 380.53 402.44C380.63 401 380.75 399.56 380.92 398.14C381.135 396.231 381.469 394.337 381.92 392.47C382.05 392.47 385.48 393.68 387.11 393.47C388.53 393.32 390.29 392.74 391.11 391.47C391.302 391.171 391.429 390.835 391.482 390.484C391.535 390.133 391.514 389.774 391.42 389.432C391.326 389.089 391.16 388.771 390.935 388.496C390.709 388.222 390.428 387.998 390.11 387.84C388.18 386.92 384.84 388.84 383.54 390.23C383.43 390.34 382.16 392.05 381.95 392.37C381.95 392.26 382 392.15 382.03 392.04C382.554 390.183 383.24 388.376 384.08 386.64C384.53 385.64 385.02 384.77 385.51 383.91C386.13 384.19 388.96 385.45 390.44 385.46C391.92 385.47 393.68 385.09 394.6 383.89C394.825 383.615 394.99 383.297 395.084 382.954C395.177 382.612 395.198 382.254 395.144 381.903C395.091 381.552 394.964 381.216 394.772 380.918C394.58 380.619 394.327 380.364 394.03 380.17C392.22 379.05 388.69 380.59 387.24 381.83C387.16 381.9 386.43 382.67 385.91 383.24C386.14 382.85 386.37 382.45 386.6 382.08C387.45 380.71 388.31 379.51 389.08 378.44C389.52 377.84 389.93 377.31 390.32 376.81C392.046 376.776 393.756 376.476 395.39 375.92C396.65 375.27 398.09 374.09 398.39 372.61C398.457 372.266 398.452 371.912 398.376 371.57C398.299 371.229 398.152 370.907 397.944 370.625C397.736 370.343 397.472 370.107 397.169 369.932C396.865 369.757 396.528 369.648 396.18 369.61C394.05 369.46 391.63 372.45 390.91 374.21C390.85 374.37 390.15 376.86 390.19 376.86H390.24C389.85 377.33 389.44 377.86 389.01 378.4C388.21 379.45 387.32 380.64 386.44 382C385.48 383.457 384.602 384.966 383.81 386.52C382.916 388.261 382.18 390.078 381.61 391.95C381.61 391.95 381.61 392 381.61 392.02C381.61 391.39 381.52 389.65 381.5 389.51C381.19 387.63 379.5 384.18 377.38 383.86C377.028 383.818 376.671 383.85 376.332 383.955C375.994 384.059 375.68 384.233 375.413 384.466C375.145 384.698 374.929 384.984 374.779 385.305C374.629 385.626 374.547 385.975 374.54 386.33C374.47 387.84 375.61 389.33 376.7 390.22C377.94 391.22 381.29 392.22 381.56 392.22C381.029 394.138 380.625 396.089 380.35 398.06C380.18 399.21 380.05 400.37 379.94 401.54C379.94 401 379.88 400.54 379.87 400.45C379.56 398.57 377.87 395.11 375.75 394.8C375.398 394.756 375.041 394.787 374.702 394.891C374.363 394.995 374.05 395.169 373.783 395.402C373.516 395.635 373.301 395.922 373.152 396.244C373.004 396.566 372.925 396.915 372.92 397.27C372.85 398.77 373.99 400.27 375.08 401.15C376.539 402.053 378.127 402.728 379.79 403.15C379.79 403.59 379.7 404.04 379.67 404.49C379.48 406.64 379.31 408.78 379.07 410.88C378.99 411.62 378.88 412.35 378.77 413.07C378.77 412.59 378.77 412.19 378.77 412.13C378.46 410.25 376.77 406.8 374.65 406.48C374.298 406.436 373.941 406.467 373.602 406.571C373.263 406.675 372.95 406.849 372.683 407.082C372.416 407.315 372.201 407.602 372.052 407.924C371.904 408.246 371.825 408.595 371.82 408.95C371.63 410.39 372.77 411.86 373.86 412.77Z" fill="#263238"/>
<path d="M429.71 395.05C428.02 393.74 424.35 394.9 422.78 395.98C422.64 396.07 420.68 397.77 420.72 397.79C420.14 397.96 419.52 398.16 418.84 398.39C417.6 398.83 416.2 399.33 414.72 399.98C413.11 400.656 411.544 401.431 410.03 402.3C408.325 403.258 406.709 404.366 405.2 405.61L405.15 405.66C405.48 405.13 406.38 403.66 406.43 403.51C407.21 401.77 407.7 397.95 406.11 396.51C405.841 396.28 405.526 396.11 405.186 396.01C404.846 395.91 404.489 395.882 404.138 395.929C403.787 395.977 403.45 396.097 403.149 396.283C402.848 396.47 402.589 396.717 402.39 397.01C401.5 398.22 401.64 400.07 402.04 401.44C402.51 402.98 404.79 405.6 404.98 405.81C403.472 407.108 402.058 408.512 400.75 410.01C399.97 410.88 399.22 411.77 398.48 412.68C398.76 412.22 399 411.8 399.03 411.74C399.81 410 400.3 406.18 398.71 404.74C398.441 404.51 398.126 404.34 397.786 404.24C397.446 404.14 397.089 404.112 396.738 404.159C396.387 404.207 396.05 404.327 395.749 404.513C395.448 404.7 395.189 404.947 394.99 405.24C394.1 406.45 394.24 408.31 394.65 409.67C395.369 411.224 396.324 412.657 397.48 413.92L396.64 414.92C395.3 416.62 393.97 418.31 392.64 419.92C392.17 420.49 391.64 421.04 391.19 421.58L391.66 420.76C392.44 419.03 392.93 415.21 391.34 413.76C391.071 413.53 390.756 413.36 390.416 413.26C390.076 413.16 389.719 413.132 389.368 413.179C389.017 413.227 388.68 413.347 388.379 413.533C388.078 413.72 387.819 413.967 387.62 414.26C386.73 415.47 386.87 417.32 387.28 418.69C387.948 420.264 388.867 421.72 390 423L389 424.08L389.88 424.61C390.49 423.98 391.08 423.32 391.67 422.61C392.686 423.976 393.907 425.177 395.29 426.17C395.946 426.571 396.681 426.823 397.445 426.909C398.208 426.996 398.981 426.914 399.71 426.67C400.035 426.53 400.327 426.322 400.566 426.061C400.806 425.8 400.988 425.492 401.1 425.156C401.212 424.82 401.252 424.464 401.218 424.112C401.184 423.759 401.075 423.418 400.9 423.11C399.79 421.28 395.9 421.04 394.1 421.48C393.98 421.48 392.69 421.97 391.98 422.24C392.45 421.68 392.93 421.13 393.39 420.55C394.72 418.89 396.02 417.16 397.32 415.44L398.52 413.88C398.7 414.11 400.84 416.88 402.26 417.58C402.915 417.979 403.648 418.23 404.41 418.316C405.171 418.402 405.943 418.322 406.67 418.08C406.995 417.94 407.287 417.732 407.526 417.471C407.766 417.21 407.948 416.902 408.06 416.566C408.172 416.23 408.213 415.874 408.178 415.522C408.144 415.169 408.035 414.828 407.86 414.52C406.76 412.69 402.92 412.44 401.06 412.88C400.92 412.88 399.06 413.59 398.6 413.78C399.48 412.63 400.37 411.5 401.3 410.41C402.538 408.935 403.874 407.545 405.3 406.25C405.38 406.36 407.59 409.25 409.05 409.98C410.31 410.64 412.1 411.13 413.46 410.48C413.786 410.341 414.079 410.134 414.319 409.873C414.56 409.613 414.743 409.305 414.856 408.969C414.969 408.633 415.01 408.276 414.977 407.923C414.943 407.57 414.835 407.229 414.66 406.92C413.55 405.09 409.71 404.85 407.86 405.28C407.71 405.28 405.71 406.04 405.35 406.2L405.6 405.96C407.061 404.7 408.63 403.573 410.29 402.59C411.2 402.03 412.1 401.59 412.99 401.11C413.35 401.68 414.99 404.29 416.25 405.11C417.51 405.93 419.16 406.58 420.58 406.11C420.918 406.006 421.231 405.831 421.498 405.598C421.765 405.365 421.979 405.078 422.128 404.757C422.277 404.435 422.357 404.086 422.363 403.732C422.368 403.378 422.299 403.026 422.16 402.7C421.26 400.76 417.47 400.1 415.58 400.33C415.47 400.33 414.44 400.59 413.69 400.78C414.1 400.58 414.51 400.37 414.9 400.19C416.37 399.51 417.75 398.98 418.98 398.52L420.92 397.85C422.377 398.768 423.965 399.459 425.63 399.9C426.386 400.037 427.162 400.007 427.905 399.812C428.648 399.617 429.339 399.261 429.93 398.77C430.176 398.52 430.367 398.221 430.491 397.892C430.614 397.563 430.667 397.212 430.647 396.861C430.626 396.511 430.532 396.168 430.37 395.856C430.209 395.544 429.984 395.27 429.71 395.05Z" fill="#263238"/>
<path d="M378.72 432.16L379.87 432.87L380.58 432.35L380.85 432.15L378.72 432.16Z" fill="#263238"/>
<path d="M47.4099 366C47.113 366.193 46.8599 366.446 46.6671 366.743C46.4742 367.04 46.3458 367.374 46.2902 367.724C46.2346 368.074 46.253 368.431 46.3442 368.773C46.4355 369.115 46.5975 369.435 46.8199 369.71C47.5347 370.537 48.534 371.065 49.6199 371.19L51.7699 366.28C50.2599 365.6 48.5199 365.28 47.4099 366Z" fill="#263238"/>
<path d="M57.36 359.55C56.6837 360.056 56.2032 360.78 56 361.6L59.77 359.49C59.3987 359.287 58.9802 359.185 58.5569 359.196C58.1337 359.206 57.7207 359.328 57.36 359.55V359.55Z" fill="#263238"/>
<path d="M57.9999 323.81C59.2799 324.89 62.8899 325.87 62.8899 325.87C62.8899 325.87 62.8199 323.29 62.7899 323.13C62.4899 321.25 60.7899 317.79 58.6999 317.46C58.3478 317.413 57.9899 317.442 57.6497 317.544C57.3095 317.646 56.9948 317.819 56.7263 318.051C56.4579 318.284 56.2419 318.57 56.0925 318.893C55.9432 319.215 55.8639 319.565 55.8599 319.92C55.8199 321.42 56.9999 322.89 57.9999 323.81Z" fill="#263238"/>
<path d="M31.67 335.15C31.67 335.15 30.18 333.04 30.07 332.92C28.79 331.52 25.47 329.56 23.53 330.45C23.2125 330.608 22.9318 330.83 22.7062 331.104C22.4806 331.377 22.3152 331.695 22.2209 332.036C22.1265 332.378 22.1052 332.736 22.1585 333.086C22.2118 333.437 22.3384 333.772 22.53 334.07C23.29 335.37 25.04 335.97 26.46 336.14C28.11 336.33 31.67 335.16 31.67 335.15Z" fill="#263238"/>
<path d="M29.79 327.17C29.89 327.77 30 328.41 30.13 329.11C30.39 330.4 30.69 331.85 31.13 333.41C31.5755 335.108 32.1232 336.778 32.77 338.41C33.484 340.23 34.3574 341.984 35.38 343.65V343.71C34.91 343.31 33.54 342.21 33.38 342.14C31.77 341.14 28.05 340.14 26.38 341.48C26.1152 341.716 25.9033 342.006 25.7582 342.33C25.6131 342.654 25.5381 343.005 25.5381 343.36C25.5381 343.715 25.6131 344.066 25.7582 344.39C25.9033 344.714 26.1152 345.004 26.38 345.24C27.46 346.29 29.31 346.41 30.72 346.24C32.31 346 35.22 344.09 35.45 343.94C36.5404 345.608 37.7362 347.204 39.03 348.72C39.78 349.6 40.56 350.47 41.36 351.33L40.5 350.65C38.89 349.65 35.17 348.65 33.5 350C33.2366 350.237 33.0259 350.527 32.8817 350.851C32.7376 351.175 32.6631 351.525 32.6631 351.88C32.6631 352.234 32.7376 352.585 32.8817 352.909C33.0259 353.233 33.2366 353.523 33.5 353.76C34.1106 354.225 34.8154 354.551 35.565 354.715C36.3146 354.879 37.091 354.877 37.84 354.71C39.4796 354.211 41.034 353.466 42.45 352.5C42.76 352.82 43.06 353.15 43.37 353.5C44.86 355.06 46.37 356.61 47.77 358.18C48.27 358.73 48.77 359.29 49.22 359.85L48.47 359.27C46.86 358.27 43.14 357.27 41.47 358.61C41.2066 358.847 40.9959 359.137 40.8517 359.461C40.7076 359.785 40.6331 360.135 40.6331 360.49C40.6331 360.844 40.7076 361.195 40.8517 361.519C40.9959 361.843 41.2066 362.133 41.47 362.37C42.55 363.42 44.41 363.54 45.81 363.37C47.4081 362.892 48.9227 362.171 50.3 361.23C50.77 361.81 51.24 362.4 51.67 363C51.95 363.41 52.25 363.78 52.51 364.21V364.27L52.89 363.41L53.11 363.28L52.46 362.4C51.74 361.45 50.97 360.52 50.17 359.61C51.6523 358.789 53.0011 357.747 54.17 356.52C54.657 355.925 55.0086 355.232 55.2003 354.487C55.392 353.743 55.4192 352.966 55.28 352.21C55.1856 351.869 55.0205 351.551 54.7952 351.278C54.57 351.005 54.2897 350.783 53.9727 350.625C53.6558 350.467 53.3091 350.378 52.9554 350.364C52.6017 350.349 52.2489 350.409 51.92 350.54C49.92 351.38 49.18 355.15 49.36 357.04C49.36 357.16 49.65 358.51 49.82 359.25C49.33 358.7 48.82 358.15 48.35 357.61C46.88 356.06 45.35 354.54 43.83 353.01L42.45 351.61C42.7 351.46 45.7 349.73 46.63 348.42C47.1796 347.836 47.5887 347.134 47.8261 346.368C48.0635 345.602 48.123 344.792 48 344C47.9054 343.659 47.7402 343.341 47.5151 343.068C47.2901 342.795 47.0101 342.571 46.6934 342.413C46.3767 342.255 46.0303 342.165 45.6766 342.149C45.3229 342.133 44.9697 342.191 44.64 342.32C42.64 343.16 41.9 346.93 42.08 348.83C42.08 348.97 42.49 350.91 42.62 351.4C41.62 350.4 40.62 349.32 39.62 348.26C38.3347 346.827 37.1454 345.31 36.06 343.72C36.18 343.65 39.32 341.85 40.27 340.52C40.7568 339.927 41.1083 339.235 41.3 338.493C41.4918 337.75 41.5191 336.974 41.38 336.22C41.2903 335.873 41.1278 335.549 40.9033 335.269C40.6788 334.989 40.3974 334.76 40.0778 334.598C39.7582 334.435 39.4077 334.342 39.0494 334.326C38.6912 334.309 38.3335 334.368 38 334.5C36 335.34 35.26 339.11 35.44 341.01C35.44 341.16 35.89 343.24 35.99 343.61L35.79 343.34C34.7459 341.715 33.8458 340.002 33.1 338.22C32.68 337.22 32.33 336.28 32.01 335.34C33.6158 334.684 35.1102 333.784 36.44 332.67C36.9864 332.134 37.4091 331.484 37.6786 330.767C37.948 330.051 38.0577 329.284 38 328.52C37.9388 328.173 37.8059 327.843 37.6099 327.551C37.4139 327.259 37.159 327.01 36.8616 326.822C36.5642 326.634 36.2308 326.51 35.8827 326.458C35.5346 326.406 35.1795 326.427 34.84 326.52C32.84 327.14 31.62 330.8 31.58 332.71C31.58 332.81 31.68 333.87 31.76 334.64C31.63 334.21 31.48 333.77 31.35 333.36C30.88 331.82 30.55 330.36 30.27 329.09C30.11 328.36 29.98 327.7 29.87 327.09C30.9847 325.774 31.8887 324.293 32.55 322.7C32.793 321.972 32.8732 321.2 32.7851 320.438C32.697 319.676 32.4426 318.943 32.04 318.29C31.8293 318.005 31.5608 317.767 31.252 317.593C30.9433 317.419 30.6012 317.312 30.2482 317.279C29.8953 317.246 29.5393 317.288 29.2036 317.401C28.8679 317.515 28.56 317.699 28.3 317.94C26.77 319.43 27.4 323.22 28.3 324.94C28.36 325 29.77 327.2 29.79 327.17Z" fill="#263238"/>
<path d="M56.1901 334.58C57.6501 335.25 61.1301 335.27 61.4101 335.28C61.3885 337.285 61.5021 339.29 61.7501 341.28C61.8901 342.43 62.0701 343.59 62.2601 344.74C62.0901 344.23 61.9401 343.74 61.9101 343.74C61.1301 342 58.5901 339.11 56.4701 339.35C56.119 339.4 55.7822 339.523 55.4816 339.711C55.1811 339.899 54.9234 340.148 54.7254 340.442C54.5274 340.737 54.3934 341.069 54.3322 341.418C54.271 341.768 54.2839 342.126 54.3701 342.47C54.6901 343.94 56.1701 345.06 57.4701 345.66C59.1106 346.153 60.8174 346.389 62.5301 346.36C62.6101 346.8 62.6801 347.24 62.7601 347.68C63.1401 349.81 63.5301 351.92 63.8501 354.01C63.9601 354.75 64.0401 355.48 64.1301 356.21L63.8301 355.31C63.0401 353.57 60.5001 350.68 58.3801 350.92C58.0335 350.97 57.7012 351.092 57.4043 351.278C57.1074 351.464 56.8525 351.709 56.6558 351.999C56.4592 352.289 56.3251 352.616 56.2621 352.961C56.1991 353.306 56.2087 353.659 56.2901 354C56.6101 355.47 58.0901 356.59 59.3801 357.19C60.4804 357.577 61.6343 357.789 62.8001 357.82L65.1301 356.51L66.9701 355.51L72.0001 350C71.8863 349.958 71.7693 349.924 71.6501 349.9C69.5501 349.52 66.8201 352.23 65.9201 353.9C65.9201 354.01 65.3601 355.29 65.0901 355.99C64.9901 355.27 64.8901 354.55 64.7601 353.82C64.4001 351.72 63.9601 349.61 63.5401 347.49C63.4001 346.85 63.2801 346.2 63.1601 345.55C63.4501 345.55 66.9101 345.78 68.4001 345.21C69.7301 344.7 71.2901 343.68 71.7001 342.21C71.8034 341.873 71.8347 341.518 71.7922 341.168C71.7497 340.818 71.6342 340.481 71.4533 340.178C71.2723 339.876 71.0299 339.615 70.7417 339.412C70.4535 339.209 70.1259 339.069 69.7801 339C67.6801 338.62 64.9601 341.33 64.0601 343C63.9901 343.13 63.2601 345 63.0601 345.45C62.7901 344.02 62.5301 342.6 62.3301 341.19C62.0473 339.286 61.8903 337.365 61.8601 335.44C62.0001 335.44 65.6101 335.68 67.1401 335.1C67.8754 334.87 68.5517 334.483 69.1217 333.965C69.6917 333.447 70.1417 332.81 70.4401 332.1C70.5502 331.763 70.5881 331.407 70.5513 331.055C70.5144 330.702 70.4037 330.362 70.2263 330.055C70.0489 329.748 69.8088 329.482 69.5217 329.275C69.2346 329.067 68.9069 328.922 68.5601 328.85C66.4601 328.46 63.7301 331.18 62.8301 332.85C62.7601 332.98 61.9801 334.96 61.8301 335.33C61.8301 335.22 61.8301 335.1 61.8301 334.99C61.8599 333.06 62.054 331.137 62.4101 329.24C62.6001 328.19 62.8401 327.24 63.0901 326.24C63.7601 326.35 66.8201 326.83 68.2501 326.45C69.6801 326.07 71.2501 325.25 71.8601 323.86C72.0055 323.537 72.0815 323.187 72.0832 322.833C72.0849 322.479 72.0122 322.129 71.8699 321.804C71.7275 321.48 71.5187 321.189 71.2569 320.951C70.9951 320.712 70.6862 320.532 70.3501 320.42C68.3501 319.81 65.3501 322.21 64.2201 323.78C64.1601 323.86 63.6601 324.78 63.3001 325.48C63.4201 325.05 63.5401 324.6 63.6601 324.19C64.1301 322.65 64.6601 321.26 65.1101 320.03C65.3901 319.34 65.6501 318.72 65.8901 318.14C66.6101 317.9 69.4701 316.94 70.5501 315.96C71.6301 314.98 72.6901 313.49 72.5501 311.96C72.5308 311.606 72.4372 311.26 72.2754 310.944C72.1136 310.628 71.8872 310.35 71.6109 310.127C71.3346 309.905 71.0146 309.743 70.6716 309.652C70.3286 309.561 69.9704 309.543 69.6201 309.6C67.5201 310 65.9601 313.52 65.7201 315.41C65.7201 315.58 65.7201 318.17 65.7201 318.16C65.4701 318.72 65.2101 319.31 64.9301 319.97C64.4401 321.19 63.9301 322.57 63.3901 324.11C62.8378 325.766 62.3804 327.452 62.0201 329.16C61.6426 331.085 61.4352 333.039 61.4001 335V335.07C61.2301 334.47 60.6901 332.8 60.6401 332.68C59.8501 330.94 57.3101 328.05 55.1901 328.29C54.8392 328.339 54.5026 328.462 54.2024 328.651C53.9022 328.839 53.6451 329.089 53.4478 329.383C53.2506 329.677 53.1177 330.01 53.0578 330.359C52.9978 330.709 53.0123 331.067 53.1001 331.41C53.4201 332.86 54.9001 334 56.1901 334.58Z" fill="#263238"/>
<path d="M201.22 356.76C200.869 356.81 200.532 356.932 200.232 357.121C199.932 357.309 199.675 357.559 199.478 357.853C199.28 358.147 199.147 358.48 199.088 358.83C199.028 359.179 199.042 359.537 199.13 359.88C199.38 360.606 199.786 361.267 200.32 361.819C200.854 362.37 201.503 362.797 202.22 363.07C203.204 363.424 204.235 363.626 205.28 363.67L206.17 362.61L206.67 361.16C205.88 359.41 203.34 356.52 201.22 356.76Z" fill="#263238"/>
<path d="M190.25 371.87C189.953 372.063 189.7 372.316 189.507 372.613C189.315 372.91 189.186 373.244 189.131 373.594C189.075 373.944 189.093 374.301 189.185 374.643C189.276 374.985 189.438 375.304 189.66 375.58C190.56 376.79 192.38 377.18 193.8 377.18C194.73 377.112 195.644 376.903 196.51 376.56L197.09 373.64L197.03 373.58C195.59 372.33 192.07 370.77 190.25 371.87Z" fill="#263238"/>
<path d="M200.2 365.47C198.57 366.47 198.25 369.69 198.54 371.67L203.33 365.98C202.952 365.54 202.431 365.247 201.858 365.153C201.285 365.06 200.698 365.172 200.2 365.47V365.47Z" fill="#263238"/>
<path d="M185.43 358.32C185.74 358.64 186.04 358.97 186.35 359.32C187.84 360.88 189.35 362.43 190.75 364C191.25 364.55 191.75 365.11 192.2 365.67L191.45 365.09C189.84 364.09 186.12 363.09 184.45 364.43C184.187 364.667 183.976 364.957 183.832 365.281C183.688 365.605 183.613 365.956 183.613 366.31C183.613 366.665 183.688 367.015 183.832 367.339C183.976 367.663 184.187 367.953 184.45 368.19C185.53 369.24 187.39 369.36 188.79 369.19C190.388 368.713 191.903 367.991 193.28 367.05C193.75 367.64 194.22 368.22 194.65 368.82C194.93 369.23 195.23 369.6 195.49 370.03L196.28 371.27C196.64 371.89 197.01 372.51 197.36 373.12L198.13 372.21C197.83 371.71 197.52 371.21 197.19 370.68L196.37 369.45C196.11 369.04 195.78 368.63 195.48 368.22C194.76 367.22 193.99 366.34 193.19 365.43C194.672 364.609 196.021 363.567 197.19 362.34C197.677 361.746 198.029 361.052 198.221 360.308C198.412 359.563 198.439 358.786 198.3 358.03C198.211 357.691 198.053 357.374 197.834 357.099C197.616 356.825 197.343 356.599 197.032 356.436C196.722 356.273 196.381 356.177 196.031 356.154C195.681 356.13 195.33 356.18 195 356.3C193 357.14 192.26 360.91 192.44 362.8C192.44 362.92 192.73 364.27 192.9 365.01C192.41 364.46 191.9 363.91 191.43 363.38C189.96 361.83 188.43 360.3 186.91 358.77L185.53 357.37C185.78 357.22 188.78 355.49 189.71 354.18C190.198 353.588 190.549 352.896 190.741 352.153C190.933 351.41 190.96 350.634 190.82 349.88C190.726 349.539 190.56 349.221 190.335 348.948C190.11 348.675 189.83 348.452 189.514 348.293C189.197 348.135 188.851 348.045 188.497 348.029C188.143 348.013 187.79 348.071 187.46 348.2C185.46 349.04 184.72 352.81 184.9 354.71C184.9 354.85 185.31 356.79 185.44 357.28C184.44 356.28 183.44 355.2 182.44 354.14C181.155 352.707 179.966 351.19 178.88 349.6C179 349.53 182.14 347.73 183.09 346.4C183.577 345.807 183.929 345.115 184.12 344.373C184.312 343.63 184.339 342.855 184.2 342.1C184.106 341.759 183.94 341.441 183.715 341.168C183.49 340.895 183.21 340.672 182.894 340.513C182.577 340.355 182.231 340.265 181.877 340.249C181.523 340.233 181.17 340.291 180.84 340.42C178.84 341.26 178.1 345.03 178.28 346.93C178.28 347.08 178.73 349.16 178.83 349.53L178.63 349.26C177.586 347.635 176.686 345.922 175.94 344.14C175.52 343.14 175.17 342.2 174.85 341.26C176.454 340.604 177.948 339.707 179.28 338.6C180.23 337.53 181.14 335.92 180.85 334.44C180.789 334.094 180.656 333.764 180.46 333.471C180.264 333.179 180.009 332.931 179.712 332.742C179.414 332.554 179.081 332.43 178.733 332.378C178.385 332.326 178.03 332.347 177.69 332.44C175.69 333.06 174.47 336.73 174.43 338.63C174.43 338.73 174.53 339.79 174.61 340.56C174.48 340.13 174.33 339.69 174.2 339.28C173.73 337.74 173.4 336.28 173.12 335.01C172.96 334.28 172.83 333.62 172.72 333.01C173.835 331.694 174.739 330.213 175.4 328.62C175.643 327.893 175.723 327.12 175.635 326.358C175.547 325.596 175.293 324.863 174.89 324.21C174.679 323.925 174.411 323.688 174.102 323.513C173.793 323.339 173.451 323.232 173.098 323.199C172.745 323.166 172.389 323.208 172.054 323.322C171.718 323.436 171.41 323.619 171.15 323.86C169.62 325.35 170.25 329.15 171.15 330.86C171.23 331.01 172.64 333.18 172.66 333.15C172.76 333.75 172.87 334.39 173 335.09C173.26 336.38 173.56 337.83 174 339.39C174.446 341.088 174.993 342.758 175.64 344.39C176.356 346.213 177.229 347.969 178.25 349.64C178.254 349.657 178.254 349.674 178.25 349.69C177.78 349.29 176.41 348.19 176.3 348.12C174.69 347.12 170.97 346.12 169.3 347.47C169.037 347.706 168.827 347.996 168.682 348.319C168.538 348.642 168.464 348.991 168.464 349.345C168.464 349.699 168.538 350.049 168.682 350.372C168.827 350.695 169.037 350.984 169.3 351.22C170.38 352.28 172.23 352.39 173.64 352.22C175.23 351.98 178.14 350.07 178.37 349.92C179.461 351.588 180.656 353.185 181.95 354.7C182.7 355.58 183.48 356.45 184.28 357.31L183.42 356.63C181.81 355.63 178.09 354.63 176.42 355.98C176.155 356.217 175.943 356.506 175.798 356.83C175.653 357.154 175.578 357.505 175.578 357.86C175.578 358.215 175.653 358.566 175.798 358.89C175.943 359.214 176.155 359.504 176.42 359.74C177.49 360.79 179.35 360.91 180.75 360.69C182.424 360.148 184.003 359.348 185.43 358.32V358.32Z" fill="#263238"/>
<path d="M200.88 329.73C202.16 330.81 205.77 331.79 205.77 331.79C205.77 331.79 205.7 329.21 205.67 329.05C205.37 327.17 203.67 323.71 201.58 323.38C201.228 323.335 200.871 323.365 200.531 323.467C200.192 323.57 199.878 323.743 199.61 323.975C199.342 324.207 199.126 324.493 198.976 324.815C198.826 325.136 198.745 325.485 198.74 325.84C198.66 327.34 199.79 328.81 200.88 329.73Z" fill="#263238"/>
<path d="M174.51 341.08C174.51 341.08 173.02 338.96 172.91 338.84C171.63 337.44 168.31 335.48 166.37 336.37C166.052 336.528 165.772 336.75 165.546 337.024C165.32 337.297 165.155 337.615 165.061 337.957C164.966 338.298 164.945 338.656 164.998 339.006C165.052 339.357 165.178 339.692 165.37 339.99C166.13 341.29 167.88 341.89 169.3 342.06C171 342.25 174.51 341.08 174.51 341.08Z" fill="#263238"/>
<path d="M199 340.5C200.46 341.17 203.94 341.2 204.22 341.2C204.201 343.189 204.314 345.176 204.56 347.15C204.7 348.3 204.88 349.46 205.07 350.62C204.9 350.1 204.75 349.62 204.72 349.62C203.94 347.88 201.4 344.99 199.28 345.23C198.929 345.28 198.592 345.402 198.292 345.591C197.991 345.779 197.733 346.028 197.535 346.322C197.337 346.617 197.203 346.949 197.142 347.298C197.081 347.648 197.094 348.006 197.18 348.35C197.5 349.82 198.98 350.94 200.28 351.54C201.921 352.033 203.627 352.269 205.34 352.24C205.42 352.68 205.49 353.12 205.57 353.56C205.95 355.69 206.34 357.81 206.66 359.89C206.66 360.2 206.73 360.51 206.77 360.82L207.4 359.02C207.06 357.16 206.68 355.29 206.31 353.42C206.18 352.78 206.05 352.13 205.93 351.49C207.294 351.572 208.662 351.542 210.02 351.4L211.78 346.31L213.17 345.1C212.987 345.01 212.791 344.946 212.59 344.91C210.49 344.53 207.77 347.24 206.87 348.91C206.8 349.04 206.07 350.91 205.87 351.36C205.6 349.93 205.34 348.51 205.14 347.1C204.857 345.196 204.7 343.275 204.67 341.35C204.81 341.35 208.42 341.59 209.95 341.01C210.685 340.78 211.362 340.393 211.932 339.875C212.502 339.357 212.952 338.72 213.25 338.01C213.36 337.673 213.398 337.317 213.361 336.965C213.324 336.612 213.214 336.272 213.036 335.965C212.859 335.658 212.619 335.392 212.332 335.185C212.045 334.977 211.717 334.832 211.37 334.76C209.27 334.37 206.54 337.09 205.64 338.76C205.57 338.89 204.79 340.87 204.64 341.24C204.64 341.13 204.64 341.02 204.64 340.9C204.67 338.97 204.864 337.047 205.22 335.15C205.41 334.15 205.65 333.15 205.9 332.15C206.57 332.26 209.63 332.74 211.06 332.36C212.49 331.98 214.06 331.16 214.67 329.77C214.815 329.447 214.891 329.097 214.893 328.743C214.895 328.389 214.822 328.039 214.68 327.714C214.538 327.39 214.329 327.099 214.067 326.861C213.805 326.622 213.496 326.441 213.16 326.33C211.16 325.72 208.16 328.12 207.03 329.69C206.97 329.77 206.47 330.69 206.11 331.39C206.23 330.96 206.35 330.51 206.47 330.1C206.94 328.56 207.47 327.17 207.92 325.94C208.2 325.25 208.46 324.63 208.7 324.05C209.42 323.81 212.28 322.85 213.36 321.87C214.44 320.89 215.5 319.4 215.36 317.87C215.341 317.516 215.247 317.169 215.085 316.854C214.924 316.538 214.697 316.26 214.421 316.037C214.145 315.815 213.825 315.653 213.482 315.562C213.139 315.471 212.78 315.453 212.43 315.51C210.33 315.91 208.77 319.43 208.54 321.32C208.54 321.49 208.49 324.08 208.54 324.07C208.29 324.63 208.03 325.22 207.76 325.88C207.26 327.1 206.71 328.48 206.21 330.02C205.658 331.676 205.2 333.362 204.84 335.07C204.434 336.985 204.196 338.933 204.13 340.89V341C203.96 340.4 203.42 338.73 203.37 338.61C202.58 336.87 200.04 333.98 197.92 334.22C197.569 334.269 197.233 334.392 196.932 334.581C196.632 334.769 196.375 335.018 196.178 335.313C195.981 335.607 195.848 335.94 195.788 336.289C195.728 336.639 195.742 336.997 195.83 337.34C196.26 338.78 197.74 339.9 199 340.5Z" fill="#263238"/>
<path d="M350.64 253.16L346.65 248.21L350.24 245.38L352.65 248.39L351.83 250.3L352.51 251.82L351.1 252.83" fill="white"/>
<path d="M350.64 253.16L346.65 248.21L350.24 245.38L352.65 248.39L351.83 250.3L352.51 251.82L351.1 252.83" stroke="#263238" stroke-linecap="round" stroke-linejoin="round"/>
<path d="M383 261.75C383 261.75 380.27 259.31 379.25 259.47C378.23 259.63 364.85 261.87 364.85 261.87L352.54 251.82L350.66 253.16L362.44 267.94L375.24 267.14L372.49 281.14L360.84 290L379.84 301.35L383.67 289.27L398.8 274.37L392.92 267L383 261.75Z" fill="black" stroke="#263238" stroke-linecap="round" stroke-linejoin="round"/>
<path d="M386.9 258.52L384.75 263.04L383.96 262.32L382.45 273.31L392.93 266.96L391.88 265.3L392.12 261.87L386.9 258.52Z" fill="white" stroke="#263238" stroke-linecap="round" stroke-linejoin="round"/>
<path d="M382.45 273.31L388.58 269.59L383.46 265.99L382.45 273.31Z" fill="white" stroke="#263238" stroke-linecap="round" stroke-linejoin="round"/>
<path d="M399 247.75C399 247.75 403.63 242.33 408.34 245.75C413.05 249.17 411.75 252.51 415.11 250.68C418.47 248.85 424.78 244.2 428.58 250.12C432.38 256.04 429.45 262.24 427.06 263.66C424.67 265.08 425.3 262.37 425.35 261.06C425.4 259.75 421.48 258.06 420.61 260.76C419.74 263.46 415.17 267.62 409.37 267.23C403.57 266.84 402.45 259.71 402.58 255.52C402.572 254.262 402.236 253.029 401.607 251.94C400.978 250.851 400.076 249.945 398.99 249.31L399 247.75Z" fill="#263238" stroke="#263238" stroke-linecap="round" stroke-linejoin="round"/>
<path d="M387.9 246.63C387.9 246.63 385 253.09 385.6 256.9C386.2 260.71 385.88 263.64 387.82 264.38C389.76 265.12 396.19 261.23 397.61 258.66C399.03 256.09 401.06 252.38 400.5 248.82C399.94 245.26 393.12 240.08 387.9 246.63Z" fill="white" stroke="#263238" stroke-linecap="round" stroke-linejoin="round"/>
<path d="M389 253.41C388.85 253.91 388.53 254.25 388.28 254.17C388.03 254.09 387.95 253.63 388.1 253.17C388.25 252.71 388.57 252.33 388.82 252.41C389.07 252.49 389.11 252.91 389 253.41Z" fill="#263238"/>
<path d="M393.62 255.33C393.47 255.83 393.14 256.18 392.89 256.1C392.64 256.02 392.56 255.56 392.71 255.1C392.86 254.64 393.19 254.26 393.44 254.33C393.69 254.4 393.77 254.83 393.62 255.33Z" fill="#263238"/>
<path d="M390.17 254.24C390.17 254.24 390.47 254.46 390.05 255.24C389.63 256.02 388.62 255.74 388.73 256.41C388.84 257.08 390.11 257.41 390.11 257.41" stroke="#263238" stroke-linecap="round" stroke-linejoin="round"/>
<path d="M387.84 258.57C387.84 258.57 389.45 260.09 390.89 259.72" stroke="#263238" stroke-linecap="round" stroke-linejoin="round"/>
<path d="M395.14 253.73L392.15 252.97" stroke="#263238" stroke-linecap="round" stroke-linejoin="round"/>
<path d="M389.79 251.84L388.36 250.56" stroke="#263238" stroke-linecap="round" stroke-linejoin="round"/>
<path d="M387.9 246.63C387.9 246.63 387.47 247.63 386.97 249C388.66 248.12 391.57 247.13 394.23 248.77C396.89 250.41 398.23 254.18 398.77 256.49C399.9 254.2 400.91 251.49 400.5 248.82C399.94 245.26 393.12 240.08 387.9 246.63Z" fill="#263238" stroke="#263238" stroke-linecap="round" stroke-linejoin="round"/>
<path d="M398.08 256.39C398.08 256.39 400.16 254.48 400.08 256.22C400 257.96 397.61 258.99 397.08 259.07C396.55 259.15 396.59 258.48 396.59 258.48" fill="white"/>
<path d="M398.08 256.39C398.08 256.39 400.16 254.48 400.08 256.22C400 257.96 397.61 258.99 397.08 259.07C396.55 259.15 396.59 258.48 396.59 258.48" stroke="#263238" stroke-linecap="round" stroke-linejoin="round"/>
<path d="M398.79 274.38L395.59 297.19C395.52 297.676 395.281 298.121 394.915 298.448C394.55 298.776 394.08 298.964 393.59 298.98H392.9C392.368 299 391.848 298.815 391.448 298.464C391.048 298.112 390.798 297.62 390.75 297.09L389.5 283.37L398.79 274.38Z" fill="black" stroke="#263238" stroke-linecap="round" stroke-linejoin="round"/>
<path d="M393 294.06L382.73 285L380.43 286.93L390.29 298.34C390.506 298.573 390.772 298.754 391.069 298.869C391.365 298.983 391.684 299.028 392 299H392.81C393.121 298.987 393.424 298.905 393.699 298.76C393.974 298.615 394.213 298.411 394.399 298.162C394.585 297.913 394.713 297.625 394.773 297.32C394.834 297.016 394.826 296.701 394.75 296.4V296.4" fill="black"/>
<path d="M393 294.06L382.73 285L380.43 286.93L390.29 298.34C390.506 298.573 390.772 298.754 391.069 298.869C391.365 298.983 391.684 299.028 392 299H392.81C393.121 298.987 393.424 298.905 393.699 298.76C393.974 298.615 394.213 298.411 394.399 298.162C394.585 297.913 394.713 297.625 394.773 297.32C394.834 297.016 394.826 296.701 394.75 296.4V296.4" stroke="#263238" stroke-linecap="round" stroke-linejoin="round"/>
<path d="M382.73 284.99L380.32 281.14L374.9 280.54L374.93 283.77L377.53 285.94L379.18 286.17L380.43 286.92L382.73 284.99Z" fill="white" stroke="#263238" stroke-linecap="round" stroke-linejoin="round"/>
<path d="M353.71 297C353.71 297 342.39 311.73 343.01 314.17C343.63 316.61 360.17 342.44 360.17 342.44L362.47 340.92L353.38 312.54L371.65 305.27L353.71 297Z" fill="white" stroke="#263238" stroke-linecap="round" stroke-linejoin="round"/>
<path d="M362.83 302.46L364.17 308.35L370.22 306.03L362.83 302.46Z" fill="#263238" stroke="#263238" stroke-miterlimit="10"/>
<path d="M360.17 342.39L357.17 347.39C357.17 347.39 354.78 350.97 355.48 351.19C357.01 351.68 360.97 349.08 362.1 348.28C363.23 347.48 364.44 346.95 365.19 346.42C365.94 345.89 367.44 345.58 365.39 343.68C364.7 343.05 362.51 340.87 362.51 340.87L360.17 342.39Z" fill="white" stroke="#263238" stroke-linecap="round" stroke-linejoin="round"/>
<path d="M378.86 292.3C373.764 290.268 368.552 288.541 363.25 287.13C354.08 284.64 347.3 282.71 347.43 285C347.56 287.29 364.24 324.18 364.24 324.18L367.1 323.27L362.74 302.93C362.74 302.93 369.74 307.83 374.91 305.4C380.08 302.97 382.05 296.4 381.69 294.16" fill="#263238"/>
<path d="M378.86 292.3C373.764 290.268 368.552 288.541 363.25 287.13C354.08 284.64 347.3 282.71 347.43 285C347.56 287.29 364.24 324.18 364.24 324.18L367.1 323.27L362.74 302.93C362.74 302.93 369.74 307.83 374.91 305.4C380.08 302.97 382.05 296.4 381.69 294.16" stroke="#263238" stroke-linecap="round" stroke-linejoin="round"/>
<path d="M361.3 286.6C353.14 284.39 347.3 282.87 347.43 285C347.56 287.29 364.24 324.18 364.24 324.18L367.1 323.27L362.74 302.93C364.23 299.3 362.65 291.67 361.3 286.6Z" fill="white" stroke="#263238" stroke-linecap="round" stroke-linejoin="round"/>
<path d="M362.74 302.93L355.55 292.5" stroke="#263238" stroke-linecap="round" stroke-linejoin="round"/>
<path d="M364.24 324.18L361.56 329.23C361.56 329.23 356.15 334.47 357.35 334.74C358.55 335.01 368.72 330.64 369.48 329.6C370.24 328.56 367.1 323.27 367.1 323.27L364.24 324.18Z" fill="white" stroke="#263238" stroke-linecap="round" stroke-linejoin="round"/>
<path d="M351.8 250.72L377.02 280.75" stroke="#263238" stroke-miterlimit="10"/>
<path d="M274.2 157.72L348.21 246.28" stroke="#263238" stroke-miterlimit="10"/>
<path d="M379.18 286.16V432.16" stroke="#263238" stroke-miterlimit="10"/>
<path d="M138.33 245.59C138.33 245.59 143.65 276.72 137.87 286.59C132.09 296.46 117.59 289.36 117.59 289.36V431.16" stroke="#263238" stroke-miterlimit="10"/>
<path d="M106.39 257.24C106.39 257.24 111.1 256.7 111.46 257.79C111.658 258.683 111.658 259.607 111.46 260.5C111.46 260.5 114.17 263.4 114.17 265.39C114.17 267.38 111.28 268.29 111.28 268.29L110.74 272.99L103.5 273.35L102.59 267.74C102.59 267.74 99.8701 257.06 106.39 257.24Z" fill="white" stroke="#263238" stroke-linecap="round" stroke-linejoin="round"/>
<path d="M107.84 265L105.84 262.1C106.511 261.009 106.884 259.761 106.92 258.48C106.92 256.48 106.74 252.87 102.58 252.87C98.4199 252.87 95.6999 256.13 94.7999 263.19C93.8999 270.25 98.0499 273.69 104.03 272.42C110.01 271.15 107.84 265 107.84 265Z" fill="#263238" stroke="#263238" stroke-linecap="round" stroke-linejoin="round"/>
<path d="M107.66 263.76C107.66 263.76 104.58 263.4 104.76 265.76C104.808 266.267 105.008 266.748 105.334 267.139C105.661 267.53 106.098 267.813 106.589 267.951C107.079 268.089 107.6 268.074 108.082 267.91C108.565 267.745 108.986 267.439 109.29 267.03" fill="white"/>
<path d="M107.66 263.76C107.66 263.76 104.58 263.4 104.76 265.76C104.808 266.267 105.008 266.748 105.334 267.139C105.661 267.53 106.098 267.813 106.589 267.951C107.079 268.089 107.6 268.074 108.082 267.91C108.565 267.745 108.986 267.439 109.29 267.03" stroke="#263238" stroke-linecap="round" stroke-linejoin="round"/>
<path d="M103.37 275.12L96.7001 277C96.7001 277 96.1801 278.3 95.4001 280C94.3501 282.31 91.4601 287 91.4601 287L78.1101 290.81L73.8201 304.64L72.8701 310.36L80.4901 306.54L80.9701 293.2L92.9701 291.35L98.1201 278.35L103.37 275.12Z" fill="#263238" stroke="#263238" stroke-linecap="round" stroke-linejoin="round"/>
<path d="M114 273.17C114 273.17 108.75 270.82 104.77 271.36C100.79 271.9 101.15 273.9 101.15 273.9L101.33 276.61C101.33 276.61 108 274.62 114 273.17Z" fill="black" stroke="#263238" stroke-linecap="round" stroke-linejoin="round"/>
<path d="M96.0703 286.39L99.8203 303.73C99.8489 303.938 99.9267 304.136 100.047 304.308C100.168 304.48 100.327 304.621 100.513 304.719C100.699 304.816 100.905 304.868 101.115 304.87C101.325 304.872 101.533 304.824 101.72 304.73L110.19 300.5L96.0703 286.39Z" fill="black" stroke="#263238" stroke-linecap="round" stroke-linejoin="round"/>
<path d="M105.49 295.62L103.5 299.6" stroke="#263238" stroke-linecap="round" stroke-linejoin="round"/>
<path d="M123.04 313.18L133.97 331.26L132.52 355.71L137.77 355.53L143.02 326.37L135.35 305.94L123.04 313.18Z" fill="#263238" stroke="#263238" stroke-linecap="round" stroke-linejoin="round"/>
<path d="M101.32 276.61C101.32 276.61 96.0703 285.66 96.0703 286.39C96.0703 287.12 116.53 306.84 116.53 306.84L132.1 296.52L122.32 279.52L136.4 265.7L137.48 247.05L134.95 246.87L130.42 260.45L115.42 272.27L101.32 276.61Z" fill="black" stroke="#263238" stroke-linecap="round" stroke-linejoin="round"/>
<path d="M134.95 246.87L135.13 242.71L139.65 239.27L140.02 240.17V242.89L140.2 245.06L137.48 247.05L134.95 246.87Z" fill="white" stroke="#263238" stroke-linecap="round" stroke-linejoin="round"/>
<path d="M116.53 306.84C116.53 306.84 119.97 312.63 122.53 314.44C125.09 316.25 133 310.64 135 309C137 307.36 144.6 297.6 144.6 297.6L151.66 327.68L156.01 325.87C156.01 325.87 153.46 285.87 152.2 284.75C150.94 283.63 131.38 296.33 131.38 296.33L116.53 306.84Z" fill="#263238" stroke="#263238" stroke-linecap="round" stroke-linejoin="round"/>
<path d="M156 325.88H162.15C163.24 325.88 165.95 324.25 166.15 325.52C166.35 326.79 160.9 330.22 158.72 331.31C156.627 332.123 154.44 332.67 152.21 332.94L151.66 327.69L156 325.88Z" fill="white" stroke="#263238" stroke-linecap="round" stroke-linejoin="round"/>
<path d="M137.77 355.53L140.85 361.14C140.85 361.14 144.65 362.77 144.65 363.5C144.65 364.23 138.5 363.86 137.95 363.86C137.4 363.86 131.26 357.86 131.26 357.86L132.52 355.68L137.77 355.53Z" fill="white" stroke="#263238" stroke-linecap="round" stroke-linejoin="round"/>
<path d="M139.65 239.27L198.74 158.25" stroke="#263238" stroke-miterlimit="10"/>
<path d="M-8 432.2H466" stroke="#263238" stroke-linecap="round" stroke-linejoin="round"/>
</g>
<defs>
<clipPath id="clip0_580_327">
<rect width="466" height="434" fill="white"/>
</clipPath>
</defs>
</svg>
