<svg width="288" height="232" viewBox="0 0 288 232" fill="none" xmlns="http://www.w3.org/2000/svg">
<path d="M258.591 146.48C258.591 146.48 252.511 143.106 252.061 150.748C251.611 158.39 250.483 208.102 250.483 208.102" stroke="#263238" stroke-width="2" stroke-linecap="round" stroke-linejoin="round"/>
<path d="M248.885 151.425C248.885 151.425 253.832 162.446 251.591 207.425" stroke="#263238" stroke-width="2" stroke-linecap="round" stroke-linejoin="round"/>
<path d="M253.777 148.016C253.777 148.016 251.447 149.498 250.127 147.804C248.806 146.11 251.022 142.978 249.068 141.644C247.114 140.31 243.736 142.345 243.736 142.345C243.736 142.345 246.333 143.106 246.248 144.524C246.164 145.942 244.913 146.5 244.764 145.858C244.616 145.215 243.355 142.118 241.242 143.417C240.635 143.777 240.107 144.255 239.689 144.824C239.272 145.393 238.974 146.04 238.814 146.727C238.814 146.727 243.726 146.203 244.022 148.051C244.319 149.899 242.009 147.73 239.981 147.611C237.953 147.493 236.103 147.789 236.236 149.014C236.281 150.098 236.217 151.184 236.043 152.255C237.153 151.332 238.557 150.837 240.001 150.862C242.232 150.99 242.148 152.408 240.12 152.29C238.091 152.171 236.35 154.098 236.35 154.098C236.35 154.098 238.2 157.254 240.55 158.815C242.9 160.376 243.745 159.803 244.013 158.613C244.28 157.422 243.656 154.325 245.076 154.409C246.496 154.493 242.726 159.759 244.537 160.07C246.347 160.381 247.807 159.853 248.282 158.662L248.776 157.472C248.776 157.472 248.143 154.389 248.42 153.184C248.697 151.978 249.028 153.218 249.35 154.666C249.672 156.113 249.874 159.576 250.493 159.408C251.111 159.24 253.095 156.716 253.56 155.728C254.025 154.74 250.948 151.712 250.982 151.104C251.017 150.496 253.391 151.652 253.762 152.285C254.031 152.765 254.274 153.26 254.49 153.767C254.49 153.767 255.974 152.838 255.934 149.992C255.894 147.147 253.777 148.016 253.777 148.016Z" fill="white"/>
<path opacity="0.3" d="M253.777 148.016C253.777 148.016 251.447 149.498 250.127 147.804C248.806 146.11 251.022 142.978 249.068 141.644C247.114 140.31 243.736 142.345 243.736 142.345C243.736 142.345 246.333 143.106 246.248 144.524C246.164 145.942 244.913 146.5 244.764 145.858C244.616 145.215 243.355 142.118 241.242 143.417C240.635 143.777 240.107 144.255 239.689 144.824C239.272 145.393 238.974 146.04 238.814 146.727C238.814 146.727 243.726 146.203 244.022 148.051C244.319 149.899 242.009 147.73 239.981 147.611C237.953 147.493 236.103 147.789 236.236 149.014C236.281 150.098 236.217 151.184 236.043 152.255C237.153 151.332 238.557 150.837 240.001 150.862C242.232 150.99 242.148 152.408 240.12 152.29C238.091 152.171 236.35 154.098 236.35 154.098C236.35 154.098 238.2 157.254 240.55 158.815C242.9 160.376 243.745 159.803 244.013 158.613C244.28 157.422 243.656 154.325 245.076 154.409C246.496 154.493 242.726 159.759 244.537 160.07C246.347 160.381 247.807 159.853 248.282 158.662L248.776 157.472C248.776 157.472 248.143 154.389 248.42 153.184C248.697 151.978 249.028 153.218 249.35 154.666C249.672 156.113 249.874 159.576 250.493 159.408C251.111 159.24 253.095 156.716 253.56 155.728C254.025 154.74 250.948 151.712 250.982 151.104C251.017 150.496 253.391 151.652 253.762 152.285C254.031 152.765 254.274 153.26 254.49 153.767C254.49 153.767 255.974 152.838 255.934 149.992C255.894 147.147 253.777 148.016 253.777 148.016Z" fill="#263238"/>
<path d="M241.984 154.69C243.503 152.818 245.734 150.284 247.609 149.074" stroke="#263238" stroke-linecap="round" stroke-linejoin="round"/>
<path d="M240.224 156.973C240.224 156.973 240.614 156.429 241.248 155.619" stroke="#263238" stroke-linecap="round" stroke-linejoin="round"/>
<path d="M248.598 149.538C248.598 149.538 250.854 152.719 251.269 155.995" stroke="#263238" stroke-linecap="round" stroke-linejoin="round"/>
<path d="M246.046 151.42C246.046 151.42 246.679 151.055 246.442 155.1" stroke="#263238" stroke-linecap="round" stroke-linejoin="round"/>
<path d="M247.693 147.646C247.693 147.646 248.979 146.5 248.301 144.228" stroke="#263238" stroke-linecap="round" stroke-linejoin="round"/>
<path d="M245.952 149.587L245.032 147.908" stroke="#263238" stroke-linecap="round" stroke-linejoin="round"/>
<path d="M244.018 151.302C244.018 151.302 241.099 149.098 239.274 148.99" stroke="#263238" stroke-linecap="round" stroke-linejoin="round"/>
<path d="M262.068 142.014C262.068 142.014 261.974 145.354 259.362 145.517C256.75 145.68 255.138 141.338 252.466 142.38C249.795 143.422 249.538 148.189 249.538 148.189C249.538 148.189 252.071 146.11 253.436 147.162C254.801 148.214 254.485 149.829 253.748 149.573C253.011 149.316 249.038 148.431 248.905 151.425C248.85 152.278 248.968 153.133 249.253 153.939C249.538 154.744 249.983 155.484 250.562 156.113C250.562 156.113 253.387 150.847 255.444 151.805C257.502 152.764 253.748 153.599 252.244 155.545C250.74 157.491 249.771 159.541 251.101 160.248C252.218 160.942 253.262 161.746 254.218 162.649C254.218 162.649 253.861 159.892 255.514 157.753C257.166 155.614 258.526 156.661 257.027 158.608C255.528 160.554 256.27 163.607 256.27 163.607C256.27 163.607 260.693 163.913 263.859 162.619C267.025 161.325 267.044 160.105 266.025 159.008C265.006 157.911 261.484 156.444 262.533 155.081C263.582 153.717 266.292 161.078 267.841 159.477C269.389 157.877 269.849 156.064 268.983 154.774L268.113 153.485C268.113 153.485 264.591 152.003 263.572 150.921C262.553 149.839 264.022 150.333 265.689 150.995C267.356 151.657 270.962 153.816 271.219 153.085C271.477 152.354 270.294 148.639 269.622 147.513C268.949 146.386 263.814 147.384 263.23 146.935C262.647 146.485 265.422 144.899 266.307 144.959C267.193 145.018 268.286 145.23 268.286 145.23C268.286 145.23 268.365 143.121 265.486 141.214C262.607 139.307 262.068 142.014 262.068 142.014Z" fill="white"/>
<path opacity="0.2" d="M262.068 142.014C262.068 142.014 261.974 145.354 259.362 145.517C256.75 145.68 255.138 141.338 252.466 142.38C249.795 143.422 249.538 148.189 249.538 148.189C249.538 148.189 252.071 146.11 253.436 147.162C254.801 148.214 254.485 149.829 253.748 149.573C253.011 149.316 249.038 148.431 248.905 151.425C248.85 152.278 248.968 153.133 249.253 153.939C249.538 154.744 249.983 155.484 250.562 156.113C250.562 156.113 253.387 150.847 255.444 151.805C257.502 152.764 253.748 153.599 252.244 155.545C250.74 157.491 249.771 159.541 251.101 160.248C252.218 160.942 253.262 161.746 254.218 162.649C254.218 162.649 253.861 159.892 255.514 157.753C257.166 155.614 258.526 156.661 257.027 158.608C255.528 160.554 256.27 163.607 256.27 163.607C256.27 163.607 260.693 163.913 263.859 162.619C267.025 161.325 267.044 160.105 266.025 159.008C265.006 157.911 261.484 156.444 262.533 155.081C263.582 153.717 266.292 161.078 267.841 159.477C269.389 157.877 269.849 156.064 268.983 154.774L268.113 153.485C268.113 153.485 264.591 152.003 263.572 150.921C262.553 149.839 264.022 150.333 265.689 150.995C267.356 151.657 270.962 153.816 271.219 153.085C271.477 152.354 270.294 148.639 269.622 147.513C268.949 146.386 263.814 147.384 263.23 146.935C262.647 146.485 265.422 144.899 266.307 144.959C267.193 145.018 268.286 145.23 268.286 145.23C268.286 145.23 268.365 143.121 265.486 141.214C262.607 139.307 262.068 142.014 262.068 142.014Z" fill="#263238"/>
<path d="M260.717 158.356C259.876 155.56 258.857 151.598 258.927 148.901" stroke="#263238" stroke-linecap="round" stroke-linejoin="round"/>
<path d="M261.806 161.666C261.806 161.666 261.529 160.91 261.148 159.724" stroke="#263238" stroke-linecap="round" stroke-linejoin="round"/>
<path d="M260.064 148.229C260.064 148.229 264.789 148.145 268.355 149.958" stroke="#263238" stroke-linecap="round" stroke-linejoin="round"/>
<path d="M260.213 152.062C260.213 152.062 260.272 151.183 264.17 154.182" stroke="#263238" stroke-linecap="round" stroke-linejoin="round"/>
<path d="M257.561 147.853C257.561 147.853 257.294 145.784 254.549 144.914" stroke="#263238" stroke-linecap="round" stroke-linejoin="round"/>
<path d="M258.309 150.911L255.999 150.684" stroke="#263238" stroke-linecap="round" stroke-linejoin="round"/>
<path d="M258.709 154.009C258.709 154.009 254.51 155.431 253.159 157.18" stroke="#263238" stroke-linecap="round" stroke-linejoin="round"/>
<path d="M234.045 164.244C234.045 164.244 247.332 173.018 247.104 206.975" stroke="#263238" stroke-width="2" stroke-linecap="round" stroke-linejoin="round"/>
<path d="M250.428 161.928C250.428 161.928 250.003 165.771 246.966 165.717C243.928 165.662 242.484 160.49 239.308 161.443C236.132 162.397 235.376 167.865 235.376 167.865C235.376 167.865 238.497 165.707 239.976 167.045C241.455 168.384 240.931 170.222 240.105 169.856C239.279 169.491 234.782 168.098 234.342 171.541C234.199 172.521 234.256 173.52 234.512 174.477C234.767 175.434 235.214 176.329 235.826 177.108C235.826 177.108 239.585 171.294 241.866 172.593C244.146 173.892 239.739 174.505 237.819 176.609C235.9 178.714 234.599 180.991 236.053 181.93C237.279 182.833 238.41 183.859 239.427 184.992C239.427 184.992 239.274 181.776 241.406 179.465C243.538 177.153 244.987 178.477 243.073 180.591C241.158 182.705 241.727 186.292 241.727 186.292C241.727 186.292 246.807 187.062 250.582 185.877C254.356 184.691 254.49 183.278 253.416 181.925C252.343 180.571 248.42 178.536 249.761 177.064C251.101 175.592 253.53 184.335 255.469 182.636C257.408 180.937 258.111 178.887 257.23 177.316L256.305 175.745C256.305 175.745 252.382 173.714 251.309 172.356C250.235 170.997 251.883 171.724 253.743 172.642C255.603 173.561 259.565 176.397 259.926 175.572C260.287 174.747 259.273 170.37 258.625 168.992C257.977 167.614 251.937 168.3 251.304 167.727C250.671 167.154 254.03 165.583 255.044 165.751C255.799 165.877 256.547 166.042 257.284 166.245C257.284 166.245 257.571 163.815 254.43 161.345C251.289 158.875 250.428 161.928 250.428 161.928Z" fill="white"/>
<path opacity="0.3" d="M250.428 161.928C250.428 161.928 250.003 165.771 246.966 165.717C243.928 165.662 242.484 160.49 239.308 161.443C236.132 162.397 235.376 167.865 235.376 167.865C235.376 167.865 238.497 165.707 239.976 167.045C241.455 168.384 240.931 170.222 240.105 169.856C239.279 169.491 234.782 168.098 234.342 171.541C234.199 172.521 234.256 173.52 234.512 174.477C234.767 175.434 235.214 176.329 235.826 177.108C235.826 177.108 239.585 171.294 241.866 172.593C244.146 173.892 239.739 174.505 237.819 176.609C235.9 178.714 234.599 180.991 236.053 181.93C237.279 182.833 238.41 183.859 239.427 184.992C239.427 184.992 239.274 181.776 241.406 179.465C243.538 177.153 244.987 178.477 243.073 180.591C241.158 182.705 241.727 186.292 241.727 186.292C241.727 186.292 246.807 187.062 250.582 185.877C254.356 184.691 254.49 183.278 253.416 181.925C252.343 180.571 248.42 178.536 249.761 177.064C251.101 175.592 253.53 184.335 255.469 182.636C257.408 180.937 258.111 178.887 257.23 177.316L256.305 175.745C256.305 175.745 252.382 173.714 251.309 172.356C250.235 170.997 251.883 171.724 253.743 172.642C255.603 173.561 259.565 176.397 259.926 175.572C260.287 174.747 259.273 170.37 258.625 168.992C257.977 167.614 251.937 168.3 251.304 167.727C250.671 167.154 254.03 165.583 255.044 165.751C255.799 165.877 256.547 166.042 257.284 166.245C257.284 166.245 257.571 163.815 254.43 161.345C251.289 158.875 250.428 161.928 250.428 161.928Z" fill="#263238"/>
<path d="M247.332 180.655C246.62 177.355 245.823 172.687 246.15 169.58" stroke="#263238" stroke-linecap="round" stroke-linejoin="round"/>
<path d="M248.272 184.577C248.272 184.577 248.024 183.678 247.693 182.275" stroke="#263238" stroke-linecap="round" stroke-linejoin="round"/>
<path d="M247.53 168.888C247.53 168.888 252.971 169.239 256.928 171.669" stroke="#263238" stroke-linecap="round" stroke-linejoin="round"/>
<path d="M247.337 173.334C247.337 173.334 247.49 172.346 251.705 176.15" stroke="#263238" stroke-linecap="round" stroke-linejoin="round"/>
<path d="M244.676 168.241C244.676 168.241 244.562 165.83 241.48 164.565" stroke="#263238" stroke-linecap="round" stroke-linejoin="round"/>
<path d="M245.249 171.837L242.608 171.358" stroke="#263238" stroke-linecap="round" stroke-linejoin="round"/>
<path d="M245.423 175.453C245.423 175.453 240.441 176.693 238.715 178.585" stroke="#263238" stroke-linecap="round" stroke-linejoin="round"/>
<path d="M239.224 191.009C239.224 191.009 247.782 197.53 248.682 207.203L246.906 174.816" stroke="#263238" stroke-width="2" stroke-linecap="round" stroke-linejoin="round"/>
<path d="M259.941 186.287C248.682 184.261 248.682 207.203 248.682 207.203" stroke="#263238" stroke-width="2" stroke-linecap="round" stroke-linejoin="round"/>
<path d="M250.033 206.975C250.033 206.975 243.503 159.522 262.4 159.522" stroke="#263238" stroke-width="2" stroke-linecap="round" stroke-linejoin="round"/>
<path d="M255.652 184.918C254.114 183.194 250.844 183.194 248.925 187.611C247.005 192.027 248.732 191.256 248.732 191.256C248.732 191.256 252.382 190.105 254.668 189.335C256.953 188.564 260.05 186.647 260.243 187.803C260.436 188.959 258.704 190.105 256.587 190.491C254.47 190.876 248.9 192.407 249.474 193.563C250.048 194.719 251.398 198.167 251.398 198.167C253.041 196.776 254.775 195.493 256.587 194.329C259.09 192.793 260.628 193.371 259.283 195.095C257.937 196.819 254.089 198.745 254.861 201.047C255.632 203.349 260.262 206.234 260.262 206.234C260.262 206.234 260.836 201.433 262.187 199.896C263.537 198.36 263.532 200.089 263.146 202.776C262.953 203.921 262.824 205.075 262.76 206.234L268.142 208.151C269.023 206.813 269.986 205.531 271.026 204.313L272.016 203.354C272.016 203.354 267.786 199.704 267.593 197.426C267.4 195.149 270.477 197.426 271.437 197.812C272.397 198.197 273.935 200.879 273.935 200.879C273.935 200.879 274.9 196.468 275.092 194.951L275.285 193.415C275.285 193.415 271.244 191.879 269.706 191.879C268.167 191.879 267.4 193.03 267.4 191.493C267.4 189.957 268.939 188.999 270.67 189.191C272.237 189.45 273.781 189.835 275.285 190.342C275.285 190.342 276.438 189.379 276.052 186.499C275.666 183.619 274.707 183.619 272.401 184.39C270.096 185.16 268.553 186.86 266.822 186.86C265.09 186.86 266.055 184.75 267.207 184.172C268.36 183.594 271.244 182.443 271.823 182.251C272.401 182.058 268.746 179.371 266.822 178.99C264.897 178.61 262.409 179.978 262.592 181.87C262.958 185.882 257.19 186.672 255.652 184.918Z" fill="white"/>
<path d="M268.029 204.688C268.088 205.266 268.128 205.849 268.148 206.427" stroke="#263238" stroke-linecap="round" stroke-linejoin="round"/>
<path d="M264.166 190.906C265.855 194.71 267.071 198.706 267.786 202.806" stroke="#263238" stroke-linecap="round" stroke-linejoin="round"/>
<path d="M263.473 189.364C262.523 187.319 261.806 186.074 261.806 186.074C262.845 185.574 263.708 184.769 264.279 183.767C264.73 182.859 265.389 182.07 266.203 181.465" stroke="#263238" stroke-linecap="round" stroke-linejoin="round"/>
<path d="M255.073 192.6C255.073 192.6 261.999 189.72 261.999 190.298" stroke="#263238" stroke-linecap="round" stroke-linejoin="round"/>
<path d="M265.842 188.954C265.842 188.954 268.919 187.418 271.61 187.418" stroke="#263238" stroke-linecap="round" stroke-linejoin="round"/>
<path d="M264.715 193.588C263.381 194.682 262.157 195.903 261.059 197.234C259.937 198.556 259.029 200.047 258.368 201.65" stroke="#263238" stroke-linecap="round" stroke-linejoin="round"/>
<path d="M266.802 194.329C266.802 194.329 270.843 193.178 272.955 195.095" stroke="#263238" stroke-linecap="round" stroke-linejoin="round"/>
<path d="M274.113 168.394C272.021 167.159 269.706 167.129 268.568 165.825C267.43 164.521 269.661 163.849 270.853 164.343C272.045 164.837 274.811 166.255 275.33 166.566C275.849 166.877 275.493 162.357 274.524 160.638C273.554 158.919 270.898 157.946 269.577 159.334C266.782 162.268 262.419 158.42 262.716 156.128C263.013 153.836 260.871 151.371 256.285 152.818C251.7 154.266 253.401 155.061 253.401 155.061C253.401 155.061 256.666 157.062 258.764 158.302C260.861 159.541 264.324 160.599 263.577 161.498C262.83 162.397 260.826 161.848 259.149 160.51C257.473 159.171 252.659 155.97 252.165 157.16C251.67 158.351 249.939 161.606 249.939 161.606C252.07 161.933 254.177 162.4 256.246 163.004C259.046 163.879 259.619 165.415 257.433 165.534C255.247 165.652 251.269 164.012 250.013 166.102C248.757 168.191 249.622 173.561 249.622 173.561C249.622 173.561 253.629 170.849 255.672 170.859C257.715 170.869 256.409 172 254.124 173.472C253.134 174.078 252.178 174.738 251.26 175.448L253.337 180.769C254.926 180.554 256.527 180.44 258.13 180.428L259.486 180.522C259.486 180.522 259.486 174.939 261.089 173.285C262.691 171.63 262.978 175.458 263.319 176.436C263.661 177.414 262.637 180.334 262.637 180.334C262.637 180.334 266.594 178.165 267.89 177.306L269.181 176.441C269.181 176.441 267.697 172.39 266.708 171.23C265.719 170.069 264.329 170.242 265.486 169.254C266.644 168.266 268.385 168.76 269.374 170.207C270.202 171.559 270.922 172.975 271.526 174.441C271.526 174.441 273.01 174.683 274.934 172.504C276.858 170.325 276.21 169.624 274.113 168.394ZM255.919 174.539C254.381 173.774 258.032 172.237 258.032 172.237C259.382 172.035 257.458 175.31 255.924 174.529L255.919 174.539ZM258.506 167.371C257.853 167.045 259.817 166.383 259.817 166.383C262.667 166.912 259.169 167.692 258.511 167.361L258.506 167.371Z" fill="white"/>
<path d="M255.88 178.442C255.481 178.867 255.07 179.277 254.648 179.672" stroke="#263238" stroke-linecap="round" stroke-linejoin="round"/>
<path d="M263.77 166.492C262.003 170.261 259.778 173.798 257.146 177.024" stroke="#263238" stroke-linecap="round" stroke-linejoin="round"/>
<path d="M264.482 164.961C265.407 162.901 265.877 161.542 265.877 161.542C266.94 162.011 268.121 162.142 269.26 161.918C270.243 161.662 271.271 161.641 272.263 161.858" stroke="#263238" stroke-linecap="round" stroke-linejoin="round"/>
<path d="M262.81 164.442C263.245 164.067 256.533 160.732 256.533 160.732" stroke="#263238" stroke-linecap="round" stroke-linejoin="round"/>
<path d="M266.347 166.477C266.347 166.477 269.527 167.791 271.293 169.822" stroke="#263238" stroke-linecap="round" stroke-linejoin="round"/>
<path d="M262.107 168.626C260.405 168.341 258.679 168.22 256.953 168.266C255.218 168.285 253.497 168.577 251.853 169.13" stroke="#263238" stroke-linecap="round" stroke-linejoin="round"/>
<path d="M262.914 170.726C262.914 170.726 266.431 173.018 266.377 175.868" stroke="#263238" stroke-linecap="round" stroke-linejoin="round"/>
<path d="M244.24 194.991C242.559 194.003 240.694 193.973 239.788 192.921C238.883 191.869 240.664 191.34 241.624 191.74C242.583 192.141 244.804 193.277 245.23 193.524C245.655 193.771 245.358 190.14 244.577 188.772C243.795 187.403 241.658 186.603 240.62 187.724C238.369 190.081 234.857 186.988 235.099 185.141C235.341 183.293 233.615 181.312 229.91 182.478C226.205 183.644 227.59 184.286 227.59 184.286C227.59 184.286 230.217 185.896 231.903 186.889C233.59 187.882 236.355 188.737 235.777 189.463C235.198 190.189 233.566 189.745 232.215 188.663C230.865 187.581 226.991 185.007 226.591 185.966C226.19 186.924 224.805 189.567 224.805 189.567C226.52 189.828 228.215 190.203 229.88 190.688C232.131 191.395 232.591 192.635 230.83 192.728C229.069 192.822 225.883 191.503 224.894 193.183C223.905 194.863 224.582 199.185 224.582 199.185C224.582 199.185 227.808 197.007 229.45 197.011C231.092 197.016 230.044 197.93 228.208 199.116C227.41 199.602 226.638 200.131 225.898 200.702L227.57 204.985C228.849 204.811 230.138 204.718 231.429 204.708L232.522 204.787C232.522 204.787 232.522 200.292 233.813 198.963C235.104 197.634 235.332 200.712 235.604 201.497C235.876 202.282 235.055 204.634 235.055 204.634C235.055 204.634 238.25 202.89 239.284 202.194L240.323 201.502C240.323 201.502 239.126 198.242 238.314 197.308C237.503 196.374 236.395 196.513 237.325 195.702C238.255 194.892 239.655 195.322 240.451 196.473C241.119 197.562 241.7 198.701 242.188 199.882C242.188 199.882 243.38 200.074 244.928 198.321C246.476 196.567 245.917 195.984 244.24 194.991ZM229.598 199.931C228.362 199.314 231.3 198.079 231.3 198.079C232.383 197.925 230.835 200.553 229.593 199.936L229.598 199.931ZM231.686 194.161C231.157 193.899 232.739 193.371 232.739 193.371C235.035 193.815 232.21 194.433 231.686 194.166V194.161Z" fill="white"/>
<path d="M229.593 203.083C229.272 203.423 228.94 203.754 228.604 204.071" stroke="#263238" stroke-linecap="round" stroke-linejoin="round"/>
<path d="M235.915 193.469C234.491 196.5 232.7 199.346 230.583 201.942" stroke="#263238" stroke-linecap="round" stroke-linejoin="round"/>
<path d="M236.489 192.234C237.231 190.579 237.612 189.483 237.612 189.483C238.466 189.859 239.416 189.965 240.332 189.784C241.122 189.579 241.949 189.562 242.746 189.735" stroke="#263238" stroke-linecap="round" stroke-linejoin="round"/>
<path d="M230.088 188.846C230.088 188.846 235.495 191.528 235.143 191.81" stroke="#263238" stroke-linecap="round" stroke-linejoin="round"/>
<path d="M238.002 193.455C238.002 193.455 240.56 194.512 241.96 196.142" stroke="#263238" stroke-linecap="round" stroke-linejoin="round"/>
<path d="M234.574 195.184C233.205 194.952 231.817 194.854 230.429 194.892C229.032 194.909 227.647 195.144 226.323 195.589" stroke="#263238" stroke-linecap="round" stroke-linejoin="round"/>
<path d="M235.223 196.873C235.223 196.873 238.057 198.716 238.003 201.013" stroke="#263238" stroke-linecap="round" stroke-linejoin="round"/>
<path d="M237.374 163.286C237.374 163.286 235.257 164.822 233.912 163.286C232.566 161.75 234.49 158.677 232.561 157.526C230.632 156.375 227.565 158.484 227.565 158.484C227.565 158.484 230.063 159.062 230.063 160.406C230.063 161.75 228.91 162.323 228.718 161.75C228.525 161.177 227.179 158.292 225.255 159.635C224.7 160.009 224.227 160.491 223.864 161.052C223.501 161.613 223.255 162.242 223.143 162.901C223.143 162.901 227.753 162.13 228.139 163.859C228.525 165.588 226.215 163.666 224.295 163.666C222.376 163.666 220.64 164.052 220.833 165.203C220.937 166.224 220.937 167.254 220.833 168.275C221.829 167.344 223.125 166.799 224.488 166.739C226.6 166.739 226.6 168.083 224.681 168.083C222.762 168.083 221.218 170.004 221.218 170.004C221.218 170.004 223.143 172.884 225.448 174.228C227.753 175.572 228.525 174.999 228.718 173.843C228.91 172.687 228.139 169.812 229.484 169.812C230.83 169.812 227.565 174.999 229.291 175.187C231.018 175.374 232.368 174.806 232.754 173.65L233.14 172.499C233.14 172.499 232.368 169.619 232.561 168.468C232.754 167.317 233.14 168.468 233.521 169.812C233.902 171.155 234.292 174.421 234.866 174.228C235.44 174.035 237.176 171.541 237.562 170.582C237.948 169.624 234.866 166.932 234.866 166.359C234.866 165.786 237.176 166.739 237.562 167.317C237.84 167.752 238.096 168.2 238.329 168.661C238.329 168.661 239.674 167.702 239.482 165.01C239.289 162.318 237.374 163.286 237.374 163.286Z" fill="white"/>
<path d="M226.625 170.246C227.956 168.394 229.924 165.875 231.631 164.63" stroke="#263238" stroke-linecap="round" stroke-linejoin="round"/>
<path d="M225.067 172.499C225.067 172.499 225.408 171.966 225.957 171.165" stroke="#263238" stroke-linecap="round" stroke-linejoin="round"/>
<path d="M232.561 165.01C232.561 165.01 234.866 167.89 235.445 170.963" stroke="#263238" stroke-linecap="round" stroke-linejoin="round"/>
<path d="M230.261 166.912C230.261 166.912 230.835 166.527 230.835 170.37" stroke="#263238" stroke-linecap="round" stroke-linejoin="round"/>
<path d="M231.606 163.286C231.606 163.286 232.759 162.13 231.987 160.021" stroke="#263238" stroke-linecap="round" stroke-linejoin="round"/>
<path d="M230.068 165.203L229.104 163.666" stroke="#263238" stroke-linecap="round" stroke-linejoin="round"/>
<path d="M228.337 166.912C228.337 166.912 225.453 164.99 223.722 164.99" stroke="#263238" stroke-linecap="round" stroke-linejoin="round"/>
<path d="M256.79 206.299H241.925V227.664H256.79V206.299Z" fill="#263238" stroke="#263238" stroke-width="2" stroke-linecap="round" stroke-linejoin="round"/>
<path d="M122.904 42.1177C122.904 42.1177 123.083 35.8044 122.859 30.3753C122.636 24.9463 123.088 13.3076 123.088 13.3076" stroke="#263238" stroke-miterlimit="10"/>
<path d="M122.983 20.1544L120.514 18.213" stroke="#263238" stroke-miterlimit="10"/>
<path d="M122.953 21.4882L123.834 20.0704" stroke="#263238" stroke-miterlimit="10"/>
<path d="M122.755 27.1051L124.946 25.2921" stroke="#263238" stroke-miterlimit="10"/>
<path d="M123.087 15.6937L121.929 14.6415" stroke="#263238" stroke-miterlimit="10"/>
<path d="M122.736 28.0881L121.286 26.537" stroke="#263238" stroke-miterlimit="10"/>
<path d="M122.859 34.184L119.847 31.4374" stroke="#263238" stroke-miterlimit="10"/>
<path d="M122.938 37.568C123.706 37.2707 124.453 36.9225 125.174 36.5256" stroke="#263238" stroke-miterlimit="10"/>
<path d="M121.261 21.1277C120.049 20.194 115.983 20.3571 115.202 22.2985C114.42 24.2399 116.908 27.4064 119.283 27.1841C120.218 27.0952 120.623 27.031 120.989 26.5074L117.65 23.247L121.266 26.1517C121.368 25.9626 121.451 25.7641 121.514 25.5589C121.553 25.4156 121.593 25.2575 121.622 25.0945C121.875 23.9336 122.404 22.0021 121.261 21.1277Z" fill="white"/>
<path d="M129.131 18.875V18.9442C128.805 20.3916 127.153 21.2116 125.753 21.0881C125.559 21.0717 125.367 21.0369 125.179 20.9844C124.852 21.5016 124.649 22.0876 124.588 22.6962C124.526 23.3049 124.606 23.9195 124.823 24.4918C124.881 24.6554 124.959 24.8113 125.055 24.9561C125.466 24.6202 129.859 20.8757 129.859 20.8757L125.298 25.2624C126.673 26.7444 129.898 26.532 131.021 23.8101C132.144 21.0881 130.714 19.2653 129.131 18.875Z" fill="white"/>
<path d="M126.896 13.8115C124.531 13.3175 122.414 14.3648 122.444 16.8299C122.457 17.3733 122.581 17.9083 122.809 18.4019C123.037 18.8955 123.364 19.3373 123.769 19.7L126.208 16.3803L124.16 20.0013C124.619 20.3139 125.15 20.5043 125.704 20.5546C127.098 20.6732 128.756 19.8531 129.082 18.4057C129.423 16.7903 129.26 14.3302 126.896 13.8115Z" fill="white"/>
<path d="M124.136 5.2406C124.136 5.2406 123.893 5.3147 122.379 6.05076C121.493 6.53874 120.837 7.35727 120.553 8.3274C120.269 9.29752 120.382 10.3403 120.866 11.2279C121.285 12.0571 122.01 12.6912 122.889 12.9964L123.497 7.12274L123.24 13.0754C123.355 13.0873 123.471 13.0873 123.586 13.0754C124.576 12.9766 126.124 11.8009 126.272 9.39514C126.421 6.98936 124.136 5.2406 124.136 5.2406Z" fill="white"/>
<path d="M117.225 10.5808L121.791 14.2265C121.836 14.0659 121.851 13.8985 121.835 13.7325C121.622 11.6478 119.54 10.4375 118.165 10.0028C116.789 9.56807 115.835 10.3437 116.72 12.3394C117.606 14.3352 119.926 15.3034 120.96 15.0021C121.205 14.9416 121.426 14.8071 121.593 14.6168L117.225 10.5808Z" fill="white"/>
<path d="M120.366 15.2539C119.666 15.2035 118.987 14.995 118.379 14.6442C117.772 14.2933 117.252 13.8093 116.859 13.2285C116.374 13.1826 115.89 13.3279 115.511 13.6335C115.132 13.9391 114.888 14.3806 114.831 14.8637C114.366 17.0373 115.939 19.3097 118.209 19.033C118.922 18.9959 119.599 18.707 120.119 18.2179L116.062 14.5179L120.406 17.8227C120.491 17.6702 120.545 17.5023 120.564 17.3287C120.704 16.6328 120.635 15.911 120.366 15.2539V15.2539Z" fill="white"/>
<path d="M120.341 27.3422C119.972 27.4999 119.579 27.5935 119.179 27.6188C117.695 27.7571 116.181 26.5962 115.429 25.2328C114.988 25.2626 114.569 25.4394 114.24 25.7349C113.911 26.0305 113.69 26.4276 113.614 26.863C113.164 29.4071 115.523 32.7613 117.907 32.2278C118.527 32.1073 119.101 31.8165 119.565 31.388L114.361 26.3887L119.866 31.062C120.181 30.6588 120.384 30.1801 120.455 29.6738C120.716 28.9105 120.675 28.0766 120.341 27.3422Z" fill="white"/>
<path d="M130.813 32.544C129.062 30.5186 126.98 32.3315 126.98 32.3315C126.98 32.3315 125.703 32.7514 125.219 34.5595C125.07 35.108 125.093 35.6887 125.283 36.2243L130.546 33.1615L125.411 36.5108C125.906 37.4197 126.935 37.9928 128.379 37.5729C130.685 36.9406 132.559 34.5842 130.813 32.544Z" fill="white"/>
<path d="M126.451 40.2108H119.164V50.985H126.451V40.2108Z" fill="#263238"/>
<path d="M206.873 50.896H110.77V228.356H206.873V50.896Z" fill="white" stroke="#263238" stroke-miterlimit="10"/>
<path d="M193.32 53.1438H112.768V225.654H193.32V53.1438Z" fill="#263238" stroke="#263238" stroke-linecap="round" stroke-linejoin="round"/>
<path d="M193.32 79.8988H112.768V82.4429H193.32V79.8988Z" fill="white" stroke="#263238" stroke-miterlimit="10"/>
<path d="M193.32 109.312H112.768V111.856H193.32V109.312Z" fill="white" stroke="#263238" stroke-miterlimit="10"/>
<path d="M167.359 53.1733H165.648V79.8938H167.359V53.1733Z" fill="white" stroke="#263238" stroke-miterlimit="10"/>
<path d="M139.975 53.1733H138.263V79.8938H139.975V53.1733Z" fill="white" stroke="#263238" stroke-miterlimit="10"/>
<path d="M167.359 111.885H165.648V138.606H167.359V111.885Z" fill="white" stroke="#263238" stroke-miterlimit="10"/>
<path d="M139.975 111.885H138.263V138.606H139.975V111.885Z" fill="white" stroke="#263238" stroke-miterlimit="10"/>
<path d="M153.533 82.5862H151.822V109.307H153.533V82.5862Z" fill="white" stroke="#263238" stroke-miterlimit="10"/>
<path d="M193.32 138.611H112.768V141.155H193.32V138.611Z" fill="white" stroke="#263238" stroke-miterlimit="10"/>
<path d="M193.32 167.925H112.768V226.553H193.32V167.925Z" fill="white" stroke="#263238" stroke-miterlimit="10"/>
<path d="M153.533 141.199H151.822V167.92H153.533V141.199Z" fill="white" stroke="#263238" stroke-miterlimit="10"/>
<path d="M195.293 50.8812V228.316L206.879 228.356V50.8812H195.293Z" fill="#263238" stroke="#263238" stroke-linecap="round" stroke-linejoin="round"/>
<path d="M172.682 55.2482H168.546V79.8345H172.682V55.2482Z" fill="white" stroke="#263238" stroke-miterlimit="10"/>
<path d="M172.682 74.5537H168.546V76.5692H172.682V74.5537Z" fill="white" stroke="#263238" stroke-miterlimit="10"/>
<path d="M172.682 57.7429H168.546V59.7584H172.682V57.7429Z" fill="white" stroke="#263238" stroke-miterlimit="10"/>
<path d="M176.911 55.2482H172.776V79.8345H176.911V55.2482Z" fill="white" stroke="#263238" stroke-miterlimit="10"/>
<path d="M176.911 74.5537H172.776V76.5692H176.911V74.5537Z" fill="white" stroke="#263238" stroke-miterlimit="10"/>
<path d="M176.911 57.7429H172.776V59.7584H176.911V57.7429Z" fill="white" stroke="#263238" stroke-miterlimit="10"/>
<path d="M181.146 55.2482H177.01V79.8345H181.146V55.2482Z" fill="white" stroke="#263238" stroke-miterlimit="10"/>
<path d="M181.146 74.5537H177.01V76.5692H181.146V74.5537Z" fill="white" stroke="#263238" stroke-miterlimit="10"/>
<path d="M181.146 57.7429H177.01V59.7584H181.146V57.7429Z" fill="white" stroke="#263238" stroke-miterlimit="10"/>
<path d="M185.375 55.2482H181.24V79.8345H185.375V55.2482Z" fill="white" stroke="#263238" stroke-miterlimit="10"/>
<path d="M192.266 55.2482H185.34V79.8345H192.266V55.2482Z" fill="white" stroke="#263238" stroke-miterlimit="10"/>
<path d="M185.375 74.5537H181.24V76.5692H185.375V74.5537Z" fill="white" stroke="#263238" stroke-miterlimit="10"/>
<path d="M185.375 57.7429H181.24V59.7584H185.375V57.7429Z" fill="white" stroke="#263238" stroke-miterlimit="10"/>
<path d="M145.015 55.2482H140.88V79.8345H145.015V55.2482Z" fill="white" stroke="#263238" stroke-miterlimit="10"/>
<path d="M145.015 74.5537H140.88V76.5692H145.015V74.5537Z" fill="white" stroke="#263238" stroke-miterlimit="10"/>
<path d="M145.015 57.7429H140.88V59.7584H145.015V57.7429Z" fill="white" stroke="#263238" stroke-miterlimit="10"/>
<path d="M149.245 55.2482H145.109V79.8345H149.245V55.2482Z" fill="white" stroke="#263238" stroke-miterlimit="10"/>
<path d="M149.245 74.5537H145.109V76.5692H149.245V74.5537Z" fill="white" stroke="#263238" stroke-miterlimit="10"/>
<path d="M149.245 57.7429H145.109V59.7584H149.245V57.7429Z" fill="white" stroke="#263238" stroke-miterlimit="10"/>
<path d="M153.479 55.2482H149.344V79.8345H153.479V55.2482Z" fill="white" stroke="#263238" stroke-miterlimit="10"/>
<path d="M153.479 74.5537H149.344V76.5692H153.479V74.5537Z" fill="white" stroke="#263238" stroke-miterlimit="10"/>
<path d="M153.479 57.7429H149.344V59.7584H153.479V57.7429Z" fill="white" stroke="#263238" stroke-miterlimit="10"/>
<path d="M157.709 55.2482H153.573V79.8345H157.709V55.2482Z" fill="white" stroke="#263238" stroke-miterlimit="10"/>
<path d="M164.599 55.2482H157.674V79.8345H164.599V55.2482Z" fill="white" stroke="#263238" stroke-miterlimit="10"/>
<path d="M157.709 74.5537H153.573V76.5692H157.709V74.5537Z" fill="white" stroke="#263238" stroke-miterlimit="10"/>
<path d="M157.709 57.7429H153.573V59.7584H157.709V57.7429Z" fill="white" stroke="#263238" stroke-miterlimit="10"/>
<path d="M145.015 114.049H140.88V138.635H145.015V114.049Z" fill="white" stroke="#263238" stroke-miterlimit="10"/>
<path d="M145.015 133.354H140.88V135.37H145.015V133.354Z" fill="white" stroke="#263238" stroke-miterlimit="10"/>
<path d="M145.015 116.549H140.88V118.564H145.015V116.549Z" fill="white" stroke="#263238" stroke-miterlimit="10"/>
<path d="M149.245 114.049H145.109V138.635H149.245V114.049Z" fill="white" stroke="#263238" stroke-miterlimit="10"/>
<path d="M149.245 133.354H145.109V135.37H149.245V133.354Z" fill="white" stroke="#263238" stroke-miterlimit="10"/>
<path d="M149.245 116.549H145.109V118.564H149.245V116.549Z" fill="white" stroke="#263238" stroke-miterlimit="10"/>
<path d="M153.479 114.049H149.344V138.635H153.479V114.049Z" fill="white" stroke="#263238" stroke-miterlimit="10"/>
<path d="M153.479 133.354H149.344V135.37H153.479V133.354Z" fill="white" stroke="#263238" stroke-miterlimit="10"/>
<path d="M153.479 116.549H149.344V118.564H153.479V116.549Z" fill="white" stroke="#263238" stroke-miterlimit="10"/>
<path d="M157.709 114.049H153.573V138.635H157.709V114.049Z" fill="white" stroke="#263238" stroke-miterlimit="10"/>
<path d="M164.599 114.049H157.674V138.635H164.599V114.049Z" fill="white" stroke="#263238" stroke-miterlimit="10"/>
<path d="M157.709 133.354H153.573V135.37H157.709V133.354Z" fill="white" stroke="#263238" stroke-miterlimit="10"/>
<path d="M157.709 116.549H153.573V118.564H157.709V116.549Z" fill="white" stroke="#263238" stroke-miterlimit="10"/>
<path d="M172.326 114.049H168.19V138.635H172.326V114.049Z" fill="white" stroke="#263238" stroke-miterlimit="10"/>
<path d="M172.326 133.354H168.19V135.37H172.326V133.354Z" fill="white" stroke="#263238" stroke-miterlimit="10"/>
<path d="M172.326 116.549H168.19V118.564H172.326V116.549Z" fill="white" stroke="#263238" stroke-miterlimit="10"/>
<path d="M176.56 114.049H172.425V138.635H176.56V114.049Z" fill="white" stroke="#263238" stroke-miterlimit="10"/>
<path d="M176.56 133.354H172.425V135.37H176.56V133.354Z" fill="white" stroke="#263238" stroke-miterlimit="10"/>
<path d="M176.56 116.549H172.425V118.564H176.56V116.549Z" fill="white" stroke="#263238" stroke-miterlimit="10"/>
<path d="M180.79 114.049H176.654V138.635H180.79V114.049Z" fill="white" stroke="#263238" stroke-miterlimit="10"/>
<path d="M180.79 133.354H176.654V135.37H180.79V133.354Z" fill="white" stroke="#263238" stroke-miterlimit="10"/>
<path d="M180.79 116.549H176.654V118.564H180.79V116.549Z" fill="white" stroke="#263238" stroke-miterlimit="10"/>
<path d="M185.024 114.049H180.889V138.635H185.024V114.049Z" fill="white" stroke="#263238" stroke-miterlimit="10"/>
<path d="M191.91 114.049H184.984V138.635H191.91V114.049Z" fill="white" stroke="#263238" stroke-miterlimit="10"/>
<path d="M185.024 133.354H180.889V135.37H185.024V133.354Z" fill="white" stroke="#263238" stroke-miterlimit="10"/>
<path d="M185.024 116.549H180.889V118.564H185.024V116.549Z" fill="white" stroke="#263238" stroke-miterlimit="10"/>
<path d="M117.878 114.049H113.743V138.635H117.878V114.049Z" fill="white" stroke="#263238" stroke-miterlimit="10"/>
<path d="M117.878 133.354H113.743V135.37H117.878V133.354Z" fill="white" stroke="#263238" stroke-miterlimit="10"/>
<path d="M117.878 116.549H113.743V118.564H117.878V116.549Z" fill="white" stroke="#263238" stroke-miterlimit="10"/>
<path d="M122.112 114.049H117.977V138.635H122.112V114.049Z" fill="white" stroke="#263238" stroke-miterlimit="10"/>
<path d="M122.112 133.354H117.977V135.37H122.112V133.354Z" fill="white" stroke="#263238" stroke-miterlimit="10"/>
<path d="M122.112 116.549H117.977V118.564H122.112V116.549Z" fill="white" stroke="#263238" stroke-miterlimit="10"/>
<path d="M126.341 114.049H122.206V138.635H126.341V114.049Z" fill="white" stroke="#263238" stroke-miterlimit="10"/>
<path d="M126.341 133.354H122.206V135.37H126.341V133.354Z" fill="white" stroke="#263238" stroke-miterlimit="10"/>
<path d="M126.341 116.549H122.206V118.564H126.341V116.549Z" fill="white" stroke="#263238" stroke-miterlimit="10"/>
<path d="M130.576 114.049H126.44V138.635H130.576V114.049Z" fill="white" stroke="#263238" stroke-miterlimit="10"/>
<path d="M137.462 114.049H130.537V138.635H137.462V114.049Z" fill="white" stroke="#263238" stroke-miterlimit="10"/>
<path d="M130.576 133.354H126.44V135.37H130.576V133.354Z" fill="white" stroke="#263238" stroke-miterlimit="10"/>
<path d="M130.576 116.549H126.44V118.564H130.576V116.549Z" fill="white" stroke="#263238" stroke-miterlimit="10"/>
<path d="M117.349 55.2482H113.213V79.8345H117.349V55.2482Z" fill="white" stroke="#263238" stroke-miterlimit="10"/>
<path d="M117.349 74.5537H113.213V76.5692H117.349V74.5537Z" fill="white" stroke="#263238" stroke-miterlimit="10"/>
<path d="M117.349 57.7429H113.213V59.7584H117.349V57.7429Z" fill="white" stroke="#263238" stroke-miterlimit="10"/>
<path d="M121.578 55.2482H117.442V79.8345H121.578V55.2482Z" fill="white" stroke="#263238" stroke-miterlimit="10"/>
<path d="M121.578 74.5537H117.442V76.5692H121.578V74.5537Z" fill="white" stroke="#263238" stroke-miterlimit="10"/>
<path d="M121.578 57.7429H117.442V59.7584H121.578V57.7429Z" fill="white" stroke="#263238" stroke-miterlimit="10"/>
<path d="M125.812 55.2482H121.677V79.8345H125.812V55.2482Z" fill="white" stroke="#263238" stroke-miterlimit="10"/>
<path d="M125.812 74.5537H121.677V76.5692H125.812V74.5537Z" fill="white" stroke="#263238" stroke-miterlimit="10"/>
<path d="M125.812 57.7429H121.677V59.7584H125.812V57.7429Z" fill="white" stroke="#263238" stroke-miterlimit="10"/>
<path d="M130.042 55.2482H125.906V79.8345H130.042V55.2482Z" fill="white" stroke="#263238" stroke-miterlimit="10"/>
<path d="M136.933 55.2482H130.007V79.8345H136.933V55.2482Z" fill="white" stroke="#263238" stroke-miterlimit="10"/>
<path d="M130.042 74.5537H125.906V76.5692H130.042V74.5537Z" fill="white" stroke="#263238" stroke-miterlimit="10"/>
<path d="M130.042 57.7429H125.906V59.7584H130.042V57.7429Z" fill="white" stroke="#263238" stroke-miterlimit="10"/>
<path d="M129.587 84.5474H125.451V109.134H129.587V84.5474Z" fill="white" stroke="#263238" stroke-miterlimit="10"/>
<path d="M129.587 103.853H125.451V105.868H129.587V103.853Z" fill="white" stroke="#263238" stroke-miterlimit="10"/>
<path d="M129.587 87.047H125.451V89.0625H129.587V87.047Z" fill="white" stroke="#263238" stroke-miterlimit="10"/>
<path d="M125.506 84.5474H121.37V109.134H125.506V84.5474Z" fill="white" stroke="#263238" stroke-miterlimit="10"/>
<path d="M125.506 103.853H121.37V105.868H125.506V103.853Z" fill="white" stroke="#263238" stroke-miterlimit="10"/>
<path d="M125.506 87.047H121.37V89.0625H125.506V87.047Z" fill="white" stroke="#263238" stroke-miterlimit="10"/>
<path d="M121.424 84.5474H117.289V109.134H121.424V84.5474Z" fill="white" stroke="#263238" stroke-miterlimit="10"/>
<path d="M121.424 103.853H117.289V105.868H121.424V103.853Z" fill="white" stroke="#263238" stroke-miterlimit="10"/>
<path d="M121.424 87.047H117.289V89.0625H121.424V87.047Z" fill="white" stroke="#263238" stroke-miterlimit="10"/>
<path d="M117.349 84.5474H113.213V109.134H117.349V84.5474Z" fill="white" stroke="#263238" stroke-miterlimit="10"/>
<path d="M117.349 103.853H113.213V105.868H117.349V103.853Z" fill="white" stroke="#263238" stroke-miterlimit="10"/>
<path d="M117.349 87.047H113.213V89.0625H117.349V87.047Z" fill="white" stroke="#263238" stroke-miterlimit="10"/>
<path d="M133.816 84.5474H129.681V109.134H133.816V84.5474Z" fill="white" stroke="#263238" stroke-miterlimit="10"/>
<path d="M133.816 103.853H129.681V105.868H133.816V103.853Z" fill="white" stroke="#263238" stroke-miterlimit="10"/>
<path d="M133.816 87.047H129.681V89.0625H133.816V87.047Z" fill="white" stroke="#263238" stroke-miterlimit="10"/>
<path d="M138.046 84.5474H133.91V109.134H138.046V84.5474Z" fill="white" stroke="#263238" stroke-miterlimit="10"/>
<path d="M138.046 103.853H133.91V105.868H138.046V103.853Z" fill="white" stroke="#263238" stroke-miterlimit="10"/>
<path d="M138.046 87.047H133.91V89.0625H138.046V87.047Z" fill="white" stroke="#263238" stroke-miterlimit="10"/>
<path d="M142.28 84.5474H138.145V109.134H142.28V84.5474Z" fill="white" stroke="#263238" stroke-miterlimit="10"/>
<path d="M149.17 84.5474H142.245V109.134H149.17V84.5474Z" fill="white" stroke="#263238" stroke-miterlimit="10"/>
<path d="M142.28 103.853H138.145V105.868H142.28V103.853Z" fill="white" stroke="#263238" stroke-miterlimit="10"/>
<path d="M142.28 87.047H138.145V89.0625H142.28V87.047Z" fill="white" stroke="#263238" stroke-miterlimit="10"/>
<path d="M158.989 84.5474H154.854V109.134H158.989V84.5474Z" fill="white" stroke="#263238" stroke-miterlimit="10"/>
<path d="M158.989 103.853H154.854V105.868H158.989V103.853Z" fill="white" stroke="#263238" stroke-miterlimit="10"/>
<path d="M158.989 87.047H154.854V89.0625H158.989V87.047Z" fill="white" stroke="#263238" stroke-miterlimit="10"/>
<path d="M163.224 84.5474H159.088V109.134H163.224V84.5474Z" fill="white" stroke="#263238" stroke-miterlimit="10"/>
<path d="M163.224 103.853H159.088V105.868H163.224V103.853Z" fill="white" stroke="#263238" stroke-miterlimit="10"/>
<path d="M163.224 87.047H159.088V89.0625H163.224V87.047Z" fill="white" stroke="#263238" stroke-miterlimit="10"/>
<path d="M171.691 84.5413L167.835 86.1669L177.531 109.099L181.386 107.474L171.691 84.5413Z" fill="white" stroke="#263238" stroke-miterlimit="10"/>
<path d="M179.305 102.546L175.449 104.172L176.244 106.051L180.099 104.426L179.305 102.546Z" fill="white" stroke="#263238" stroke-miterlimit="10"/>
<path d="M172.678 86.8719L168.822 88.4974L169.617 90.377L173.472 88.7514L172.678 86.8719Z" fill="white" stroke="#263238" stroke-miterlimit="10"/>
<path d="M177.535 109.089H186.167L190.05 107.474L181.388 107.464L177.535 109.089Z" fill="white" stroke="#263238" stroke-miterlimit="10"/>
<path d="M171.693 84.5325H179.8L190.05 107.474L181.388 107.464L171.693 84.5325Z" fill="white" stroke="#263238" stroke-miterlimit="10"/>
<path d="M167.305 84.5474H163.169V109.134H167.305V84.5474Z" fill="white" stroke="#263238" stroke-miterlimit="10"/>
<path d="M167.305 103.853H163.169V105.868H167.305V103.853Z" fill="white" stroke="#263238" stroke-miterlimit="10"/>
<path d="M167.305 87.047H163.169V89.0625H167.305V87.047Z" fill="white" stroke="#263238" stroke-miterlimit="10"/>
<path d="M167.305 84.5474H171.693L167.834 86.1578L177.535 109.089H167.305V84.5474Z" fill="white" stroke="#263238" stroke-miterlimit="10"/>
<path d="M129.587 143.244H125.451V167.831H129.587V143.244Z" fill="white" stroke="#263238" stroke-miterlimit="10"/>
<path d="M129.587 162.55H125.451V164.565H129.587V162.55Z" fill="white" stroke="#263238" stroke-miterlimit="10"/>
<path d="M129.587 145.739H125.451V147.755H129.587V145.739Z" fill="white" stroke="#263238" stroke-miterlimit="10"/>
<path d="M125.506 143.244H121.37V167.831H125.506V143.244Z" fill="white" stroke="#263238" stroke-miterlimit="10"/>
<path d="M125.506 162.55H121.37V164.565H125.506V162.55Z" fill="white" stroke="#263238" stroke-miterlimit="10"/>
<path d="M125.506 145.739H121.37V147.755H125.506V145.739Z" fill="white" stroke="#263238" stroke-miterlimit="10"/>
<path d="M121.424 143.244H117.289V167.831H121.424V143.244Z" fill="white" stroke="#263238" stroke-miterlimit="10"/>
<path d="M121.424 162.55H117.289V164.565H121.424V162.55Z" fill="white" stroke="#263238" stroke-miterlimit="10"/>
<path d="M121.424 145.739H117.289V147.755H121.424V145.739Z" fill="white" stroke="#263238" stroke-miterlimit="10"/>
<path d="M117.349 143.244H113.213V167.831H117.349V143.244Z" fill="white" stroke="#263238" stroke-miterlimit="10"/>
<path d="M117.349 162.55H113.213V164.565H117.349V162.55Z" fill="white" stroke="#263238" stroke-miterlimit="10"/>
<path d="M117.349 145.739H113.213V147.755H117.349V145.739Z" fill="white" stroke="#263238" stroke-miterlimit="10"/>
<path d="M133.816 143.244H129.681V167.831H133.816V143.244Z" fill="white" stroke="#263238" stroke-miterlimit="10"/>
<path d="M133.816 162.55H129.681V164.565H133.816V162.55Z" fill="white" stroke="#263238" stroke-miterlimit="10"/>
<path d="M133.816 145.739H129.681V147.755H133.816V145.739Z" fill="white" stroke="#263238" stroke-miterlimit="10"/>
<path d="M138.046 143.244H133.91V167.831H138.046V143.244Z" fill="white" stroke="#263238" stroke-miterlimit="10"/>
<path d="M138.046 162.55H133.91V164.565H138.046V162.55Z" fill="white" stroke="#263238" stroke-miterlimit="10"/>
<path d="M138.046 145.739H133.91V147.755H138.046V145.739Z" fill="white" stroke="#263238" stroke-miterlimit="10"/>
<path d="M142.28 143.244H138.145V167.831H142.28V143.244Z" fill="white" stroke="#263238" stroke-miterlimit="10"/>
<path d="M149.17 143.244H142.245V167.831H149.17V143.244Z" fill="white" stroke="#263238" stroke-miterlimit="10"/>
<path d="M142.28 162.55H138.145V164.565H142.28V162.55Z" fill="white" stroke="#263238" stroke-miterlimit="10"/>
<path d="M142.28 145.739H138.145V147.755H142.28V145.739Z" fill="white" stroke="#263238" stroke-miterlimit="10"/>
<path d="M158.989 143.244H154.854V167.831H158.989V143.244Z" fill="white" stroke="#263238" stroke-miterlimit="10"/>
<path d="M158.989 162.55H154.854V164.565H158.989V162.55Z" fill="white" stroke="#263238" stroke-miterlimit="10"/>
<path d="M158.989 145.739H154.854V147.755H158.989V145.739Z" fill="white" stroke="#263238" stroke-miterlimit="10"/>
<path d="M163.224 143.244H159.088V167.831H163.224V143.244Z" fill="white" stroke="#263238" stroke-miterlimit="10"/>
<path d="M163.224 162.55H159.088V164.565H163.224V162.55Z" fill="white" stroke="#263238" stroke-miterlimit="10"/>
<path d="M163.224 145.739H159.088V147.755H163.224V145.739Z" fill="white" stroke="#263238" stroke-miterlimit="10"/>
<path d="M171.687 143.235L167.832 144.861L177.527 167.793L181.383 166.168L171.687 143.235Z" fill="white" stroke="#263238" stroke-miterlimit="10"/>
<path d="M179.204 160.803L175.354 162.433L176.15 164.31L180 162.68L179.204 160.803Z" fill="white" stroke="#263238" stroke-width="0.99925" stroke-miterlimit="10"/>
<path d="M172.674 145.566L168.819 147.192L169.613 149.071L173.469 147.446L172.674 145.566Z" fill="white" stroke="#263238" stroke-miterlimit="10"/>
<path d="M177.535 167.786H186.167L190.05 166.171L181.388 166.156L177.535 167.786Z" fill="white" stroke="#263238" stroke-miterlimit="10"/>
<path d="M171.693 143.225H179.8L190.05 166.171L181.388 166.156L171.693 143.225Z" fill="white" stroke="#263238" stroke-miterlimit="10"/>
<path d="M167.305 143.244H163.169V167.831H167.305V143.244Z" fill="white" stroke="#263238" stroke-miterlimit="10"/>
<path d="M167.305 162.55H163.169V164.565H167.305V162.55Z" fill="white" stroke="#263238" stroke-miterlimit="10"/>
<path d="M167.305 145.739H163.169V147.755H167.305V145.739Z" fill="white" stroke="#263238" stroke-miterlimit="10"/>
<path d="M167.305 143.244H171.693L167.834 144.85L177.535 167.786H167.305V143.244Z" fill="white" stroke="#263238" stroke-miterlimit="10"/>
<path d="M151.822 167.92V225.569" stroke="#263238" stroke-miterlimit="10"/>
<path d="M113.421 175.058H193.3" stroke="#263238" stroke-miterlimit="10"/>
<path d="M129.814 179.934V190.387" stroke="#263238" stroke-width="2" stroke-miterlimit="10"/>
<path d="M133.302 179.934V190.387" stroke="#263238" stroke-width="2" stroke-miterlimit="10"/>
<path d="M169.932 179.934V190.387" stroke="#263238" stroke-width="2" stroke-miterlimit="10"/>
<path d="M173.419 179.934V190.387" stroke="#263238" stroke-width="2" stroke-miterlimit="10"/>
<path d="M215.564 51.8149V34.0902H241.376" stroke="#263238" stroke-miterlimit="10"/>
<path d="M243.276 34.0902H254.148V78.0562H215.564V54.5023" stroke="#263238" stroke-miterlimit="10"/>
<path d="M240.11 72.1282H220.763V40.0182H248.944V72.1282H242.326" stroke="#263238" stroke-miterlimit="10"/>
<path d="M240.273 49.8982H229.435V62.2482H240.273V49.8982Z" stroke="#263238" stroke-miterlimit="10"/>
<path d="M257.577 72.3061V61.2504H273.678" stroke="#263238" stroke-miterlimit="10"/>
<path d="M274.86 61.2504H281.642V88.6723H257.577V73.9807" stroke="#263238" stroke-miterlimit="10"/>
<path d="M272.886 84.9771H260.821V64.9454H278.397V84.9771H274.266" stroke="#263238" stroke-miterlimit="10"/>
<path d="M272.99 71.1106H266.228V78.8121H272.99V71.1106Z" stroke="#263238" stroke-miterlimit="10"/>
<path d="M2.44238 228.356H281.434" stroke="#263238" stroke-linecap="round" stroke-linejoin="round"/>
<path d="M22.2291 159.196C22.2291 159.196 19.2611 119.676 20.7451 115.23C22.2291 110.784 31.3804 111.031 33.1118 111.031C34.8431 111.031 70.9538 111.031 76.1478 113.501C81.3418 115.971 82.0838 176.733 82.0838 176.733H24.7024L22.2291 159.196Z" fill="#263238" stroke="#263238" stroke-miterlimit="10"/>
<path d="M84.0575 155.985C84.0575 155.985 78.1215 155.985 76.9343 161.913C75.7471 167.841 80.4217 192.294 80.768 199.21C81.1143 206.126 82.3311 215.759 82.3311 215.759H103.354L108.054 155.985H84.0575Z" fill="#263238" stroke="#263238" stroke-miterlimit="10"/>
<path d="M108.054 155.985C108.054 155.985 102.118 155.985 100.634 161.913C99.1499 167.841 102.613 192.294 102.613 199.21C102.613 206.126 103.355 215.759 103.355 215.759H110.775C110.775 215.759 111.517 197.975 111.517 195.505C111.517 193.035 114.485 167.347 113.001 162.16C111.517 156.973 110.28 156.479 108.054 155.985Z" fill="#636363" stroke="#263238" stroke-miterlimit="10"/>
<path d="M45.3549 113.624C45.3549 113.624 25.6919 121.652 25.6919 122.516C25.6919 123.381 32.3699 146.599 34.8432 150.18C37.3166 153.762 39.0479 157.714 39.7899 159.196C40.5319 160.678 43.7472 164.383 46.3442 164.383C48.9412 164.383 52.0329 161.295 60.3186 160.06C68.6042 158.825 76.0242 158.949 77.5082 157.837C78.9922 156.726 77.1372 153.762 76.8899 153.144C76.6425 152.527 75.6532 150.304 75.6532 150.304C75.6532 150.304 83.6915 156.973 86.9069 157.22C90.1222 157.467 92.4719 155.861 92.9665 153.762C93.4612 151.662 91.6062 146.599 90.3695 143.882C89.1329 141.165 83.3205 136.842 80.7235 133.508C78.1265 130.173 74.7875 126.221 72.4379 123.504C70.3903 121.112 67.8624 119.177 65.0179 117.823C62.7919 116.835 57.1032 114.365 53.5169 113.995C49.9306 113.624 45.3549 113.624 45.3549 113.624Z" fill="white" stroke="#263238" stroke-miterlimit="10"/>
<path d="M83.8942 142.563C83.8942 142.563 81.0944 150.304 82.0837 152.28C83.0731 154.256 85.7096 154.913 85.7096 154.913" stroke="#263238" stroke-miterlimit="10"/>
<path d="M42.3867 116.218L58.7107 132.026L61.1841 120.17" stroke="#263238" stroke-miterlimit="10"/>
<path d="M84.6809 143.511C84.6809 143.511 88.6382 146.352 89.9986 145.364C91.3589 144.376 90.9879 142.523 90.1222 140.547C89.2566 138.571 86.4123 137.46 85.2993 138.324C84.1863 139.189 83.8153 142.647 84.6809 143.511Z" fill="white" stroke="#263238" stroke-miterlimit="10"/>
<path d="M44.1182 108.437L44.7365 115.847L57.8452 128.691L59.8238 119.552L60.6895 115.724C60.6895 115.724 52.1565 114.242 49.4358 112.389C46.7152 110.537 44.1182 108.437 44.1182 108.437Z" fill="white" stroke="#263238" stroke-miterlimit="10"/>
<path d="M60.6895 115.724C60.6895 115.724 52.1565 114.242 49.4358 112.389C46.7152 110.537 44.1182 108.437 44.1182 108.437L44.7365 115.847L48.0508 119.093C50.628 119.819 53.1953 120.17 54.9415 119.498C56.8791 118.794 58.7309 117.875 60.4619 116.756L60.6895 115.724Z" fill="#263238" stroke="#263238" stroke-miterlimit="10"/>
<path d="M40.2002 102.717C40.2002 102.717 37.8901 92.1747 37.8901 90.3667C37.8901 88.5587 44.1576 79.3308 52.7301 80.8128C61.3027 82.2948 66.0861 87.2348 66.4176 88.7168C66.749 90.1987 65.4282 93.1627 65.4282 93.1627C65.6892 94.0214 65.8551 94.906 65.9229 95.8007C65.9229 96.7887 64.4389 101.067 64.4389 101.067L63.9442 96.6207C63.9442 96.6207 59.8237 97.7767 57.5136 97.7767C55.2035 97.7767 51.2461 96.2947 51.2461 96.2947C51.2461 96.2947 52.0722 98.9277 51.2461 100.247C50.42 101.566 47.9517 102.717 47.9517 102.717C47.9517 102.717 47.6202 105.35 46.6309 105.35C45.4104 105.288 44.1974 105.123 43.005 104.856C42.3421 104.693 40.2002 102.717 40.2002 102.717Z" fill="#263238" stroke="#263238" stroke-miterlimit="10"/>
<path d="M43.9944 103.868C43.9944 103.868 43.663 99.9157 40.3636 100.904C37.0642 101.892 39.211 105.513 41.0264 107.326C42.8419 109.139 43.3316 107.82 43.3316 107.82C43.3316 107.82 43.8263 111.609 46.2996 113.748C48.7729 115.887 52.567 119.839 56.5243 119.345C60.4817 118.851 63.2864 113.911 63.7811 110.29C64.2758 106.669 64.6022 98.1027 64.6022 97.1147C64.4831 96.0004 64.2629 94.8992 63.9443 93.8247C63.9443 93.8247 60.4817 96.2947 57.3504 95.6327C54.2192 94.9708 50.9198 93.6567 49.4358 93.6567C47.9518 93.6567 48.2783 95.8007 48.7729 96.4577C49.2676 97.1147 50.5883 98.4337 49.1043 99.2587C47.6203 100.084 45.6417 100.904 45.6417 100.904V104.362L43.9944 103.868Z" fill="white" stroke="#263238" stroke-miterlimit="10"/>
<path d="M59.7694 102.07L58.9582 110.996L54.897 109.82" stroke="#263238" stroke-miterlimit="10"/>
<path d="M56.3416 110.542C56.3416 110.542 54.363 110.542 53.2747 110.635C52.621 110.743 51.9568 110.773 51.296 110.724C50.8459 110.635 50.3067 110.275 51.207 111.174C52.1073 112.073 54.8181 113.15 56.2625 113.338C57.7069 113.525 58.7012 113.066 59.7796 112.35C60.8579 111.633 61.7582 110.907 61.224 110.729C60.4796 110.597 59.7243 110.536 58.9683 110.547V111.001L56.3416 110.542Z" fill="#263238" stroke="#263238" stroke-miterlimit="10"/>
<path d="M53.4969 105.132C53.822 105.132 54.0855 104.588 54.0855 103.917C54.0855 103.246 53.822 102.702 53.4969 102.702C53.1717 102.702 52.9082 103.246 52.9082 103.917C52.9082 104.588 53.1717 105.132 53.4969 105.132Z" fill="#263238"/>
<path d="M62.2974 103.739C62.2974 104.411 62.0352 104.955 61.7137 104.955C61.3921 104.955 61.125 104.411 61.125 103.739C61.125 103.068 61.3872 102.519 61.7137 102.519C62.0401 102.519 62.2974 103.068 62.2974 103.739Z" fill="#263238"/>
<path d="M51.2861 102.07C51.2861 102.07 53.7248 100.355 55.7085 101.082" stroke="#263238" stroke-miterlimit="10"/>
<path d="M60.2246 101.171C60.2246 101.171 62.7523 99.9948 63.8357 101.077" stroke="#263238" stroke-miterlimit="10"/>
<path d="M55.0801 106.15C55.0801 106.15 54.536 106.782 52.7305 107.321" stroke="#263238" stroke-miterlimit="10"/>
<path d="M60.0415 105.765C60.5757 106.133 61.1519 106.436 61.758 106.669" stroke="#263238" stroke-miterlimit="10"/>
<path d="M67.7388 129.185L68.6044 126.962C68.6044 126.962 69.7174 128.074 72.6854 128.074C75.6534 128.074 80.4764 130.173 80.4764 130.173L80.8474 130.791C80.8474 130.791 81.7131 128.197 83.3208 127.703C84.9284 127.209 87.5254 125.48 87.8964 124.986L88.2674 124.492L89.9988 125.974L82.3314 136.101L67.9861 130.544L67.7388 129.185Z" fill="white" stroke="#263238" stroke-miterlimit="10"/>
<path d="M67.8623 128.321L64.1523 147.957L77.0137 150.921L81.713 131.902L67.8623 128.321Z" fill="white" stroke="#263238" stroke-miterlimit="10"/>
<path d="M81.713 131.902L89.9986 125.974L85.052 144.993L77.0137 150.921L81.713 131.902Z" fill="white" stroke="#263238" stroke-miterlimit="10"/>
<path d="M51.9092 144.376L57.5138 142.069C57.5138 142.069 62.4604 136.803 62.9551 136.309C63.4498 135.815 68.3964 135.321 68.3964 135.321L73.8378 138.942C73.8378 138.942 74.8271 139.767 73.8378 140.093C72.8484 140.419 70.7065 139.436 70.7065 139.436L68.5597 138.117L67.2438 138.779L70.0437 141.081C70.0437 141.081 70.8698 143.225 70.8698 144.376C70.8546 145.115 70.6861 145.843 70.3751 146.515L68.7278 148.822L63.7812 146.352C63.7812 146.352 60.8132 148.491 60.1503 148.822C59.4875 149.153 53.225 148.659 53.225 148.659L51.9092 144.376Z" fill="white" stroke="#263238" stroke-miterlimit="10"/>
<path d="M63.7368 138.606L65.4879 138.275L66.9917 138.69" stroke="#263238" stroke-miterlimit="10"/>
<path d="M62.0698 141.856C62.0698 141.856 65.9876 140.77 66.2399 140.77C66.4921 140.77 69.4107 143.768 69.4107 143.768L69.7421 147.019" stroke="#263238" stroke-miterlimit="10"/>
<path d="M62.2378 143.936L65.4037 144.02L68.3222 145.937C68.6183 146.869 68.7554 147.844 68.7278 148.822" stroke="#263238" stroke-miterlimit="10"/>
<path d="M29.1545 120.17C29.1545 120.17 25.5236 120.664 25.029 123.791C24.5343 126.918 21.2398 153.268 22.2291 156.232C23.2185 159.196 41.5211 154.093 42.179 153.762C42.837 153.431 53.225 150.304 53.3931 149.647C53.5613 148.99 53.8878 143.551 52.4038 143.225C50.9198 142.899 36.7377 143.388 36.7377 143.388L34.759 126.261" fill="white"/>
<path d="M29.1545 120.17C29.1545 120.17 25.5236 120.664 25.029 123.791C24.5343 126.918 21.2398 153.268 22.2291 156.232C23.2185 159.196 41.5211 154.093 42.179 153.762C42.837 153.431 53.225 150.304 53.3931 149.647C53.5613 148.99 53.8878 143.551 52.4038 143.225C50.9198 142.899 36.7377 143.388 36.7377 143.388L34.759 126.261" stroke="#263238" stroke-miterlimit="10"/>
<path d="M36.7378 143.388L27.9971 144.87" stroke="#263238" stroke-miterlimit="10"/>
<path d="M26.3496 142.894L33.9328 143.882" stroke="#263238" stroke-miterlimit="10"/>
<path d="M87.7724 134.125C87.7724 134.125 84.4334 137.583 84.5571 138.448C84.6807 139.312 86.4121 137.954 86.7831 137.583C87.1541 137.213 88.8854 136.225 88.8854 135.237C88.8854 134.249 88.5144 133.137 87.7724 134.125Z" fill="white" stroke="#263238" stroke-miterlimit="10"/>
<path d="M88.1437 136.225C88.1437 136.225 89.133 137.213 89.133 138.077C89.133 138.942 87.0307 141.782 86.0414 141.782C85.052 141.782 85.794 139.806 86.2887 138.942C86.7834 138.077 88.1437 136.225 88.1437 136.225Z" fill="white" stroke="#263238" stroke-miterlimit="10"/>
<path d="M89.1329 138.077C89.1329 138.077 90.3695 138.448 90.3695 139.559C90.3695 140.671 88.0199 142.523 87.4016 142.647C86.7832 142.77 86.9069 141.659 87.4016 140.794C87.8962 139.93 89.1329 138.077 89.1329 138.077Z" fill="white" stroke="#263238" stroke-miterlimit="10"/>
<path d="M90.3694 139.559C90.6226 140.185 90.7079 140.866 90.6167 141.535C90.493 142.77 88.638 143.511 88.0197 143.511C87.4014 143.511 87.4014 142.647 87.4014 142.647C88.4479 141.674 89.4388 140.643 90.3694 139.559V139.559Z" fill="white" stroke="#263238" stroke-miterlimit="10"/>
<path d="M51.4737 228.356H49.124L47.9517 212.795H52.651L51.4737 228.356Z" fill="white" stroke="#263238" stroke-miterlimit="10"/>
<path d="M29.9561 228.356H27.6064L26.4341 212.795H31.1334L29.9561 228.356Z" fill="white" stroke="#263238" stroke-miterlimit="10"/>
<path d="M107.619 228.356H105.269L104.097 212.795H108.796L107.619 228.356Z" fill="white" stroke="#263238" stroke-miterlimit="10"/>
<path d="M86.1006 228.356H83.751L82.5786 212.795H87.2779L86.1006 228.356Z" fill="white" stroke="#263238" stroke-miterlimit="10"/>
<path d="M104.344 183.021H48.1992V215.625H104.344V183.021Z" fill="#263238" stroke="#263238" stroke-miterlimit="10"/>
<path d="M145.07 177.805C145.07 177.805 151.006 175.335 152.326 174.347C153.647 173.359 155.458 175.498 154.632 177.805C153.805 180.112 151.664 184.227 148.369 186.203C145.075 188.179 142.433 189.824 141.77 190.481C141.107 191.138 141.276 193.613 138.476 194.601C135.676 195.589 132.208 193.613 130.23 190.481C128.251 187.349 126.93 185.215 126.93 185.215C126.93 185.215 127.098 182.908 130.393 181.757C133.687 180.606 139.297 180.107 139.297 180.107L145.07 177.805Z" fill="white" stroke="#263238" stroke-miterlimit="10"/>
<path d="M77.5081 157.837C77.5081 157.837 81.421 156.889 82.4103 157.383C83.3996 157.877 86.699 161.009 86.699 161.009C86.699 161.009 106.649 161.335 108.133 161.997C109.617 162.659 124.952 174.347 128.251 175.992C131.55 177.637 134.35 179.119 134.35 179.119L131.877 189.987V190.975L132.045 192.625C132.045 192.625 123.468 189.987 121.326 189.493C119.184 188.999 110.28 184.39 109.454 184.39C108.628 184.39 101.87 182.414 101.87 182.414C101.87 182.414 100.881 181.757 90.1617 180.769C79.4423 179.781 67.407 178.625 63.1183 178.462C58.8295 178.299 53.225 177.968 51.083 177.143C48.9411 176.318 45.147 170.558 44.4891 167.1C43.8312 163.642 50.7516 160.678 53.7196 159.359C56.6876 158.04 67.7385 156.395 69.7171 156.395C71.6958 156.395 77.5081 157.837 77.5081 157.837Z" fill="white" stroke="#263238" stroke-miterlimit="10"/>
<path d="M81.2579 162.654L77.9585 167.431L82.4105 164.467" fill="white"/>
<path d="M81.2579 162.654L77.9585 167.431L82.4105 164.467" stroke="#263238" stroke-miterlimit="10"/>
<path d="M131.877 176.98C131.877 176.98 136.661 173.191 137.65 172.04C138.639 170.889 141.939 164.63 142.597 162.654C143.255 160.678 144.907 159.69 146.059 161.172C147.212 162.654 148.038 165.618 148.696 166.937C149.354 168.256 148.369 174.673 146.391 176.817C144.412 178.961 141.677 184.153 141.113 185.215C139.629 188.011 137.319 188.342 135.835 188.505C134.351 188.668 130.725 184.721 130.725 184.721L131.877 176.98Z" fill="white" stroke="#263238" stroke-miterlimit="10"/>
<path d="M58.5031 165.949C58.5031 165.949 63.4498 164.961 67.9018 165.455C72.3538 165.949 81.421 168.745 85.2151 169.733C89.0092 170.721 95.7663 171.215 98.9025 172.371C102.039 173.527 110.28 175.004 116.542 175.004C122.805 175.004 132.372 175.829 132.372 175.829C132.372 175.829 131.056 185.378 131.382 187.191C131.708 188.65 132.149 190.08 132.703 191.469C132.703 191.469 120.005 192.457 116.379 192.951C112.753 193.445 98.0764 191.143 95.6031 190.481C93.1298 189.819 89.5038 188.836 87.1938 188.836C84.8837 188.836 80.4317 189.824 74.001 190.481C67.5703 191.138 58.5031 188.342 57.3505 188.179C56.1979 188.016 52.0724 186.529 51.0831 185.872C50.0938 185.215 44.321 175.004 46.2997 170.721C48.2783 166.438 50.7517 165.781 50.7517 165.781" fill="white"/>
<path d="M58.5031 165.949C58.5031 165.949 63.4498 164.961 67.9018 165.455C72.3538 165.949 81.421 168.745 85.2151 169.733C89.0092 170.721 95.7663 171.215 98.9025 172.371C102.039 173.527 110.28 175.004 116.542 175.004C122.805 175.004 132.372 175.829 132.372 175.829C132.372 175.829 131.056 185.378 131.382 187.191C131.708 188.65 132.149 190.08 132.703 191.469C132.703 191.469 120.005 192.457 116.379 192.951C112.753 193.445 98.0764 191.143 95.6031 190.481C93.1298 189.819 89.5038 188.836 87.1938 188.836C84.8837 188.836 80.4317 189.824 74.001 190.481C67.5703 191.138 58.5031 188.342 57.3505 188.179C56.1979 188.016 52.0724 186.529 51.0831 185.872C50.0938 185.215 44.321 175.004 46.2997 170.721C48.2783 166.438 50.7517 165.781 50.7517 165.781" stroke="#263238" stroke-miterlimit="10"/>
<path d="M88.8359 182.562C92.0166 183.194 95.3853 185.121 99.9412 186.904C106.021 189.28 118.189 189.063 119.758 189.28C121.326 189.498 125.308 189.28 125.308 189.28" fill="white"/>
<path d="M88.8359 182.562C92.0166 183.194 95.3853 185.121 99.9412 186.904C106.021 189.28 118.189 189.063 119.758 189.28C121.326 189.498 125.308 189.28 125.308 189.28" stroke="#263238" stroke-miterlimit="10"/>
<path d="M64.3105 184.795L66.126 185.057C71.409 185.847 81.4606 182.947 85.6752 182.419" fill="white"/>
<path d="M64.3105 184.795L66.126 185.057C71.409 185.847 81.4606 182.947 85.6752 182.419" stroke="#263238" stroke-miterlimit="10"/>
<path d="M58.9927 184.266C58.9927 184.266 59.9424 184.266 62.4207 184.558Z" fill="white"/>
<path d="M58.9927 184.266C58.9927 184.266 59.9424 184.266 62.4207 184.558" stroke="#263238" stroke-miterlimit="10"/>
<path d="M26.9236 155.985C26.9236 155.985 20.9876 155.985 19.8004 161.913C18.6132 167.841 23.2631 192.294 23.6341 199.21C24.0051 206.126 25.1972 215.759 25.1972 215.759H46.2205L50.9199 155.985H26.9236Z" fill="#263238" stroke="#263238" stroke-miterlimit="10"/>
<path d="M50.9201 155.985C50.9201 155.985 44.9841 155.985 43.5001 161.913C42.0161 167.841 45.4788 192.294 45.4788 199.21C45.4788 206.126 46.2208 215.759 46.2208 215.759H53.6408C53.6408 215.759 54.3828 197.975 54.3828 195.505C54.3828 193.035 57.3508 167.347 55.8668 162.16C54.3828 156.973 53.1461 156.479 50.9201 155.985Z" fill="#636363" stroke="#263238" stroke-miterlimit="10"/>
<path d="M99.209 228.356H96.8594L95.687 212.795H100.386L99.209 228.356Z" fill="white" stroke="#263238" stroke-miterlimit="10"/>
<path d="M119.243 228.356H116.894L115.721 212.795H120.421L119.243 228.356Z" fill="white" stroke="#263238" stroke-miterlimit="10"/>
<path d="M128.642 228.356H126.292L125.12 212.795H129.819L128.642 228.356Z" fill="white" stroke="#263238" stroke-miterlimit="10"/>
<path d="M148.429 228.356H146.079L144.907 212.795H149.606L148.429 228.356Z" fill="white" stroke="#263238" stroke-miterlimit="10"/>
<path d="M96.3054 192.541H147.973C148.924 192.541 149.837 192.918 150.509 193.59C151.182 194.261 151.56 195.172 151.56 196.122V221.44H92.6943V196.122C92.6943 195.65 92.7879 195.182 92.9697 194.746C93.1514 194.31 93.4178 193.914 93.7535 193.581C94.0891 193.248 94.4874 192.985 94.9254 192.806C95.3634 192.628 95.8324 192.537 96.3054 192.541V192.541Z" fill="#263238" stroke="#263238" stroke-miterlimit="10"/>
<path d="M147.998 192.541H129.201C128.25 192.541 127.338 192.918 126.665 193.59C125.993 194.261 125.615 195.172 125.615 196.122V221.44H151.585V196.122C151.583 195.173 151.205 194.263 150.533 193.591C149.861 192.92 148.949 192.542 147.998 192.541V192.541Z" fill="#636363" stroke="#263238" stroke-miterlimit="10"/>
</svg>
