<svg width="270" height="265" viewBox="0 0 270 265" fill="none" xmlns="http://www.w3.org/2000/svg">
<g clip-path="url(#clip0_580_2170)">
<path d="M237.187 189.694L236.73 193.796L244.705 184.473C245.659 184.573 246.618 184.623 247.577 184.625" stroke="#263238" stroke-linecap="round" stroke-linejoin="round"/>
<path d="M227.196 161.402C226.148 162.983 225.491 164.791 225.28 166.676C224.524 173.491 229.868 179.937 237.943 182.92L237.533 186.582" stroke="#263238" stroke-linecap="round" stroke-linejoin="round"/>
<path d="M230.296 158.009C229.776 158.43 229.283 158.882 228.819 159.363" stroke="#263238" stroke-linecap="round" stroke-linejoin="round"/>
<path d="M260.205 158.009C256.564 155.514 252.355 153.975 247.963 153.532C243.322 152.963 238.614 153.655 234.333 155.536" stroke="#263238" stroke-linecap="round" stroke-linejoin="round"/>
<path d="M253.126 184.074C260.744 182.498 266.516 177.628 267.19 171.311C267.682 166.893 265.614 162.633 261.916 159.363" stroke="#263238" stroke-linecap="round" stroke-linejoin="round"/>
<path d="M234.339 162.539C234.984 162.659 235.646 162.65 236.288 162.514C236.929 162.377 237.538 162.115 238.078 161.742L240.926 163.951C240.726 164.015 240.744 163.594 240.955 163.582C241.166 163.57 241.324 163.764 241.47 163.916C242.139 164.625 243.264 164.648 244.219 164.443C245.174 164.238 246.106 163.857 247.079 163.892C247.657 163.953 248.226 164.085 248.772 164.285C252.687 165.498 256.759 166.108 260.814 166.705" stroke="#263238" stroke-linecap="round" stroke-linejoin="round"/>
<path d="M230.976 166.705C231.562 166.67 234.826 166.705 235.294 166.313L236.091 167.701L236.97 166.852C237.123 167.438 237.275 168.024 237.422 168.575C238.084 168.733 238.008 167.455 238.594 167.074C238.774 166.986 238.981 166.969 239.173 167.027C239.365 167.084 239.529 167.212 239.631 167.385C239.823 167.745 239.916 168.149 239.9 168.557L243.909 168.885L244.688 168.95C244.967 168.525 245.379 168.205 245.86 168.041C245.713 168.967 246.88 169.495 247.806 169.682C252.365 170.612 256.947 171.415 261.553 172.091" stroke="#263238" stroke-linecap="round" stroke-linejoin="round"/>
<path d="M232.757 173.069C233.126 173.327 233.577 172.847 234.028 172.788C234.48 172.729 234.849 173.069 235.247 173.274C235.646 173.479 236.302 173.392 236.326 172.946C236.419 173.532 237.146 173.743 237.738 173.825L253.126 175.988" stroke="#263238" stroke-linecap="round" stroke-linejoin="round"/>
<path d="M26.8481 153.051L33.0129 161.349L31.7764 150.491C33.2503 149.775 34.66 148.934 35.9897 147.977C42.3068 143.406 44.8501 136.052 42.5354 130.127C40.9121 125.99 37.109 123.177 32.3038 122.011" stroke="#263238" stroke-linecap="round" stroke-linejoin="round"/>
<path d="M2.49982 139.96C2.30771 141.839 2.56479 143.737 3.2499 145.498C5.74626 151.885 13.4697 155.108 22.0019 153.995" stroke="#263238" stroke-linecap="round" stroke-linejoin="round"/>
<path d="M3.66609 135.512C3.40435 136.128 3.17932 136.758 2.99219 137.399" stroke="#263238" stroke-linecap="round" stroke-linejoin="round"/>
<path d="M30.153 121.613C25.7686 121.088 21.3228 121.677 17.2258 123.324C12.853 124.977 9.00671 127.779 6.0918 131.434" stroke="#263238" stroke-linecap="round" stroke-linejoin="round"/>
<path d="M9.3501 137.64C10.6107 137.246 11.6642 136.37 12.2801 135.202L15.7961 135.835C15.6437 135.981 15.4679 135.6 15.6496 135.489C15.8313 135.378 16.0598 135.489 16.2356 135.548C17.1615 135.864 18.1635 135.366 18.9136 134.739C19.6637 134.112 20.3083 133.332 21.1932 132.922C21.7337 132.706 22.2984 132.557 22.875 132.477C26.9067 131.739 30.7918 130.379 34.6653 129.025" stroke="#263238" stroke-linecap="round" stroke-linejoin="round"/>
<path d="M8.30713 142.896C8.82867 142.585 11.7176 141.103 11.952 140.552L13.3057 141.413C13.4346 141.027 13.5635 140.634 13.6866 140.241L14.8879 141.56C15.5501 141.396 14.8879 140.3 15.2043 139.702C15.3222 139.54 15.4973 139.429 15.6942 139.391C15.8911 139.352 16.0951 139.391 16.265 139.497C16.5997 139.722 16.8686 140.031 17.0444 140.394L20.7421 138.823L21.4687 138.519C21.5103 138.015 21.7162 137.54 22.0547 137.165C22.3594 138.062 23.6369 137.979 24.5393 137.716C29.0125 136.427 33.4446 135.008 37.8357 133.461" stroke="#263238" stroke-linecap="round" stroke-linejoin="round"/>
<path d="M12.8428 147.701C13.294 147.76 13.4698 147.115 13.839 146.857C14.2082 146.6 14.7004 146.734 15.1458 146.723C15.5911 146.711 16.1361 146.342 15.9486 145.937C16.306 146.412 17.0503 146.26 17.607 146.06L32.257 140.816" stroke="#263238" stroke-linecap="round" stroke-linejoin="round"/>
<path d="M205.537 52.5173H59.4239C56.5791 52.5173 54.2729 54.8235 54.2729 57.6683V189.296C54.2729 192.14 56.5791 194.447 59.4239 194.447H205.537C208.382 194.447 210.688 192.14 210.688 189.296V57.6683C210.688 54.8235 208.382 52.5173 205.537 52.5173Z" fill="white"/>
<path opacity="0.2" d="M210.688 130.262V189.448C210.688 190.773 210.162 192.043 209.226 192.98C208.29 193.918 207.02 194.445 205.695 194.446H59.2715C57.9458 194.446 56.6744 193.92 55.737 192.982C54.7996 192.045 54.2729 190.774 54.2729 189.448V177.728H54.5835V185.627C54.5835 186.378 54.7315 187.121 55.019 187.815C55.3065 188.509 55.7279 189.139 56.259 189.669C56.7902 190.2 57.4208 190.621 58.1146 190.907C58.8085 191.194 59.5521 191.341 60.3029 191.341H201.757C202.508 191.341 203.252 191.194 203.946 190.907C204.64 190.621 205.27 190.2 205.801 189.669C206.332 189.139 206.754 188.509 207.041 187.815C207.329 187.121 207.477 186.378 207.477 185.627V139.04C207.477 137.985 207.058 136.973 206.311 136.227C205.565 135.48 204.553 135.061 203.498 135.061H54.2729V130.262H210.688Z" fill="black"/>
<path d="M205.537 52.5173H59.4239C56.5791 52.5173 54.2729 54.8235 54.2729 57.6683V189.296C54.2729 192.14 56.5791 194.447 59.4239 194.447H205.537C208.382 194.447 210.688 192.14 210.688 189.296V57.6683C210.688 54.8235 208.382 52.5173 205.537 52.5173Z" stroke="#263238" stroke-linecap="round" stroke-linejoin="round"/>
<path d="M197.069 147.115V140.335C197.07 140.006 197.006 139.679 196.88 139.375C196.754 139.07 196.57 138.793 196.337 138.56C196.104 138.327 195.827 138.142 195.522 138.017C195.217 137.891 194.891 137.826 194.561 137.827H70.3997C69.7345 137.827 69.0966 138.091 68.6262 138.562C68.1559 139.032 67.8916 139.67 67.8916 140.335V147.115C67.8916 147.78 67.6274 148.418 67.1571 148.889C66.6867 149.359 66.0487 149.623 65.3836 149.623V149.623C64.7168 149.623 64.0774 149.888 63.6059 150.36C63.1345 150.831 62.8696 151.471 62.8696 152.137V165.516C62.8696 168.601 64.0952 171.559 66.2766 173.741C68.458 175.922 71.4167 177.148 74.5017 177.148V177.148C74.9975 177.148 75.473 177.345 75.8235 177.695C76.1741 178.046 76.3711 178.521 76.3711 179.017V183.025C76.3711 184.505 76.9588 185.924 78.005 186.97C79.0512 188.016 80.4702 188.604 81.9498 188.604H183.011C184.491 188.604 185.91 188.016 186.956 186.97C188.002 185.924 188.59 184.505 188.59 183.025V179.017C188.59 178.521 188.787 178.046 189.138 177.695C189.488 177.345 189.964 177.148 190.459 177.148C191.987 177.148 193.5 176.847 194.911 176.262C196.322 175.678 197.604 174.821 198.685 173.741C199.765 172.661 200.621 171.378 201.206 169.967C201.791 168.556 202.091 167.043 202.091 165.516V152.137C202.091 151.472 201.827 150.833 201.357 150.362C200.887 149.89 200.249 149.625 199.583 149.623C198.918 149.623 198.279 149.359 197.808 148.889C197.337 148.419 197.071 147.781 197.069 147.115V147.115Z" fill="#263238"/>
<path d="M77.402 141.666H73.0598C72.5283 141.666 72.0185 141.877 71.6427 142.253C71.2668 142.628 71.0557 143.138 71.0557 143.67V144.783C71.0557 147.092 72.925 150.022 75.2338 150.022C77.5427 150.022 79.412 147.092 79.412 144.783V143.67C79.4105 143.138 79.198 142.628 78.8212 142.252C78.4445 141.876 77.9341 141.666 77.402 141.666V141.666Z" fill="white" stroke="#263238" stroke-linecap="round" stroke-linejoin="round"/>
<path d="M87.7922 141.666H83.4499C82.9179 141.666 82.4075 141.876 82.0307 142.252C81.6539 142.628 81.4415 143.138 81.4399 143.67V144.783C81.4399 147.092 83.3093 150.022 85.6181 150.022C87.927 150.022 89.7963 147.092 89.7963 144.783V143.67C89.7963 143.138 89.5851 142.628 89.2093 142.253C88.8335 141.877 88.3237 141.666 87.7922 141.666V141.666Z" fill="white" stroke="#263238" stroke-linecap="round" stroke-linejoin="round"/>
<path d="M98.2228 141.666H93.8806C93.3491 141.666 92.8393 141.877 92.4635 142.253C92.0876 142.628 91.8765 143.138 91.8765 143.67V144.783C91.8765 147.092 93.7458 150.022 96.0488 150.022C98.3518 150.022 100.227 147.092 100.227 144.783V143.67C100.227 143.138 100.016 142.628 99.64 142.253C99.2641 141.877 98.7544 141.666 98.2228 141.666V141.666Z" fill="white" stroke="#263238" stroke-linecap="round" stroke-linejoin="round"/>
<path d="M108.63 141.666H104.288C103.756 141.666 103.247 141.877 102.871 142.253C102.495 142.628 102.284 143.138 102.284 143.67V144.783C102.284 147.092 104.153 150.022 106.462 150.022C108.771 150.022 110.634 147.092 110.634 144.783V143.67C110.634 143.406 110.582 143.146 110.482 142.903C110.381 142.66 110.233 142.439 110.047 142.253C109.861 142.066 109.64 141.919 109.397 141.818C109.154 141.717 108.893 141.666 108.63 141.666V141.666Z" fill="white" stroke="#263238" stroke-linecap="round" stroke-linejoin="round"/>
<path d="M119.038 141.666H114.696C114.164 141.666 113.654 141.877 113.278 142.253C112.903 142.628 112.691 143.138 112.691 143.67V144.783C112.691 147.092 114.561 150.022 116.87 150.022C119.178 150.022 121.048 147.092 121.048 144.783V143.67C121.046 143.138 120.834 142.628 120.457 142.252C120.08 141.876 119.57 141.666 119.038 141.666V141.666Z" fill="white" stroke="#263238" stroke-linecap="round" stroke-linejoin="round"/>
<path d="M129.451 141.666H125.109C124.577 141.666 124.066 141.876 123.689 142.252C123.313 142.628 123.1 143.138 123.099 143.67V144.783C123.099 147.092 124.968 150.022 127.277 150.022C129.586 150.022 131.455 147.092 131.455 144.783V143.67C131.455 143.138 131.244 142.628 130.868 142.253C130.492 141.877 129.982 141.666 129.451 141.666V141.666Z" fill="white" stroke="#263238" stroke-linecap="round" stroke-linejoin="round"/>
<path d="M139.858 141.666H135.516C134.984 141.666 134.475 141.877 134.099 142.253C133.723 142.628 133.512 143.138 133.512 143.67V144.783C133.512 147.092 135.381 150.022 137.684 150.022C139.987 150.022 141.862 147.092 141.862 144.783V143.67C141.862 143.138 141.651 142.628 141.275 142.253C140.899 141.877 140.39 141.666 139.858 141.666V141.666Z" fill="white" stroke="#263238" stroke-linecap="round" stroke-linejoin="round"/>
<path d="M150.265 141.666H145.923C145.392 141.666 144.882 141.877 144.506 142.253C144.13 142.628 143.919 143.138 143.919 143.67V144.783C143.919 147.092 145.788 150.022 148.097 150.022C150.406 150.022 152.269 147.092 152.269 144.783V143.67C152.269 143.138 152.058 142.628 151.682 142.253C151.307 141.877 150.797 141.666 150.265 141.666V141.666Z" fill="white" stroke="#263238" stroke-linecap="round" stroke-linejoin="round"/>
<path d="M160.673 141.665H156.354C156.091 141.665 155.83 141.717 155.587 141.818C155.344 141.919 155.123 142.066 154.937 142.252C154.751 142.439 154.603 142.659 154.503 142.903C154.402 143.146 154.35 143.406 154.35 143.67V144.783C154.35 147.092 156.219 150.022 158.528 150.022C160.837 150.022 162.706 147.092 162.706 144.783V143.67C162.706 143.404 162.652 143.141 162.55 142.897C162.447 142.652 162.296 142.43 162.107 142.244C161.918 142.057 161.694 141.91 161.448 141.811C161.202 141.712 160.938 141.662 160.673 141.665V141.665Z" fill="white" stroke="#263238" stroke-linecap="round" stroke-linejoin="round"/>
<path d="M171.086 141.666H166.744C166.212 141.666 165.701 141.876 165.325 142.252C164.948 142.628 164.735 143.138 164.734 143.67V144.783C164.734 147.092 166.603 150.022 168.912 150.022C171.221 150.022 173.09 147.092 173.09 144.783V143.67C173.09 143.138 172.879 142.628 172.503 142.253C172.127 141.877 171.618 141.666 171.086 141.666V141.666Z" fill="white" stroke="#263238" stroke-linecap="round" stroke-linejoin="round"/>
<path d="M181.493 141.666H177.151C176.62 141.666 176.11 141.877 175.734 142.253C175.358 142.628 175.147 143.138 175.147 143.67V144.783C175.147 147.092 177.016 150.022 179.319 150.022C181.622 150.022 183.497 147.092 183.497 144.783V143.67C183.497 143.138 183.286 142.628 182.91 142.253C182.535 141.877 182.025 141.666 181.493 141.666V141.666Z" fill="white" stroke="#263238" stroke-linecap="round" stroke-linejoin="round"/>
<path d="M191.901 141.665H187.559C187.027 141.665 186.518 141.877 186.142 142.252C185.766 142.628 185.555 143.138 185.555 143.67V144.783C185.555 147.086 187.412 150.016 189.756 150.016C192.1 150.016 193.929 147.086 193.929 144.777V143.664C193.928 143.399 193.875 143.137 193.772 142.893C193.67 142.649 193.52 142.428 193.331 142.242C193.143 142.056 192.919 141.91 192.674 141.811C192.428 141.712 192.166 141.662 191.901 141.665V141.665Z" fill="white" stroke="#263238" stroke-linecap="round" stroke-linejoin="round"/>
<path d="M77.402 163.723H73.0598C72.5283 163.723 72.0185 163.934 71.6427 164.31C71.2668 164.685 71.0557 165.195 71.0557 165.727V166.84C71.0557 169.149 72.925 172.079 75.2338 172.079C77.5427 172.079 79.412 169.149 79.412 166.84V165.727C79.4105 165.195 79.198 164.685 78.8212 164.309C78.4445 163.933 77.9341 163.723 77.402 163.723V163.723Z" fill="white" stroke="#263238" stroke-linecap="round" stroke-linejoin="round"/>
<path d="M87.7922 163.723H83.4499C82.9179 163.723 82.4075 163.933 82.0307 164.309C81.6539 164.685 81.4415 165.195 81.4399 165.727V166.84C81.4399 169.149 83.3093 172.079 85.6181 172.079C87.927 172.079 89.7963 169.149 89.7963 166.84V165.727C89.7963 165.195 89.5851 164.685 89.2093 164.31C88.8335 163.934 88.3237 163.723 87.7922 163.723V163.723Z" fill="white" stroke="#263238" stroke-linecap="round" stroke-linejoin="round"/>
<path d="M98.2228 163.723H93.8806C93.3491 163.723 92.8393 163.934 92.4635 164.31C92.0876 164.685 91.8765 165.195 91.8765 165.727V166.84C91.8765 169.149 93.7458 172.079 96.0488 172.079C98.3518 172.079 100.227 169.149 100.227 166.84V165.727C100.227 165.195 100.016 164.685 99.64 164.31C99.2641 163.934 98.7544 163.723 98.2228 163.723V163.723Z" fill="white" stroke="#263238" stroke-linecap="round" stroke-linejoin="round"/>
<path d="M108.63 163.723H104.288C103.756 163.723 103.247 163.934 102.871 164.31C102.495 164.685 102.284 165.195 102.284 165.727V166.84C102.284 169.149 104.153 172.079 106.462 172.079C108.771 172.079 110.634 169.149 110.634 166.84V165.727C110.634 165.463 110.582 165.203 110.482 164.96C110.381 164.717 110.233 164.496 110.047 164.31C109.861 164.123 109.64 163.976 109.397 163.875C109.154 163.774 108.893 163.723 108.63 163.723V163.723Z" fill="white" stroke="#263238" stroke-linecap="round" stroke-linejoin="round"/>
<path d="M119.038 163.723H114.696C114.164 163.723 113.654 163.934 113.278 164.31C112.903 164.685 112.691 165.195 112.691 165.727V166.84C112.691 169.149 114.561 172.079 116.87 172.079C119.178 172.079 121.048 169.149 121.048 166.84V165.727C121.046 165.195 120.834 164.685 120.457 164.309C120.08 163.933 119.57 163.723 119.038 163.723V163.723Z" fill="white" stroke="#263238" stroke-linecap="round" stroke-linejoin="round"/>
<path d="M129.451 163.723H125.109C124.577 163.723 124.066 163.933 123.689 164.309C123.313 164.685 123.1 165.195 123.099 165.727V166.84C123.099 169.149 124.968 172.079 127.277 172.079C129.586 172.079 131.455 169.149 131.455 166.84V165.727C131.455 165.195 131.244 164.685 130.868 164.31C130.492 163.934 129.982 163.723 129.451 163.723Z" fill="white" stroke="#263238" stroke-linecap="round" stroke-linejoin="round"/>
<path d="M139.858 163.723H135.516C134.984 163.723 134.475 163.934 134.099 164.31C133.723 164.685 133.512 165.195 133.512 165.727V166.84C133.512 169.149 135.381 172.079 137.684 172.079C139.987 172.079 141.862 169.149 141.862 166.84V165.727C141.862 165.195 141.651 164.685 141.275 164.31C140.899 163.934 140.39 163.723 139.858 163.723V163.723Z" fill="white" stroke="#263238" stroke-linecap="round" stroke-linejoin="round"/>
<path d="M150.265 163.723H145.923C145.392 163.723 144.882 163.934 144.506 164.31C144.13 164.685 143.919 165.195 143.919 165.727V166.84C143.919 169.149 145.788 172.079 148.097 172.079C150.406 172.079 152.269 169.149 152.269 166.84V165.727C152.269 165.195 152.058 164.685 151.682 164.31C151.307 163.934 150.797 163.723 150.265 163.723V163.723Z" fill="white" stroke="#263238" stroke-linecap="round" stroke-linejoin="round"/>
<path d="M160.673 163.723H156.354C156.091 163.723 155.83 163.774 155.587 163.875C155.344 163.976 155.123 164.123 154.937 164.31C154.751 164.496 154.603 164.717 154.503 164.96C154.402 165.203 154.35 165.463 154.35 165.727V166.84C154.35 169.149 156.219 172.079 158.528 172.079C160.837 172.079 162.706 169.149 162.706 166.84V165.727C162.706 165.461 162.652 165.199 162.55 164.954C162.447 164.709 162.296 164.487 162.107 164.301C161.918 164.115 161.694 163.967 161.448 163.868C161.202 163.769 160.938 163.719 160.673 163.723V163.723Z" fill="white" stroke="#263238" stroke-linecap="round" stroke-linejoin="round"/>
<path d="M171.086 163.723H166.744C166.212 163.723 165.701 163.933 165.325 164.309C164.948 164.685 164.735 165.195 164.734 165.727V166.84C164.734 169.149 166.603 172.079 168.912 172.079C171.221 172.079 173.09 169.149 173.09 166.84V165.727C173.09 165.195 172.879 164.685 172.503 164.31C172.127 163.934 171.618 163.723 171.086 163.723V163.723Z" fill="white" stroke="#263238" stroke-linecap="round" stroke-linejoin="round"/>
<path d="M181.493 163.723H177.151C176.62 163.723 176.11 163.934 175.734 164.31C175.358 164.685 175.147 165.195 175.147 165.727V166.84C175.147 169.149 177.016 172.079 179.319 172.079C181.622 172.079 183.497 169.149 183.497 166.84V165.727C183.497 165.195 183.286 164.685 182.91 164.31C182.535 163.934 182.025 163.723 181.493 163.723Z" fill="white" stroke="#263238" stroke-linecap="round" stroke-linejoin="round"/>
<path d="M191.901 163.723H187.559C187.027 163.723 186.518 163.934 186.142 164.31C185.766 164.685 185.555 165.195 185.555 165.727V166.84C185.555 169.149 187.424 172.079 189.733 172.079C192.042 172.079 193.905 169.149 193.905 166.84V165.727C193.905 165.195 193.694 164.685 193.318 164.31C192.942 163.934 192.433 163.723 191.901 163.723V163.723Z" fill="white" stroke="#263238" stroke-linecap="round" stroke-linejoin="round"/>
<path d="M72.1984 153.051H67.8679C67.3364 153.051 66.8266 153.263 66.4508 153.638C66.0749 154.014 65.8638 154.524 65.8638 155.056V156.169C65.8638 158.472 67.7331 161.408 70.0419 161.408C72.3508 161.408 74.2143 158.478 74.2143 156.169V155.056C74.2143 154.791 74.162 154.53 74.0606 154.286C73.9591 154.042 73.8105 153.821 73.6231 153.634C73.4358 153.448 73.2135 153.301 72.969 153.201C72.7245 153.101 72.4626 153.05 72.1984 153.051V153.051Z" fill="white" stroke="#263238" stroke-linecap="round" stroke-linejoin="round"/>
<path d="M82.6061 153.051H78.2639C77.7324 153.051 77.2226 153.263 76.8468 153.638C76.4709 154.014 76.2598 154.524 76.2598 155.056V156.169C76.2598 158.472 78.1291 161.408 80.4379 161.408C82.7468 161.408 84.6161 158.478 84.6161 156.169V155.056C84.6146 154.523 84.4021 154.014 84.0253 153.638C83.6486 153.262 83.1382 153.051 82.6061 153.051V153.051Z" fill="white" stroke="#263238" stroke-linecap="round" stroke-linejoin="round"/>
<path d="M93.0192 153.051H88.677C88.1449 153.051 87.6345 153.262 87.2578 153.638C86.881 154.014 86.6685 154.523 86.667 155.056V156.169C86.667 158.472 88.5422 161.408 90.8452 161.408C93.1482 161.408 95.0233 158.478 95.0233 156.169V155.056C95.0233 154.524 94.8122 154.014 94.4364 153.638C94.0605 153.263 93.5508 153.051 93.0192 153.051V153.051Z" fill="white" stroke="#263238" stroke-linecap="round" stroke-linejoin="round"/>
<path d="M103.426 153.051H99.0842C98.5527 153.051 98.0429 153.263 97.6671 153.638C97.2912 154.014 97.0801 154.524 97.0801 155.056V156.169C97.0801 158.472 98.9494 161.408 101.252 161.408C103.555 161.408 105.431 158.478 105.431 156.169V155.056C105.431 154.792 105.379 154.532 105.278 154.289C105.177 154.045 105.03 153.824 104.844 153.638C104.657 153.452 104.437 153.305 104.193 153.204C103.95 153.103 103.69 153.051 103.426 153.051V153.051Z" fill="white" stroke="#263238" stroke-linecap="round" stroke-linejoin="round"/>
<path d="M113.834 153.051H109.474C108.942 153.051 108.433 153.263 108.057 153.638C107.681 154.014 107.47 154.524 107.47 155.056V156.169C107.47 158.472 109.339 161.408 111.648 161.408C113.957 161.408 115.82 158.478 115.82 156.169V155.056C115.82 154.527 115.612 154.02 115.239 153.645C114.867 153.269 114.362 153.056 113.834 153.051V153.051Z" fill="white" stroke="#263238" stroke-linecap="round" stroke-linejoin="round"/>
<path d="M124.241 153.051H119.899C119.368 153.051 118.858 153.263 118.482 153.638C118.106 154.014 117.895 154.524 117.895 155.056V156.169C117.895 158.472 119.764 161.408 122.073 161.408C124.382 161.408 126.251 158.478 126.251 156.169V155.056C126.25 154.523 126.037 154.014 125.661 153.638C125.284 153.262 124.773 153.051 124.241 153.051V153.051Z" fill="white" stroke="#263238" stroke-linecap="round" stroke-linejoin="round"/>
<path d="M134.672 153.051H130.33C129.798 153.051 129.287 153.262 128.911 153.638C128.534 154.014 128.321 154.523 128.32 155.056V156.169C128.32 158.472 130.195 161.408 132.498 161.408C134.801 161.408 136.676 158.478 136.676 156.169V155.056C136.676 154.524 136.465 154.014 136.089 153.638C135.713 153.263 135.204 153.051 134.672 153.051V153.051Z" fill="white" stroke="#263238" stroke-linecap="round" stroke-linejoin="round"/>
<path d="M145.062 153.051H140.719C140.188 153.051 139.678 153.263 139.302 153.638C138.926 154.014 138.715 154.524 138.715 155.056V156.169C138.715 158.472 140.585 161.408 142.888 161.408C145.191 161.408 147.066 158.478 147.066 156.169V155.056C147.066 154.524 146.855 154.014 146.479 153.638C146.103 153.263 145.593 153.051 145.062 153.051Z" fill="white" stroke="#263238" stroke-linecap="round" stroke-linejoin="round"/>
<path d="M155.469 153.051H151.127C150.595 153.051 150.085 153.263 149.71 153.638C149.334 154.014 149.123 154.524 149.123 155.056V156.169C149.123 158.472 150.992 161.408 153.301 161.408C155.61 161.408 157.473 158.478 157.473 156.169V155.056C157.473 154.524 157.262 154.014 156.886 153.638C156.51 153.263 156 153.051 155.469 153.051Z" fill="white" stroke="#263238" stroke-linecap="round" stroke-linejoin="round"/>
<path d="M165.877 153.051H161.534C161.003 153.051 160.493 153.263 160.117 153.638C159.741 154.014 159.53 154.524 159.53 155.056V156.169C159.53 158.472 161.4 161.408 163.708 161.408C166.017 161.408 167.887 158.478 167.887 156.169V155.056C167.885 154.523 167.673 154.014 167.296 153.638C166.919 153.262 166.409 153.051 165.877 153.051V153.051Z" fill="white" stroke="#263238" stroke-linecap="round" stroke-linejoin="round"/>
<path d="M176.278 153.051H171.936C171.404 153.051 170.893 153.262 170.517 153.638C170.14 154.014 169.927 154.523 169.926 155.056V156.169C169.926 158.472 171.801 161.408 174.104 161.408C176.407 161.408 178.282 158.478 178.282 156.169V155.056C178.282 154.524 178.071 154.014 177.695 153.638C177.319 153.263 176.81 153.051 176.278 153.051Z" fill="white" stroke="#263238" stroke-linecap="round" stroke-linejoin="round"/>
<path d="M186.697 153.051H182.355C181.828 153.059 181.326 153.274 180.956 153.649C180.587 154.024 180.38 154.529 180.38 155.056V156.169C180.38 158.472 182.249 161.408 184.552 161.408C186.855 161.408 188.73 158.478 188.73 156.169V155.056C188.73 154.79 188.678 154.527 188.575 154.282C188.473 154.037 188.322 153.815 188.133 153.628C187.944 153.442 187.719 153.295 187.473 153.196C187.226 153.097 186.963 153.048 186.697 153.051V153.051Z" fill="white" stroke="#263238" stroke-linecap="round" stroke-linejoin="round"/>
<path d="M197.105 153.051H192.762C192.231 153.051 191.721 153.263 191.345 153.638C190.969 154.014 190.758 154.524 190.758 155.056V156.169C190.758 158.472 192.628 161.408 194.936 161.408C197.245 161.408 199.109 158.478 199.109 156.169V155.056C199.109 154.524 198.898 154.014 198.522 153.638C198.146 153.263 197.636 153.051 197.105 153.051V153.051Z" fill="white" stroke="#263238" stroke-linecap="round" stroke-linejoin="round"/>
<path d="M172.235 174.833H92.7263C91.6874 174.833 90.8452 175.675 90.8452 176.714V182.422C90.8452 183.461 91.6874 184.303 92.7263 184.303H172.235C173.274 184.303 174.116 183.461 174.116 182.422V176.714C174.116 175.675 173.274 174.833 172.235 174.833Z" fill="white" stroke="#263238" stroke-linecap="round" stroke-linejoin="round"/>
<path d="M182.883 175.39H178.54C178.009 175.39 177.499 175.601 177.123 175.977C176.747 176.353 176.536 176.862 176.536 177.394V178.507C176.536 180.816 178.405 183.746 180.714 183.746C183.023 183.746 184.887 180.816 184.887 178.507V177.394C184.887 176.862 184.675 176.353 184.3 175.977C183.924 175.601 183.414 175.39 182.883 175.39Z" fill="white" stroke="#263238" stroke-linecap="round" stroke-linejoin="round"/>
<path d="M86.4206 175.39H82.0783C81.5468 175.39 81.0371 175.601 80.6612 175.977C80.2854 176.353 80.0742 176.862 80.0742 177.394V178.507C80.0742 180.816 81.9436 183.746 84.2524 183.746C86.5612 183.746 88.4306 180.816 88.4306 178.507V177.394C88.429 176.862 88.2166 176.352 87.8398 175.976C87.463 175.601 86.9527 175.39 86.4206 175.39V175.39Z" fill="white" stroke="#263238" stroke-linecap="round" stroke-linejoin="round"/>
<path opacity="0.2" d="M77.6427 144.847C77.853 144.848 78.0628 144.868 78.2697 144.906C78.2697 144.865 78.2697 144.824 78.2697 144.783V143.67C78.2682 143.439 78.1755 143.218 78.0119 143.056C77.8483 142.893 77.6271 142.802 77.3966 142.802H73.0543C72.8248 142.804 72.605 142.896 72.4427 143.058C72.2804 143.22 72.1885 143.44 72.187 143.67V144.783C72.187 146.383 73.359 148.399 74.742 148.803C74.3142 147.027 75.2752 144.847 77.6427 144.847Z" fill="black"/>
<path opacity="0.2" d="M88.2843 144.549C88.417 144.539 88.5501 144.539 88.6828 144.549V143.646C88.6812 143.417 88.5894 143.197 88.4271 143.035C88.2647 142.872 88.045 142.78 87.8155 142.779H83.4732C83.2427 142.779 83.0215 142.87 82.8579 143.032C82.6943 143.195 82.6016 143.416 82.6001 143.646V144.759C82.6001 146.517 83.9889 148.715 85.5301 148.861C84.821 147.045 85.7528 144.549 88.2843 144.549Z" fill="black"/>
<path opacity="0.2" d="M99.0021 144.396H99.09V143.664C99.09 143.434 98.9986 143.213 98.836 143.05C98.6733 142.888 98.4527 142.796 98.2227 142.796H93.8805C93.6499 142.796 93.4287 142.888 93.2651 143.05C93.1016 143.213 93.0089 143.433 93.0073 143.664V144.777C93.0073 146.564 94.484 148.879 96.0487 148.879C96.1247 148.885 96.2011 148.885 96.2772 148.879C95.492 147.027 96.4003 144.396 99.0021 144.396Z" fill="black"/>
<path opacity="0.2" d="M108.748 144.097C108.991 144.09 109.235 144.11 109.474 144.156V143.646C109.474 143.416 109.383 143.195 109.22 143.033C109.058 142.87 108.837 142.779 108.607 142.779H104.265C104.035 142.779 103.814 142.87 103.651 143.033C103.489 143.195 103.397 143.416 103.397 143.646V144.759C103.397 146.435 104.687 148.568 106.14 148.861C105.144 147.021 106.005 144.097 108.748 144.097Z" fill="black"/>
<path opacity="0.2" d="M119.688 144.097H119.911V143.658C119.909 143.427 119.817 143.207 119.653 143.044C119.489 142.882 119.268 142.791 119.038 142.791H114.695C114.466 142.792 114.246 142.884 114.084 143.046C113.922 143.209 113.83 143.428 113.828 143.658V144.771C113.828 146.559 115.305 148.873 116.869 148.873C116.949 148.879 117.03 148.879 117.11 148.873C116.084 147.027 116.946 144.097 119.688 144.097Z" fill="black"/>
<path opacity="0.2" d="M130.183 144.156H130.318V143.646C130.316 143.417 130.225 143.197 130.062 143.035C129.9 142.872 129.68 142.78 129.451 142.779H125.108C124.878 142.779 124.657 142.87 124.493 143.032C124.33 143.195 124.237 143.416 124.235 143.646V144.759C124.235 146.547 125.712 148.861 127.277 148.861C127.372 148.87 127.468 148.87 127.564 148.861C126.603 147.016 127.476 144.156 130.183 144.156Z" fill="black"/>
<path opacity="0.2" d="M140.227 144.097C140.394 144.1 140.56 144.111 140.725 144.132V143.67C140.725 143.44 140.634 143.219 140.471 143.056C140.309 142.894 140.088 142.802 139.858 142.802H135.516C135.286 142.802 135.065 142.894 134.902 143.056C134.74 143.219 134.648 143.44 134.648 143.67V144.783C134.648 146.541 136.102 148.85 137.655 148.885C136.617 147.045 137.473 144.097 140.227 144.097Z" fill="black"/>
<path opacity="0.2" d="M151.133 144.25V143.664C151.133 143.434 151.042 143.213 150.879 143.05C150.716 142.888 150.496 142.796 150.266 142.796H145.923C145.693 142.796 145.473 142.888 145.31 143.05C145.148 143.213 145.056 143.434 145.056 143.664V144.777C145.056 146.564 146.527 148.879 148.098 148.879C148.255 148.877 148.411 148.851 148.56 148.803C147.717 146.998 148.578 144.332 151.133 144.25Z" fill="black"/>
<path opacity="0.2" d="M160.691 144.021C160.979 144.02 161.267 144.058 161.546 144.132V143.67C161.545 143.439 161.452 143.218 161.288 143.056C161.125 142.893 160.903 142.802 160.673 142.802H156.354C156.125 142.804 155.905 142.896 155.743 143.058C155.58 143.22 155.488 143.44 155.487 143.67V144.783C155.487 146.435 156.741 148.522 158.165 148.838C157.069 147.004 157.919 144.021 160.691 144.021Z" fill="black"/>
<path opacity="0.2" d="M171.332 144.021C171.541 144.022 171.748 144.041 171.953 144.08V143.67C171.952 143.44 171.86 143.22 171.698 143.058C171.535 142.896 171.316 142.804 171.086 142.802H166.744C166.513 142.802 166.292 142.893 166.128 143.056C165.965 143.218 165.872 143.439 165.871 143.67V144.783C165.871 146.541 167.277 148.774 168.801 148.885C167.699 147.045 168.543 144.021 171.332 144.021Z" fill="black"/>
<path opacity="0.2" d="M181.903 144.32C182.056 144.322 182.209 144.334 182.361 144.355V143.67C182.361 143.44 182.269 143.219 182.107 143.056C181.944 142.894 181.723 142.802 181.493 142.802H177.151C177.037 142.802 176.924 142.825 176.819 142.868C176.714 142.912 176.618 142.976 176.538 143.056C176.457 143.137 176.393 143.232 176.35 143.338C176.306 143.443 176.284 143.556 176.284 143.67V144.783C176.284 146.541 177.69 148.768 179.214 148.885C178.364 147.033 179.261 144.32 181.903 144.32Z" fill="black"/>
<path opacity="0.2" d="M192.768 144.185V143.67C192.768 143.44 192.677 143.219 192.514 143.056C192.352 142.894 192.131 142.802 191.901 142.802H187.559C187.329 142.802 187.108 142.894 186.945 143.056C186.783 143.219 186.691 143.44 186.691 143.67V144.783C186.691 146.57 188.162 148.885 189.733 148.885C189.959 148.882 190.182 148.834 190.389 148.744C189.557 146.975 190.342 144.384 192.768 144.185Z" fill="black"/>
<path opacity="0.2" d="M77.9415 165.838C78.0528 165.832 78.1643 165.832 78.2755 165.838V165.715C78.274 165.484 78.1813 165.264 78.0177 165.101C77.8542 164.939 77.633 164.848 77.4024 164.848H73.0601C72.8306 164.849 72.6109 164.941 72.4486 165.103C72.2863 165.266 72.1944 165.485 72.1929 165.715V166.828C72.1929 168.616 73.6696 170.93 75.2342 170.93C75.3424 170.928 75.4502 170.916 75.5565 170.895C74.2439 169.114 75.0408 165.838 77.9415 165.838Z" fill="black"/>
<path opacity="0.2" d="M88.1378 165.838C88.3204 165.839 88.5027 165.854 88.6828 165.885V165.733C88.6812 165.503 88.5894 165.283 88.4271 165.121C88.2647 164.959 88.045 164.867 87.8155 164.865H83.4732C83.2427 164.865 83.0215 164.956 82.8579 165.119C82.6943 165.281 82.6016 165.502 82.6001 165.733V166.846C82.6001 168.633 84.0768 170.948 85.6414 170.948H85.7704C84.4284 169.143 85.2195 165.838 88.1378 165.838Z" fill="black"/>
<path opacity="0.2" d="M98.4806 165.985C98.6771 165.985 98.8732 166.003 99.0666 166.037V165.727C99.0666 165.613 99.0441 165.5 99.0006 165.395C98.957 165.29 98.8931 165.194 98.8126 165.113C98.732 165.033 98.6364 164.969 98.5312 164.925C98.426 164.882 98.3132 164.859 98.1993 164.859H93.857C93.6265 164.859 93.4053 164.951 93.2417 165.113C93.0781 165.276 92.9854 165.496 92.9839 165.727V166.84C92.9839 168.598 94.4372 170.901 95.9901 170.942C94.8239 169.12 95.6385 165.985 98.4806 165.985Z" fill="black"/>
<path opacity="0.2" d="M109.046 166.061C109.197 166.061 109.348 166.071 109.498 166.09V165.727C109.498 165.613 109.475 165.5 109.432 165.395C109.388 165.29 109.324 165.194 109.244 165.113C109.163 165.033 109.068 164.969 108.962 164.925C108.857 164.882 108.744 164.859 108.63 164.859H104.288C104.174 164.859 104.062 164.882 103.956 164.925C103.851 164.969 103.755 165.033 103.675 165.113C103.594 165.194 103.53 165.29 103.487 165.395C103.443 165.5 103.421 165.613 103.421 165.727V166.84C103.421 168.627 104.892 170.942 106.462 170.942H106.533C105.407 169.108 106.245 166.061 109.046 166.061Z" fill="black"/>
<path opacity="0.2" d="M119.243 165.838C119.467 165.838 119.691 165.86 119.911 165.902V165.733C119.909 165.502 119.817 165.281 119.653 165.119C119.489 164.956 119.268 164.865 119.038 164.865H114.695C114.466 164.867 114.246 164.959 114.084 165.121C113.922 165.283 113.83 165.503 113.828 165.733V166.846C113.828 168.633 115.305 170.948 116.869 170.948C115.533 169.155 116.319 165.838 119.243 165.838Z" fill="black"/>
<path opacity="0.2" d="M129.808 165.908C129.979 165.91 130.149 165.923 130.318 165.949V165.727C130.316 165.497 130.225 165.277 130.062 165.115C129.9 164.953 129.68 164.861 129.451 164.859H125.108C124.878 164.859 124.657 164.951 124.493 165.113C124.33 165.276 124.237 165.496 124.235 165.727V166.84C124.235 168.627 125.712 170.942 127.277 170.942H127.388C126.122 169.125 126.931 165.908 129.808 165.908Z" fill="black"/>
<path opacity="0.2" d="M140.602 166.131H140.725V165.721C140.725 165.491 140.634 165.27 140.471 165.108C140.309 164.945 140.088 164.854 139.858 164.854H135.516C135.286 164.854 135.065 164.945 134.902 165.108C134.74 165.27 134.648 165.491 134.648 165.721V166.834C134.648 168.621 136.119 170.936 137.684 170.936C137.798 170.934 137.912 170.921 138.024 170.895C137.016 169.067 137.854 166.131 140.602 166.131Z" fill="black"/>
<path opacity="0.2" d="M151.08 165.908H151.115V165.727C151.115 165.613 151.093 165.5 151.049 165.395C151.006 165.29 150.942 165.194 150.861 165.113C150.781 165.033 150.685 164.969 150.58 164.925C150.475 164.882 150.362 164.859 150.248 164.859H145.923C145.81 164.859 145.697 164.882 145.592 164.925C145.486 164.969 145.391 165.033 145.31 165.113C145.23 165.194 145.166 165.29 145.122 165.395C145.079 165.5 145.056 165.613 145.056 165.727V166.84C145.056 168.627 146.527 170.942 148.098 170.942C148.277 170.939 148.455 170.908 148.625 170.848C147.435 169.032 148.262 165.908 151.08 165.908Z" fill="black"/>
<path opacity="0.2" d="M161.212 165.686H161.54C161.531 165.461 161.436 165.249 161.274 165.093C161.113 164.937 160.898 164.849 160.673 164.848H156.354C156.125 164.849 155.905 164.941 155.743 165.103C155.58 165.266 155.488 165.485 155.487 165.715V166.828C155.487 168.616 156.964 170.93 158.528 170.93C158.671 170.926 158.813 170.904 158.95 170.866C157.479 169.12 158.241 165.686 161.212 165.686Z" fill="black"/>
<path opacity="0.2" d="M171.936 165.838V165.733C171.934 165.503 171.842 165.283 171.68 165.121C171.518 164.959 171.298 164.867 171.068 164.865H166.726C166.496 164.865 166.274 164.956 166.111 165.119C165.947 165.281 165.855 165.502 165.853 165.733V166.846C165.853 168.633 167.33 170.948 168.894 170.948C169.094 170.945 169.292 170.909 169.48 170.842C168.256 169.026 169.064 165.838 171.936 165.838Z" fill="black"/>
<path opacity="0.2" d="M182.138 165.838H182.373V165.721C182.373 165.607 182.35 165.494 182.307 165.389C182.263 165.284 182.199 165.188 182.119 165.108C182.038 165.027 181.943 164.963 181.837 164.92C181.732 164.876 181.619 164.854 181.505 164.854H177.163C176.933 164.854 176.713 164.945 176.55 165.108C176.387 165.27 176.296 165.491 176.296 165.721V166.834C176.296 168.621 177.767 170.936 179.331 170.936C179.47 170.934 179.608 170.915 179.742 170.878C178.435 169.084 179.238 165.838 182.138 165.838Z" fill="black"/>
<path opacity="0.2" d="M192.393 166.283C192.522 166.283 192.651 166.283 192.768 166.283V165.697C192.768 165.467 192.677 165.247 192.514 165.084C192.352 164.921 192.131 164.83 191.901 164.83H187.559C187.329 164.83 187.108 164.921 186.945 165.084C186.783 165.247 186.691 165.467 186.691 165.697V166.811C186.691 168.598 188.162 170.913 189.733 170.913C188.824 169.096 189.703 166.283 192.393 166.283Z" fill="black"/>
<path opacity="0.2" d="M72.9958 155.343H73.0719V155.056C73.0704 154.825 72.9777 154.604 72.8141 154.442C72.6506 154.279 72.4294 154.188 72.1988 154.188H67.8683C67.6382 154.188 67.4176 154.28 67.255 154.442C67.0923 154.605 67.001 154.826 67.001 155.056V156.169C67.001 157.956 68.4718 160.271 70.0423 160.271C70.1932 160.267 70.343 160.244 70.4877 160.201C69.3626 158.372 70.2123 155.343 72.9958 155.343Z" fill="black"/>
<path opacity="0.2" d="M83.1862 155.343H83.4792V155.044C83.4776 154.813 83.3849 154.593 83.2214 154.43C83.0578 154.268 82.8366 154.177 82.606 154.177H78.2638C78.0342 154.178 77.8145 154.27 77.6522 154.432C77.4899 154.595 77.398 154.814 77.3965 155.044V156.157C77.3965 157.944 78.8732 160.259 80.4378 160.259C80.5237 160.265 80.6098 160.265 80.6957 160.259C79.5412 158.425 80.3734 155.343 83.1862 155.343Z" fill="black"/>
<path opacity="0.2" d="M93.8336 155.343H93.8864V155.056C93.8848 154.826 93.793 154.606 93.6307 154.444C93.4684 154.282 93.2486 154.19 93.0191 154.188H88.6768C88.5617 154.187 88.4474 154.208 88.3405 154.251C88.2336 154.294 88.1362 154.357 88.0539 154.438C87.9717 154.518 87.9062 154.615 87.8612 154.721C87.8163 154.827 87.7928 154.94 87.792 155.056V156.169C87.792 157.956 89.2687 160.271 90.8333 160.271C90.9906 160.269 91.1467 160.243 91.2963 160.195C90.2004 158.372 91.0384 155.343 93.8336 155.343Z" fill="black"/>
<path opacity="0.2" d="M104.024 155.29H104.294V155.067C104.294 154.837 104.202 154.617 104.04 154.454C103.877 154.291 103.656 154.2 103.426 154.2H99.0841C98.8541 154.2 98.6335 154.291 98.4708 154.454C98.3082 154.617 98.2168 154.837 98.2168 155.067V156.181C98.2168 157.968 99.6877 160.283 101.252 160.283C101.359 160.28 101.464 160.269 101.569 160.248C100.356 158.425 101.176 155.29 104.024 155.29Z" fill="black"/>
<path opacity="0.2" d="M114.162 155.343C114.349 155.343 114.535 155.358 114.719 155.39V155.056C114.719 154.826 114.628 154.605 114.465 154.442C114.302 154.28 114.082 154.188 113.852 154.188H109.474C109.244 154.188 109.024 154.28 108.861 154.442C108.698 154.605 108.607 154.826 108.607 155.056V156.169C108.607 157.956 110.078 160.271 111.648 160.271C110.488 158.448 111.314 155.343 114.162 155.343Z" fill="black"/>
<path opacity="0.2" d="M124.64 154.968C124.796 154.968 124.953 154.978 125.109 154.997C125.092 154.778 124.994 154.573 124.833 154.423C124.672 154.273 124.461 154.189 124.241 154.188H119.899C119.669 154.19 119.45 154.282 119.287 154.444C119.125 154.606 119.033 154.826 119.032 155.056V156.169C119.032 157.956 120.508 160.271 122.073 160.271C122.186 160.269 122.297 160.255 122.407 160.23C120.884 158.489 121.628 154.968 124.64 154.968Z" fill="black"/>
<path opacity="0.2" d="M135.129 155.413C135.264 155.413 135.399 155.413 135.522 155.413V155.032C135.52 154.803 135.428 154.583 135.266 154.421C135.104 154.258 134.884 154.166 134.654 154.165H130.312C130.082 154.165 129.86 154.256 129.697 154.418C129.533 154.581 129.441 154.802 129.439 155.032V156.145C129.439 157.933 130.916 160.247 132.48 160.247H132.597C131.502 158.431 132.328 155.413 135.129 155.413Z" fill="black"/>
<path opacity="0.2" d="M145.929 155.056C145.929 154.826 145.837 154.605 145.675 154.442C145.512 154.28 145.292 154.188 145.062 154.188H140.719C140.605 154.188 140.493 154.211 140.387 154.254C140.282 154.298 140.187 154.362 140.106 154.442C140.026 154.523 139.962 154.618 139.918 154.724C139.874 154.829 139.852 154.942 139.852 155.056V156.169C139.852 157.956 141.323 160.271 142.888 160.271C143.2 160.263 143.506 160.179 143.778 160.025C142.595 158.279 143.309 155.29 145.929 155.056Z" fill="black"/>
<path opacity="0.2" d="M156.354 155.29V155.067C156.354 154.837 156.263 154.617 156.1 154.454C155.937 154.291 155.717 154.2 155.487 154.2H151.145C150.915 154.2 150.694 154.291 150.531 154.454C150.369 154.617 150.277 154.837 150.277 155.067V156.181C150.277 157.968 151.748 160.283 153.319 160.283C153.57 160.279 153.818 160.221 154.045 160.113C152.973 158.325 153.741 155.437 156.354 155.29Z" fill="black"/>
<path opacity="0.2" d="M166.386 155.114C166.509 155.114 166.632 155.114 166.75 155.114V155.038C166.748 154.807 166.655 154.587 166.492 154.424C166.328 154.262 166.107 154.171 165.877 154.171H161.534C161.305 154.172 161.085 154.264 160.923 154.426C160.76 154.589 160.669 154.808 160.667 155.038V156.151C160.667 157.939 162.144 160.253 163.708 160.253C163.819 160.252 163.929 160.238 164.036 160.212C162.677 158.448 163.456 155.114 166.386 155.114Z" fill="black"/>
<path opacity="0.2" d="M177.157 155.495V155.056C177.155 154.826 177.063 154.606 176.901 154.444C176.739 154.282 176.519 154.19 176.29 154.188H171.947C171.717 154.188 171.496 154.279 171.332 154.442C171.168 154.604 171.076 154.825 171.074 155.056V156.169C171.074 157.956 172.551 160.271 174.116 160.271C174.293 160.268 174.469 160.238 174.637 160.183C173.682 158.366 174.52 155.565 177.157 155.495Z" fill="black"/>
<path opacity="0.2" d="M187.072 155.19C187.237 155.193 187.401 155.204 187.565 155.225V155.056C187.565 154.825 187.473 154.605 187.311 154.442C187.148 154.28 186.927 154.188 186.697 154.188H182.355C182.241 154.188 182.128 154.211 182.023 154.254C181.918 154.298 181.822 154.362 181.742 154.442C181.661 154.523 181.597 154.618 181.554 154.724C181.51 154.829 181.488 154.942 181.488 155.056V156.169C181.488 157.956 182.959 160.271 184.523 160.271C184.578 160.274 184.633 160.274 184.687 160.271C183.375 158.46 184.172 155.19 187.072 155.19Z" fill="black"/>
<path opacity="0.2" d="M197.567 155.642C197.702 155.632 197.837 155.632 197.972 155.642V155.056C197.972 154.826 197.88 154.605 197.718 154.442C197.555 154.28 197.335 154.188 197.105 154.188H192.762C192.532 154.188 192.312 154.28 192.149 154.442C191.986 154.605 191.895 154.826 191.895 155.056V156.169C191.895 157.927 193.354 160.271 194.919 160.271C194.005 158.425 194.889 155.642 197.567 155.642Z" fill="black"/>
<path opacity="0.2" d="M172.979 182.457V176.679C172.979 176.287 172.662 175.97 172.27 175.97H92.6912C92.2996 175.97 91.9821 176.287 91.9821 176.679V182.457C91.9821 182.849 92.2996 183.166 92.6912 183.166H172.27C172.662 183.166 172.979 182.849 172.979 182.457Z" fill="black"/>
<path opacity="0.2" d="M183.75 177.974V177.388C183.75 177.274 183.727 177.161 183.684 177.056C183.64 176.951 183.576 176.855 183.496 176.775C183.415 176.694 183.32 176.63 183.214 176.587C183.109 176.543 182.996 176.521 182.882 176.521H178.54C178.426 176.521 178.313 176.543 178.208 176.587C178.103 176.63 178.007 176.694 177.927 176.775C177.846 176.855 177.782 176.951 177.739 177.056C177.695 177.161 177.673 177.274 177.673 177.388V178.501C177.673 180.289 179.144 182.603 180.714 182.603C180.845 182.6 180.974 182.583 181.101 182.551C180.234 180.722 181.119 177.992 183.75 177.974Z" fill="black"/>
<path opacity="0.2" d="M86.7843 177.599C86.955 177.6 87.1254 177.614 87.2941 177.64V177.394C87.2926 177.163 87.1999 176.943 87.0363 176.78C86.8727 176.618 86.6515 176.527 86.421 176.527H82.0787C81.8492 176.528 81.6295 176.62 81.4671 176.782C81.3048 176.945 81.213 177.164 81.2114 177.394V178.507C81.2114 180.295 82.6881 182.609 84.2528 182.609H84.3524C83.1042 180.793 83.9246 177.599 86.7843 177.599Z" fill="black"/>
<path opacity="0.2" d="M60.6601 55.377H204.3C205.287 55.377 206.234 55.769 206.932 56.4668C207.629 57.1647 208.021 58.1112 208.021 59.0981V91.9141H56.939V59.0981C56.939 58.1112 57.331 57.1647 58.0288 56.4668C58.7267 55.769 59.6732 55.377 60.6601 55.377V55.377Z" fill="black"/>
<path d="M192.557 61.5651H72.4273C71.4256 53.2459 69.6601 45.0366 67.1533 37.041H197.855C195.308 45.0274 193.535 53.2398 192.557 61.5651V61.5651Z" fill="white"/>
<path opacity="0.2" d="M193.741 53.6599C192.867 58.43 192.569 61.5651 192.569 61.5651H72.4386C72.4386 61.5651 72.1339 58.4886 71.2373 53.6599H193.741Z" fill="black"/>
<path d="M192.557 61.5651H72.4273C71.4256 53.2459 69.6601 45.0366 67.1533 37.041H197.855C195.308 45.0274 193.535 53.2398 192.557 61.5651V61.5651Z" stroke="#263238" stroke-linecap="round" stroke-linejoin="round"/>
<path d="M190.922 82.2158H73.0718V130.701H190.922V82.2158Z" fill="#263238"/>
<g opacity="0.4">
<path opacity="0.4" d="M129.058 126.412L129.679 126.441C130.461 114.35 131.242 102.239 132.023 90.1091C131.027 102.243 130.039 114.344 129.058 126.412Z" fill="white"/>
<path opacity="0.4" d="M127.054 126.259L127.675 126.312C129.03 114.299 130.384 102.233 131.736 90.115C130.177 102.241 128.616 114.289 127.054 126.259Z" fill="white"/>
<path opacity="0.4" d="M125.103 126.037C125.308 126.037 125.519 126.084 125.724 126.107C127.646 114.223 129.58 102.224 131.525 90.1091C129.376 102.235 127.236 114.211 125.103 126.037Z" fill="white"/>
<path opacity="0.4" d="M123.127 125.738L123.754 125.838C126.247 114.118 128.759 102.202 131.29 90.0916C128.556 102.214 125.835 114.096 123.127 125.738Z" fill="white"/>
<path opacity="0.4" d="M121.159 125.369L121.792 125.498C124.839 114 127.927 102.202 131.056 90.1033C127.728 102.206 124.429 113.961 121.159 125.369Z" fill="white"/>
<path opacity="0.4" d="M119.202 124.923L119.835 125.082C123.427 113.842 127.119 102.187 130.822 90.0974C126.902 102.187 122.993 113.789 119.202 124.923Z" fill="white"/>
<path opacity="0.4" d="M117.25 124.396L117.889 124.584C121.991 113.66 126.286 102.163 130.587 90.0857C126.069 102.163 121.569 113.596 117.25 124.396Z" fill="white"/>
<path opacity="0.4" d="M115.334 123.798L115.973 124.003C120.608 113.455 125.472 102.14 130.371 90.0798C125.232 102.14 120.145 113.373 115.334 123.798Z" fill="white"/>
<path opacity="0.4" d="M113.388 123.113L114.033 123.347C119.166 113.198 124.622 102.11 130.118 90.0681C124.393 102.11 118.709 113.098 113.388 123.113Z" fill="white"/>
<path opacity="0.4" d="M111.49 122.339L112.134 122.609C117.737 112.916 123.784 102.099 129.884 90.0564C123.538 102.075 117.274 112.834 111.49 122.339Z" fill="white"/>
<path opacity="0.4" d="M109.609 121.472L110.253 121.782C116.301 112.612 122.94 102.034 129.65 90.0447C122.7 102.034 115.832 112.512 109.609 121.472Z" fill="white"/>
<path opacity="0.4" d="M107.757 120.511L108.401 120.862C114.847 112.266 122.096 101.987 129.415 90.0271C122.74 100.564 115.51 110.74 107.757 120.511V120.511Z" fill="white"/>
<path opacity="0.4" d="M105.958 119.456C106.169 119.591 106.392 119.714 106.608 119.843C114.741 110.37 122.287 100.409 129.205 90.0154C122.126 100.34 114.359 110.176 105.958 119.456Z" fill="white"/>
<path opacity="0.4" d="M104.159 118.29L104.797 118.729C113.573 109.793 121.647 100.193 128.946 90.0154C121.495 100.122 113.203 109.58 104.159 118.29V118.29Z" fill="white"/>
<path opacity="0.4" d="M128.712 89.9802C119.284 101.788 110.06 110.795 102.442 117.018L103.069 117.505C112.474 109.168 121.061 99.9509 128.712 89.9802V89.9802Z" fill="white"/>
<path opacity="0.4" d="M128.478 89.9626C118.434 101.683 108.619 110.25 100.772 115.641L101.393 116.174C109.134 110.443 118.698 101.712 128.478 89.9626Z" fill="white"/>
<path opacity="0.4" d="M128.226 89.9451C117.578 101.577 107.206 109.641 99.1836 114.141C99.377 114.34 99.5704 114.539 99.7696 114.727C107.716 109.863 117.859 101.606 128.226 89.9451Z" fill="white"/>
<path opacity="0.4" d="M128.009 89.9216C116.781 101.437 105.87 108.967 97.7188 112.541L98.3047 113.18C106.374 109.213 117.039 101.472 128.009 89.9216Z" fill="white"/>
<path opacity="0.4" d="M96.3711 110.83C96.541 111.065 96.7168 111.299 96.8926 111.527C105.067 108.51 116.231 101.308 127.781 89.9041C115.996 101.255 104.593 108.222 96.3711 110.83Z" fill="white"/>
<path opacity="0.4" d="M95.1753 109.049C95.3277 109.295 95.4859 109.541 95.6441 109.787C103.848 107.724 115.498 101.097 127.546 89.863C115.263 101.032 103.409 107.414 95.1753 109.049Z" fill="white"/>
<path opacity="0.4" d="M94.1558 107.238C94.2847 107.496 94.4195 107.748 94.5542 108.006C102.758 106.892 114.806 100.851 127.312 89.8689C114.601 100.745 102.36 106.535 94.1558 107.238Z" fill="white"/>
<path opacity="0.4" d="M93.3237 105.386C93.4292 105.644 93.5405 105.908 93.6519 106.166C101.809 105.966 114.162 100.522 127.054 89.8279C114.015 100.411 101.469 105.591 93.3237 105.386Z" fill="white"/>
<path opacity="0.4" d="M131.044 126.494H131.66C131.847 114.383 132.043 102.257 132.246 90.115C131.836 102.249 131.435 114.375 131.044 126.494Z" fill="white"/>
<path opacity="0.4" d="M133.025 126.506H133.647C133.256 114.395 132.865 102.269 132.475 90.1267L133.025 126.506Z" fill="white"/>
<path opacity="0.4" d="M135.006 126.453H135.627C134.651 114.381 133.674 102.271 132.697 90.1208C133.467 102.255 134.236 114.366 135.006 126.453Z" fill="white"/>
<path opacity="0.4" d="M137.016 126.33L137.637 126.283C136.075 114.301 134.512 102.245 132.949 90.115C134.293 102.245 135.649 114.317 137.016 126.33Z" fill="white"/>
<path opacity="0.4" d="M138.967 126.142L139.589 126.066C137.463 114.225 135.315 102.239 133.143 90.1091C135.1 102.239 137.041 114.25 138.967 126.142Z" fill="white"/>
<path opacity="0.4" d="M140.942 125.879L141.569 125.785C138.874 114.123 136.149 102.232 133.395 90.1091C135.926 102.235 138.442 114.159 140.942 125.879Z" fill="white"/>
<path opacity="0.4" d="M142.911 125.545L143.538 125.427C140.284 113.996 136.981 102.222 133.629 90.1033C136.746 102.222 139.841 114.036 142.911 125.545Z" fill="white"/>
<path opacity="0.4" d="M144.868 125.134L145.507 124.988C141.71 113.854 137.795 102.21 133.863 90.0974C137.579 102.212 141.247 113.891 144.868 125.134Z" fill="white"/>
<path opacity="0.4" d="M146.826 124.654L147.458 124.472C143.134 113.649 138.627 102.204 134.098 90.0857C138.405 102.192 142.694 113.684 146.826 124.654Z" fill="white"/>
<path opacity="0.4" d="M148.765 124.085L149.41 123.874C144.564 113.432 139.448 102.192 134.332 90.0798C139.243 102.169 144.118 113.496 148.765 124.085Z" fill="white"/>
<path opacity="0.4" d="M150.693 123.435L151.338 123.195C146.005 113.18 140.309 102.146 134.566 90.0681C140.081 102.146 145.548 113.256 150.693 123.435Z" fill="white"/>
<path opacity="0.4" d="M152.603 122.702C152.82 122.609 153.043 122.527 153.254 122.433C147.453 112.905 141.159 102.116 134.801 90.0564C140.924 102.116 146.978 112.987 152.603 122.702Z" fill="white"/>
<path opacity="0.4" d="M154.496 121.888L155.147 121.577C148.906 112.594 142.009 102.087 135.035 90.0505C141.768 102.075 148.425 112.688 154.496 121.888Z" fill="white"/>
<path opacity="0.4" d="M156.354 120.968C156.571 120.857 156.787 120.733 156.998 120.616C149.216 110.811 141.959 100.6 135.258 90.0271C142.618 102.04 149.908 112.348 156.354 120.968Z" fill="white"/>
<path opacity="0.4" d="M158.194 119.954L158.85 119.567C150.412 110.253 142.613 100.38 135.504 90.0154C142.447 100.45 150.025 110.448 158.194 119.954V119.954Z" fill="white"/>
<path opacity="0.4" d="M135.738 89.9978C143.067 100.223 151.176 109.866 159.993 118.841L160.643 118.401C151.554 109.654 143.222 100.153 135.738 89.9978V89.9978Z" fill="white"/>
<path opacity="0.4" d="M135.973 89.9802C143.66 99.9988 152.294 109.253 161.757 117.616C161.973 117.458 162.179 117.294 162.39 117.13C154.748 110.906 145.454 101.858 135.973 89.9802Z" fill="white"/>
<path opacity="0.4" d="M136.207 89.9626C146.052 101.782 155.674 110.549 163.438 116.28C163.649 116.104 163.866 115.928 164.071 115.747C156.195 110.367 146.316 101.776 136.207 89.9626Z" fill="white"/>
<path opacity="0.4" d="M136.43 89.9451C146.89 101.665 157.086 109.98 165.056 114.838C165.261 114.645 165.454 114.44 165.642 114.252C157.614 109.758 147.165 101.665 136.43 89.9451Z" fill="white"/>
<path opacity="0.4" d="M136.676 89.9216C147.734 101.56 158.481 109.336 166.562 113.274L167.148 112.629C158.997 109.096 147.997 101.536 136.676 89.9216Z" fill="white"/>
<path opacity="0.4" d="M168.01 111.609C168.191 111.375 168.361 111.141 168.537 110.9C160.304 108.351 148.795 101.36 136.893 89.9041C148.543 101.407 159.817 108.633 168.01 111.609Z" fill="white"/>
<path opacity="0.4" d="M169.281 109.846L169.762 109.096C161.517 107.543 149.551 101.144 137.139 89.8806C149.322 101.208 161.042 107.853 169.281 109.846Z" fill="white"/>
<path opacity="0.4" d="M170.418 108.023C170.559 107.765 170.693 107.507 170.828 107.244C162.624 106.658 150.254 100.862 137.426 89.8572C150.014 100.956 162.214 107.009 170.418 108.023Z" fill="white"/>
<path opacity="0.4" d="M137.602 89.8279C150.635 100.645 163.152 106.089 171.297 106.171C171.414 105.908 171.526 105.644 171.637 105.38C163.503 105.714 150.822 100.528 137.602 89.8279Z" fill="white"/>
</g>
<path opacity="0.2" d="M115.334 90.9882C113.113 96.6841 115.516 113.256 131.543 113.256C147.57 113.256 153.389 101.612 152.738 94.4163L174.133 90.9706C174.133 90.9706 180.691 109.09 166.767 121.765C152.844 134.44 104.581 133.62 94.3787 123.986C84.1764 114.352 89.8372 95.3187 89.8372 95.3187L115.334 90.9882Z" fill="black"/>
<path d="M209.235 66.4114V62.4148C209.234 62.267 209.282 62.1229 209.369 62.0037C209.457 61.8845 209.58 61.7965 209.721 61.7527L212.651 60.8385V56.842C212.651 56.3633 212.841 55.9042 213.18 55.5657C213.518 55.2273 213.977 55.0371 214.456 55.0371H217.972C218.145 55.0338 218.313 55.098 218.44 55.2161C218.567 55.3342 218.643 55.4969 218.652 55.67V56.9592C218.652 57.1354 218.582 57.3044 218.458 57.4295C218.334 57.5546 218.166 57.6257 217.99 57.6272H213.519V61.5358C213.516 61.6537 213.485 61.7691 213.426 61.8715C213.368 61.9739 213.285 62.06 213.185 62.1218L210.688 63.6337V66.4172L209.235 66.4114Z" fill="#999999" stroke="#263238" stroke-linecap="round" stroke-linejoin="round"/>
<path d="M213.091 66.4114H209.235V77.9439H213.091V66.4114Z" fill="#263238"/>
<path d="M217.914 65.4327H213.091V78.9224H217.914V65.4327Z" fill="#757575"/>
<path opacity="0.2" d="M217.902 73.6484H213.091V78.9224H217.902V73.6484Z" fill="black"/>
<path d="M217.914 65.4327H213.091V78.9224H217.914V65.4327Z" stroke="#263238" stroke-linecap="round" stroke-linejoin="round"/>
<path d="M51.8702 77.938H55.7261V66.4055H51.8702V77.938Z" fill="#263238"/>
<path d="M47.0473 78.9166H51.8701V65.4269H47.0473V78.9166Z" fill="#757575"/>
<path opacity="0.2" d="M51.876 73.6484H47.0532V78.7935H51.876V73.6484Z" fill="black"/>
<path d="M47.0473 78.9166H51.8701V65.4269H47.0473V78.9166Z" stroke="#263238" stroke-linecap="round" stroke-linejoin="round"/>
<path d="M55.146 72.8632C55.4942 71.9496 55.5481 70.9501 55.3001 70.0044C55.0521 69.0588 54.5147 68.2143 53.763 67.5892L50.9268 65.2452C50.7463 65.0931 50.5365 64.9798 50.3103 64.9125C50.0841 64.8451 49.8465 64.8251 49.6122 64.8537C49.378 64.8823 49.1521 64.9589 48.9488 65.0787C48.7455 65.1985 48.569 65.3589 48.4304 65.5499L37.1851 81.0613C36.9711 81.3515 36.8561 81.7028 36.8569 82.0634V98.7234C36.8569 98.947 36.9013 99.1684 36.9876 99.3747C37.0739 99.581 37.2003 99.7681 37.3595 99.9251C37.5187 100.082 37.7075 100.206 37.915 100.289C38.1225 100.373 38.3445 100.414 38.5681 100.411V100.411C39.0157 100.411 39.4449 100.233 39.7614 99.9167C40.0779 99.6002 40.2557 99.171 40.2557 98.7234V85.1926C40.2568 84.8586 40.3612 84.5331 40.5546 84.2609L48.9637 72.5409C49.0373 72.438 49.1315 72.3515 49.2403 72.2869C49.3491 72.2222 49.4701 72.1809 49.5957 72.1655C49.7213 72.1501 49.8487 72.1609 49.9699 72.1973C50.0911 72.2336 50.2034 72.2948 50.2998 72.3768L51.8468 73.6894C52.2298 74.0145 52.7157 74.1931 53.2181 74.1934V74.1934C53.6358 74.1909 54.0432 74.0627 54.387 73.8254C54.7309 73.5882 54.9954 73.2529 55.146 72.8632V72.8632Z" fill="white" stroke="#263238" stroke-linecap="round" stroke-linejoin="round"/>
<path d="M52.8253 71.3455C53.2687 71.3455 53.6281 70.9861 53.6281 70.5427C53.6281 70.0993 53.2687 69.7399 52.8253 69.7399C52.3819 69.7399 52.0225 70.0993 52.0225 70.5427C52.0225 70.9861 52.3819 71.3455 52.8253 71.3455Z" fill="#999999" stroke="#263238" stroke-linecap="round" stroke-linejoin="round"/>
<path d="M205.66 60.8385H59.3066V83.505H205.66V60.8385Z" fill="#263238"/>
<path opacity="0.2" d="M203.545 62.5437H61.3634C60.9167 62.5437 60.5547 62.9058 60.5547 63.3524V67.0207C60.5547 67.4674 60.9167 67.8294 61.3634 67.8294H203.545C203.991 67.8294 204.353 67.4674 204.353 67.0207V63.3524C204.353 62.9058 203.991 62.5437 203.545 62.5437Z" fill="white"/>
<path d="M192.557 88.064H72.4273C69.042 80.3259 67.2484 71.9856 67.1533 63.5399H197.855C197.855 74.8966 192.557 88.064 192.557 88.064Z" fill="white"/>
<g opacity="0.7">
<path opacity="0.7" d="M82.1431 86.224C82.1431 86.224 84.7742 86.0834 86.2451 85.1985C87.7159 84.3137 87.6104 85.9955 88.4543 86.1068C89.2981 86.2182 91.2905 85.5208 92.3453 85.5208C93.4001 85.5208 92.5973 86.1654 93.7869 86.1068C94.9765 86.0482 94.3377 86.1654 94.9589 86.0482L100.051 85.1985C100.051 85.1985 102.635 84.7004 103.157 84.9524C103.679 85.2044 104.364 86.4467 105.126 86.1244C105.888 85.8021 105.483 85.5384 106.632 85.5384C107.342 85.5417 108.048 85.6443 108.73 85.8431C108.73 85.8431 108.835 85.5443 109.363 85.5384H110.306C110.306 85.5384 112.304 86.0658 112.621 86.0658C112.937 86.0658 115.299 85.5443 115.381 85.5384C115.463 85.5325 117.725 84.9524 117.725 84.9524C118.205 85.454 118.813 85.8147 119.483 85.9955C120.339 86.1068 121.241 85.8783 121.886 86.1654C122.53 86.4526 124.652 86.0482 124.652 86.0482C125.158 86.0515 125.663 86.0907 126.163 86.1654C126.82 86.3153 127.504 86.2951 128.15 86.1068C129.338 85.7926 130.585 85.7725 131.783 86.0482C133.688 86.394 135.44 85.5267 136.248 85.5208C137.057 85.515 140.292 85.8783 141.405 85.8783C142.519 85.8783 145.466 86.2768 147.517 86.0482C149.568 85.8197 150.91 86.3354 152.287 86.3354C153.664 86.3354 155.135 86.2768 155.452 86.2768C155.768 86.2768 157.292 85.2806 159.472 85.5208C161.652 85.7611 159.712 85.222 161.054 85.5208C162.396 85.8197 163.456 86.1068 164.025 86.1654C164.481 86.192 164.938 86.1724 165.39 86.1068L167.734 85.9369H179.419" stroke="#263238" stroke-linecap="round" stroke-linejoin="round"/>
<path opacity="0.7" d="M79.7109 81.7001C79.7109 81.7001 86.948 81.7001 88.2548 81.5829C89.5616 81.4657 90.2589 80.7977 90.9563 80.7977C91.6536 80.7977 95.1755 81.4657 95.1755 81.4657C95.2782 81.2472 95.4459 81.0657 95.6557 80.9461C95.8655 80.8266 96.1071 80.7747 96.3475 80.7977C97.3027 80.7977 96.8163 80.8856 97.6953 81.2372C98.5743 81.5888 98.1172 81.2372 98.5801 81.5829C99.2702 81.8928 99.9999 82.1058 100.748 82.2158C100.748 82.2158 104.012 82.3681 104.135 81.5829C104.258 80.7977 105.893 82.2158 105.893 82.2158C105.893 82.2158 110.324 81.5829 112.035 81.5829C113.746 81.5829 118.035 81.2372 118.035 81.2372C118.035 81.2372 121.551 81.7001 121.715 81.7001C121.879 81.7001 122.46 82.6201 123.087 82.2158C123.714 81.8114 124.317 81.3485 125.061 81.4657C125.753 81.6371 126.421 81.8889 127.054 82.2158L128.689 81.3485L130.564 81.4657C130.564 81.4657 132.474 82.7373 133.84 82.2158C134.879 81.8003 135.895 81.3269 136.881 80.7977L138.563 82.2158H139.665L142.929 81.5829C143.18 81.8917 143.518 82.1173 143.9 82.2302C144.282 82.3432 144.689 82.3381 145.068 82.2158C146.45 81.8173 159.665 82.2158 163.028 82.2158C166.392 82.2158 167.13 81.3485 167.13 81.3485L169.721 82.2158H182.613" stroke="#263238" stroke-linecap="round" stroke-linejoin="round"/>
</g>
<path opacity="0.2" d="M193.782 84.677C193.073 86.7866 192.557 88.0641 192.557 88.0641H72.4274C72.4274 88.0641 71.8414 86.8335 71.0386 84.677H193.782Z" fill="black"/>
<path opacity="0.2" d="M196.284 75.8049C195.88 77.5629 195.434 79.2799 194.995 80.7976H69.7316C69.2979 79.3092 68.8526 77.6274 68.4658 75.8049H196.284Z" fill="black"/>
<path d="M192.557 88.064H72.4273C69.042 80.3259 67.2484 71.9856 67.1533 63.5399H197.855C197.855 74.8966 192.557 88.064 192.557 88.064Z" stroke="#263238" stroke-linecap="round" stroke-linejoin="round"/>
<path d="M59.2772 59.6724H55.6968V84.6828H59.2772V59.6724Z" fill="#757575"/>
<path opacity="0.2" d="M59.2069 77.264H55.7202V84.6828H59.2069V77.264Z" fill="black"/>
<path d="M59.2772 59.6724H55.6968V84.6828H59.2772V59.6724Z" stroke="#263238" stroke-linecap="round" stroke-linejoin="round"/>
<path d="M209.264 59.6724H205.684V84.6828H209.264V59.6724Z" fill="#757575"/>
<path opacity="0.2" d="M209.264 77.264H205.654V84.6828H209.264V77.264Z" fill="black"/>
<path d="M209.264 59.6724H205.684V84.6828H209.264V59.6724Z" stroke="#263238" stroke-linecap="round" stroke-linejoin="round"/>
<path d="M205.713 58.6234V76.8656H59.2482V58.6234H57.8418V78.0903H207.119V58.6234H205.713Z" fill="#999999" stroke="#263238" stroke-linecap="round" stroke-linejoin="round"/>
<path d="M214.368 89.3532V130.262C214.368 130.952 214.094 131.614 213.606 132.102C213.118 132.59 212.456 132.864 211.766 132.864H53.177C52.487 132.864 51.8252 132.59 51.3373 132.102C50.8493 131.614 50.5752 130.952 50.5752 130.262V89.3532C50.5752 88.6631 50.8493 88.0013 51.3373 87.5134C51.8252 87.0255 52.487 86.7513 53.177 86.7513H126.251V89.3532C126.251 89.3532 113.775 100.177 92.2632 104.167C95.3456 118.12 112.187 128.779 132.51 128.779C152.832 128.779 169.674 118.108 172.762 104.167C151.221 100.177 138.745 89.3532 138.745 89.3532V86.7279H211.784C212.126 86.7302 212.464 86.8 212.78 86.9332C213.095 87.0665 213.381 87.2606 213.621 87.5045C213.861 87.7483 214.05 88.0371 214.178 88.3544C214.307 88.6716 214.371 89.011 214.368 89.3532Z" fill="white" stroke="#263238" stroke-linecap="round" stroke-linejoin="round"/>
<path d="M214.368 89.3532V130.262C214.368 130.604 214.301 130.943 214.169 131.259C214.038 131.575 213.846 131.862 213.604 132.104C213.362 132.345 213.074 132.537 212.758 132.667C212.441 132.798 212.103 132.864 211.76 132.864H53.177C52.8349 132.864 52.4959 132.798 52.1796 132.667C51.8632 132.537 51.5757 132.345 51.3335 132.104C51.0912 131.862 50.8991 131.575 50.7679 131.259C50.6368 130.943 50.5693 130.604 50.5693 130.262V89.3532C50.5709 88.6621 50.8461 87.9997 51.3348 87.511C51.8235 87.0223 52.4859 86.747 53.177 86.7455H126.251V89.3532C126.251 89.3532 113.769 100.171 92.2632 104.167C95.3456 118.12 112.187 128.779 132.516 128.779C152.844 128.779 169.674 118.108 172.762 104.167C151.221 100.171 138.745 89.3532 138.745 89.3532V86.7279H211.784C212.474 86.7341 213.134 87.014 213.619 87.5062C214.103 87.9983 214.373 88.6626 214.368 89.3532V89.3532Z" fill="white"/>
<path opacity="0.2" d="M210.852 89.9803V127.748C210.852 127.999 210.802 128.248 210.706 128.48C210.609 128.711 210.468 128.922 210.29 129.099C210.112 129.276 209.9 129.416 209.668 129.511C209.436 129.606 209.187 129.654 208.936 129.652H54.7356C54.4852 129.653 54.2372 129.605 54.0058 129.509C53.7744 129.414 53.5642 129.273 53.3872 129.096C53.2102 128.919 53.0699 128.709 52.9745 128.478C52.879 128.246 52.8303 127.998 52.8311 127.748V89.9803C52.8303 89.7294 52.8789 89.4809 52.9742 89.2488C53.0695 89.0167 53.2096 88.8057 53.3865 88.6278C53.5633 88.4498 53.7735 88.3085 54.0049 88.2117C54.2364 88.115 54.4847 88.0649 54.7356 88.0641H126.228V89.3533C126.228 89.3533 113.746 100.171 92.2396 104.167C95.3219 118.12 112.164 128.779 132.492 128.779C152.82 128.779 169.65 118.108 172.738 104.167C151.197 100.171 138.721 89.3533 138.721 89.3533V88.0641H208.953C209.458 88.0687 209.941 88.2727 210.297 88.6315C210.652 88.9904 210.852 89.4751 210.852 89.9803V89.9803Z" fill="white"/>
<path d="M214.368 89.3532V130.262C214.368 130.604 214.301 130.943 214.169 131.259C214.038 131.575 213.846 131.862 213.604 132.104C213.362 132.345 213.074 132.537 212.758 132.667C212.441 132.798 212.103 132.864 211.76 132.864H53.177C52.8349 132.864 52.4959 132.798 52.1796 132.667C51.8632 132.537 51.5757 132.345 51.3335 132.104C51.0912 131.862 50.8991 131.575 50.7679 131.259C50.6368 130.943 50.5693 130.604 50.5693 130.262V89.3532C50.5709 88.6621 50.8461 87.9997 51.3348 87.511C51.8235 87.0223 52.4859 86.747 53.177 86.7455H126.251V89.3532C126.251 89.3532 113.769 100.171 92.2632 104.167C95.3456 118.12 112.187 128.779 132.516 128.779C152.844 128.779 169.674 118.108 172.762 104.167C151.221 100.171 138.745 89.3532 138.745 89.3532V86.7279H211.784C212.474 86.7341 213.134 87.014 213.619 87.5062C214.103 87.9983 214.373 88.6626 214.368 89.3532V89.3532Z" stroke="#263238" stroke-linecap="round" stroke-linejoin="round"/>
<path opacity="0.2" d="M161.98 144.988L169.768 166.711C169.768 166.711 173.137 142.802 175.147 142.802C177.157 142.802 181.488 155.876 181.488 155.876C181.488 155.876 184.16 149.055 186.691 148.809C189.223 148.563 191.514 165.557 191.514 165.557L191.907 203.278L188.713 260.325C188.713 260.325 168.338 237.881 162.396 232.097C156.454 226.313 150.775 213.585 149.134 211.001C147.494 208.417 147.078 194.886 147.078 194.886C149.155 192.228 150.241 188.929 150.148 185.557C150.148 185.557 154.93 177.552 154.637 171.645C154.344 165.738 153.606 142.785 161.98 144.988Z" fill="black" fill-opacity="0.7"/>
<path d="M223.281 250.222L192.434 266.448C192.434 266.284 188.379 259.715 183.48 252.285C181.265 248.921 178.874 245.388 176.606 242.188C172.891 236.955 168.168 232.437 167.764 231.452C166.592 228.522 157.555 217.553 155.534 213.286C153.512 209.02 153.049 195.747 152.158 192.624C151.268 189.501 153.823 186.518 155.874 185.065C157.925 183.611 160.075 179.791 160.075 179.791C160.075 179.791 157.807 170.954 157.784 166.459C157.761 161.965 156.231 146.277 158.059 144.812C159.888 143.347 161.523 143.963 161.98 144.971C163.48 148.293 164.828 156.65 165.982 160.5C167.137 164.35 169.305 175.519 170.371 176.322C171.438 177.124 173.336 174.112 173.336 174.112C173.336 174.112 173.518 164.736 173.922 160.851L173.336 148.545C173.336 148.545 172.241 141.15 174.79 140.447C178.306 139.48 179.589 141.689 179.988 142.621C180.386 143.552 182.027 148.92 182.027 148.92L182.121 149.289C182.121 149.325 182.121 149.36 182.121 149.401V149.465C182.148 149.567 182.177 149.678 182.208 149.799C182.273 150.045 182.349 150.338 182.431 150.672C183.211 153.725 184.711 159.837 184.646 161.343C184.558 163.377 183.849 174.64 184.851 176.978L186.41 161.42C186.41 161.42 183.896 149.43 184.629 147.701C185.361 145.973 188.813 147.883 189.223 148.563C189.633 149.242 192.985 153.356 193.583 154.927L194.169 156.497C194.169 156.497 194.995 152.782 196.935 153.749C198.874 154.716 199.115 159.439 199.249 161.502C199.384 163.564 200.791 176.831 201.007 176.855C201.224 176.878 203.463 183.77 203.158 188.323C202.519 198.068 204.207 205.317 204.266 209.056C204.324 212.794 201.505 221.455 201.505 221.455C201.605 221.625 203.445 224.754 203.949 227.503C204.318 229.519 210.887 236.803 216.255 242.598C219.988 246.595 223.117 249.865 223.281 250.222Z" fill="white"/>
<path opacity="0.4" d="M183.486 252.296C181.271 248.933 178.88 245.399 176.612 242.2C172.897 236.967 168.174 232.449 167.769 231.464C166.597 228.534 157.561 217.564 155.54 213.298C153.518 209.032 153.055 195.759 152.164 192.636C151.274 189.512 153.829 186.53 155.88 185.076C157.931 183.623 160.081 179.802 160.081 179.802C160.081 179.802 157.813 170.965 157.79 166.471C157.766 161.976 156.237 146.289 158.065 144.824C159.894 143.359 161.529 143.974 161.986 144.982C163.486 148.305 164.834 156.661 165.988 160.511C167.142 164.361 169.311 175.53 170.377 176.333C171.444 177.136 173.342 174.124 173.342 174.124C173.342 174.124 173.524 164.748 173.928 160.863L173.342 148.557C173.342 148.557 172.246 141.162 174.796 140.458C178.312 139.491 179.595 141.701 179.993 142.632C180.392 143.564 182.033 148.932 182.033 148.932L182.126 149.301C182.126 149.336 182.126 149.371 182.126 149.412V149.477C182.15 149.578 182.179 149.69 182.214 149.811C182.279 150.057 182.355 150.35 182.437 150.684C181.529 149.248 180.281 148.024 178.61 147.701C173.922 146.787 174.936 152.003 175.382 155.132C175.634 157.208 175.585 159.31 175.235 161.373L176.407 160.699C175.563 162.205 174.356 174.722 174.356 177.505C174.356 180.289 172.153 181.215 170.178 180.4C168.203 179.586 167.5 166.811 166 164.519C164.5 162.228 160.327 166.606 160.14 170.608C159.952 174.61 163.685 186.547 162.8 189.36C161.915 192.173 161.927 202.838 161.927 202.838L160.849 200.09C160.919 200.465 160.849 201.725 158.593 205.434C157.745 206.777 157.197 208.286 156.986 209.86C156.775 211.433 156.905 213.034 157.368 214.552C158.745 217.594 165.73 225.61 166.902 226.436C166.902 226.436 167.752 222.955 170.418 223.881C169.51 225.325 168.849 226.909 168.461 228.569C167.91 231.124 173.471 232.759 175.212 235.191C176.278 236.674 176.993 241.192 183.486 252.296Z" fill="white"/>
<path opacity="0.4" d="M216.29 242.604C210.805 237.078 201.154 231.816 201.74 230.439C202.525 228.587 201.529 224.643 199.841 221.444C198.153 218.244 200.427 213.052 200.427 213.052L201.47 216.07C202.305 212.589 202.402 208.972 201.757 205.452C200.691 199.469 199.859 201.572 199.859 201.572C199.859 201.572 200.075 196.181 201.031 193.239C201.986 190.298 202.789 183.154 201.47 178.929C200.152 174.704 197.368 175.501 196.624 176.954C195.88 178.408 196.677 184.074 197.292 185.932C197.907 187.79 195.288 190.913 195.235 188.592C195.182 186.272 194.192 179.802 194.192 179.802L196.178 166.811L194.192 156.491C194.192 156.491 195.018 152.776 196.958 153.743C198.897 154.71 199.138 159.433 199.273 161.496C199.407 163.558 200.814 176.826 201.031 176.849C201.247 176.872 203.486 183.764 203.181 188.317C202.542 198.062 204.23 205.311 204.289 209.05C204.347 212.788 201.529 221.449 201.529 221.449C201.628 221.619 203.468 224.749 203.972 227.497C204.341 229.513 210.91 236.797 216.278 242.592L216.29 242.604Z" fill="white"/>
<path opacity="0.4" d="M193.582 154.927C193.694 155.22 193.787 155.46 193.858 155.653C191.994 151.323 188.818 152.665 188.256 153.895C187.693 155.126 189.586 162.762 190.014 163.945C190.441 165.129 188.314 174.581 188.004 177.71C187.693 180.84 186.867 181.478 186.867 181.478C184.763 181.637 184.523 175.829 184.523 175.032C184.564 175.699 184.694 176.357 184.91 176.99L186.468 161.431C186.468 161.431 183.896 149.43 184.628 147.701C185.361 145.973 188.812 147.883 189.223 148.563C189.633 149.242 192.985 153.356 193.582 154.927Z" fill="white"/>
<path d="M223.281 250.222C222.883 249.32 204.582 230.884 203.943 227.497C203.428 224.672 201.494 221.444 201.494 221.444C201.494 221.444 204.312 212.8 204.254 209.044C204.195 205.288 202.496 198.056 203.146 188.311C203.451 183.758 201.218 176.867 200.996 176.843C200.773 176.82 199.367 163.553 199.238 161.49C199.109 159.427 198.868 154.704 196.923 153.737C194.977 152.77 194.157 156.485 194.157 156.485L193.571 154.915C192.985 153.344 189.621 149.231 189.211 148.551C188.801 147.871 185.355 145.955 184.617 147.69C183.879 149.424 186.451 161.396 186.451 161.396L184.904 176.972C183.902 174.628 184.611 163.371 184.699 161.338C184.787 159.304 182.033 148.914 182.033 148.914C182.033 148.914 180.38 143.57 179.993 142.609C179.607 141.648 178.312 139.468 174.796 140.435C172.246 141.138 173.342 148.533 173.342 148.533L173.928 160.839C173.536 164.742 173.342 174.101 173.342 174.101C173.342 174.101 171.444 177.107 170.377 176.31C169.311 175.513 167.142 164.35 165.988 160.488C164.834 156.626 163.486 148.281 161.986 144.959C161.529 143.951 159.894 143.336 158.065 144.801C156.237 146.266 157.761 161.947 157.79 166.447C157.819 170.948 160.081 179.779 160.081 179.779C160.081 179.779 157.931 183.576 155.88 185.053C153.829 186.53 151.274 189.483 152.164 192.612C153.055 195.742 153.518 209.02 155.54 213.275C157.561 217.529 166.574 228.511 167.769 231.441C168.174 232.425 172.897 236.943 176.612 242.176C183.908 252.449 192.434 266.202 192.434 266.437" stroke="#263238" stroke-linecap="round" stroke-linejoin="round"/>
<path d="M160.075 179.808C160.075 179.808 161.529 187.01 161.476 188.217C161.476 188.217 160.204 193.778 160.192 197.382C159.303 198.74 158.504 200.156 157.802 201.619C157.309 202.92 156.43 206.12 156.794 207.901" stroke="#263238" stroke-linecap="round" stroke-linejoin="round"/>
<path d="M157.42 190.45C157.42 190.45 160.983 190.479 160.755 191.979" stroke="#263238" stroke-linecap="round" stroke-linejoin="round"/>
<path d="M160.192 197.382C160.192 197.382 157.907 196.392 157.104 197.722" stroke="#263238" stroke-linecap="round" stroke-linejoin="round"/>
<path d="M173.348 174.124C173.348 174.124 173.184 179.644 171.73 179.205" stroke="#263238" stroke-linecap="round" stroke-linejoin="round"/>
<path d="M184.904 176.972C184.904 176.972 184.482 179.99 185.619 180.922" stroke="#263238" stroke-linecap="round" stroke-linejoin="round"/>
<path d="M194.174 156.497C194.174 156.497 195.757 164.115 196.12 165.92C196.483 167.725 194.321 176.937 194.362 179.334C194.403 181.73 195.428 185.158 195.288 186.77" stroke="#263238" stroke-linecap="round" stroke-linejoin="round"/>
<path d="M200.492 214.353C200.492 214.353 199.982 219.328 201.511 221.455" stroke="#263238" stroke-linecap="round" stroke-linejoin="round"/>
<path d="M169.768 224.198C169.768 224.198 166.357 227.304 167.605 231.124" stroke="#263238" stroke-linecap="round" stroke-linejoin="round"/>
<path d="M192.182 185.475C192.235 187.666 190.952 190.221 190.817 193.251" stroke="#263238" stroke-linecap="round" stroke-linejoin="round"/>
<path d="M181.318 183.518C182.044 185.311 180.462 189.213 180.222 190.678C180.126 191.825 180.251 192.979 180.591 194.077" stroke="#263238" stroke-linecap="round" stroke-linejoin="round"/>
<path d="M201.739 189.694C201.446 191.599 200.099 192.958 199.841 198.818" stroke="#263238" stroke-linecap="round" stroke-linejoin="round"/>
<path d="M168.467 182.961C169.451 184.033 168.789 189.155 169.053 189.993" stroke="#263238" stroke-linecap="round" stroke-linejoin="round"/>
<path d="M186.826 153.456C186.826 153.456 190.178 151.001 193.061 153.895" stroke="#263238" stroke-linecap="round" stroke-linejoin="round"/>
<path d="M175.282 147.813C175.282 147.813 175.868 146.834 178.698 147.074C181.528 147.314 182.032 148.908 182.032 148.908" stroke="#263238" stroke-linecap="round" stroke-linejoin="round"/>
<path d="M167.013 164.543C167.013 164.543 166.064 163.142 163.562 163.605C161.06 164.068 159.946 167.608 159.946 167.608" fill="white"/>
<path d="M167.013 164.543C167.013 164.543 166.064 163.142 163.562 163.605C161.06 164.068 159.946 167.608 159.946 167.608" stroke="#263238" stroke-linecap="round" stroke-linejoin="round"/>
<path d="M201.013 176.855C201.013 176.855 198.927 173.831 196.419 175.126" stroke="#263238" stroke-linecap="round" stroke-linejoin="round"/>
<path opacity="0.2" d="M112.141 154.704C115.657 157.429 112.691 174.153 112.691 174.153L113.002 179.597L119.032 176.972L121.78 188.604C121.78 188.604 121.71 192.864 123.943 194.464C123.943 194.464 124.493 204.022 123.943 211.007C123.392 217.992 112.223 226.202 108.373 233.533C104.523 240.864 79.4124 262.411 79.4124 262.411L58.1523 252.296L73.5231 190.216L87.2941 172.513L95.4571 152.149C95.4571 152.149 96.8577 165.451 96.0431 174.417L112.141 154.704Z" fill="black" fill-opacity="0.7"/>
<path d="M118.059 191.856C117.526 194.423 118.809 208.493 118.586 210.392C118.364 212.29 107.171 225.042 106.608 226.008C106.046 226.975 98.5627 231.283 96.8223 233.339C88.6886 242.827 84.2467 251.564 80.678 260.325C79.9924 262.012 79.336 263.706 78.6914 265.405L46.4146 246.653C49.1277 243.29 51.6886 240.301 54.0326 237.582C58.7206 232.068 62.4534 227.655 64.2817 223.489C64.8428 222.425 65.4854 221.406 66.2038 220.441C66.9304 219.41 67.5809 218.56 67.5809 218.56C67.5809 218.56 65.2369 211.956 65.7819 209.882C66.3268 207.807 65.108 190.755 65.108 190.755C65.108 190.755 63.5199 179.146 61.9553 176.216C61.571 175.451 61.3971 174.598 61.4513 173.743C61.5275 171.065 63.0804 167.69 63.8422 163.781C64.8618 158.507 64.3696 155.899 67.5692 157.722C70.7687 159.544 69.2744 170.614 69.2744 170.614L74.1089 181.326C75.3805 178.736 74.1089 171.176 74.0445 169.389C74.0445 169.096 74.0445 168.61 73.9976 167.977C73.898 164.895 73.6929 158.478 73.9566 155.946C73.9566 155.806 73.9566 155.677 74.0034 155.56C74.3961 152.946 75.7966 144.631 76.6873 143.705C78.0117 142.334 80.1154 141.179 82.0961 144.291C83.2036 146.049 82.729 159.99 82.729 159.99C82.729 159.99 87.3232 154.446 88.7179 153.093C90.1126 151.739 94.3435 149.266 95.4745 152.131C96.6055 154.997 92.4331 163.851 92.4331 163.851C93.3063 165.902 93.4118 171.581 93.4118 171.581C93.4118 171.581 95.3866 178.677 96.5996 178.613H96.6523C97.0039 178.537 97.3907 177.247 97.795 175.437C98.7912 171.001 99.8753 163.412 100.725 162.75L101.311 162.281C101.338 162.247 101.369 162.218 101.405 162.193L101.622 162C103.696 160.154 108.068 156.052 108.068 156.052C108.068 156.052 108.378 154.089 112.205 154.692C116.031 155.296 110.505 166.588 110.505 166.588C109.738 170.18 108.56 179.421 108.56 179.421C108.202 183.266 108.413 193.597 108.413 193.597C108.413 193.597 110.224 187.584 110.107 185.393C109.99 183.201 113.705 177.833 114.795 176.45C115.885 175.068 120.749 175.554 119.395 178.208C118.041 180.863 118.592 189.278 118.059 191.856Z" fill="white"/>
<path opacity="0.4" d="M64.2643 223.512C64.8254 222.448 65.468 221.429 66.1864 220.465C66.1864 220.465 64.2819 225.739 64.0943 228.546C63.9713 230.398 59.0958 233.603 54.0151 237.605C58.7324 232.091 62.436 227.679 64.2643 223.512Z" fill="white"/>
<path opacity="0.4" d="M66.186 220.465C66.9126 219.434 67.5631 218.584 67.5631 218.584C67.5631 218.584 65.2191 211.98 65.7641 209.905C66.3091 207.831 65.0902 190.778 65.0902 190.778C65.0902 190.778 63.5021 179.17 61.9375 176.24L65.5824 182.609C65.5824 182.609 65.225 187.643 66.2622 190.403C67.2994 193.163 68.6062 201.584 68.6062 201.584C68.6062 201.584 67.0709 208.663 67.5924 211.212C68.1139 213.761 70.4638 212.835 70.4638 212.835C70.4638 212.835 71.6182 217.5 66.186 220.465Z" fill="white"/>
<path opacity="0.4" d="M74.6889 172.512C77.2029 187.233 72.8723 183.16 71.3077 179.984C69.7431 176.808 66.0689 170.796 63.3029 172.079C62.5262 172.443 61.8755 173.031 61.4336 173.767C61.5098 171.089 63.0627 167.713 63.8245 163.805C64.8441 158.531 64.3519 155.923 67.5514 157.745C70.751 159.568 69.2567 170.637 69.2567 170.637L74.0912 181.349C75.3628 178.759 74.0912 171.2 74.0267 169.413C74.0267 169.12 74.0267 168.633 73.9799 168C74.1732 169.354 74.4076 170.86 74.6889 172.512Z" fill="white"/>
<path opacity="0.4" d="M80.842 157.968C80.842 157.968 78.1289 154.417 75.7731 154.599C75.3686 154.62 74.9794 154.76 74.6534 155.001C74.3275 155.241 74.0791 155.572 73.939 155.952C73.939 155.812 73.939 155.683 73.9858 155.565C74.3785 152.952 75.779 144.637 76.6697 143.711C77.9941 142.339 80.0978 141.185 82.0785 144.297C83.186 146.055 82.7114 159.996 82.7114 159.996C82.7114 159.996 87.3056 154.452 88.7003 153.098C90.095 151.745 94.3259 149.272 95.4569 152.137C96.5879 155.003 92.4155 163.857 92.4155 163.857C93.2887 165.908 93.3942 171.587 93.3942 171.587C93.3942 171.587 95.369 178.683 96.582 178.619C93.9098 183.647 92.1284 172.53 92.1284 172.53C92.5269 170.233 91.1088 165.252 91.2494 163.939C91.39 162.627 88.7882 157.986 84.4049 159.251C80.0216 160.517 83.186 177.839 83.186 177.839C82.3199 179.219 81.816 180.795 81.721 182.422C80.3674 180.752 81.721 175.976 81.721 175.976C80.5197 171.405 80.842 157.968 80.842 157.968Z" fill="white"/>
<path opacity="0.4" d="M101.27 162.263C99.4006 164.227 99.6584 169.19 97.7539 175.419C98.7501 170.983 99.8342 163.394 100.684 162.732L101.27 162.263Z" fill="white"/>
<path opacity="0.4" d="M118.059 191.856C117.525 194.423 118.809 208.493 118.586 210.391C118.363 212.29 107.171 225.041 106.608 226.008C106.046 226.975 98.5625 231.282 96.822 233.339C88.6884 242.827 84.2465 251.564 80.6777 260.325C82.022 255.783 83.6444 251.329 85.5357 246.987C89.3857 238.332 90.9562 236.791 93.265 234.318C95.5738 231.845 95.3219 226.589 95.3219 226.589C97.026 226.178 98.7727 225.972 100.526 225.973C103.456 225.973 112.128 213.609 115.111 211.44C118.094 209.272 118.627 209.272 115.111 204.49C111.595 199.709 112.591 205.258 111.536 205.076C110.482 204.895 109.907 207.204 109.907 207.204C109.538 202.328 106.391 196.656 105.729 195.238C105.067 193.819 107.335 185.504 106.866 183.189C106.397 180.875 108.882 166.781 108.882 166.781C108.882 166.781 108.571 161.373 103.672 161.355C102.921 161.313 102.178 161.537 101.574 161.988C103.649 160.142 108.02 156.04 108.02 156.04C108.02 156.04 108.331 154.077 112.158 154.68C115.984 155.284 110.458 166.576 110.458 166.576C109.691 170.168 108.513 179.41 108.513 179.41C108.155 183.254 108.366 193.585 108.366 193.585C108.366 193.585 110.177 187.573 110.06 185.381C109.943 183.189 113.658 177.822 114.748 176.439C115.838 175.056 120.702 175.542 119.348 178.197C117.994 180.851 118.592 189.278 118.059 191.856Z" fill="white"/>
<path d="M78.6856 265.458C82.6645 254.951 87.1122 244.696 96.8223 233.369C98.5803 231.341 106.04 227.034 106.608 226.038C107.177 225.042 118.369 212.314 118.586 210.421C118.803 208.528 117.526 194.452 118.059 191.886C118.592 189.319 117.971 180.857 119.319 178.22C120.667 175.583 115.803 175.103 114.719 176.462C113.635 177.822 109.931 183.236 110.031 185.405C110.13 187.573 108.337 193.609 108.337 193.609C108.337 193.609 108.126 183.277 108.484 179.433C108.484 179.433 109.656 170.192 110.429 166.6C110.429 166.6 115.949 155.302 112.129 154.704C108.308 154.106 107.991 156.063 107.991 156.063C107.991 156.063 101.891 161.795 100.684 162.732C99.4768 163.67 97.8302 178.32 96.6172 178.595C95.4041 178.871 93.3766 171.563 93.3766 171.563C93.3766 171.563 93.2711 165.885 92.398 163.834C92.398 163.834 96.5644 155.003 95.4393 152.114C94.3142 149.225 90.0833 151.727 88.6827 153.075C87.2822 154.423 82.6938 159.972 82.6938 159.972C82.6938 159.972 83.1685 146.019 82.0609 144.273C80.0802 141.15 77.9589 142.304 76.6521 143.687C75.7614 144.613 74.3609 152.928 73.9683 155.542C73.5756 158.156 73.9683 167.578 74.0093 169.372C74.0503 171.165 75.3454 178.718 74.0737 181.308L69.2392 170.596C69.2392 170.596 70.7394 159.515 67.534 157.704C64.3286 155.894 64.8267 158.507 63.807 163.764C62.7874 169.02 60.3613 173.292 61.9201 176.228C63.4789 179.164 65.0728 190.766 65.0728 190.766C65.0728 190.766 66.2799 207.819 65.7467 209.893C65.2134 211.968 67.5633 218.578 67.5633 218.578C67.5633 218.578 64.856 222.147 64.2641 223.506C61.5334 229.712 54.6244 236.498 46.4087 246.706" stroke="#263238" stroke-linecap="round" stroke-linejoin="round"/>
<path d="M82.7113 160.007C82.0308 161.014 81.6862 162.21 81.7269 163.424C81.7269 165.651 83.186 177.839 83.186 177.839C83.186 177.839 82.1253 179.093 82.0726 180.183" stroke="#263238" stroke-linecap="round" stroke-linejoin="round"/>
<path d="M108.349 193.579C108.509 195.638 109.039 197.651 109.914 199.521C111.285 202.229 110.84 203.723 110.371 205.323C110.057 206.725 109.89 208.157 109.873 209.595" stroke="#263238" stroke-linecap="round" stroke-linejoin="round"/>
<path d="M74.607 178.923C74.607 178.923 75.6267 182.158 73.7339 183.693" stroke="#263238" stroke-linecap="round" stroke-linejoin="round"/>
<path d="M96.6349 178.595C96.6349 178.595 96.8342 179.867 95.0352 179.984" stroke="#263238" stroke-linecap="round" stroke-linejoin="round"/>
<path d="M108.718 163.945C108.718 163.945 104.206 159.023 100.702 162.732" stroke="#263238" stroke-linecap="round" stroke-linejoin="round"/>
<path d="M90.435 161.179C90.435 161.179 88.3547 158.548 86.5498 158.706C84.7449 158.865 82.3072 159.966 82.0317 161.414" stroke="#263238" stroke-linecap="round" stroke-linejoin="round"/>
<path d="M110.757 203.74C111.485 204.782 112.015 205.948 112.322 207.18" stroke="#263238" stroke-linecap="round" stroke-linejoin="round"/>
<path d="M99.0372 183.734C97.6367 186.342 98.3047 190.766 97.7891 191.979" stroke="#263238" stroke-linecap="round" stroke-linejoin="round"/>
<path d="M84.2 179.404C84.5282 180.904 83.491 183.348 83.3327 185.147C83.1745 186.946 84.6454 189.723 84.3758 192.249" stroke="#263238" stroke-linecap="round" stroke-linejoin="round"/>
<path d="M74.6893 185.545C74.6893 185.545 73.4645 188.37 73.5173 190.233C73.57 192.097 74.2322 196.181 74.2322 196.181" stroke="#263238" stroke-linecap="round" stroke-linejoin="round"/>
<path d="M65.6821 185.41C65.6821 185.41 65.2367 188.34 66.2681 190.403C67.2994 192.466 68.3015 196.849 68.3015 196.849" stroke="#263238" stroke-linecap="round" stroke-linejoin="round"/>
<path d="M67.5635 218.578C68.1036 218.428 68.5864 218.12 68.949 217.693C69.3116 217.265 69.5373 216.739 69.5969 216.181" stroke="#263238" stroke-linecap="round" stroke-linejoin="round"/>
<path d="M97.0216 227.509C97.0216 227.509 98.1409 231.652 95.9961 234.318" stroke="#263238" stroke-linecap="round" stroke-linejoin="round"/>
<path d="M61.4629 173.274C61.4629 173.274 64.6156 170.198 67.0006 172.794" stroke="#263238" stroke-linecap="round" stroke-linejoin="round"/>
<path d="M73.9858 155.565C73.9858 155.565 76.3298 153.11 79.0723 155.735" stroke="#263238" stroke-linecap="round" stroke-linejoin="round"/>
</g>
<defs>
<clipPath id="clip0_580_2170">
<rect width="270" height="265" fill="white"/>
</clipPath>
</defs>
</svg>
