<svg width="352" height="319" viewBox="0 0 352 319" fill="none" xmlns="http://www.w3.org/2000/svg">
<path d="M321.897 90.533H252.228V248.577H321.897V90.533Z" stroke="#263238" stroke-width="0.75" stroke-linecap="round" stroke-linejoin="round"/>
<path d="M315.782 96.6482H258.343V242.461H315.782V96.6482Z" stroke="#263238" stroke-width="0.75" stroke-linecap="round" stroke-linejoin="round"/>
<path d="M264.872 161.029L263.304 163.751" stroke="#263238" stroke-width="0.75" stroke-linecap="round" stroke-linejoin="round"/>
<path d="M281.361 132.481L266.681 157.909" stroke="#263238" stroke-width="0.75" stroke-linecap="round" stroke-linejoin="round"/>
<path d="M294.831 109.144L283.708 128.41" stroke="#263238" stroke-width="0.75" stroke-linecap="round" stroke-linejoin="round"/>
<path d="M297.187 105.072L296.001 107.116" stroke="#263238" stroke-width="0.75" stroke-linecap="round" stroke-linejoin="round"/>
<path d="M269.544 230.332L268.21 232.641" stroke="#263238" stroke-width="0.75" stroke-linecap="round" stroke-linejoin="round"/>
<path d="M272.633 224.982L271.221 227.439" stroke="#263238" stroke-width="0.75" stroke-linecap="round" stroke-linejoin="round"/>
<path d="M291.47 192.354L275.659 219.748" stroke="#263238" stroke-width="0.75" stroke-linecap="round" stroke-linejoin="round"/>
<path d="M305.47 168.104L293.092 189.554" stroke="#263238" stroke-width="0.75" stroke-linecap="round" stroke-linejoin="round"/>
<path d="M308.536 162.8L307.312 164.922" stroke="#263238" stroke-width="0.75" stroke-linecap="round" stroke-linejoin="round"/>
<path d="M287.063 212.884L275.659 232.641" stroke="#263238" stroke-width="0.75" stroke-linecap="round" stroke-linejoin="round"/>
<path d="M301.649 187.62L288.724 210.006" stroke="#263238" stroke-width="0.75" stroke-linecap="round" stroke-linejoin="round"/>
<path d="M304.683 182.37L303.154 185.014" stroke="#263238" stroke-width="0.75" stroke-linecap="round" stroke-linejoin="round"/>
<path d="M263.304 181.481L261.572 184.484" stroke="#263238" stroke-width="0.75" stroke-linecap="round" stroke-linejoin="round"/>
<path d="M278.459 155.234L264.692 179.079" stroke="#263238" stroke-width="0.75" stroke-linecap="round" stroke-linejoin="round"/>
<path d="M297.374 122.474L280.082 152.418" stroke="#263238" stroke-width="0.75" stroke-linecap="round" stroke-linejoin="round"/>
<path d="M308.739 102.787L298.708 120.165" stroke="#263238" stroke-width="0.75" stroke-linecap="round" stroke-linejoin="round"/>
<path d="M97.7721 90.533H28.1025V248.577H97.7721V90.533Z" stroke="#263238" stroke-width="0.75" stroke-linecap="round" stroke-linejoin="round"/>
<path d="M91.657 96.6482H34.2178V242.461H91.657V96.6482Z" stroke="#263238" stroke-width="0.75" stroke-linecap="round" stroke-linejoin="round"/>
<path d="M40.7465 161.029L39.1787 163.751" stroke="#263238" stroke-width="0.75" stroke-linecap="round" stroke-linejoin="round"/>
<path d="M57.2279 132.481L42.5483 157.909" stroke="#263238" stroke-width="0.75" stroke-linecap="round" stroke-linejoin="round"/>
<path d="M70.7063 109.144L59.5835 128.41" stroke="#263238" stroke-width="0.75" stroke-linecap="round" stroke-linejoin="round"/>
<path d="M73.0538 105.072L71.876 107.116" stroke="#263238" stroke-width="0.75" stroke-linecap="round" stroke-linejoin="round"/>
<path d="M45.4188 230.332L44.085 232.641" stroke="#263238" stroke-width="0.75" stroke-linecap="round" stroke-linejoin="round"/>
<path d="M48.5075 224.982L47.0879 227.439" stroke="#263238" stroke-width="0.75" stroke-linecap="round" stroke-linejoin="round"/>
<path d="M67.3443 192.354L51.5259 219.748" stroke="#263238" stroke-width="0.75" stroke-linecap="round" stroke-linejoin="round"/>
<path d="M81.3454 168.104L68.959 189.554" stroke="#263238" stroke-width="0.75" stroke-linecap="round" stroke-linejoin="round"/>
<path d="M84.4106 162.8L83.1782 164.922" stroke="#263238" stroke-width="0.75" stroke-linecap="round" stroke-linejoin="round"/>
<path d="M62.9373 212.884L51.5259 232.641" stroke="#263238" stroke-width="0.75" stroke-linecap="round" stroke-linejoin="round"/>
<path d="M77.5232 187.62L64.5986 210.006" stroke="#263238" stroke-width="0.75" stroke-linecap="round" stroke-linejoin="round"/>
<path d="M80.5498 182.37L79.0288 185.014" stroke="#263238" stroke-width="0.75" stroke-linecap="round" stroke-linejoin="round"/>
<path d="M39.1784 181.481L37.439 184.484" stroke="#263238" stroke-width="0.75" stroke-linecap="round" stroke-linejoin="round"/>
<path d="M54.3261 155.234L40.5591 179.079" stroke="#263238" stroke-width="0.75" stroke-linecap="round" stroke-linejoin="round"/>
<path d="M73.2413 122.474L55.9565 152.418" stroke="#263238" stroke-width="0.75" stroke-linecap="round" stroke-linejoin="round"/>
<path d="M84.6055 102.787L74.5747 120.165" stroke="#263238" stroke-width="0.75" stroke-linecap="round" stroke-linejoin="round"/>
<path d="M3.00977 314.455H346.99" stroke="#263238" stroke-linecap="round" stroke-linejoin="round"/>
<path d="M122.498 252.664H116.531V272.952H122.498V252.664Z" fill="white"/>
<path opacity="0.2" d="M122.498 252.664H116.531V272.952H122.498V252.664Z" fill="black"/>
<path d="M128.473 254.895H122.506V272.952H128.473V254.895Z" fill="white"/>
<path d="M135.922 254.895H131.71V272.952H135.922V254.895Z" fill="white"/>
<path opacity="0.9" d="M135.922 254.895H131.71V272.952H135.922V254.895Z" fill="white"/>
<path d="M131.718 252.991H127.896V272.959H131.718V252.991Z" fill="white"/>
<path opacity="0.1" d="M131.718 252.991H127.896V272.959H131.718V252.991Z" fill="black"/>
<path d="M141.897 252.664H135.93V272.952H141.897V252.664Z" fill="white"/>
<path d="M147.863 254.895H141.896V272.952H147.863V254.895Z" fill="white"/>
<path opacity="0.2" d="M147.863 254.895H141.896V272.952H147.863V254.895Z" fill="#263238"/>
<path d="M155.32 254.895H151.108V272.952H155.32V254.895Z" fill="white"/>
<path opacity="0.8" d="M155.32 254.895H151.108V272.952H155.32V254.895Z" fill="white"/>
<path d="M151.109 252.991H147.287V272.959H151.109V252.991Z" fill="white"/>
<path opacity="0.1" d="M151.109 252.991H147.287V272.959H151.109V252.991Z" fill="black"/>
<path d="M183.79 272.959H189.757V252.672H183.79V272.959Z" fill="white"/>
<path opacity="0.2" d="M183.79 272.959H189.757V252.672H183.79V272.959Z" fill="black"/>
<path d="M177.816 272.959H183.783V254.902H177.816V272.959Z" fill="white"/>
<path d="M170.367 272.959H174.579V254.902H170.367V272.959Z" fill="white"/>
<path opacity="0.9" d="M170.367 272.959H174.579V254.902H170.367V272.959Z" fill="white"/>
<path d="M174.571 272.952H178.393V252.984H174.571V272.952Z" fill="white"/>
<path opacity="0.1" d="M174.571 272.952H178.393V252.984H174.571V272.952Z" fill="black"/>
<path d="M164.392 272.959H170.359V252.672H164.392V272.959Z" fill="white"/>
<path d="M158.425 272.959H164.392V254.902H158.425V272.959Z" fill="white"/>
<path opacity="0.2" d="M158.425 272.959H164.392V254.902H158.425V272.959Z" fill="#263238"/>
<path d="M155.18 272.952H159.002V252.984H155.18V272.952Z" fill="white"/>
<path opacity="0.1" d="M155.18 272.952H159.002V252.984H155.18V272.952Z" fill="black"/>
<path d="M218.188 272.959H224.155V252.672H218.188V272.959Z" fill="white"/>
<path opacity="0.2" d="M218.188 272.959H224.155V252.672H218.188V272.959Z" fill="black"/>
<path d="M212.214 272.959H218.181V254.902H212.214V272.959Z" fill="white"/>
<path d="M204.765 272.959H208.977V254.902H204.765V272.959Z" fill="white"/>
<path opacity="0.9" d="M204.765 272.959H208.977V254.902H204.765V272.959Z" fill="white"/>
<path d="M208.969 272.952H212.791V252.984H208.969V272.952Z" fill="white"/>
<path opacity="0.1" d="M208.969 272.952H212.791V252.984H208.969V272.952Z" fill="black"/>
<path d="M198.79 272.959H204.757V252.672H198.79V272.959Z" fill="white"/>
<path d="M228.04 272.243L231.959 271.192L226.684 251.513L222.765 252.563L228.04 272.243Z" fill="white"/>
<path d="M192.823 272.959H198.79V254.902H192.823V272.959Z" fill="white"/>
<path opacity="0.2" d="M192.823 272.959H198.79V254.902H192.823V272.959Z" fill="#263238"/>
<path d="M189.578 272.952H193.4V252.984H189.578V272.952Z" fill="white"/>
<path opacity="0.1" d="M189.578 272.952H193.4V252.984H189.578V272.952Z" fill="black"/>
<path d="M230.038 299.313L234.046 298.239L228.795 278.642L224.787 279.716L230.038 299.313Z" fill="white"/>
<path opacity="0.2" d="M230.038 299.313L234.046 298.239L228.795 278.642L224.787 279.716L230.038 299.313Z" fill="black"/>
<path d="M219.741 299.113H225.708V281.056H219.741V299.113Z" fill="white"/>
<path d="M212.276 299.113H216.488V281.056H212.276V299.113Z" fill="white"/>
<path opacity="0.9" d="M212.276 299.113H216.488V281.056H212.276V299.113Z" fill="white"/>
<path d="M216.488 299.121H220.31V279.153H216.488V299.121Z" fill="white"/>
<path opacity="0.1" d="M216.488 299.121H220.31V279.153H216.488V299.121Z" fill="black"/>
<path d="M206.317 299.121H212.284V278.833H206.317V299.121Z" fill="white"/>
<path d="M200.342 299.113H206.309V281.056H200.342V299.113Z" fill="white"/>
<path opacity="0.2" d="M200.342 299.113H206.309V281.056H200.342V299.113Z" fill="#263238"/>
<path d="M192.893 299.113H197.105V281.056H192.893V299.113Z" fill="white"/>
<path opacity="0.8" d="M192.893 299.113H197.105V281.056H192.893V299.113Z" fill="white"/>
<path d="M197.097 299.121H200.919V279.153H197.097V299.121Z" fill="white"/>
<path opacity="0.1" d="M197.097 299.121H200.919V279.153H197.097V299.121Z" fill="black"/>
<path d="M164.423 278.833H158.456V299.121H164.423V278.833Z" fill="white"/>
<path opacity="0.2" d="M164.423 278.833H158.456V299.121H164.423V278.833Z" fill="black"/>
<path d="M170.39 281.063H164.423V299.12H170.39V281.063Z" fill="white"/>
<path d="M177.847 281.063H173.635V299.12H177.847V281.063Z" fill="white"/>
<path opacity="0.9" d="M177.847 281.063H173.635V299.12H177.847V281.063Z" fill="white"/>
<path d="M173.635 279.153H169.813V299.121H173.635V279.153Z" fill="white"/>
<path opacity="0.1" d="M173.635 279.153H169.813V299.121H173.635V279.153Z" fill="black"/>
<path d="M183.814 278.833H177.847V299.121H183.814V278.833Z" fill="white"/>
<path d="M189.781 281.063H183.814V299.12H189.781V281.063Z" fill="white"/>
<path opacity="0.2" d="M189.781 281.063H183.814V299.12H189.781V281.063Z" fill="#263238"/>
<path d="M193.026 279.153H189.204V299.121H193.026V279.153Z" fill="white"/>
<path opacity="0.1" d="M193.026 279.153H189.204V299.121H193.026V279.153Z" fill="black"/>
<path d="M130.025 278.833H124.058V299.121H130.025V278.833Z" fill="white"/>
<path opacity="0.2" d="M130.025 278.833H124.058V299.121H130.025V278.833Z" fill="black"/>
<path d="M135.992 281.063H130.025V299.12H135.992V281.063Z" fill="white"/>
<path d="M143.449 281.063H139.237V299.12H143.449V281.063Z" fill="white"/>
<path opacity="0.9" d="M143.449 281.063H139.237V299.12H143.449V281.063Z" fill="white"/>
<path d="M139.237 279.153H135.415V299.121H139.237V279.153Z" fill="white"/>
<path opacity="0.1" d="M139.237 279.153H135.415V299.121H139.237V279.153Z" fill="black"/>
<path d="M149.416 278.833H143.449V299.121H149.416V278.833Z" fill="white"/>
<path d="M124.046 279.7L120.143 278.654L114.892 298.251L118.795 299.296L124.046 279.7Z" fill="white"/>
<path d="M155.383 281.063H149.416V299.12H155.383V281.063Z" fill="white"/>
<path opacity="0.2" d="M155.383 281.063H149.416V299.12H155.383V281.063Z" fill="#263238"/>
<path d="M158.628 279.153H154.806V299.121H158.628V279.153Z" fill="white"/>
<path opacity="0.1" d="M158.628 279.153H154.806V299.121H158.628V279.153Z" fill="black"/>
<path d="M121.118 314.455H115.151L114.332 302.911H121.937L121.118 314.455Z" fill="#263238"/>
<path d="M234.849 314.455H228.882L228.063 302.911H235.668L234.849 314.455Z" fill="#263238"/>
<path d="M241.425 245.004H108.575C107.816 245.004 107.088 245.306 106.551 245.843C106.014 246.379 105.712 247.108 105.712 247.867V302.139C105.712 302.898 106.014 303.626 106.551 304.163C107.088 304.7 107.816 305.002 108.575 305.002H241.425C242.184 305.002 242.912 304.7 243.449 304.163C243.986 303.626 244.287 302.898 244.287 302.139V247.867C244.287 247.108 243.986 246.379 243.449 245.843C242.912 245.306 242.184 245.004 241.425 245.004ZM238.554 250.737V272.959H111.414V250.737H238.554ZM111.445 299.3V277.054H238.585V299.3H111.445Z" fill="white" stroke="#263238" stroke-width="0.75" stroke-linecap="round" stroke-linejoin="round"/>
<path d="M221.784 131.007H129.861C126.906 131.007 124.51 133.403 124.51 136.358V156.092C124.51 159.047 126.906 161.443 129.861 161.443H221.784C224.739 161.443 227.135 159.047 227.135 156.092V136.358C227.135 133.403 224.739 131.007 221.784 131.007Z" fill="#263238" stroke="#263238" stroke-linecap="round" stroke-linejoin="round"/>
<path d="M220.146 129.369H128.223C125.268 129.369 122.873 131.765 122.873 134.72V154.454C122.873 157.409 125.268 159.805 128.223 159.805H220.146C223.102 159.805 225.497 157.409 225.497 154.454V134.72C225.497 131.765 223.102 129.369 220.146 129.369Z" fill="white" stroke="#263238" stroke-linecap="round" stroke-linejoin="round"/>
<path d="M220.146 129.369H128.223C125.268 129.369 122.873 131.765 122.873 134.72V154.454C122.873 157.409 125.268 159.805 128.223 159.805H220.146C223.102 159.805 225.497 157.409 225.497 154.454V134.72C225.497 131.765 223.102 129.369 220.146 129.369Z" stroke="#263238" stroke-linecap="round" stroke-linejoin="round"/>
<path d="M145.594 153.573H132.077V136.475H141.086L145.594 140.984V153.573Z" fill="white"/>
<path opacity="0.5" d="M145.594 153.573H132.077V136.475H141.086L145.594 140.984V153.573Z" fill="white"/>
<path d="M145.594 153.573H132.077V136.475H141.086L145.594 140.983V153.573Z" stroke="#263238" stroke-linecap="round" stroke-linejoin="round"/>
<path d="M141.085 140.984H145.594L141.085 136.475V140.984Z" fill="white" stroke="#263238" stroke-linecap="round" stroke-linejoin="round"/>
<path d="M135.08 145.546C134.867 145.526 134.67 145.427 134.526 145.269C134.383 145.112 134.303 144.906 134.303 144.692C134.303 144.479 134.383 144.273 134.526 144.115C134.67 143.957 134.867 143.859 135.08 143.838H142.591C142.803 143.859 143.001 143.957 143.144 144.115C143.288 144.273 143.367 144.479 143.367 144.692C143.367 144.906 143.288 145.112 143.144 145.269C143.001 145.427 142.803 145.526 142.591 145.546H135.08Z" fill="#858585" stroke="#263238" stroke-width="0.75" stroke-linecap="round" stroke-linejoin="round"/>
<path d="M135.08 149.142C134.867 149.122 134.67 149.023 134.526 148.865C134.383 148.707 134.303 148.502 134.303 148.288C134.303 148.075 134.383 147.869 134.526 147.711C134.67 147.553 134.867 147.454 135.08 147.434H140.953C141.165 147.454 141.363 147.553 141.506 147.711C141.65 147.869 141.729 148.075 141.729 148.288C141.729 148.502 141.65 148.707 141.506 148.865C141.363 149.023 141.165 149.122 140.953 149.142H135.08Z" fill="#858585" stroke="#263238" stroke-width="0.75" stroke-linecap="round" stroke-linejoin="round"/>
<path d="M179.766 146.529H154.611C154.162 146.559 153.742 146.758 153.435 147.086C153.128 147.414 152.958 147.847 152.958 148.296C152.958 148.745 153.128 149.178 153.435 149.506C153.742 149.834 154.162 150.033 154.611 150.063H179.766V146.529Z" fill="white"/>
<path d="M154.611 150.063C154.162 150.033 153.742 149.834 153.435 149.506C153.128 149.178 152.958 148.745 152.958 148.296C152.958 147.847 153.128 147.414 153.435 147.086C153.742 146.758 154.162 146.559 154.611 146.529H214.515C214.757 146.513 214.999 146.547 215.227 146.628C215.456 146.71 215.665 146.837 215.842 147.003C216.019 147.169 216.16 147.369 216.256 147.591C216.353 147.814 216.403 148.054 216.403 148.296C216.403 148.538 216.353 148.778 216.256 149.001C216.16 149.223 216.019 149.423 215.842 149.589C215.665 149.754 215.456 149.882 215.227 149.964C214.999 150.045 214.757 150.079 214.515 150.063H154.611Z" stroke="#263238" stroke-linecap="round" stroke-linejoin="round"/>
<path d="M180.335 141.74H178.439V140.843L180.241 136.576H181.325V140.843H181.793V141.74H181.325V142.887H180.335V141.74ZM180.335 140.843V138.386L179.36 140.851L180.335 140.843Z" fill="#263238"/>
<path d="M182.254 141.397V140.905H183.19V141.467C183.19 141.919 183.385 142.083 183.705 142.083C184.025 142.083 184.22 141.919 184.22 141.467V140.055C184.22 139.603 184.017 139.431 183.705 139.431C183.393 139.431 183.19 139.603 183.19 140.055V140.11H182.254L182.433 136.584H185.046V137.489H183.315L183.237 138.994C183.324 138.846 183.45 138.725 183.601 138.644C183.753 138.563 183.923 138.525 184.095 138.534C184.82 138.534 185.195 139.049 185.195 139.977V141.397C185.195 142.411 184.688 142.957 183.713 142.957C182.738 142.957 182.254 142.411 182.254 141.397Z" fill="#263238"/>
<path d="M185.826 139.08V137.52C185.814 137.388 185.83 137.254 185.873 137.127C185.915 137.001 185.983 136.885 186.073 136.787C186.163 136.688 186.273 136.61 186.395 136.556C186.517 136.502 186.648 136.474 186.782 136.474C186.915 136.474 187.047 136.502 187.169 136.556C187.291 136.61 187.4 136.688 187.49 136.787C187.58 136.885 187.648 137.001 187.691 137.127C187.733 137.254 187.749 137.388 187.737 137.52V139.08C187.749 139.213 187.733 139.347 187.691 139.473C187.648 139.599 187.58 139.715 187.49 139.814C187.4 139.912 187.291 139.991 187.169 140.045C187.047 140.098 186.915 140.126 186.782 140.126C186.648 140.126 186.517 140.098 186.395 140.045C186.273 139.991 186.163 139.912 186.073 139.814C185.983 139.715 185.915 139.599 185.873 139.473C185.83 139.347 185.814 139.213 185.826 139.08ZM187.105 139.127V137.458C187.105 137.185 186.981 137.068 186.786 137.068C186.591 137.068 186.458 137.185 186.458 137.458V139.127C186.458 139.408 186.575 139.525 186.786 139.525C186.996 139.525 187.105 139.4 187.105 139.127ZM189.071 136.584H189.703L187.261 142.895H186.63L189.071 136.584ZM188.595 141.974V140.414C188.583 140.281 188.599 140.148 188.641 140.021C188.684 139.895 188.752 139.779 188.842 139.681C188.932 139.582 189.042 139.504 189.164 139.45C189.286 139.396 189.417 139.368 189.551 139.368C189.684 139.368 189.816 139.396 189.938 139.45C190.06 139.504 190.169 139.582 190.259 139.681C190.349 139.779 190.417 139.895 190.46 140.021C190.502 140.148 190.518 140.281 190.506 140.414V141.974C190.518 142.107 190.502 142.241 190.46 142.367C190.417 142.493 190.349 142.609 190.259 142.708C190.169 142.806 190.06 142.885 189.938 142.938C189.816 142.992 189.684 143.02 189.551 143.02C189.417 143.02 189.286 142.992 189.164 142.938C189.042 142.885 188.932 142.806 188.842 142.708C188.752 142.609 188.684 142.493 188.641 142.367C188.599 142.241 188.583 142.107 188.595 141.974ZM189.874 142.021V140.352C189.874 140.071 189.75 139.954 189.547 139.954C189.344 139.954 189.227 140.071 189.227 140.352V142.021C189.227 142.302 189.344 142.419 189.547 142.419C189.75 142.419 189.874 142.302 189.874 142.021Z" fill="#263238"/>
<path d="M221.784 166.326H129.861C126.906 166.326 124.51 168.721 124.51 171.676V191.41C124.51 194.366 126.906 196.761 129.861 196.761H221.784C224.739 196.761 227.135 194.366 227.135 191.41V171.676C227.135 168.721 224.739 166.326 221.784 166.326Z" fill="#263238" stroke="#263238" stroke-linecap="round" stroke-linejoin="round"/>
<path d="M220.146 164.688H128.223C125.268 164.688 122.873 167.083 122.873 170.038V189.772C122.873 192.728 125.268 195.123 128.223 195.123H220.146C223.102 195.123 225.497 192.728 225.497 189.772V170.038C225.497 167.083 223.102 164.688 220.146 164.688Z" fill="white" stroke="#263238" stroke-linecap="round" stroke-linejoin="round"/>
<path d="M199.609 181.629H154.611C154.162 181.659 153.742 181.858 153.435 182.186C153.128 182.514 152.958 182.947 152.958 183.396C152.958 183.845 153.128 184.278 153.435 184.606C153.742 184.934 154.162 185.133 154.611 185.163H199.609V181.629Z" fill="white"/>
<path d="M154.611 185.163C154.162 185.133 153.742 184.934 153.435 184.606C153.128 184.278 152.958 183.845 152.958 183.396C152.958 182.947 153.128 182.514 153.435 182.186C153.742 181.858 154.162 181.659 154.611 181.629H214.515C214.757 181.613 214.999 181.647 215.227 181.728C215.456 181.81 215.665 181.937 215.842 182.103C216.019 182.269 216.16 182.469 216.256 182.691C216.353 182.914 216.403 183.154 216.403 183.396C216.403 183.638 216.353 183.878 216.256 184.101C216.16 184.323 216.019 184.523 215.842 184.689C215.665 184.854 215.456 184.982 215.227 185.063C214.999 185.145 214.757 185.179 214.515 185.163H154.611Z" stroke="#263238" stroke-linecap="round" stroke-linejoin="round"/>
<path d="M178.557 176.528V175.967C178.526 175.712 178.571 175.454 178.686 175.225C178.801 174.996 178.981 174.807 179.204 174.68C178.992 174.556 178.821 174.372 178.713 174.151C178.604 173.931 178.564 173.683 178.596 173.439V173.182C178.596 172.781 178.755 172.396 179.039 172.112C179.323 171.828 179.707 171.669 180.109 171.669C180.51 171.669 180.895 171.828 181.179 172.112C181.463 172.396 181.622 172.781 181.622 173.182V173.439C181.65 173.683 181.607 173.931 181.498 174.151C181.388 174.371 181.217 174.554 181.006 174.68C181.23 174.805 181.412 174.995 181.528 175.224C181.645 175.453 181.691 175.711 181.661 175.967V176.528C181.661 176.942 181.497 177.339 181.204 177.631C180.912 177.924 180.515 178.088 180.101 178.088C179.687 178.088 179.29 177.924 178.998 177.631C178.705 177.339 178.541 176.942 178.541 176.528H178.557ZM180.67 176.473V175.865C180.67 175.389 180.475 175.155 180.109 175.155C179.742 175.155 179.547 175.389 179.547 175.865V176.473C179.547 176.949 179.742 177.183 180.109 177.183C180.475 177.183 180.67 176.949 180.67 176.473ZM180.67 173.627V173.127C180.67 172.714 180.491 172.495 180.148 172.495C179.805 172.495 179.625 172.714 179.625 173.127V173.627C179.625 174.04 179.805 174.258 180.148 174.258C180.491 174.258 180.631 174.04 180.631 173.627H180.67Z" fill="#263238"/>
<path d="M182.254 176.497V176.006H183.19V176.567C183.19 177.02 183.385 177.183 183.705 177.183C184.024 177.183 184.219 177.02 184.219 176.567V175.155C184.219 174.703 184.017 174.531 183.705 174.531C183.393 174.531 183.19 174.703 183.19 175.155V175.21H182.254L182.433 171.684H185.046V172.589H183.315L183.237 174.095C183.324 173.946 183.45 173.825 183.601 173.744C183.752 173.663 183.923 173.625 184.095 173.634C184.82 173.634 185.194 174.149 185.194 175.077V176.497C185.209 176.7 185.182 176.904 185.114 177.096C185.047 177.288 184.94 177.464 184.802 177.614C184.663 177.763 184.495 177.882 184.308 177.963C184.122 178.044 183.92 178.086 183.716 178.086C183.513 178.086 183.311 178.044 183.124 177.963C182.938 177.882 182.77 177.763 182.631 177.614C182.492 177.464 182.386 177.288 182.318 177.096C182.251 176.904 182.224 176.7 182.238 176.497H182.254Z" fill="#263238"/>
<path d="M185.826 174.18V172.62C185.814 172.488 185.83 172.354 185.873 172.227C185.915 172.101 185.983 171.985 186.073 171.887C186.163 171.788 186.273 171.71 186.395 171.656C186.517 171.602 186.648 171.574 186.782 171.574C186.915 171.574 187.047 171.602 187.169 171.656C187.291 171.71 187.4 171.788 187.49 171.887C187.58 171.985 187.648 172.101 187.691 172.227C187.733 172.354 187.749 172.488 187.737 172.62V174.18C187.749 174.313 187.733 174.447 187.691 174.573C187.648 174.699 187.58 174.815 187.49 174.914C187.4 175.012 187.291 175.091 187.169 175.145C187.047 175.198 186.915 175.226 186.782 175.226C186.648 175.226 186.517 175.198 186.395 175.145C186.273 175.091 186.163 175.012 186.073 174.914C185.983 174.815 185.915 174.699 185.873 174.573C185.83 174.447 185.814 174.313 185.826 174.18ZM187.105 174.227V172.558C187.105 172.285 186.981 172.16 186.786 172.16C186.591 172.16 186.458 172.285 186.458 172.558V174.227C186.458 174.508 186.575 174.625 186.786 174.625C186.996 174.625 187.105 174.5 187.105 174.227ZM189.071 171.684H189.703L187.261 177.994H186.63L189.071 171.684ZM188.595 177.074V175.514C188.583 175.381 188.599 175.248 188.641 175.121C188.684 174.995 188.752 174.879 188.842 174.781C188.932 174.682 189.042 174.604 189.164 174.55C189.286 174.496 189.417 174.468 189.551 174.468C189.684 174.468 189.816 174.496 189.938 174.55C190.06 174.604 190.169 174.682 190.259 174.781C190.349 174.879 190.417 174.995 190.46 175.121C190.502 175.248 190.518 175.381 190.506 175.514V177.074C190.518 177.207 190.502 177.341 190.46 177.467C190.417 177.593 190.349 177.709 190.259 177.808C190.169 177.906 190.06 177.985 189.938 178.038C189.816 178.092 189.684 178.12 189.551 178.12C189.417 178.12 189.286 178.092 189.164 178.038C189.042 177.985 188.932 177.906 188.842 177.808C188.752 177.709 188.684 177.593 188.641 177.467C188.599 177.341 188.583 177.207 188.595 177.074ZM189.874 177.121V175.452C189.874 175.171 189.75 175.054 189.547 175.054C189.344 175.054 189.227 175.171 189.227 175.452V177.121C189.227 177.402 189.344 177.519 189.547 177.519C189.75 177.519 189.874 177.402 189.874 177.121Z" fill="#263238"/>
<path d="M145.594 188.673H132.077V171.575H141.086L145.594 176.083V188.673Z" fill="white"/>
<path opacity="0.5" d="M145.594 188.673H132.077V171.575H141.086L145.594 176.083V188.673Z" fill="white" stroke="#263238" stroke-linecap="round" stroke-linejoin="round"/>
<path d="M145.594 188.673H132.077V171.575H141.086L145.594 176.083V188.673Z" stroke="#263238" stroke-linecap="round" stroke-linejoin="round"/>
<path d="M135.08 180.646C134.867 180.626 134.67 180.527 134.526 180.369C134.383 180.211 134.303 180.006 134.303 179.792C134.303 179.579 134.383 179.373 134.526 179.215C134.67 179.057 134.867 178.959 135.08 178.938H142.591C142.803 178.959 143.001 179.057 143.144 179.215C143.288 179.373 143.367 179.579 143.367 179.792C143.367 180.006 143.288 180.211 143.144 180.369C143.001 180.527 142.803 180.626 142.591 180.646H135.08Z" fill="#858585" stroke="#263238" stroke-width="0.75" stroke-linecap="round" stroke-linejoin="round"/>
<path d="M135.08 184.242C134.867 184.222 134.67 184.123 134.526 183.965C134.383 183.807 134.303 183.602 134.303 183.388C134.303 183.175 134.383 182.969 134.526 182.811C134.67 182.653 134.867 182.554 135.08 182.534H140.953C141.165 182.554 141.363 182.653 141.506 182.811C141.65 182.969 141.729 183.175 141.729 183.388C141.729 183.602 141.65 183.807 141.506 183.965C141.363 184.123 141.165 184.222 140.953 184.242H135.08Z" fill="#858585" stroke="#263238" stroke-width="0.75" stroke-linecap="round" stroke-linejoin="round"/>
<path d="M141.085 176.083H145.594L141.085 171.575V176.083Z" fill="white" stroke="#263238" stroke-linecap="round" stroke-linejoin="round"/>
<path d="M234.35 83.8485H117.288C114.333 83.8485 111.937 86.2441 111.937 89.1993V116.398C111.937 119.353 114.333 121.749 117.288 121.749H234.35C237.305 121.749 239.701 119.353 239.701 116.398V89.1993C239.701 86.2441 237.305 83.8485 234.35 83.8485Z" fill="#263238" stroke="#263238" stroke-linecap="round" stroke-linejoin="round"/>
<path d="M232.712 82.2104H115.65C112.694 82.2104 110.299 84.6061 110.299 87.5613V114.76C110.299 117.715 112.694 120.111 115.65 120.111H232.712C235.667 120.111 238.063 117.715 238.063 114.76V87.5613C238.063 84.6061 235.667 82.2104 232.712 82.2104Z" fill="white" stroke="#263238" stroke-linecap="round" stroke-linejoin="round"/>
<path d="M154.892 116.991H129.861V85.3304H146.546L154.892 93.6686V116.991Z" fill="white"/>
<path opacity="0.7" d="M154.892 116.991H129.861V85.3304H146.546L154.892 93.6686V116.991Z" fill="white"/>
<path d="M154.892 116.991H129.861V85.3304H146.546L154.892 93.6686V116.991Z" stroke="#263238" stroke-linecap="round" stroke-linejoin="round"/>
<path d="M146.545 93.6686H154.891L146.545 85.3304V93.6686Z" fill="white" stroke="#263238" stroke-linecap="round" stroke-linejoin="round"/>
<path d="M137.248 97.5686H132.334V102.483H137.248V97.5686Z" stroke="white" stroke-width="0.75" stroke-linecap="round" stroke-linejoin="round"/>
<path d="M142.302 97.5686H137.388V102.483H142.302V97.5686Z" stroke="white" stroke-width="0.75" stroke-linecap="round" stroke-linejoin="round"/>
<path d="M147.364 97.5686H142.45V102.483H147.364V97.5686Z" stroke="white" stroke-width="0.75" stroke-linecap="round" stroke-linejoin="round"/>
<path d="M152.419 97.5686H147.505V102.483H152.419V97.5686Z" stroke="white" stroke-width="0.75" stroke-linecap="round" stroke-linejoin="round"/>
<path d="M137.248 102.483H132.334V107.397H137.248V102.483Z" stroke="white" stroke-width="0.75" stroke-linecap="round" stroke-linejoin="round"/>
<path d="M142.302 102.483H137.388V107.397H142.302V102.483Z" stroke="white" stroke-width="0.75" stroke-linecap="round" stroke-linejoin="round"/>
<path d="M147.364 102.483H142.45V107.397H147.364V102.483Z" stroke="white" stroke-width="0.75" stroke-linecap="round" stroke-linejoin="round"/>
<path d="M152.419 102.483H147.505V107.397H152.419V102.483Z" stroke="white" stroke-width="0.75" stroke-linecap="round" stroke-linejoin="round"/>
<path d="M137.248 107.397H132.334V112.311H137.248V107.397Z" stroke="white" stroke-width="0.75" stroke-linecap="round" stroke-linejoin="round"/>
<path d="M142.302 107.397H137.388V112.311H142.302V107.397Z" stroke="white" stroke-width="0.75" stroke-linecap="round" stroke-linejoin="round"/>
<path d="M147.364 107.397H142.45V112.311H147.364V107.397Z" stroke="white" stroke-width="0.75" stroke-linecap="round" stroke-linejoin="round"/>
<path d="M152.419 107.397H147.505V112.311H152.419V107.397Z" stroke="white" stroke-width="0.75" stroke-linecap="round" stroke-linejoin="round"/>
<path d="M132.427 111.835L137.388 107.28L139.845 107.397L142.528 102.553L144.907 104.94L147.575 102.139L149.962 97.5686" stroke="white" stroke-width="2" stroke-linecap="round" stroke-linejoin="round"/>
<path d="M147.146 98.996L149.962 97.5686L150.531 100.642" stroke="white" stroke-width="2" stroke-linecap="round" stroke-linejoin="round"/>
<path d="M164.735 100.15H163.3V99.1988C164.439 99.1988 164.86 98.9492 165.156 98.1146H166.061V106.695H164.712L164.735 100.15Z" fill="#263238"/>
<path d="M167.66 104.675V100.151C167.66 99.6064 167.876 99.0847 168.261 98.7C168.646 98.3153 169.168 98.0991 169.712 98.0991C170.256 98.0991 170.777 98.3153 171.162 98.7C171.547 99.0847 171.763 99.6064 171.763 100.151V104.675C171.763 105.219 171.547 105.74 171.162 106.125C170.777 106.51 170.256 106.726 169.712 106.726C169.168 106.726 168.646 106.51 168.261 106.125C167.876 105.74 167.66 105.219 167.66 104.675ZM170.414 104.76V100.08C170.414 99.4719 170.141 99.2379 169.712 99.2379C169.283 99.2379 169.01 99.4719 169.01 100.08V104.76C169.01 105.377 169.283 105.611 169.712 105.611C170.141 105.611 170.414 105.377 170.414 104.76Z" fill="#263238"/>
<path d="M172.574 104.675V100.151C172.574 99.6064 172.79 99.0847 173.175 98.7C173.56 98.3153 174.082 98.0991 174.626 98.0991C175.17 98.0991 175.691 98.3153 176.076 98.7C176.461 99.0847 176.677 99.6064 176.677 100.151V104.675C176.677 105.219 176.461 105.74 176.076 106.125C175.691 106.51 175.17 106.726 174.626 106.726C174.082 106.726 173.56 106.51 173.175 106.125C172.79 105.74 172.574 105.219 172.574 104.675ZM175.328 104.76V100.08C175.328 99.4719 175.055 99.2379 174.626 99.2379C174.197 99.2379 173.924 99.4719 173.924 100.08V104.76C173.924 105.377 174.197 105.611 174.626 105.611C175.055 105.611 175.328 105.377 175.328 104.76Z" fill="#263238"/>
<path d="M177.511 101.515V99.3705C177.511 99.025 177.648 98.6937 177.893 98.4494C178.137 98.2051 178.468 98.0679 178.814 98.0679C179.159 98.0679 179.491 98.2051 179.735 98.4494C179.979 98.6937 180.116 99.025 180.116 99.3705V101.515C180.116 101.861 179.979 102.192 179.735 102.437C179.491 102.681 179.159 102.818 178.814 102.818C178.468 102.818 178.137 102.681 177.893 102.437C177.648 102.192 177.511 101.861 177.511 101.515ZM179.258 101.578V99.3081C179.258 98.9259 179.087 98.7621 178.814 98.7621C178.541 98.7621 178.369 98.9259 178.369 99.3081V101.578C178.369 101.96 178.533 102.116 178.814 102.116C179.095 102.116 179.258 101.96 179.258 101.578ZM181.934 98.1147H182.8L179.469 106.695H178.611L181.934 98.1147ZM181.279 105.462V103.309C181.279 103.138 181.312 102.969 181.378 102.811C181.443 102.653 181.539 102.509 181.66 102.388C181.781 102.267 181.925 102.171 182.083 102.106C182.241 102.041 182.41 102.007 182.581 102.007C182.752 102.007 182.922 102.041 183.08 102.106C183.238 102.171 183.381 102.267 183.502 102.388C183.623 102.509 183.719 102.653 183.785 102.811C183.85 102.969 183.884 103.138 183.884 103.309V105.462C183.884 105.633 183.85 105.803 183.785 105.961C183.719 106.119 183.623 106.262 183.502 106.383C183.381 106.504 183.238 106.6 183.08 106.666C182.922 106.731 182.752 106.765 182.581 106.765C182.41 106.765 182.241 106.731 182.083 106.666C181.925 106.6 181.781 106.504 181.66 106.383C181.539 106.262 181.443 106.119 181.378 105.961C181.312 105.803 181.279 105.633 181.279 105.462ZM183.026 105.525V103.247C183.026 102.865 182.854 102.709 182.581 102.709C182.308 102.709 182.144 102.865 182.144 103.247V105.525C182.144 105.899 182.3 106.063 182.581 106.063C182.862 106.063 183.026 105.899 183.026 105.525Z" fill="#263238"/>
<path d="M186.068 104.027V100.634C186.068 100.247 186.222 99.8762 186.495 99.6026C186.769 99.3291 187.14 99.1754 187.526 99.1754C187.913 99.1754 188.284 99.3291 188.558 99.6026C188.831 99.8762 188.985 100.247 188.985 100.634V101.305H188.049V100.572C188.049 100.158 187.846 99.9866 187.55 99.9866C187.253 99.9866 187.058 100.158 187.058 100.572V104.097C187.058 104.511 187.253 104.674 187.55 104.674C187.846 104.674 188.049 104.511 188.049 104.097V103.13H188.985V104.027C188.985 104.414 188.831 104.785 188.558 105.058C188.284 105.332 187.913 105.486 187.526 105.486C187.14 105.486 186.769 105.332 186.495 105.058C186.222 104.785 186.068 104.414 186.068 104.027Z" fill="#263238"/>
<path d="M189.523 103.988V100.673C189.523 100.274 189.682 99.8908 189.964 99.6085C190.247 99.3262 190.63 99.1676 191.029 99.1676C191.428 99.1676 191.811 99.3262 192.093 99.6085C192.376 99.8908 192.534 100.274 192.534 100.673V103.988C192.534 104.387 192.376 104.77 192.093 105.052C191.811 105.335 191.428 105.493 191.029 105.493C190.63 105.493 190.247 105.335 189.964 105.052C189.682 104.77 189.523 104.387 189.523 103.988ZM191.544 104.05V100.611C191.544 100.158 191.349 99.9866 191.029 99.9866C190.709 99.9866 190.514 100.158 190.514 100.611V104.05C190.514 104.503 190.717 104.674 191.029 104.674C191.341 104.674 191.544 104.503 191.544 104.05Z" fill="#263238"/>
<path d="M193.197 99.1754H194.617L195.249 103.692L195.88 99.1754H197.292V105.486H196.356V100.712L195.631 105.486H194.804L194.086 100.712V105.486H193.221L193.197 99.1754Z" fill="#263238"/>
<path d="M198.049 99.1754H199.507C200.498 99.1754 200.982 99.7292 200.982 100.735V101.359C200.982 102.366 200.498 102.919 199.507 102.919H199.039V105.486H198.049V99.1754ZM199.507 102.015C199.819 102.015 199.991 101.874 199.991 101.422V100.642C199.991 100.189 199.819 100.049 199.507 100.049H199.039V101.983L199.507 102.015Z" fill="#263238"/>
<path d="M201.52 99.1754H202.511V104.581H204.141V105.486H201.52V99.1754Z" fill="#263238"/>
<path d="M204.64 99.1754H207.338V100.08H205.63V101.742H206.98V102.646H205.622V104.581H207.331V105.486H204.64V99.1754Z" fill="#263238"/>
<path d="M208.665 100.08H207.635V99.1754H210.693V100.08H209.655V105.486H208.665V100.08Z" fill="#263238"/>
<path d="M211.176 99.1754H213.875V100.08H212.167V101.742H213.524V102.646H212.167V104.581H213.875V105.486H211.176V99.1754Z" fill="#263238"/>
<path d="M214.444 99.1754H215.958C216.948 99.1754 217.432 99.7292 217.432 100.735V103.926C217.432 104.932 216.948 105.486 215.958 105.486H214.444V99.1754ZM215.934 104.581C216.254 104.581 216.441 104.417 216.441 103.972V100.689C216.441 100.244 216.254 100.08 215.934 100.08H215.435V104.581H215.934Z" fill="#263238"/>
<path d="M221.784 201.652H129.861C126.906 201.652 124.51 204.048 124.51 207.003V226.737C124.51 229.692 126.906 232.087 129.861 232.087H221.784C224.739 232.087 227.135 229.692 227.135 226.737V207.003C227.135 204.048 224.739 201.652 221.784 201.652Z" fill="#263238" stroke="#263238" stroke-linecap="round" stroke-linejoin="round"/>
<path d="M220.146 200.014H128.223C125.268 200.014 122.873 202.41 122.873 205.365V225.099C122.873 228.054 125.268 230.45 128.223 230.45H220.146C223.102 230.45 225.497 228.054 225.497 225.099V205.365C225.497 202.41 223.102 200.014 220.146 200.014Z" fill="white" stroke="#263238" stroke-linecap="round" stroke-linejoin="round"/>
<path d="M196.434 216.737H154.61C154.143 216.737 153.695 216.923 153.364 217.253C153.033 217.584 152.848 218.032 152.848 218.5C152.848 218.967 153.033 219.416 153.364 219.746C153.695 220.077 154.143 220.263 154.61 220.263H196.434V216.737Z" fill="white"/>
<path d="M154.61 220.263C154.143 220.263 153.695 220.077 153.364 219.746C153.033 219.416 152.848 218.967 152.848 218.5C152.848 218.032 153.033 217.584 153.364 217.253C153.695 216.923 154.143 216.737 154.61 216.737H214.514C214.746 216.737 214.975 216.783 215.189 216.871C215.403 216.96 215.597 217.09 215.761 217.253C215.925 217.417 216.054 217.611 216.143 217.825C216.232 218.039 216.277 218.268 216.277 218.5C216.277 218.731 216.232 218.961 216.143 219.174C216.054 219.388 215.925 219.583 215.761 219.746C215.597 219.91 215.403 220.04 215.189 220.128C214.975 220.217 214.746 220.263 214.514 220.263H154.61Z" stroke="#263238" stroke-linecap="round" stroke-linejoin="round"/>
<path d="M145.594 223.78H132.077V206.683H141.086L145.594 211.183V223.78Z" fill="white"/>
<path opacity="0.5" d="M145.594 223.78H132.077V206.683H141.086L145.594 211.183V223.78Z" fill="white"/>
<path d="M145.594 223.78H132.077V206.683H141.086L145.594 211.183V223.78Z" stroke="#263238" stroke-linecap="round" stroke-linejoin="round"/>
<path d="M135.08 215.754C134.867 215.734 134.67 215.635 134.526 215.477C134.383 215.319 134.303 215.114 134.303 214.9C134.303 214.687 134.383 214.481 134.526 214.323C134.67 214.165 134.867 214.066 135.08 214.046H142.591C142.803 214.066 143.001 214.165 143.144 214.323C143.288 214.481 143.367 214.687 143.367 214.9C143.367 215.114 143.288 215.319 143.144 215.477C143.001 215.635 142.803 215.734 142.591 215.754H135.08Z" fill="#858585" stroke="#263238" stroke-width="0.75" stroke-linecap="round" stroke-linejoin="round"/>
<path d="M135.079 219.342C134.854 219.342 134.637 219.253 134.478 219.093C134.319 218.934 134.229 218.718 134.229 218.492C134.229 218.267 134.319 218.05 134.478 217.891C134.637 217.731 134.854 217.642 135.079 217.642H140.953C141.178 217.642 141.394 217.731 141.554 217.891C141.713 218.05 141.803 218.267 141.803 218.492C141.803 218.718 141.713 218.934 141.554 219.093C141.394 219.253 141.178 219.342 140.953 219.342H135.079Z" fill="#858585" stroke="#263238" stroke-width="0.75" stroke-linecap="round" stroke-linejoin="round"/>
<path d="M141.085 211.183H145.594L141.085 206.683V211.183Z" fill="white" stroke="#263238" stroke-linecap="round" stroke-linejoin="round"/>
<path d="M180.616 207.689H178.611V206.792H181.583V207.658L180.023 213.118H179.009L180.616 207.689Z" fill="#263238"/>
<path d="M182.207 211.605V208.29C182.207 207.89 182.366 207.508 182.648 207.225C182.93 206.943 183.313 206.784 183.712 206.784C184.112 206.784 184.495 206.943 184.777 207.225C185.059 207.508 185.218 207.89 185.218 208.29V211.605C185.218 212.004 185.059 212.387 184.777 212.669C184.495 212.951 184.112 213.11 183.712 213.11C183.313 213.11 182.93 212.951 182.648 212.669C182.366 212.387 182.207 212.004 182.207 211.605ZM184.227 211.667V208.227C184.227 207.775 184.024 207.603 183.712 207.603C183.4 207.603 183.198 207.775 183.198 208.227V211.667C183.198 212.119 183.4 212.283 183.712 212.283C184.024 212.283 184.227 212.119 184.227 211.667Z" fill="#263238"/>
<path d="M185.826 209.288V207.728C185.814 207.595 185.83 207.462 185.873 207.335C185.915 207.209 185.983 207.093 186.073 206.995C186.163 206.896 186.273 206.818 186.395 206.764C186.517 206.71 186.648 206.682 186.782 206.682C186.915 206.682 187.047 206.71 187.169 206.764C187.291 206.818 187.4 206.896 187.49 206.995C187.58 207.093 187.648 207.209 187.691 207.335C187.733 207.462 187.749 207.595 187.737 207.728V209.288C187.749 209.421 187.733 209.555 187.691 209.681C187.648 209.807 187.58 209.923 187.49 210.022C187.4 210.12 187.291 210.199 187.169 210.252C187.047 210.306 186.915 210.334 186.782 210.334C186.648 210.334 186.517 210.306 186.395 210.252C186.273 210.199 186.163 210.12 186.073 210.022C185.983 209.923 185.915 209.807 185.873 209.681C185.83 209.555 185.814 209.421 185.826 209.288ZM187.105 209.335V207.666C187.105 207.385 186.981 207.268 186.786 207.268C186.591 207.268 186.458 207.385 186.458 207.666V209.335C186.458 209.608 186.575 209.725 186.786 209.725C186.996 209.725 187.105 209.6 187.105 209.335ZM189.04 206.792H189.672L187.23 213.094H186.598L189.04 206.792ZM188.564 212.182V210.622C188.552 210.489 188.568 210.355 188.61 210.229C188.653 210.103 188.721 209.987 188.811 209.888C188.901 209.79 189.01 209.711 189.132 209.658C189.254 209.604 189.386 209.576 189.519 209.576C189.653 209.576 189.785 209.604 189.906 209.658C190.028 209.711 190.138 209.79 190.228 209.888C190.318 209.987 190.386 210.103 190.429 210.229C190.471 210.355 190.487 210.489 190.475 210.622V212.182C190.487 212.315 190.471 212.448 190.429 212.575C190.386 212.701 190.318 212.817 190.228 212.915C190.138 213.014 190.028 213.092 189.906 213.146C189.785 213.2 189.653 213.228 189.519 213.228C189.386 213.228 189.254 213.2 189.132 213.146C189.01 213.092 188.901 213.014 188.811 212.915C188.721 212.817 188.653 212.701 188.61 212.575C188.568 212.448 188.552 212.315 188.564 212.182ZM189.843 212.221V210.559C189.843 210.279 189.718 210.162 189.516 210.162C189.313 210.162 189.196 210.279 189.196 210.559V212.221C189.196 212.502 189.313 212.619 189.516 212.619C189.718 212.619 189.874 212.502 189.874 212.221H189.843Z" fill="#263238"/>
<path d="M72.3833 45.9561L92.9675 30.0441L113.552 45.9561H72.3833Z" fill="#263238" stroke="#263238" stroke-linecap="round" stroke-linejoin="round"/>
<path d="M98.3495 28.796H87.5854V38H98.3495V28.796Z" fill="#263238" stroke="#263238" stroke-linecap="round" stroke-linejoin="round"/>
<path d="M92.9673 5.92651V38.0001" stroke="#263238" stroke-width="0.75" stroke-linecap="round" stroke-linejoin="round"/>
<path d="M236.44 45.9561L257.032 30.0441L277.617 45.9561H236.44Z" fill="#263238" stroke="#263238" stroke-linecap="round" stroke-linejoin="round"/>
<path d="M262.415 28.796H251.651V38H262.415V28.796Z" fill="#263238" stroke="#263238" stroke-linecap="round" stroke-linejoin="round"/>
<path d="M257.033 4.36646V38.0001" stroke="#263238" stroke-width="0.75" stroke-linecap="round" stroke-linejoin="round"/>
<path d="M265.067 294.3L264.63 307.17L271.291 307.49L273.717 294.3H265.067Z" fill="white" stroke="#263238" stroke-linecap="round" stroke-linejoin="round"/>
<path d="M252.033 311.117C254.279 310.337 258.163 309.011 259.622 308.098C260.792 307.365 262.422 304.978 263.631 304.308C263.885 304.198 264.158 304.141 264.435 304.141C264.711 304.141 264.984 304.198 265.238 304.308C265.434 304.526 265.562 304.797 265.605 305.088C265.638 305.213 265.708 305.327 265.805 305.413C265.903 305.5 266.023 305.556 266.152 305.574C266.281 305.592 266.413 305.572 266.53 305.516C266.648 305.46 266.746 305.371 266.814 305.259C267 304.893 267.267 304.573 267.594 304.323C268.623 303.746 271.408 303.582 272.32 304.323C273.834 305.563 274.38 309.838 274.66 311.764C274.731 312.186 274.66 314.526 274.66 314.526H250.356V313.457C250.352 312.94 250.513 312.435 250.814 312.015C251.115 311.594 251.542 311.28 252.033 311.117Z" fill="white" stroke="#263238" stroke-linecap="round" stroke-linejoin="round"/>
<path d="M274.676 314.51H250.355V313.441C250.355 313.176 250.4 312.912 250.488 312.661H274.707C274.707 313.48 274.676 314.51 274.676 314.51Z" fill="#858585" stroke="#263238" stroke-linecap="round" stroke-linejoin="round"/>
<path d="M269.271 194.523L264.162 299.199L273.522 300.759C273.522 300.759 279.418 270.463 280.136 260.542C280.308 258.202 280.136 251.143 280.136 251.143L286.758 218.547C286.758 218.547 291.118 214.522 291.625 195.357L269.271 194.523Z" fill="#263238" stroke="#263238" stroke-linecap="round" stroke-linejoin="round"/>
<path opacity="0.7" d="M283.124 235.036C283.482 233.523 283.904 232.033 284.411 230.551C284.489 230.34 284.582 230.145 284.676 229.95C284.908 227.735 285.265 225.534 285.744 223.359C285.91 222.547 286.347 221.815 286.985 221.284C287.167 220.873 287.438 220.508 287.78 220.215C288.121 219.922 288.524 219.709 288.958 219.592C288.671 217.578 288.233 215.588 287.648 213.64C287.055 211.597 286.088 209.639 285.799 207.525C285.721 206.979 285.409 206.41 285.51 206.347C284.84 206.086 284.184 205.789 283.545 205.458L283.428 205.365C282.83 215.244 282.728 225.147 283.124 235.036Z" fill="black"/>
<path d="M268.826 254.395C270.483 254.012 272.004 253.184 273.225 252.001" stroke="#7F7F7F" stroke-width="0.75" stroke-linecap="round" stroke-linejoin="round"/>
<path d="M262.929 301.188L274.247 302.116L275.089 298.45L262.929 297.498V301.188Z" fill="white" stroke="#263238" stroke-linecap="round" stroke-linejoin="round"/>
<path d="M295.611 292.717L298.022 307.763L304.184 307.279L303.981 291.874L295.611 292.717Z" fill="white" stroke="#263238" stroke-linecap="round" stroke-linejoin="round"/>
<path d="M285.292 311.117C287.546 310.337 291.43 309.011 292.881 308.098C294.051 307.365 295.689 304.978 296.89 304.308C297.145 304.198 297.42 304.141 297.698 304.141C297.975 304.141 298.25 304.198 298.505 304.308C298.646 304.453 298.746 304.633 298.794 304.83C298.835 304.979 298.921 305.113 299.039 305.213C299.157 305.314 299.302 305.377 299.456 305.394C299.61 305.412 299.766 305.383 299.903 305.312C300.041 305.241 300.154 305.13 300.229 304.994C300.388 304.725 300.6 304.491 300.853 304.308C301.882 303.73 304.667 303.567 305.58 304.308C307.093 305.548 307.639 309.822 307.92 311.749C307.982 312.17 307.92 314.51 307.92 314.51H283.623V313.441C283.622 312.928 283.783 312.427 284.082 312.01C284.382 311.593 284.805 311.281 285.292 311.117Z" fill="white" stroke="#263238" stroke-linecap="round" stroke-linejoin="round"/>
<path d="M307.943 314.51H283.623V313.441C283.62 313.176 283.662 312.912 283.748 312.661H307.967C307.967 313.48 307.943 314.51 307.943 314.51Z" fill="#858585" stroke="#263238" stroke-linecap="round" stroke-linejoin="round"/>
<path d="M282.297 197.682C282.297 197.682 284.637 211.23 286.79 222.595C288.256 230.301 288.35 253.069 288.35 253.069L295.822 300.08L305.034 298.84C305.034 298.84 305.143 269.902 304.106 260.62C303.872 258.553 303.489 252.414 303.489 252.414C303.489 252.414 303.84 227.86 305.736 219.654C307.093 213.804 309.792 207.658 306.516 195.669L282.297 197.682Z" fill="#263238" stroke="#263238" stroke-linecap="round" stroke-linejoin="round"/>
<path d="M290.37 254.395C291.307 255.692 292.7 256.587 294.27 256.899" stroke="#7F7F7F" stroke-width="0.75" stroke-linecap="round" stroke-linejoin="round"/>
<path d="M294.277 297.966L294.808 301.414L306.227 300.189L306.149 296.476L294.277 297.966Z" fill="white" stroke="#263238" stroke-linecap="round" stroke-linejoin="round"/>
<path d="M238.827 135.009L236.308 130.773C236.308 130.773 235.7 123.855 234.296 122.505C232.892 121.156 229.772 117.186 229.327 117.966C228.625 119.214 231.222 121.437 231.222 121.437L231.698 124.011C231.698 124.011 227.494 120.984 226.308 120.984C226.308 120.984 222.954 117.014 221.769 117.006C220.583 116.998 222.252 119.752 222.252 119.752C222.252 119.752 221.121 118.886 220.903 119.424C220.685 119.962 222.362 121.803 222.362 121.803C222.362 121.803 221.714 122.505 222.689 124.011C222.554 124.497 222.556 125.011 222.693 125.497C222.831 125.982 223.099 126.421 223.469 126.764C224.764 127.794 231.722 131.733 231.722 131.733L234.062 137.239L238.827 135.009Z" fill="#858585" stroke="#263238" stroke-linecap="round" stroke-linejoin="round"/>
<path d="M223.282 121.912C223.282 121.912 224.202 122.287 223.82 123.636C224.187 124.158 224.393 124.777 224.413 125.415C224.506 126.6 230.512 126.015 232.135 128.535" stroke="#263238" stroke-width="0.75" stroke-linecap="round" stroke-linejoin="round"/>
<path d="M223.282 120.454L225.731 123.043" stroke="#263238" stroke-width="0.75" stroke-linecap="round" stroke-linejoin="round"/>
<path d="M264.832 133.94L248.757 146.467L237.743 131.46L232.135 134.268C232.135 134.268 240.949 158.619 247.618 158.619C254.708 158.619 268.186 147.231 268.186 147.231C268.186 147.231 269.037 145.055 264.832 133.94Z" fill="white" stroke="#263238" stroke-linecap="round" stroke-linejoin="round"/>
<path d="M249.365 147.66C249.741 148.459 250.021 149.299 250.2 150.164" stroke="#263238" stroke-width="0.75" stroke-linecap="round" stroke-linejoin="round"/>
<path d="M264.833 133.94L268.257 179.266V198.095C268.257 198.095 287.983 200.435 307.444 197.596L306.773 178.213L308.746 135.009C308.746 135.009 299.714 128.48 285.846 128.48C271.977 128.48 264.833 133.94 264.833 133.94Z" fill="white" stroke="#263238" stroke-linecap="round" stroke-linejoin="round"/>
<path opacity="0.2" d="M307.444 197.596L306.82 180.225C306.485 188.595 297.249 185.451 295.159 185.061C292.92 184.64 290.346 192.019 290.346 192.019C290.346 192.019 281.766 193.493 275.051 192.97C268.335 192.448 268.233 186.317 268.233 186.317V198.095C268.233 198.095 287.983 200.466 307.444 197.596Z" fill="black"/>
<path d="M277.5 178.829C285.772 177.939 293.71 175.08 300.65 170.491L277.5 178.829Z" fill="white"/>
<path d="M277.5 178.829C285.772 177.939 293.71 175.08 300.65 170.491" stroke="#263238" stroke-width="0.75" stroke-linecap="round" stroke-linejoin="round"/>
<path d="M274.06 179.063C274.06 179.063 274.723 179.063 275.893 178.977L274.06 179.063Z" fill="white"/>
<path d="M274.06 179.063C274.06 179.063 274.723 179.063 275.893 178.977" stroke="#263238" stroke-width="0.75" stroke-linecap="round" stroke-linejoin="round"/>
<path d="M280.737 136.124L277.32 134.884L274.06 138.035L276.447 128.285L279.325 126.023L280.791 126.951L287.343 126.702L292.437 127.115L294.863 126.366L297.452 128.956L291.688 139.977L289.27 135.804L283.935 136.467L280.737 136.124Z" fill="white"/>
<path opacity="0.5" d="M280.737 136.124L277.32 134.884L274.06 138.035L276.447 128.285L279.325 126.023L280.791 126.951L287.343 126.702L292.437 127.115L294.863 126.366L297.452 128.956L291.688 139.977L289.27 135.804L283.935 136.467L280.737 136.124Z" fill="white"/>
<path d="M280.737 136.124L277.32 134.884L274.06 138.035L276.447 128.285L279.325 126.023L280.791 126.951L287.343 126.702L292.437 127.115L294.863 126.366L297.452 128.956L291.688 139.977L289.27 135.804L283.935 136.467L280.737 136.124Z" stroke="#263238" stroke-linecap="round" stroke-linejoin="round"/>
<path d="M292.086 128.925L291.306 117.006L283.771 118.34L282.211 123.94L280.651 128.792L279.91 128.87L281.962 140.008L292.835 129.088L292.086 128.925Z" fill="#858585"/>
<path d="M273.561 117.833C273.561 120.859 274.029 127.63 278.186 128.418C282.492 129.237 287.429 124.338 289.2 122.38C289.643 121.894 289.99 121.327 290.221 120.711L291.165 118.207C291.782 118.255 292.399 118.125 292.944 117.833H273.561Z" fill="#263238" stroke="#263238" stroke-width="0.5" stroke-linecap="round" stroke-linejoin="round"/>
<path d="M292.086 128.925L291.306 117.006L283.771 118.34L282.211 123.94L280.651 128.792L279.91 128.87L281.962 140.008L292.835 129.088L292.086 128.925Z" stroke="#263238" stroke-linecap="round" stroke-linejoin="round"/>
<path d="M278.584 102.529C278.584 102.529 275.019 99.815 276.767 97.6778C277.679 96.5702 278.865 98.0288 278.865 98.0288C278.865 98.0288 278.233 94.628 280.768 94.1288C283.108 93.692 283.014 96.3752 283.014 96.3752C283.014 96.3752 284.223 94.0742 286.337 94.589C288.022 94.9946 287.375 97.3814 287.375 97.3814C287.375 97.3814 289.621 94.589 291.945 95.8214C293.95 96.8744 292.296 99.4016 292.296 99.4016C292.296 99.4016 294.683 98.5592 296.017 99.9008C297.351 101.242 296.017 103.021 296.017 103.021C296.017 103.021 298.646 103.021 298.763 104.986C298.88 106.952 296.727 107.326 296.727 107.326C296.727 107.326 299.769 108.309 299.792 110.696C299.816 113.083 297.78 112.318 297.78 112.318C297.78 112.318 299.043 114.565 297.99 115.758C297.872 115.918 297.718 116.048 297.541 116.137C297.363 116.226 297.167 116.273 296.969 116.273C296.77 116.273 296.574 116.226 296.397 116.137C296.219 116.048 296.065 115.918 295.947 115.758C295.947 115.758 297.265 118.59 295.596 119.416C294.402 120.001 293.7 118.566 293.7 118.566C293.7 118.566 292.694 121.015 291.477 119.518C290.261 118.02 284.223 106.484 284.223 106.484L278.584 102.529Z" fill="#263238" stroke="#263238" stroke-width="0.75" stroke-linecap="round" stroke-linejoin="round"/>
<path d="M277.554 102.639L275.308 107.319C275.078 107.806 274.958 108.339 274.957 108.879V110.345L273.717 113.465C273.653 113.628 273.601 113.794 273.561 113.964C273.163 115.626 271.268 124.549 275.901 126.366C279.988 127.973 285.744 124.096 287.858 122.505C288.385 122.108 288.83 121.613 289.169 121.047L290.573 118.769C291.169 118.947 291.806 118.932 292.393 118.726C292.98 118.52 293.487 118.134 293.841 117.622C295.097 115.821 296.547 114.846 294.824 113.223C293.1 111.601 291.509 114.198 291.509 114.198L291.743 109.62L289.746 106.11L289.644 103.902C289.644 103.902 283.108 103.177 278.724 100.782L277.554 102.639Z" fill="white" stroke="#263238" stroke-width="0.75" stroke-linecap="round" stroke-linejoin="round"/>
<path d="M277.554 102.639L275.308 107.319C275.078 107.806 274.958 108.339 274.957 108.879V110.345L273.717 113.465C273.653 113.628 273.601 113.794 273.561 113.964C273.163 115.626 271.268 124.549 275.901 126.366C279.988 127.973 285.744 124.096 287.858 122.505C288.385 122.108 288.83 121.613 289.169 121.047L290.573 118.769C291.169 118.947 291.806 118.932 292.393 118.726C292.98 118.52 293.487 118.134 293.841 117.622C295.097 115.821 296.547 114.846 294.824 113.223C293.1 111.601 291.509 114.198 291.509 114.198L291.743 109.62L289.746 106.11L289.644 103.902C289.644 103.902 283.108 103.177 278.724 100.782L277.554 102.639Z" fill="#858585" stroke="#263238" stroke-linecap="round" stroke-linejoin="round"/>
<path d="M281.532 118.621C280.268 121.062 278.552 120.657 277.476 120.048" stroke="#263238" stroke-width="0.75" stroke-linecap="round" stroke-linejoin="round"/>
<path d="M281.555 113.075C281.384 113.629 281.033 114.011 280.776 113.933C280.518 113.855 280.432 113.332 280.604 112.779C280.776 112.225 281.127 111.835 281.384 111.921C281.641 112.006 281.727 112.521 281.555 113.075Z" fill="#263238"/>
<path d="M276.345 111.46C276.173 112.022 275.822 112.404 275.565 112.318C275.308 112.233 275.222 111.718 275.393 111.164C275.565 110.61 275.924 110.228 276.173 110.314C276.423 110.4 276.517 110.907 276.345 111.46Z" fill="#263238"/>
<path d="M275.971 107.857C276.177 107.799 276.394 107.784 276.606 107.814C276.819 107.843 277.023 107.916 277.206 108.028C277.389 108.14 277.547 108.289 277.67 108.465C277.793 108.641 277.878 108.84 277.921 109.05" stroke="#263238" stroke-width="0.75" stroke-linecap="round" stroke-linejoin="round"/>
<path d="M280.456 109.986C280.456 109.986 282.273 108.075 283.498 110.103" stroke="#263238" stroke-width="0.75" stroke-linecap="round" stroke-linejoin="round"/>
<path d="M277.96 111.952C277.796 112.697 277.446 113.388 276.941 113.96C276.436 114.532 275.793 114.966 275.074 115.22L276.493 117.474" stroke="#263238" stroke-width="0.75" stroke-linecap="round" stroke-linejoin="round"/>
<path d="M287.016 201.379L286.618 203.789C286.561 204.187 286.659 204.592 286.893 204.919C287.127 205.246 287.479 205.47 287.874 205.544L312.888 209.647C313.286 209.704 313.691 209.605 314.018 209.371C314.345 209.137 314.569 208.786 314.643 208.391L315.033 205.981L287.016 201.379Z" fill="white" stroke="#263238" stroke-width="0.75" stroke-linecap="round" stroke-linejoin="round"/>
<path d="M316.154 190.793L290.854 186.641C290.101 186.518 289.391 187.027 289.268 187.78L286.76 203.058C286.637 203.811 287.147 204.521 287.899 204.644L313.199 208.797C313.952 208.92 314.662 208.41 314.785 207.658L317.293 192.379C317.416 191.627 316.906 190.917 316.154 190.793Z" fill="white"/>
<path opacity="0.5" d="M316.154 190.793L290.854 186.641C290.101 186.518 289.391 187.027 289.268 187.78L286.76 203.058C286.637 203.811 287.147 204.521 287.899 204.644L313.199 208.797C313.952 208.92 314.662 208.41 314.785 207.658L317.293 192.379C317.416 191.627 316.906 190.917 316.154 190.793Z" fill="white"/>
<path d="M316.154 190.793L290.854 186.641C290.101 186.518 289.391 187.027 289.268 187.78L286.76 203.058C286.637 203.811 287.147 204.521 287.899 204.644L313.199 208.797C313.952 208.92 314.662 208.41 314.785 207.658L317.293 192.379C317.416 191.627 316.906 190.917 316.154 190.793Z" stroke="#263238" stroke-linecap="round" stroke-linejoin="round"/>
<path d="M306.391 193.641L305.01 198.321L300.33 201.667C299.668 203.716 298.887 205.724 297.99 207.681C297.931 207.79 297.9 207.913 297.9 208.037C297.901 208.161 297.933 208.283 297.994 208.392C298.055 208.5 298.142 208.591 298.248 208.657C298.354 208.722 298.475 208.759 298.599 208.765C299.246 208.765 300.003 208.461 300.416 207.205C300.416 207.205 300.596 209.67 302.117 208.165C302.117 208.165 303.045 210.552 304.495 208.672C304.495 208.672 307.857 209.171 308.395 206.745C308.934 204.319 309.729 200.045 309.729 200.045L311.866 195.03L306.391 193.641Z" fill="#858585" stroke="#263238" stroke-linecap="round" stroke-linejoin="round"/>
<path d="M300.385 206.246L300.915 202.635" stroke="#263238" stroke-width="0.75" stroke-linecap="round" stroke-linejoin="round"/>
<path d="M301.22 206.48C301.22 206.48 301.586 207.673 302.413 207.478C303.24 207.283 304.418 208.204 306.992 207.12" stroke="#263238" stroke-width="0.75" stroke-linecap="round" stroke-linejoin="round"/>
<path d="M308.746 135.009C308.746 135.009 320.446 167.519 320.228 172.269C320.01 177.019 311.687 197.682 311.687 197.682L305.26 195.638L309.55 171.403L305.704 154.563C305.704 154.563 304.831 142.216 308.746 135.009Z" fill="white" stroke="#263238" stroke-linecap="round" stroke-linejoin="round"/>
<path d="M310.993 170.865C311.424 170.535 311.924 170.305 312.456 170.193C312.988 170.081 313.538 170.09 314.066 170.218" stroke="#263238" stroke-width="0.75" stroke-linecap="round" stroke-linejoin="round"/>
<path d="M303.388 196.153C303.155 195.844 302.981 195.495 302.873 195.123C302.423 195.114 301.987 195.277 301.652 195.577C301.317 195.877 301.108 196.293 301.068 196.741C301.027 197.189 301.158 197.636 301.434 197.991C301.709 198.347 302.109 198.584 302.553 198.656C303.02 198.733 303.498 198.622 303.882 198.347C304.267 198.072 304.527 197.656 304.605 197.19C304.103 196.977 303.678 196.615 303.388 196.153Z" fill="white"/>
<path d="M75.1132 127.536L76.5328 134.533L60.7612 135.196L63.499 115.805L74.1226 117.037L75.1132 127.536Z" fill="white"/>
<path d="M82.18 116.92L68.9902 120.82C69.1548 122.332 69.4684 123.824 69.9262 125.274C70.7062 127.521 75.4564 131.514 78.5062 131.467C81.556 131.421 81.8992 121.702 81.8992 121.702L83.74 120.68C83.8454 120.62 83.9369 120.538 84.0084 120.44C84.0799 120.342 84.1299 120.23 84.1549 120.112C84.18 119.993 84.1796 119.87 84.1538 119.752C84.128 119.633 84.0774 119.522 84.0052 119.424L82.18 116.92Z" fill="#263238" stroke="#263238" stroke-width="0.75" stroke-linecap="round" stroke-linejoin="round"/>
<path d="M75.1132 127.536L76.5328 134.533L60.7612 135.196L63.499 115.805L74.1226 117.037L75.1132 127.536Z" stroke="#263238" stroke-linecap="round" stroke-linejoin="round"/>
<path d="M75.8387 102.888C75.8387 102.888 79.6685 103.668 79.2785 99.5108C78.8885 95.3534 71.7515 97.8962 68.0309 98.3642C64.3103 98.8322 52.2983 103.317 56.5493 110.4C56.5493 110.4 54.0455 114.393 63.0623 121.093C63.0623 121.093 67.3445 119.081 69.6923 122.022L71.5253 118.449L76.2053 110.228L75.8387 102.888Z" fill="#263238" stroke="#263238" stroke-linecap="round" stroke-linejoin="round"/>
<path d="M75.5576 102.264C75.5576 102.264 79.2236 104.308 81.3296 101.749C81.3296 101.749 81.5636 107.209 75.5576 102.264Z" fill="#263238" stroke="#263238" stroke-linecap="round" stroke-linejoin="round"/>
<path d="M75.9397 101.695C75.9397 101.695 81.3997 107.443 81.2125 111.382V114.978L84.0985 118.223C84.1792 118.306 84.2403 118.406 84.2776 118.516C84.3148 118.625 84.3271 118.742 84.3137 118.857C84.3002 118.972 84.2613 119.083 84.1998 119.181C84.1383 119.279 84.0558 119.362 83.9581 119.424L82.2811 120.586C82.2811 120.586 82.7725 129.79 79.8865 130.118C77.0005 130.446 72.1957 126.998 71.2363 124.97C70.5137 123.109 69.9908 121.177 69.6763 119.206C68.8363 118.978 68.0836 118.505 67.5151 117.846C66.9465 117.187 66.5882 116.373 66.4861 115.509C66.1507 112.482 69.2005 112.568 69.9883 114.549L70.6279 116.164L72.6091 116.094C72.6091 116.094 71.4781 113.239 72.1489 112.396C72.8197 111.554 75.4561 109.503 74.2471 107.545C73.0381 105.587 73.4437 102.256 75.9397 101.695Z" fill="white" stroke="#263238" stroke-linecap="round" stroke-linejoin="round"/>
<path d="M79.0601 122.388C79.2872 122.791 79.6353 123.113 80.0553 123.308C80.4752 123.502 80.9456 123.56 81.4001 123.472" stroke="#263238" stroke-width="0.75" stroke-linecap="round" stroke-linejoin="round"/>
<path d="M77.6245 111.406C77.6245 111.406 78.8647 109.682 80.0425 111.258" stroke="#263238" stroke-linecap="round" stroke-linejoin="round"/>
<path d="M79.5826 115.002C79.5826 115.54 79.372 115.984 79.0834 115.992C78.7948 116 78.5452 115.571 78.5296 115.033C78.514 114.495 78.7402 114.05 79.0288 114.042C79.3174 114.034 79.567 114.44 79.5826 115.002Z" fill="#263238"/>
<path d="M54.5676 287.787L52.29 307.389L59.0682 308.434L62.8044 289.059L54.5676 287.787Z" fill="white" stroke="#263238" stroke-linecap="round" stroke-linejoin="round"/>
<path d="M51.3774 201.176C51.3774 201.176 51.6504 212.533 55.6596 220.52L56.5722 250.659L51.9468 299.222L62.235 300.205L71.595 249.411L74.715 203.391L51.3774 201.176Z" fill="white" stroke="#263238" stroke-linecap="round" stroke-linejoin="round"/>
<path opacity="0.2" d="M73.2643 225.52L72.4063 220.114L68.5063 203.103L67.7887 202.736L51.4087 201.176C51.4087 201.176 51.4087 203.04 51.7753 205.794L59.8639 210.38C60.0547 213.26 60.7051 216.091 61.7905 218.765C61.8877 218.999 61.9232 219.253 61.8936 219.504C61.8639 219.755 61.7702 219.995 61.6214 220.199C61.4725 220.404 61.2736 220.566 61.0436 220.672C60.8137 220.777 60.5606 220.822 60.3085 220.801C59.4739 220.738 58.7485 220.801 58.7485 221.347C58.7485 222.61 64.8481 226.69 64.8481 226.69C64.8481 226.69 71.0023 246.58 70.7839 253.927L71.6185 249.403L73.2643 225.52Z" fill="black"/>
<path d="M75.2534 289.074L75.9944 308.793H82.8506L83.5838 289.074H75.2534Z" fill="white" stroke="#263238" stroke-linecap="round" stroke-linejoin="round"/>
<path d="M93.7707 311.569C91.5074 310.88 89.3054 310.003 87.1875 308.949C86.1735 308.317 84.7539 306.25 83.7087 305.665C83.4894 305.57 83.2532 305.522 83.0145 305.522C82.7758 305.522 82.5395 305.57 82.3203 305.665C81.8211 306.071 81.7977 308.184 81.7977 308.184C81.7977 308.184 80.9163 306.032 80.2767 305.665C79.3875 305.166 76.9695 305.018 76.1817 305.665C74.8713 306.734 74.3955 310.446 74.1381 312.115C74.0757 312.482 74.1381 314.51 74.1381 314.51H95.1981V313.582C95.1997 313.139 95.0629 312.708 94.807 312.347C94.551 311.986 94.1887 311.714 93.7707 311.569Z" fill="#263238" stroke="#263238" stroke-linecap="round" stroke-linejoin="round"/>
<path d="M89.5978 202.112L87.913 247.672L85.0972 299.69H74.38C74.38 299.69 72.1336 259.762 72.6952 248.21L67.0714 221.495C67.0714 221.495 61.1668 213.617 62.5708 204.062L89.5978 202.112Z" fill="white" stroke="#263238" stroke-linecap="round" stroke-linejoin="round"/>
<path d="M73.4282 295.821L73.7792 302.077H85.5182L86.4308 295.821H73.4282Z" fill="white" stroke="#263238" stroke-linecap="round" stroke-linejoin="round"/>
<path d="M51.089 295.283L50.8472 301.539L62.5316 302.654L64.037 296.515L51.089 295.283Z" fill="white" stroke="#263238" stroke-linecap="round" stroke-linejoin="round"/>
<path d="M107.366 172.121L91.1499 161.809L108.24 144.72L124.464 155.031L107.366 172.121Z" fill="white" stroke="#263238" stroke-linecap="round" stroke-linejoin="round"/>
<path d="M108.294 168.595L95.2524 160.304L108.996 146.56L122.038 154.852L108.294 168.595Z" fill="white" stroke="#263238" stroke-width="0.75" stroke-linecap="round" stroke-linejoin="round"/>
<path d="M109.246 154.36L111.523 152.083L108.598 150.226L106.321 152.496L109.246 154.36Z" stroke="#263238" stroke-width="0.75" stroke-linecap="round" stroke-linejoin="round"/>
<path d="M105.713 157.902L107.99 155.624L105.057 153.76L102.788 156.037L105.713 157.902Z" stroke="#263238" stroke-width="0.75" stroke-linecap="round" stroke-linejoin="round"/>
<path d="M102.054 161.56L104.324 159.282L101.399 157.418L99.1216 159.696L102.054 161.56Z" stroke="#263238" stroke-width="0.75" stroke-linecap="round" stroke-linejoin="round"/>
<path d="M114.823 147.379L112.67 149.54C112.568 149.642 112.491 149.765 112.443 149.901C112.395 150.036 112.378 150.181 112.394 150.324C112.41 150.467 112.457 150.605 112.534 150.727C112.61 150.849 112.712 150.953 112.834 151.03L115.954 153.034C116.298 153.254 116.706 153.349 117.112 153.305C117.517 153.261 117.896 153.081 118.185 152.793L120.174 150.796L114.823 147.379Z" fill="#858585" stroke="#263238" stroke-linecap="round" stroke-linejoin="round"/>
<path d="M57.1187 134.065L59.9345 127.879C59.9345 127.879 76.2442 126.054 80.5966 139.689L57.1187 134.065Z" fill="#858585" stroke="#263238" stroke-linecap="round" stroke-linejoin="round"/>
<path d="M47.8599 139.338C47.8599 139.338 43.8351 170.171 44.9037 181.099C45.7461 189.741 51.4401 197.058 51.4401 197.058L59.8797 193.75L55.5897 181.099C55.5897 181.099 56.9235 158.323 58.1871 153.019L47.8599 139.338Z" fill="#858585" stroke="#263238" stroke-linecap="round" stroke-linejoin="round"/>
<path d="M48.9985 195.544L51.3775 198.391L61.1275 194.593L59.8639 190.794L48.9985 195.544Z" fill="#858585" stroke="#263238" stroke-linecap="round" stroke-linejoin="round"/>
<path d="M47.8596 139.338C47.8596 139.338 46.5882 157.051 50.1996 169.5C53.811 181.949 50.1996 202.393 50.1996 202.393C50.1996 202.393 66.8214 213.149 92.3196 204.92C92.3196 204.92 89.1606 144.392 84.9408 141.022C80.721 137.653 56.9076 124.791 47.8596 139.338Z" fill="#858585" stroke="#263238" stroke-linecap="round" stroke-linejoin="round"/>
<path opacity="0.2" d="M92.3201 204.92C92.3201 204.92 91.2359 184.172 89.4965 166.294C85.8071 157.34 79.7777 145.414 79.4579 162.16C78.9899 186.379 93.8957 184.952 82.0865 189.172C79.4459 190.172 76.6173 190.577 73.8021 190.359C70.987 190.14 68.2547 189.304 65.8001 187.908C65.6038 187.808 65.379 187.777 65.163 187.822C64.9471 187.867 64.7529 187.984 64.6127 188.154C64.4725 188.325 64.3947 188.538 64.3922 188.758C64.3897 188.979 64.4626 189.193 64.5989 189.367C67.5629 193.134 72.0635 195.482 75.5189 196.831C75.8309 196.951 76.0947 197.17 76.2691 197.455C76.4436 197.74 76.5189 198.074 76.4833 198.406C76.4476 198.738 76.3031 199.049 76.0722 199.291C75.8414 199.532 75.5371 199.69 75.2069 199.741C64.0841 201.387 55.3637 195.474 51.3623 192.034C50.8943 197.994 50.1221 202.393 50.1221 202.393C50.1221 202.393 66.8219 213.149 92.3201 204.92Z" fill="black"/>
<path d="M84.9566 141.03C86.4772 141.728 87.7966 142.799 88.7921 144.144C89.7876 145.488 90.427 147.063 90.6506 148.721C91.493 154.524 96.8906 172.347 96.8906 172.347L98.6846 171.185C100.182 171.858 101.416 173.006 102.195 174.452C102.973 175.897 103.253 177.559 102.99 179.18C102.99 179.18 98.6066 187.76 93.8174 186.145C88.8956 184.476 86.1422 180.451 83.6774 173.868C82.3748 170.358 78.6152 159.781 78.6152 159.781" fill="#858585"/>
<path d="M84.9566 141.03C86.4772 141.728 87.7966 142.799 88.7921 144.144C89.7876 145.488 90.427 147.063 90.6506 148.721C91.493 154.524 96.8906 172.347 96.8906 172.347L98.6846 171.185C100.182 171.858 101.416 173.006 102.195 174.452C102.973 175.897 103.253 177.559 102.99 179.18C102.99 179.18 98.6066 187.76 93.8174 186.145C88.8956 184.476 86.1422 180.451 83.6774 173.868C82.3748 170.358 78.6152 159.781 78.6152 159.781" stroke="#263238" stroke-linecap="round" stroke-linejoin="round"/>
<path d="M99.0434 177.511C99.0716 177.969 99.0506 178.43 98.981 178.884" stroke="#263238" stroke-width="0.75" stroke-linecap="round" stroke-linejoin="round"/>
<path d="M95.8223 181.099C95.8223 181.099 97.2965 178.759 97.0859 173.712C97.7946 174.249 98.3357 174.977 98.6459 175.81" stroke="#263238" stroke-width="0.75" stroke-linecap="round" stroke-linejoin="round"/>
<path d="M99.8623 170.694L105.486 166.684C105.767 165.438 106.379 164.29 107.258 163.362C108.136 162.434 109.249 161.76 110.478 161.412C110.478 161.412 113.076 157.122 114.55 157.621C116.024 158.12 112.795 159.867 112.514 162.114L113.707 163.713C113.707 163.713 117.607 163.026 118.559 161.763C118.559 161.763 118.348 164.438 116.804 164.883C116.804 164.883 116.804 166.918 115.751 166.848L108.013 169.032L103.513 177.433L99.8623 170.694Z" fill="white" stroke="#263238" stroke-linecap="round" stroke-linejoin="round"/>
<path d="M76.8369 190.194C77.7261 190.112 78.6076 189.96 79.4733 189.741" stroke="#263238" stroke-width="0.75" stroke-linecap="round" stroke-linejoin="round"/>
<path d="M54.7314 177.409C54.7314 177.409 63.0228 190.092 75.0114 190.264" stroke="#263238" stroke-width="0.75" stroke-linecap="round" stroke-linejoin="round"/>
<path d="M97.4365 170.834C97.4365 170.834 103.302 175.264 102.741 180.607L104.854 176.559C104.854 176.559 104.784 173.151 99.9325 169.539L97.4365 170.834Z" fill="#858585" stroke="#263238" stroke-linecap="round" stroke-linejoin="round"/>
<path d="M74.1381 314.51H95.1981V313.582C95.198 313.354 95.1611 313.127 95.0889 312.911H74.1069C74.1069 313.621 74.1381 314.51 74.1381 314.51Z" fill="white" stroke="#263238" stroke-width="0.75" stroke-linecap="round" stroke-linejoin="round"/>
<path d="M69.6999 311.569C67.4366 310.88 65.2346 310.003 63.1167 308.949C62.1027 308.317 60.6831 306.25 59.6457 305.665C59.4251 305.57 59.1876 305.521 58.9476 305.521C58.7076 305.521 58.4701 305.57 58.2495 305.665C57.7503 306.071 57.7269 308.184 57.7269 308.184C57.7269 308.184 56.8533 306.032 56.2059 305.665C55.3167 305.166 52.8987 305.018 52.1109 305.665C50.8005 306.734 50.3247 310.446 50.0673 312.115C50.0049 312.482 50.0673 314.51 50.0673 314.51H71.1273V313.582C71.1289 313.139 70.9921 312.708 70.7362 312.347C70.4802 311.986 70.1179 311.714 69.6999 311.569Z" fill="#263238" stroke="#263238" stroke-linecap="round" stroke-linejoin="round"/>
<path d="M50.0517 314.51H71.1117V313.582C71.1116 313.354 71.0747 313.127 71.0025 312.911H50.0205C50.0205 313.621 50.0517 314.51 50.0517 314.51Z" fill="white" stroke="#263238" stroke-width="0.75" stroke-linecap="round" stroke-linejoin="round"/>
<path d="M81.119 248.514C81.119 248.514 78.8804 252.375 75.2534 250.901" stroke="#263238" stroke-width="0.75" stroke-linecap="round" stroke-linejoin="round"/>
<path d="M65.5112 249.871C65.5112 249.871 61.4942 253.303 58.1714 250.901" stroke="#263238" stroke-width="0.75" stroke-linecap="round" stroke-linejoin="round"/>
<path d="M107.428 149.953L107.99 152.746H112.966L108.918 151.802L109.113 149.899L107.428 149.953Z" fill="white"/>
</svg>
