<svg width="328" height="285" viewBox="0 0 328 285" fill="none" xmlns="http://www.w3.org/2000/svg">
<path d="M316.816 131.971C313.253 114.543 306.997 97.5292 299.557 81.8892C286.733 54.9068 265.721 32.5008 238.84 19.2C172.88 -13.44 125.28 0.159995 99.4402 26.68C73.6002 53.2 81.0802 98.76 53.2002 118.48C25.3202 138.2 5.60023 147.04 4.24023 183.08C2.88023 219.12 20.5602 246.32 49.1202 255.16C77.6802 264 120.52 292.56 206.2 276.24C291.88 259.92 312.96 214.36 318.4 181.72C321.12 165.298 320.182 148.448 316.816 131.971Z" fill="#CBCBCB"/>
<path opacity="0.7" d="M316.816 131.971C313.253 114.543 306.997 97.5292 299.557 81.8892C286.733 54.9068 265.721 32.5008 238.84 19.2C172.88 -13.44 125.28 0.159995 99.4402 26.68C73.6002 53.2 81.0802 98.76 53.2002 118.48C25.3202 138.2 5.60023 147.04 4.24023 183.08C2.88023 219.12 20.5602 246.32 49.1202 255.16C77.6802 264 120.52 292.56 206.2 276.24C291.88 259.92 312.96 214.36 318.4 181.72C321.12 165.298 320.182 148.448 316.816 131.971Z" fill="white"/>
<path d="M115.978 32.4736H109.817V59.7756H115.978V32.4736Z" fill="#C9C9C9" stroke="#263238" stroke-linecap="round" stroke-linejoin="round"/>
<path d="M115.978 36.5808H109.817V39.2464H115.978V36.5808Z" fill="white" stroke="#263238" stroke-linecap="round" stroke-linejoin="round"/>
<path d="M115.978 53.5195H109.817V56.1851H115.978V53.5195Z" fill="white" stroke="#263238" stroke-linecap="round" stroke-linejoin="round"/>
<path d="M123.165 32.4736H114.543V59.7756H123.165V32.4736Z" fill="#878787" stroke="#263238" stroke-linecap="round" stroke-linejoin="round"/>
<path d="M122.553 32.4736H116.393V59.7756H122.553V32.4736Z" fill="#C9C9C9" stroke="#263238" stroke-linecap="round" stroke-linejoin="round"/>
<path d="M122.553 36.5808H116.393V39.2464H122.553V36.5808Z" fill="white" stroke="#263238" stroke-linecap="round" stroke-linejoin="round"/>
<path d="M122.553 53.5195H116.393V56.1851H122.553V53.5195Z" fill="white" stroke="#263238" stroke-linecap="round" stroke-linejoin="round"/>
<path d="M129.734 32.4736H121.112V59.7756H129.734V32.4736Z" fill="#878787" stroke="#263238" stroke-linecap="round" stroke-linejoin="round"/>
<path d="M129.122 32.4736H122.961V59.7756H129.122V32.4736Z" fill="#C9C9C9" stroke="#263238" stroke-linecap="round" stroke-linejoin="round"/>
<path d="M129.122 36.5808H122.961V39.2464H129.122V36.5808Z" fill="white" stroke="#263238" stroke-linecap="round" stroke-linejoin="round"/>
<path d="M129.122 53.5195H122.961V56.1851H129.122V53.5195Z" fill="white" stroke="#263238" stroke-linecap="round" stroke-linejoin="round"/>
<path d="M136.303 32.4736H127.681V59.7756H136.303V32.4736Z" fill="#C9C9C9" stroke="#263238" stroke-linecap="round" stroke-linejoin="round"/>
<path d="M141.92 60.0544H156.39L160.239 56.5728H141.92V60.0544Z" fill="white" stroke="#263238" stroke-linecap="round" stroke-linejoin="round"/>
<path d="M158.6 60.2312L158.138 59.4356L141.621 59.4016L142.097 60.2312H158.6Z" fill="white" stroke="#263238" stroke-linecap="round" stroke-linejoin="round"/>
<path d="M133.542 33.0421L128.209 36.1262L141.876 59.7609L147.21 56.6768L133.542 33.0421Z" fill="#C9C9C9" stroke="#263238" stroke-linecap="round" stroke-linejoin="round"/>
<path d="M135.6 36.588L130.267 39.6721L131.601 41.9797L136.934 38.8955L135.6 36.588Z" fill="white" stroke="#263238" stroke-linecap="round" stroke-linejoin="round"/>
<path d="M144.085 51.2499L138.751 54.334L140.086 56.6415L145.419 53.5574L144.085 51.2499Z" fill="white" stroke="#263238" stroke-linecap="round" stroke-linejoin="round"/>
<path d="M160.144 56.8107L147.067 56.7767L133.399 33.1399L146.476 33.1739L160.144 56.8107Z" fill="#C9C9C9" stroke="#263238" stroke-linecap="round" stroke-linejoin="round"/>
<path d="M167.27 46.23C167.27 46.23 164.89 45.38 164.21 41.64C163.53 37.9 162.34 32.63 163.7 31.44C165.06 30.25 167.61 29.57 167.95 31.95C168.29 34.33 167.78 38.92 168.29 39.94C168.8 40.96 170.5 40.28 170.5 38.24C170.5 34.8808 169.14 31.44 169.623 28.04C170.303 23.3412 175.063 22.8244 175.573 28.04C175.858 30.9232 175.94 33.8676 175.94 36.7644C175.94 37.9544 177.98 38.6344 177.81 35.7444C177.688 33.7044 179.17 31.3244 181.21 32.0044C183.25 32.6844 181.55 41.6944 180.87 43.2244C180.19 44.7544 175.94 45.04 175.94 45.04V48.95L170.84 49.12L170.67 45.21C169.632 45.8102 168.467 46.1595 167.27 46.23Z" fill="#CBCBCB" stroke="#263238" stroke-linecap="round" stroke-linejoin="round"/>
<path d="M171.86 38.7771C171.922 39.6271 171.962 40.1371 171.962 40.1371" stroke="#263238" stroke-linecap="round" stroke-linejoin="round"/>
<path d="M172.2 25.592C172.2 25.592 171.085 26.3672 171.166 28.6928C171.221 30.1072 171.493 34.024 171.704 36.8868" stroke="#263238" stroke-linecap="round" stroke-linejoin="round"/>
<path d="M174.118 33.6091L174.294 39.3007" stroke="#263238" stroke-linecap="round" stroke-linejoin="round"/>
<path d="M176.607 43C176.213 43.0613 175.815 43.0954 175.417 43.102" stroke="#263238" stroke-linecap="round" stroke-linejoin="round"/>
<path d="M180.156 33.4392C179.763 34.1835 179.556 35.0116 179.551 35.8532C179.551 37.2132 179.639 41.028 178.776 42.0616C178.565 42.2937 178.308 42.479 178.021 42.6056" stroke="#263238" stroke-linecap="round" stroke-linejoin="round"/>
<path d="M165.4 41.0891C165.605 42.1115 166.095 43.0548 166.815 43.8091C167.24 44.1497 167.766 44.342 168.311 44.3568C168.856 44.3715 169.391 44.2078 169.834 43.8907" stroke="#263238" stroke-linecap="round" stroke-linejoin="round"/>
<path d="M165.237 31.8889C165.237 31.8889 163.517 31.8889 164.115 34.9013C164.374 36.1729 164.612 37.7369 164.918 39.2125" stroke="#263238" stroke-linecap="round" stroke-linejoin="round"/>
<path d="M171.704 43.3535L172.05 47.0595" stroke="#263238" stroke-linecap="round" stroke-linejoin="round"/>
<path d="M180.53 47.4199L179.911 52.4927L179.49 55.9471L179 59.9659H166.767L166.277 55.9471L165.856 52.4927L165.237 47.4199H180.53Z" fill="white" stroke="#263238" stroke-linecap="round" stroke-linejoin="round"/>
<path d="M179.912 52.4927L179.49 55.9471H166.278L165.856 52.4927H179.912Z" fill="#CBCBCB" stroke="#263238" stroke-linecap="round" stroke-linejoin="round"/>
<path d="M187.249 59.9661H108.729V65.1681H187.249V59.9661Z" fill="white" stroke="#263238" stroke-linecap="round" stroke-linejoin="round"/>
<path d="M187.249 59.9661H169.147V65.1681H187.249V59.9661Z" fill="white" stroke="#263238" stroke-linecap="round" stroke-linejoin="round"/>
<path d="M167.386 65.1885C175.797 68.2893 174.281 74.1509 174.281 74.1509H182.244V65.1885H167.386Z" fill="#919191" stroke="#263238" stroke-linecap="round" stroke-linejoin="round"/>
<path d="M170.072 65.1885C178.477 68.2893 176.96 74.1509 176.96 74.1509H184.93V65.1885H170.072Z" fill="white" stroke="#263238" stroke-linecap="round" stroke-linejoin="round"/>
<path d="M113.496 65.1885C121.907 68.2893 120.391 74.1509 120.391 74.1509H128.354V65.1885H113.496Z" fill="#919191" stroke="#263238" stroke-linecap="round" stroke-linejoin="round"/>
<path d="M116.182 65.1885C124.586 68.2893 123.07 74.1509 123.07 74.1509H131.04V65.1885H116.182Z" fill="white" stroke="#263238" stroke-linecap="round" stroke-linejoin="round"/>
<path d="M296.667 33.446H226.247V131.203H296.667V33.446Z" fill="#919191" stroke="#263238" stroke-linecap="round" stroke-linejoin="round"/>
<path d="M293.614 37.6892H229.307V126.96H293.614V37.6892Z" fill="#CBCBCB"/>
<path opacity="0.5" d="M293.614 37.6892H229.307V126.96H293.614V37.6892Z" fill="white"/>
<path d="M243.444 120.18C241.719 122.81 239.541 125.113 237.011 126.98H293.614V37.6892H283.183L281.823 38.1176C271.623 41.334 261.083 50.6432 255.106 67.5616" stroke="#263238" stroke-linecap="round" stroke-linejoin="round"/>
<path d="M254.113 70.5264C251.738 78.5948 250.426 86.9385 250.21 95.3464C249.836 105.438 247.687 112.693 244.817 117.909" stroke="#263238" stroke-linecap="round" stroke-linejoin="round"/>
<path d="M287.324 60.3469C277.974 65.7869 267.087 74.9261 263.021 88.9409C260.838 96.4209 262.885 103.167 266.931 108.94" stroke="#263238" stroke-linecap="round" stroke-linejoin="round"/>
<path d="M269.121 111.755C274.731 118.324 282.721 123.492 289.187 126.966H293.614V57.0488C292.349 57.6404 291.003 58.3068 289.602 59.0888" stroke="#263238" stroke-linecap="round" stroke-linejoin="round"/>
<path d="M239.996 60.9656C244.919 50.9288 245.436 42.966 244.872 37.6892H229.32V78.53C231.619 75.2592 234.434 70.8868 237.834 65.0252C238.045 64.6648 238.242 64.3452 238.439 63.9644" stroke="#263238" stroke-linecap="round" stroke-linejoin="round"/>
<path d="M246.089 99.6237C245.334 104.567 243.063 108.158 240.384 108.158C237.086 108.158 234.407 102.718 234.407 95.9857C234.407 89.2537 237.086 83.8137 240.384 83.8137C243.682 83.8137 246.361 89.2537 246.361 95.9857" stroke="#263238" stroke-linecap="round" stroke-linejoin="round"/>
<path d="M248.925 71.0025C248.925 73.5933 247.782 75.7013 246.361 75.7013C244.94 75.7013 243.804 73.5933 243.804 71.0025C243.804 68.4117 244.947 66.3037 246.361 66.3037C247.775 66.3037 248.925 68.4049 248.925 71.0025Z" stroke="#263238" stroke-linecap="round" stroke-linejoin="round"/>
<path d="M281.551 90.8516C284.019 92.028 285.631 94.0816 285.631 96.414C285.631 100.066 281.619 103.03 276.662 103.03C271.704 103.03 267.699 100.066 267.699 96.414C267.699 92.7624 271.711 89.7908 276.662 89.7908C277.452 89.7902 278.24 89.8677 279.014 90.022" stroke="#263238" stroke-linecap="round" stroke-linejoin="round"/>
<path d="M280.443 96.414C280.443 97.944 278.763 99.1884 276.682 99.1884C274.601 99.1884 272.922 97.944 272.922 96.414C272.922 94.884 274.608 93.6328 276.682 93.6328C278.756 93.6328 280.443 94.8772 280.443 96.414Z" stroke="#263238" stroke-linecap="round" stroke-linejoin="round"/>
<path d="M286.508 79.5432C286.508 81.6648 284.407 83.3852 281.809 83.3852C279.212 83.3852 277.11 81.6648 277.11 79.5432C277.11 77.4216 279.212 75.7012 281.809 75.7012C284.407 75.7012 286.508 77.4216 286.508 79.5432Z" stroke="#263238" stroke-linecap="round" stroke-linejoin="round"/>
<path d="M252.556 58.1911C254.325 58.1911 255.759 54.6535 255.759 50.2895C255.759 45.9256 254.325 42.3879 252.556 42.3879C250.787 42.3879 249.353 45.9256 249.353 50.2895C249.353 54.6535 250.787 58.1911 252.556 58.1911Z" stroke="#263238" stroke-linecap="round" stroke-linejoin="round"/>
<path d="M261.314 118.195C261.314 119.082 261.051 119.95 260.558 120.688C260.065 121.426 259.364 122.001 258.544 122.341C257.724 122.681 256.821 122.769 255.951 122.596C255.08 122.423 254.281 121.996 253.653 121.368C253.025 120.74 252.598 119.941 252.425 119.07C252.251 118.2 252.34 117.297 252.68 116.477C253.02 115.657 253.595 114.956 254.333 114.463C255.071 113.97 255.939 113.707 256.826 113.707C258.017 113.707 259.158 114.179 260 115.021C260.842 115.863 261.314 117.004 261.314 118.195Z" stroke="#263238" stroke-linecap="round" stroke-linejoin="round"/>
<path d="M282.238 51.5681C282.239 52.1188 282.077 52.6574 281.772 53.1158C281.467 53.5742 281.032 53.9317 280.524 54.1431C280.016 54.3544 279.456 54.4101 278.916 54.303C278.375 54.1959 277.879 53.9309 277.49 53.5415C277.101 53.1521 276.836 52.656 276.728 52.1158C276.621 51.5757 276.677 51.0159 276.888 50.5074C277.1 49.999 277.457 49.5647 277.916 49.2596C278.374 48.9545 278.913 48.7924 279.463 48.7937C280.199 48.7955 280.903 49.0884 281.423 49.6083C281.943 50.1282 282.236 50.8328 282.238 51.5681Z" stroke="#263238" stroke-linecap="round" stroke-linejoin="round"/>
<path d="M264.728 71.2133C264.729 71.5095 264.643 71.7994 264.479 72.0463C264.315 72.2932 264.082 72.486 263.809 72.6003C263.536 72.7146 263.235 72.7452 262.944 72.6882C262.654 72.6313 262.386 72.4893 262.176 72.2804C261.967 72.0714 261.823 71.8049 261.765 71.5145C261.707 71.2241 261.736 70.923 261.849 70.6492C261.962 70.3755 262.154 70.1414 262.4 69.9767C262.646 69.8121 262.936 69.7241 263.232 69.7241C263.428 69.7232 263.622 69.7611 263.804 69.8355C263.985 69.91 264.15 70.0195 264.289 70.1579C264.428 70.2963 264.539 70.4608 264.614 70.6419C264.689 70.823 264.728 71.0172 264.728 71.2133V71.2133Z" stroke="#263238" stroke-linecap="round" stroke-linejoin="round"/>
<path d="M293.614 37.6892H229.307V126.96H293.614V37.6892Z" stroke="#263238" stroke-linecap="round" stroke-linejoin="round"/>
<path d="M188.513 164.985H171.044V171.561H188.513V164.985Z" fill="#263238" stroke="#263238" stroke-linecap="round" stroke-linejoin="round"/>
<path d="M211.953 165.978H142.423L145.714 112.081H215.251L211.953 165.978Z" fill="#919191" stroke="#263238" stroke-linecap="round" stroke-linejoin="round"/>
<path d="M209.961 165.978H140.431L143.722 112.081H213.252L209.961 165.978Z" fill="#263238" stroke="#263238" stroke-linecap="round" stroke-linejoin="round"/>
<path d="M206.282 162.979H144.477L147.401 115.073H209.206L206.282 162.979Z" fill="white" stroke="#263238" stroke-linecap="round" stroke-linejoin="round"/>
<path d="M188.303 155.839H146.319L148.57 118.922H190.56L188.303 155.839Z" fill="#919191" stroke="#263238" stroke-linecap="round" stroke-linejoin="round"/>
<path d="M162.884 139.982C162.884 139.982 154.139 143.443 154.085 144.375C154.03 145.306 152.317 155.839 152.317 155.839H178.32L176.13 143.708L166.509 139.71L162.884 139.982Z" fill="white" stroke="#263238" stroke-linecap="round" stroke-linejoin="round"/>
<path d="M163.143 137.847C162.484 138.02 161.873 138.338 161.354 138.778C160.674 139.458 159.845 141.709 159.845 141.709L159.811 144.375L163.258 142.511L166.76 142.28L170.038 145.347L170.459 140.682C170.459 140.682 169.956 138.017 168.895 137.881C167.835 137.745 163.143 137.847 163.143 137.847Z" fill="white" stroke="#263238" stroke-linecap="round" stroke-linejoin="round"/>
<path d="M163.034 135.317L162.884 139.982L164.945 143.314L168.351 139.846L168.882 135.582L163.034 135.317Z" fill="white" stroke="#263238" stroke-linecap="round" stroke-linejoin="round"/>
<path d="M171.439 129.863C171.194 133.773 168.596 138.513 165.747 138.513C162.898 138.513 160.878 133.753 161.116 129.863C161.354 125.974 163.836 122.784 166.706 122.784C169.575 122.784 171.677 125.96 171.439 129.863Z" fill="white" stroke="#263238" stroke-linecap="round" stroke-linejoin="round"/>
<path d="M161.069 130.38C161.069 130.38 160.151 127.987 159.77 129.85C159.389 131.713 161.266 133.712 161.266 133.712L161.069 130.38Z" fill="white" stroke="#263238" stroke-linecap="round" stroke-linejoin="round"/>
<path d="M171.439 129.863C171.439 129.863 173.69 128.918 173.03 130.917C172.863 131.483 172.57 132.004 172.175 132.442C171.779 132.88 171.291 133.223 170.745 133.447L171.439 129.863Z" fill="white" stroke="#263238" stroke-linecap="round" stroke-linejoin="round"/>
<path d="M165.468 130.38C165.486 130.14 165.454 129.899 165.373 129.672C165.293 129.445 165.166 129.237 165.001 129.062C164.836 128.887 164.636 128.748 164.415 128.654C164.193 128.56 163.954 128.513 163.714 128.517C163.212 128.53 162.734 128.727 162.369 129.071C162.004 129.415 161.778 129.881 161.735 130.38C161.717 130.62 161.749 130.862 161.829 131.089C161.91 131.316 162.036 131.525 162.201 131.7C162.366 131.876 162.566 132.016 162.788 132.11C163.009 132.205 163.248 132.253 163.489 132.25C163.991 132.237 164.471 132.038 164.836 131.693C165.201 131.348 165.426 130.881 165.468 130.38Z" fill="white" stroke="#263238" stroke-linecap="round" stroke-linejoin="round"/>
<path d="M169.997 130.38L172.03 129.85" stroke="#263238" stroke-linecap="round" stroke-linejoin="round"/>
<path d="M169.997 130.38C170.015 130.141 169.983 129.9 169.903 129.674C169.823 129.447 169.697 129.24 169.532 129.065C169.368 128.889 169.169 128.75 168.948 128.656C168.727 128.562 168.489 128.514 168.249 128.517C167.747 128.528 167.266 128.725 166.9 129.069C166.534 129.413 166.307 129.88 166.264 130.38C166.246 130.621 166.278 130.862 166.358 131.089C166.438 131.317 166.565 131.525 166.73 131.701C166.895 131.876 167.095 132.016 167.316 132.111C167.538 132.205 167.777 132.253 168.018 132.25C168.52 132.237 169 132.039 169.365 131.694C169.73 131.348 169.955 130.881 169.997 130.38Z" fill="white" stroke="#263238" stroke-linecap="round" stroke-linejoin="round"/>
<path d="M166.243 121.982C166.243 121.982 164.203 120.921 162.673 121.588C161.143 122.254 160.015 125.851 160.089 126.783C160.329 128.004 160.657 129.206 161.069 130.38L162.687 125.715L166.93 123.852L166.243 121.982Z" fill="#263238" stroke="#263238" stroke-linecap="round" stroke-linejoin="round"/>
<path d="M164.19 122.92C164.19 122.92 167.549 120.255 170.269 121.56C171.102 121.922 171.79 122.551 172.224 123.348C172.659 124.145 172.816 125.064 172.669 125.96C172.629 126.64 172.574 129.686 172.574 129.686L170.956 129.958L170.16 127.449C169.241 127.086 168.346 126.663 167.481 126.184C167.481 126.184 163.884 125.715 164.19 122.92Z" fill="#263238" stroke="#263238" stroke-linecap="round" stroke-linejoin="round"/>
<path d="M165.468 130.38L165.23 134.249H166.162" fill="white"/>
<path d="M165.468 130.38L165.23 134.249H166.162" stroke="#263238" stroke-linecap="round" stroke-linejoin="round"/>
<path d="M164.741 135.711H166.74" stroke="#263238" stroke-linecap="round" stroke-linejoin="round"/>
<path d="M164.945 143.314L164.204 155.438" stroke="#263238" stroke-linecap="round" stroke-linejoin="round"/>
<path d="M176.117 143.708C176.117 143.708 173.336 149.978 173.254 151.31C173.173 152.643 172.86 155.574 172.86 155.574" stroke="#263238" stroke-linecap="round" stroke-linejoin="round"/>
<path d="M154.085 144.375C154.085 144.375 156.853 149.175 157.213 149.815C157.573 150.454 157.131 155.547 157.131 155.547" stroke="#263238" stroke-linecap="round" stroke-linejoin="round"/>
<path d="M177.973 148.244L178.891 144.109L180.455 142.511L181.931 140.111H182.597L181.781 142.647L183.848 141.444L185.181 139.315L185.956 139.71L184.052 144.646L181.033 146.108L180.51 148.108L177.973 148.244Z" fill="white" stroke="#263238" stroke-linecap="round" stroke-linejoin="round"/>
<path d="M180.558 155.839L180.809 147.577L177.776 147.04L175.383 155.839H180.558Z" fill="white" stroke="#263238" stroke-linecap="round" stroke-linejoin="round"/>
<path d="M188.119 158.906H146.129L146.319 155.839H188.303L188.119 158.906Z" fill="white" stroke="#263238" stroke-linecap="round" stroke-linejoin="round"/>
<path d="M147.843 157.043H186.365" stroke="#263238" stroke-linecap="round" stroke-linejoin="round"/>
<path d="M206.35 128.775H192.219L192.818 119.044H206.948L206.35 128.775Z" fill="#CBCBCB" stroke="#263238" stroke-linecap="round" stroke-linejoin="round"/>
<path d="M206.35 128.775H192.219L192.321 127.177H206.452L206.35 128.775Z" fill="white" stroke="#263238" stroke-linecap="round" stroke-linejoin="round"/>
<path d="M201.787 123.342L198.115 121.146L197.85 125.539L201.787 123.342Z" fill="white" stroke="#263238" stroke-linecap="round" stroke-linejoin="round"/>
<path d="M205.432 143.837H191.301L191.893 134.113H206.023L205.432 143.837Z" fill="#CBCBCB" stroke="#263238" stroke-linecap="round" stroke-linejoin="round"/>
<path d="M205.432 143.837H191.301L191.403 142.239H205.527L205.432 143.837Z" fill="white" stroke="#263238" stroke-linecap="round" stroke-linejoin="round"/>
<path d="M200.869 138.411L197.197 136.215L196.932 140.607L200.869 138.411Z" fill="white" stroke="#263238" stroke-linecap="round" stroke-linejoin="round"/>
<path d="M204.507 158.906H190.383L190.975 149.175H205.105L204.507 158.906Z" fill="#CBCBCB" stroke="#263238" stroke-linecap="round" stroke-linejoin="round"/>
<path d="M204.507 158.906H190.383L190.479 157.308H204.609L204.507 158.906Z" fill="white" stroke="#263238" stroke-linecap="round" stroke-linejoin="round"/>
<path d="M199.944 153.473L196.279 151.277L196.007 155.669L199.944 153.473Z" fill="white" stroke="#263238" stroke-linecap="round" stroke-linejoin="round"/>
<path d="M192.26 130.38H205.983" stroke="#263238" stroke-linecap="round" stroke-linejoin="round"/>
<path d="M192.158 131.985H205.887" stroke="#263238" stroke-linecap="round" stroke-linejoin="round"/>
<path d="M191.329 145.578H205.058" stroke="#263238" stroke-linecap="round" stroke-linejoin="round"/>
<path d="M191.233 147.176H204.963" stroke="#263238" stroke-linecap="round" stroke-linejoin="round"/>
<path d="M185.243 171.561H174.92C174.92 170.531 175.329 169.544 176.058 168.815C176.786 168.087 177.773 167.678 178.803 167.678H181.346C182.376 167.678 183.364 168.087 184.092 168.815C184.82 169.544 185.229 170.531 185.229 171.561H185.243Z" fill="white" stroke="#263238" stroke-linecap="round" stroke-linejoin="round"/>
<path d="M170.004 169.446H119.534V171.561H170.004V169.446Z" fill="#919191" stroke="#263238" stroke-linecap="round" stroke-linejoin="round"/>
<path d="M169.99 169.446H157.308V171.561H169.99V169.446Z" fill="white" stroke="#263238" stroke-linecap="round" stroke-linejoin="round"/>
<path d="M98.8486 67.9085V27.7273" stroke="#263238" stroke-linecap="round" stroke-linejoin="round"/>
<path d="M98.8486 269.005V71.907" stroke="#263238" stroke-linecap="round" stroke-linejoin="round"/>
<path d="M190.607 185.664L196.727 268.168C196.759 268.47 196.905 268.747 197.134 268.945C197.363 269.143 197.659 269.245 197.962 269.232C198.264 269.219 198.551 269.092 198.762 268.875C198.974 268.658 199.095 268.369 199.101 268.066L198.183 185.664H190.607Z" fill="#919191" stroke="#263238" stroke-linecap="round" stroke-linejoin="round"/>
<path d="M195.225 185.664L198.455 269.12C198.645 269.019 198.804 268.867 198.915 268.681C199.025 268.495 199.082 268.282 199.08 268.066L198.183 185.664H195.225Z" fill="white" stroke="#263238" stroke-linecap="round" stroke-linejoin="round"/>
<path d="M229.075 185.664L235.195 268.168C235.227 268.47 235.372 268.747 235.602 268.945C235.831 269.143 236.127 269.245 236.43 269.232C236.732 269.219 237.018 269.092 237.23 268.875C237.442 268.658 237.563 268.369 237.568 268.066L236.65 185.664H229.075Z" fill="#919191" stroke="#263238" stroke-linecap="round" stroke-linejoin="round"/>
<path d="M233.332 185.664L237.099 268.998C237.24 268.888 237.354 268.746 237.432 268.585C237.51 268.423 237.55 268.246 237.548 268.066L236.65 185.664H233.332Z" fill="white" stroke="#263238" stroke-linecap="round" stroke-linejoin="round"/>
<path d="M127.673 186.562L121.553 268.162C121.533 268.461 121.399 268.742 121.179 268.946C120.959 269.151 120.67 269.264 120.37 269.263C120.213 269.266 120.056 269.238 119.91 269.179C119.764 269.121 119.63 269.035 119.518 268.925C119.405 268.815 119.316 268.683 119.254 268.538C119.193 268.393 119.161 268.238 119.16 268.08L120.064 186.344L127.673 186.562Z" fill="#263238" stroke="#263238" stroke-linecap="round" stroke-linejoin="round"/>
<path d="M89.2399 186.562L83.1199 268.162C83.0992 268.461 82.9655 268.742 82.7458 268.946C82.5261 269.151 82.2369 269.264 81.9367 269.263C81.7798 269.262 81.6247 269.231 81.4802 269.17C81.3357 269.108 81.2048 269.019 81.0948 268.908C80.9848 268.796 80.8981 268.663 80.8395 268.518C80.7809 268.372 80.7517 268.217 80.7535 268.06L81.6579 186.324L89.2399 186.562Z" fill="#263238" stroke="#263238" stroke-linecap="round" stroke-linejoin="round"/>
<path d="M238.901 173.479H79.3525V186.331H238.901V173.479Z" fill="#919191" stroke="#263238" stroke-linecap="round" stroke-linejoin="round"/>
<path d="M238.901 173.479H193.178V186.331H238.901V173.479Z" fill="white" stroke="#263238" stroke-linecap="round" stroke-linejoin="round"/>
<path d="M238.901 175.519H79.3525V179.061H238.901V175.519Z" fill="#263238" stroke="#263238" stroke-linecap="round" stroke-linejoin="round"/>
<path d="M241.199 171.636H77.0542V175.933H241.199V171.636Z" fill="#919191" stroke="#263238" stroke-linecap="round" stroke-linejoin="round"/>
<path d="M241.192 171.636H196.115V175.933H241.192V171.636Z" fill="white" stroke="#263238" stroke-linecap="round" stroke-linejoin="round"/>
<path d="M192.797 91.96H170.643C169.489 91.96 168.382 92.4185 167.566 93.2346C166.75 94.0508 166.291 95.1577 166.291 96.312V104.472C166.29 105.044 166.402 105.61 166.62 106.138C166.839 106.667 167.159 107.147 167.564 107.551C167.968 107.956 168.448 108.276 168.977 108.494C169.505 108.713 170.071 108.825 170.643 108.824H182.244L177.899 120.962L186.222 108.824H192.797C193.369 108.825 193.936 108.713 194.464 108.494C194.992 108.276 195.472 107.956 195.877 107.551C196.281 107.147 196.602 106.667 196.82 106.138C197.038 105.61 197.15 105.044 197.149 104.472V96.312C197.149 95.1577 196.691 94.0508 195.875 93.2346C195.059 92.4185 193.952 91.96 192.797 91.96Z" fill="white" stroke="#263238" stroke-linecap="round" stroke-linejoin="round"/>
<path d="M175.784 102.248C176.659 102.248 177.368 101.539 177.368 100.664C177.368 99.7889 176.659 99.0796 175.784 99.0796C174.909 99.0796 174.199 99.7889 174.199 100.664C174.199 101.539 174.909 102.248 175.784 102.248Z" fill="#263238"/>
<path d="M181.72 102.248C182.595 102.248 183.305 101.539 183.305 100.664C183.305 99.7889 182.595 99.0796 181.72 99.0796C180.845 99.0796 180.136 99.7889 180.136 100.664C180.136 101.539 180.845 102.248 181.72 102.248Z" fill="#263238"/>
<path d="M189.234 100.664C189.234 100.35 189.141 100.044 188.967 99.783C188.792 99.5223 188.544 99.3193 188.255 99.1995C187.965 99.0798 187.646 99.0488 187.338 99.1105C187.031 99.1722 186.748 99.3238 186.527 99.5461C186.306 99.7683 186.155 100.051 186.095 100.359C186.035 100.667 186.067 100.986 186.188 101.275C186.309 101.564 186.513 101.811 186.775 101.985C187.036 102.158 187.343 102.25 187.657 102.248C187.864 102.248 188.07 102.207 188.262 102.128C188.454 102.048 188.628 101.931 188.775 101.784C188.921 101.637 189.037 101.462 189.116 101.27C189.195 101.078 189.235 100.872 189.234 100.664Z" fill="#263238"/>
<path d="M298 269.44H316.36" stroke="#263238" stroke-linecap="round" stroke-linejoin="round"/>
<path d="M8.31982 269.44H288.48" stroke="#263238" stroke-linecap="round" stroke-linejoin="round"/>
<path d="M116.195 149.271C114.203 145.871 108.341 132.781 108.341 132.781C108.518 131.382 108.805 130 109.198 128.646C109.681 127.286 110.898 123.165 110.653 122.309C110.409 121.452 106.879 119.874 106.519 119.752C106.159 119.629 107.002 117.562 105.662 117.073C104.323 116.583 103.84 117.317 103.84 117.317L103.33 120.717L101.766 123.165C101.115 122.67 100.433 122.216 99.7258 121.805C98.631 121.193 96.0742 120.949 95.9518 121.928C95.8294 122.907 97.9918 123.75 98.7466 124.362C99.5014 124.974 100.453 127.891 101.31 128.748C102.089 129.598 102.82 130.49 103.5 131.421L103.989 133.005C103.989 133.005 105.655 149.046 105.853 153.038C106.05 157.029 106.648 167.59 107.845 169.181C109.042 170.772 109.246 171.779 112.605 170.582C115.964 169.385 116.59 167.787 117.365 164.197C118.14 160.606 118.188 152.657 116.195 149.271Z" fill="white" stroke="#263238" stroke-linecap="round" stroke-linejoin="round"/>
<path d="M117.392 164.217C118.188 160.633 118.188 152.657 116.195 149.257C115.978 148.883 115.712 148.4 115.413 147.829C110.905 146.516 106.621 148.658 106.621 148.658L105.533 149.134C105.676 150.8 105.784 152.194 105.825 153.044C106.029 157.029 106.621 167.596 107.818 169.188C109.014 170.779 109.218 171.785 112.578 170.588C115.937 169.392 116.59 167.807 117.392 164.217Z" fill="#CBCBCB" stroke="#263238" stroke-linecap="round" stroke-linejoin="round"/>
<path d="M101.657 95.3601C102.148 97.1639 102.422 99.0198 102.473 100.889C102.473 103.547 101.657 105.186 102.888 106.002C104.119 106.818 105.139 106.825 104.928 108.464C104.847 109.368 104.488 110.226 103.901 110.919C103.901 110.919 103.493 119.31 103.085 120.133C102.677 120.955 97.3526 119.929 96.1218 119.718C94.891 119.507 91.4162 121.153 89.1586 116.651C86.901 112.149 88.7506 105.39 92.8442 101.909C95.6599 99.5663 98.6019 97.3802 101.657 95.3601Z" fill="white" stroke="#263238" stroke-linecap="round" stroke-linejoin="round"/>
<path d="M102.473 100.855C102.473 100.855 101.365 100.025 100.78 101.48" stroke="#263238" stroke-linecap="round" stroke-linejoin="round"/>
<path d="M101.48 104.241C101.321 105.065 101.372 105.917 101.63 106.716" stroke="#263238" stroke-linecap="round" stroke-linejoin="round"/>
<path d="M103.52 113.856C103.338 113.914 103.146 113.934 102.957 113.913C102.767 113.892 102.584 113.832 102.419 113.736C102.254 113.64 102.111 113.51 102 113.355C101.889 113.2 101.811 113.023 101.772 112.836" stroke="#263238" stroke-linecap="round" stroke-linejoin="round"/>
<path d="M105.839 152.344C105.839 152.344 105.159 155.458 104.554 157.104C103.949 158.75 93.0958 161.769 88.3698 162.394C85.2566 162.783 82.1232 162.99 78.9858 163.013L79.285 171.622C79.285 171.622 88.4378 171.806 89.0838 171.622C89.7298 171.438 105.139 164.55 105.139 164.55L111.789 163.68C111.789 163.68 114.584 163 114.693 160.83C114.801 158.661 112.333 152.494 111.211 151.535C110.089 150.576 107.723 148.033 106.301 149.597C104.88 151.161 105.839 152.344 105.839 152.344Z" fill="white" stroke="#263238" stroke-linecap="round" stroke-linejoin="round"/>
<path d="M85.4321 167.8C85.4321 164.081 86.3841 163.986 87.4721 162.51C84.6607 162.824 81.8349 162.992 79.0061 163.013L78.7817 170.915C78.7817 170.915 83.7933 171.377 86.8465 171.595C86.5949 171.982 85.4321 170.194 85.4321 167.8Z" fill="#CBCBCB" stroke="#263238" stroke-linecap="round" stroke-linejoin="round"/>
<path d="M114.985 184.528C111.364 180.46 106.761 177.386 101.616 175.6L89.675 180.693C88.7477 178.417 87.5171 176.276 86.0166 174.328L83.7862 171.608L85.221 163.809C85.221 163.809 93.8162 157.92 94.9246 155.37L94.9654 155.288C96.6926 157.961 104.186 169.528 105.594 170.65C107.185 171.928 111.959 172.084 114.026 170.174C116.093 168.263 117.052 166.991 116.576 164.128C116.576 164.128 113.393 157.281 111.639 154.255C109.885 151.229 106.07 140.41 104.159 137.064C102.799 134.671 102.235 132.984 101.269 131.856C100.599 130.701 99.8076 129.62 98.9094 128.632C96.9986 126.592 91.7422 126.082 90.627 125.606C89.5118 125.13 89.3554 124.967 82.9906 123.063C76.6258 121.159 69.4586 120.037 64.3654 124.015C64.3654 124.015 57.5246 132.134 54.8454 145.503C52.1662 158.872 51.9758 172.404 51.663 174.791C51.3502 177.178 48.637 188.799 47.8414 195.483C47.0458 202.168 54.0226 208.879 58.3202 210.96C62.6178 213.041 81.0798 213.347 91.9054 210.96C102.731 208.573 119.921 197.748 119.921 197.748C119.921 197.748 120.554 191.056 114.985 184.528Z" fill="#CBCBCB" stroke="#263238" stroke-linecap="round" stroke-linejoin="round"/>
<path d="M86.8395 155.119L84.6567 155.044" stroke="#263238" stroke-linecap="round" stroke-linejoin="round"/>
<path d="M86.0166 151.644C89.0743 152.674 92.0517 153.928 94.9246 155.397L89.3214 155.207" stroke="#263238" stroke-linecap="round" stroke-linejoin="round"/>
<path d="M115.59 155.662C116.218 156.649 116.605 157.769 116.719 158.933C116.719 160.436 116.971 162.449 116.345 161.823C115.719 161.198 115.461 159.056 115.461 159.056L115.59 155.662Z" fill="white" stroke="#263238" stroke-linecap="round" stroke-linejoin="round"/>
<path d="M111.823 153.908C111.823 153.908 114.176 152.63 115.223 154.167C116.27 155.703 115.991 158.77 115.223 160.287C114.454 161.803 113.577 160.355 113.686 159.008C113.795 157.662 111.823 153.908 111.823 153.908Z" fill="white" stroke="#263238" stroke-linecap="round" stroke-linejoin="round"/>
<path d="M110.939 152.276C110.939 152.276 113.299 150.998 114.339 152.534C115.379 154.071 115.101 157.131 114.339 158.654C113.577 160.178 112.693 158.722 112.802 157.376C112.911 156.03 110.939 152.276 110.939 152.276Z" fill="white" stroke="#263238" stroke-linecap="round" stroke-linejoin="round"/>
<path d="M109.857 150.515C109.857 150.515 112.217 149.236 113.257 150.773C114.298 152.31 114.026 155.377 113.257 156.893C112.489 158.41 111.612 156.961 111.721 155.615C111.829 154.268 109.857 150.515 109.857 150.515Z" fill="white" stroke="#263238" stroke-linecap="round" stroke-linejoin="round"/>
<path d="M103.887 88.9749C103.926 91.4187 103.296 93.8267 102.065 95.9381C98.5831 101.262 95.3123 100.644 93.9047 104.948C92.4971 109.253 90.3959 113.72 92.6399 116.209C94.8839 118.698 96.7199 117.229 96.7199 117.229C96.7199 117.229 98.1547 120.915 94.4691 124.6C90.7835 128.286 84.4391 126.851 82.8003 126.239C81.7683 125.841 80.8029 125.289 79.9375 124.6C79.9375 124.6 78.9107 127.47 73.8175 127.47C68.7243 127.47 62.9375 123.988 62.9375 117.637C62.9375 111.286 66.4123 106.995 67.2351 104.533C68.0579 102.072 65.8003 94.5033 69.2751 89.7977C72.7499 85.0921 78.1151 81.6377 82.1951 81.6377C86.2751 81.6377 94.2379 83.8749 94.2719 83.8885C94.8091 84.1809 98.2499 82.7801 99.1815 82.8413C102.602 83.0317 103.846 85.8401 103.887 88.9749Z" fill="#263238" stroke="#263238" stroke-linecap="round" stroke-linejoin="round"/>
<path d="M90.6001 118.099C91.3425 118.198 92.0948 118.198 92.8373 118.099" stroke="#919191" stroke-linecap="round" stroke-linejoin="round"/>
<path d="M100.936 92.5449C100.613 94.3677 99.9414 96.111 98.9574 97.6789C95.775 102.677 92.1574 104.479 87.8258 109.239C85.0446 112.319 85.5682 115.393 87.8258 117.005" stroke="#919191" stroke-linecap="round" stroke-linejoin="round"/>
<path d="M100.997 87.2341C101.13 87.9839 101.196 88.7439 101.194 89.5053" stroke="#919191" stroke-linecap="round" stroke-linejoin="round"/>
<path d="M96.72 92.001C96.72 92.001 96.04 99.039 93.0888 103.126C90.1376 107.213 84.2488 109.246 84.4596 113.571" stroke="#919191" stroke-linecap="round" stroke-linejoin="round"/>
<path d="M124.124 209.811C124.124 209.811 128.367 231.612 131.998 242.206C135.629 252.8 139.261 262.49 140.158 263.402C141.056 264.313 143.49 267.638 143.49 267.638C142.365 268.537 140.99 269.066 139.553 269.154C137.431 269.154 134.711 266.434 132.284 264.911C129.856 263.388 129.564 262.49 124.715 260.675C119.867 258.859 123.811 254.018 125.021 251.59C125.721 250.28 126.134 248.836 126.232 247.354C124.307 240.535 120.896 234.228 116.243 228.885C108.688 220.412 107.171 200.76 107.171 200.76L121.703 195.32L124.124 209.811Z" fill="white" stroke="#263238" stroke-linecap="round" stroke-linejoin="round"/>
<path d="M139.56 262.314L138.683 262.491C138.683 262.491 133.535 255.527 129.605 253.107C128.265 252.182 126.689 251.658 125.063 251.597C123.845 254.018 119.915 258.859 124.757 260.675C129.598 262.491 129.904 263.395 132.325 264.911C134.746 266.428 137.473 269.155 139.594 269.155C141.031 269.066 142.406 268.537 143.531 267.638C143.531 267.638 141.104 264.306 140.199 263.402C139.942 263.067 139.727 262.702 139.56 262.314Z" fill="#CBCBCB" stroke="#263238" stroke-linecap="round" stroke-linejoin="round"/>
<path d="M137.119 268.291C134.725 266.639 132.563 262.967 128.666 260.675C125.124 258.594 123.301 258.513 122.546 258.669C122.731 259.155 123.029 259.59 123.414 259.938C123.799 260.287 124.262 260.539 124.763 260.675C129.612 262.491 129.911 263.395 132.332 264.911C133.862 265.891 135.548 267.4 137.119 268.291Z" fill="#CBCBCB" stroke="#263238" stroke-linecap="round" stroke-linejoin="round"/>
<path d="M139.56 269.155C139.405 269.149 139.251 269.133 139.098 269.107C139.25 269.136 139.405 269.152 139.56 269.155Z" fill="#CBCBCB" stroke="#263238" stroke-linecap="round" stroke-linejoin="round"/>
<path d="M97.1414 176.96C97.1414 176.96 111.693 171.806 113.053 175.206C114.413 178.606 120.642 191.288 118.371 196.497C116.1 201.705 100.133 181.537 97.8622 181.101C95.591 180.666 96.8762 178.483 97.1414 176.96Z" fill="white" stroke="#263238" stroke-linecap="round" stroke-linejoin="round"/>
<path d="M111.401 183.604C111.401 183.604 127.946 182.244 131.121 185.195C134.297 188.146 123.417 223.499 117.521 234.604C108.28 251.971 111.075 256.52 111.075 256.52C111.075 256.52 111.755 259.24 116.29 263.551C120.826 267.862 122.186 268.536 120.595 269.216C119.004 269.896 112.21 269.216 111.53 268.76C110.85 268.304 105.866 264.231 101.33 262.871C96.7947 261.511 97.4747 260.6 99.5147 256.52C101.555 252.44 101.33 255.84 103.595 248.816C106.309 240.159 108.453 231.334 110.014 222.398C111.218 215.115 113.054 207.118 112.537 199.713L111.401 183.604Z" fill="white" stroke="#263238" stroke-linecap="round" stroke-linejoin="round"/>
<path d="M123.519 194.674C121.787 190.494 118.806 186.951 114.985 184.529C107.75 179.911 101.616 175.6 101.616 175.6L89.6754 180.693C89.6754 180.693 92.5858 185.63 77.6258 188.126C66.1066 190.043 55.5326 187.262 49.8274 183.91C49.0318 187.861 48.2022 192.253 47.7874 195.47C46.9918 202.154 53.9958 208.839 58.2934 210.913C62.591 212.987 97.2166 217.277 106.539 211.287C123.519 200.427 123.519 194.674 123.519 194.674Z" fill="#263238" stroke="#263238" stroke-linecap="round" stroke-linejoin="round"/>
<path d="M88.3221 184.44C86.7241 185.752 83.6097 187.16 77.6257 188.132C66.1065 190.05 55.5325 187.269 49.8273 183.917C49.6233 184.93 49.4193 185.956 49.2153 187.01C53.1253 189.363 61.3397 193.348 70.6013 192.212C81.6513 190.859 86.5609 187.84 88.3221 184.44Z" fill="#CBCBCB" stroke="#263238" stroke-linecap="round" stroke-linejoin="round"/>
<path d="M79.4957 199.006C78.9653 199.686 78.4145 200.366 77.8569 201.046" stroke="white" stroke-linecap="round" stroke-linejoin="round"/>
<path d="M87.8254 186.099C85.7327 189.947 83.3978 193.658 80.835 197.211" stroke="white" stroke-linecap="round" stroke-linejoin="round"/>
<path d="M82.8414 190.404C82.8414 190.404 78.7614 195.844 74.457 199.019" stroke="white" stroke-linecap="round" stroke-linejoin="round"/>
<path d="M116.29 263.538C111.755 259.24 111.075 256.52 111.075 256.52C110.923 256.379 110.802 256.208 110.721 256.017C110.415 256.337 109.49 256.942 107.226 256.071C105.261 255.317 103.398 254.031 101.432 253.168C100.963 254.004 100.508 254.528 99.5147 256.52C97.4747 260.6 96.7947 261.511 101.33 262.871C105.866 264.231 110.85 268.311 111.53 268.76C112.21 269.209 119.01 269.896 120.595 269.216C122.179 268.536 120.826 267.842 116.29 263.538Z" fill="#CBCBCB" stroke="#263238" stroke-linecap="round" stroke-linejoin="round"/>
<path d="M120.466 196.979L128.177 192.219" stroke="#263238" stroke-linecap="round" stroke-linejoin="round"/>
<path d="M28.3462 153.881C28.3462 153.881 52.9078 150.807 68.6022 155.241L70.989 214.952H34.1602C34.1602 214.952 36.5334 182.876 28.3462 153.881Z" fill="#919191" stroke="#263238" stroke-linecap="round" stroke-linejoin="round"/>
<path d="M68.6022 155.241C52.9078 150.807 28.3462 153.881 28.3462 153.881C30.9746 163.545 32.7203 173.427 33.5618 183.407C47.2766 190.255 59.8379 199.202 70.7918 209.927L68.6022 155.241Z" fill="#757575" stroke="#263238" stroke-linecap="round" stroke-linejoin="round"/>
<path d="M114.917 270.8C114.639 270.801 114.367 270.717 114.139 270.559C113.91 270.401 113.736 270.177 113.638 269.916C108.198 255.255 106.838 217.196 106.757 215.584C106.744 215.224 106.875 214.873 107.121 214.609C107.367 214.345 107.708 214.189 108.069 214.177C108.43 214.164 108.781 214.295 109.045 214.541C109.309 214.787 109.464 215.128 109.477 215.489C109.477 215.883 110.891 254.718 116.188 268.964C116.314 269.302 116.299 269.676 116.149 270.004C115.998 270.332 115.724 270.586 115.386 270.712C115.237 270.771 115.077 270.801 114.917 270.8Z" fill="white" stroke="#263238" stroke-linecap="round" stroke-linejoin="round"/>
<path d="M85.3029 270.8C85.0262 270.8 84.7562 270.715 84.529 270.557C84.3018 270.399 84.1282 270.175 84.0313 269.916C78.5913 255.255 77.2313 217.196 77.1429 215.584C77.1303 215.224 77.2615 214.873 77.5076 214.609C77.7537 214.345 78.0946 214.189 78.4553 214.177C78.816 214.164 79.167 214.295 79.4309 214.541C79.6949 214.787 79.8503 215.128 79.8629 215.489C79.8629 215.883 81.2773 254.718 86.5813 268.964C86.7066 269.302 86.6925 269.676 86.542 270.004C86.3915 270.332 86.117 270.586 85.7789 270.712C85.6273 270.771 85.4658 270.801 85.3029 270.8Z" fill="white" stroke="#263238" stroke-linecap="round" stroke-linejoin="round"/>
<path d="M114.55 214.925H33.5142V212.205H111.843C112.565 212.205 113.257 212.491 113.767 213.001C114.277 213.511 114.563 214.203 114.563 214.925H114.55Z" fill="#919191" stroke="#263238" stroke-linecap="round" stroke-linejoin="round"/>
<path d="M114.543 214.265H33.5142V216.964H114.543V214.265Z" fill="white" stroke="#263238" stroke-linecap="round" stroke-linejoin="round"/>
<path d="M67.9969 270.8C67.7922 270.804 67.5892 270.763 67.4029 270.677C67.2167 270.592 67.0521 270.466 66.9214 270.309C66.7906 270.151 66.6971 269.966 66.6479 269.768C66.5986 269.569 66.5948 269.362 66.6369 269.161C74.3276 232.727 67.3169 156.111 67.2217 155.343C67.2051 155.164 67.224 154.984 67.277 154.813C67.3301 154.642 67.4164 154.482 67.531 154.344C67.6456 154.206 67.7863 154.092 67.945 154.009C68.1037 153.925 68.2773 153.874 68.4559 153.857C68.8165 153.824 69.1757 153.935 69.4544 154.167C69.733 154.398 69.9083 154.731 69.9417 155.091C70.0165 155.867 77.0816 232.883 69.3093 269.719C69.2459 270.021 69.0814 270.293 68.8429 270.49C68.6043 270.686 68.3059 270.796 67.9969 270.8Z" fill="white" stroke="#263238" stroke-linecap="round" stroke-linejoin="round"/>
<path d="M25.8368 269.807C25.7101 269.809 25.5839 269.79 25.4628 269.753C25.1171 269.655 24.8243 269.424 24.6485 269.11C24.4727 268.797 24.428 268.426 24.5244 268.08C42.2044 205.316 27.1968 154.779 27.0472 154.275C26.9615 153.937 27.0092 153.579 27.1805 153.274C27.3518 152.97 27.6335 152.743 27.9673 152.641C28.3011 152.539 28.6615 152.569 28.9737 152.725C29.286 152.881 29.5263 153.151 29.6448 153.48C29.8012 153.99 45.0672 205.248 27.1424 268.815C27.0625 269.1 26.8917 269.351 26.6561 269.53C26.4205 269.709 26.1328 269.807 25.8368 269.807Z" fill="white" stroke="#263238" stroke-linecap="round" stroke-linejoin="round"/>
<path d="M274.458 157.682C274.458 157.682 266.101 153.038 265.482 163.564C264.863 174.091 263.32 242.505 263.32 242.505" stroke="#263238" stroke-width="2" stroke-linecap="round" stroke-linejoin="round"/>
<path d="M261.144 164.489C261.144 164.489 267.944 179.66 264.864 241.58" stroke="#263238" stroke-width="2" stroke-linecap="round" stroke-linejoin="round"/>
<path d="M267.842 159.804C267.842 159.804 264.639 161.844 262.823 159.505C261.008 157.165 264.054 152.868 261.368 151.032C258.682 149.196 254.038 151.997 254.038 151.997C254.038 151.997 257.608 153.045 257.492 154.996C257.377 156.948 255.656 157.682 255.452 156.832C255.248 155.982 253.514 151.685 250.617 153.473C249.78 153.966 249.052 154.624 248.477 155.408C247.902 156.191 247.492 157.083 247.272 158.029C247.272 158.029 254.024 157.308 254.432 159.845C254.84 162.381 251.665 159.403 248.877 159.239C246.089 159.076 243.545 159.484 243.729 161.171C243.791 162.663 243.702 164.157 243.464 165.631C244.99 164.364 246.92 163.683 248.904 163.714C251.971 163.897 251.855 165.849 249.067 165.686C246.279 165.523 243.885 168.175 243.885 168.175C243.885 168.175 246.429 172.52 249.659 174.669C252.889 176.817 254.051 176.029 254.419 174.39C254.786 172.751 253.929 168.487 255.881 168.603C257.832 168.719 252.651 175.961 255.139 176.389C257.628 176.817 259.634 176.097 260.287 174.458L260.967 172.819C260.967 172.819 260.097 168.569 260.477 166.917C260.858 165.264 261.314 166.964 261.756 168.957C262.198 170.949 262.477 175.709 263.327 175.478C264.177 175.247 266.903 171.779 267.543 170.412C268.182 169.045 263.952 164.89 264 164.054C264.047 163.217 267.311 164.809 267.821 165.679C268.192 166.34 268.526 167.021 268.821 167.719C268.821 167.719 270.861 166.441 270.807 162.524C270.752 158.607 267.842 159.804 267.842 159.804Z" fill="#CBCBCB"/>
<path opacity="0.3" d="M267.842 159.804C267.842 159.804 264.639 161.844 262.823 159.505C261.008 157.165 264.054 152.868 261.368 151.032C258.682 149.196 254.038 151.997 254.038 151.997C254.038 151.997 257.608 153.045 257.492 154.996C257.377 156.948 255.656 157.682 255.452 156.832C255.248 155.982 253.514 151.685 250.617 153.473C249.78 153.966 249.052 154.624 248.477 155.408C247.902 156.191 247.492 157.083 247.272 158.029C247.272 158.029 254.024 157.308 254.432 159.845C254.84 162.381 251.665 159.403 248.877 159.239C246.089 159.076 243.545 159.484 243.729 161.171C243.791 162.663 243.702 164.157 243.464 165.631C244.99 164.364 246.92 163.683 248.904 163.714C251.971 163.897 251.855 165.849 249.067 165.686C246.279 165.523 243.885 168.175 243.885 168.175C243.885 168.175 246.429 172.52 249.659 174.669C252.889 176.817 254.051 176.029 254.419 174.39C254.786 172.751 253.929 168.487 255.881 168.603C257.832 168.719 252.651 175.961 255.139 176.389C257.628 176.817 259.634 176.097 260.287 174.458L260.967 172.819C260.967 172.819 260.097 168.569 260.477 166.917C260.858 165.264 261.314 166.964 261.756 168.957C262.198 170.949 262.477 175.709 263.327 175.478C264.177 175.247 266.903 171.779 267.543 170.412C268.182 169.045 263.952 164.89 264 164.054C264.047 163.217 267.311 164.809 267.821 165.679C268.192 166.34 268.526 167.021 268.821 167.719C268.821 167.719 270.861 166.441 270.807 162.524C270.752 158.607 267.842 159.804 267.842 159.804Z" fill="#263238"/>
<path d="M251.631 168.99C253.718 166.413 256.785 162.925 259.362 161.259" stroke="#263238" stroke-linecap="round" stroke-linejoin="round"/>
<path d="M249.217 172.125C249.217 172.125 249.747 171.384 250.618 170.269" stroke="#263238" stroke-linecap="round" stroke-linejoin="round"/>
<path d="M260.722 161.898C260.722 161.898 263.823 166.277 264.394 170.786" stroke="#263238" stroke-linecap="round" stroke-linejoin="round"/>
<path d="M257.2 164.489C257.2 164.489 258.071 163.979 257.744 169.555" stroke="#263238" stroke-linecap="round" stroke-linejoin="round"/>
<path d="M259.478 159.28C259.478 159.28 261.253 157.709 260.314 154.574" stroke="#263238" stroke-linecap="round" stroke-linejoin="round"/>
<path d="M257.085 161.966L255.82 159.654" stroke="#263238" stroke-linecap="round" stroke-linejoin="round"/>
<path d="M254.426 164.326C254.426 164.326 250.413 161.293 247.904 161.143" stroke="#263238" stroke-linecap="round" stroke-linejoin="round"/>
<path d="M279.239 151.542C279.239 151.542 279.109 156.138 275.519 156.363C271.929 156.587 269.712 150.603 266.04 152.045C262.368 153.486 262.014 160.042 262.014 160.042C262.014 160.042 265.496 157.179 267.373 158.62C269.249 160.062 268.814 162.292 267.801 161.939C266.788 161.585 261.334 160.368 261.144 164.489C261.068 165.664 261.23 166.842 261.622 167.952C262.013 169.062 262.626 170.082 263.422 170.949C263.422 170.949 267.305 163.693 270.133 165.012C272.962 166.332 267.801 167.488 265.734 170.167C263.667 172.846 262.334 175.668 264.163 176.64C265.699 177.592 267.135 178.697 268.447 179.938C268.447 179.938 267.957 176.144 270.229 173.2C272.5 170.255 274.37 171.697 272.309 174.376C270.249 177.055 271.269 181.264 271.269 181.264C271.269 181.264 277.348 181.679 281.7 179.904C286.052 178.13 286.079 176.443 284.679 174.94C283.278 173.438 278.436 171.411 279.878 169.5C281.319 167.59 285.046 177.749 287.174 175.546C289.303 173.342 289.942 170.847 288.745 169.072L287.548 167.304C287.548 167.304 282.707 165.264 281.306 163.768C279.905 162.272 281.925 162.966 284.216 163.877C286.508 164.788 291.465 167.76 291.819 166.746C292.172 165.733 290.547 160.626 289.622 159.076C288.697 157.526 281.639 158.906 280.837 158.287C280.034 157.668 283.849 155.486 285.066 155.567C285.979 155.643 286.887 155.768 287.786 155.941C287.786 155.941 287.895 153.031 283.937 150.413C279.98 147.795 279.239 151.542 279.239 151.542Z" fill="#CBCBCB"/>
<path opacity="0.2" d="M279.239 151.542C279.239 151.542 279.109 156.138 275.519 156.363C271.929 156.587 269.712 150.603 266.04 152.045C262.368 153.486 262.014 160.042 262.014 160.042C262.014 160.042 265.496 157.179 267.373 158.62C269.249 160.062 268.814 162.292 267.801 161.939C266.788 161.585 261.334 160.368 261.144 164.489C261.068 165.664 261.23 166.842 261.622 167.952C262.013 169.062 262.626 170.082 263.422 170.949C263.422 170.949 267.305 163.693 270.133 165.012C272.962 166.332 267.801 167.488 265.734 170.167C263.667 172.846 262.334 175.668 264.163 176.64C265.699 177.592 267.135 178.697 268.447 179.938C268.447 179.938 267.957 176.144 270.229 173.2C272.5 170.255 274.37 171.697 272.309 174.376C270.249 177.055 271.269 181.264 271.269 181.264C271.269 181.264 277.348 181.679 281.7 179.904C286.052 178.13 286.079 176.443 284.679 174.94C283.278 173.438 278.436 171.411 279.878 169.5C281.319 167.59 285.046 177.749 287.174 175.546C289.303 173.342 289.942 170.847 288.745 169.072L287.548 167.304C287.548 167.304 282.707 165.264 281.306 163.768C279.905 162.272 281.925 162.966 284.216 163.877C286.508 164.788 291.465 167.76 291.819 166.746C292.172 165.733 290.547 160.626 289.622 159.076C288.697 157.526 281.639 158.906 280.837 158.287C280.034 157.668 283.849 155.486 285.066 155.567C285.979 155.643 286.887 155.768 287.786 155.941C287.786 155.941 287.895 153.031 283.937 150.413C279.98 147.795 279.239 151.542 279.239 151.542Z" fill="#263238"/>
<path d="M277.389 174.029C276.24 170.16 274.825 164.72 274.921 161.021" stroke="#263238" stroke-linecap="round" stroke-linejoin="round"/>
<path d="M278.879 178.592C278.879 178.592 278.498 177.545 277.974 175.92" stroke="#263238" stroke-linecap="round" stroke-linejoin="round"/>
<path d="M276.485 160.096C276.485 160.096 282.979 159.974 287.882 162.476" stroke="#263238" stroke-linecap="round" stroke-linejoin="round"/>
<path d="M276.689 165.4C276.689 165.4 276.771 164.183 282.129 168.311" stroke="#263238" stroke-linecap="round" stroke-linejoin="round"/>
<path d="M273.044 159.572C273.044 159.572 272.677 156.73 268.903 155.533" stroke="#263238" stroke-linecap="round" stroke-linejoin="round"/>
<path d="M274.071 163.782L270.895 163.469" stroke="#263238" stroke-linecap="round" stroke-linejoin="round"/>
<path d="M274.622 168.052C274.622 168.052 268.849 170.004 266.992 172.418" stroke="#263238" stroke-linecap="round" stroke-linejoin="round"/>
<path d="M240.717 182.142C240.717 182.142 258.982 194.212 258.676 240.962" stroke="#263238" stroke-width="2" stroke-linecap="round" stroke-linejoin="round"/>
<path d="M263.239 178.953C263.239 178.953 262.654 184.243 258.479 184.161C254.303 184.08 252.359 176.967 247.952 178.286C243.546 179.605 242.546 187.126 242.546 187.126C242.546 187.126 246.844 184.148 248.87 185.997C250.897 187.847 250.183 190.37 249.047 189.867C247.911 189.363 241.73 187.439 241.125 192.179C240.928 193.528 241.008 194.902 241.358 196.22C241.709 197.537 242.324 198.77 243.165 199.842C243.165 199.842 248.333 191.839 251.468 193.634C254.603 195.429 248.544 196.265 245.905 199.162C243.267 202.059 241.478 205.187 243.478 206.479C245.163 207.723 246.717 209.135 248.115 210.695C248.115 210.695 247.905 206.275 250.801 203.086C253.698 199.897 255.731 201.726 253.093 204.643C250.455 207.56 251.243 212.49 251.243 212.49C251.243 212.49 258.227 213.544 263.415 211.912C268.604 210.28 268.787 208.335 267.312 206.472C265.836 204.609 260.444 201.807 262.287 199.781C264.129 197.755 267.468 209.791 270.134 207.445C272.799 205.099 273.765 202.29 272.555 200.128L271.344 197.965C271.344 197.965 265.952 195.171 264.476 193.301C263.001 191.431 265.265 192.437 267.822 193.702C270.379 194.967 275.825 198.863 276.322 197.734C276.818 196.605 275.431 190.567 274.513 188.67C273.595 186.773 265.319 187.718 264.449 186.929C263.579 186.14 268.196 183.985 269.59 184.209C270.628 184.382 271.656 184.609 272.67 184.889C272.67 184.889 273.065 181.543 268.747 178.143C264.429 174.743 263.239 178.953 263.239 178.953Z" fill="#CBCBCB"/>
<path opacity="0.3" d="M263.239 178.953C263.239 178.953 262.654 184.243 258.479 184.161C254.303 184.08 252.359 176.967 247.952 178.286C243.546 179.605 242.546 187.126 242.546 187.126C242.546 187.126 246.844 184.148 248.87 185.997C250.897 187.847 250.183 190.37 249.047 189.867C247.911 189.363 241.73 187.439 241.125 192.179C240.928 193.528 241.008 194.902 241.358 196.22C241.709 197.537 242.324 198.77 243.165 199.842C243.165 199.842 248.333 191.839 251.468 193.634C254.603 195.429 248.544 196.265 245.905 199.162C243.267 202.059 241.478 205.187 243.478 206.479C245.163 207.723 246.717 209.135 248.115 210.695C248.115 210.695 247.905 206.275 250.801 203.086C253.698 199.897 255.731 201.726 253.093 204.643C250.455 207.56 251.243 212.49 251.243 212.49C251.243 212.49 258.227 213.544 263.415 211.912C268.604 210.28 268.787 208.335 267.312 206.472C265.836 204.609 260.444 201.807 262.287 199.781C264.129 197.755 267.468 209.791 270.134 207.445C272.799 205.099 273.765 202.29 272.555 200.128L271.344 197.965C271.344 197.965 265.952 195.171 264.476 193.301C263.001 191.431 265.265 192.437 267.822 193.702C270.379 194.967 275.825 198.863 276.322 197.734C276.818 196.605 275.431 190.567 274.513 188.67C273.595 186.773 265.319 187.718 264.449 186.929C263.579 186.14 268.196 183.985 269.59 184.209C270.628 184.382 271.656 184.609 272.67 184.889C272.67 184.889 273.065 181.543 268.747 178.143C264.429 174.743 263.239 178.953 263.239 178.953Z" fill="#263238"/>
<path d="M258.982 204.725C258.003 200.182 256.908 193.756 257.357 189.479" stroke="#263238" stroke-linecap="round" stroke-linejoin="round"/>
<path d="M260.274 210.13C260.274 210.13 259.934 208.886 259.478 206.962" stroke="#263238" stroke-linecap="round" stroke-linejoin="round"/>
<path d="M259.24 188.561C259.24 188.561 266.72 189.037 272.16 192.382" stroke="#263238" stroke-linecap="round" stroke-linejoin="round"/>
<path d="M258.988 194.64C258.988 194.64 259.199 193.246 264.993 198.516" stroke="#263238" stroke-linecap="round" stroke-linejoin="round"/>
<path d="M255.33 187.636C255.33 187.636 255.173 184.318 250.937 182.577" stroke="#263238" stroke-linecap="round" stroke-linejoin="round"/>
<path d="M256.119 192.587L252.488 191.927" stroke="#263238" stroke-linecap="round" stroke-linejoin="round"/>
<path d="M256.357 197.564C256.357 197.564 249.509 199.278 247.136 201.882" stroke="#263238" stroke-linecap="round" stroke-linejoin="round"/>
<path d="M247.836 218.977C247.836 218.977 259.6 227.953 260.838 241.268L258.363 196.68" stroke="#263238" stroke-width="2" stroke-linecap="round" stroke-linejoin="round"/>
<path d="M276.315 212.477C260.838 209.689 260.838 241.268 260.838 241.268" stroke="#263238" stroke-width="2" stroke-linecap="round" stroke-linejoin="round"/>
<path d="M262.694 240.962C262.694 240.962 253.718 175.641 279.694 175.641" stroke="#263238" stroke-width="2" stroke-linecap="round" stroke-linejoin="round"/>
<path d="M270.419 210.6C268.305 208.22 263.81 208.22 261.171 214.299C258.533 220.378 260.906 219.324 260.906 219.324C260.906 219.324 265.925 217.733 269.1 216.679C272.276 215.625 276.499 212.98 276.764 214.564C277.029 216.148 274.649 217.733 271.739 218.263C268.828 218.794 261.171 220.908 261.96 222.52C262.749 224.132 264.605 228.864 264.605 228.864C266.863 226.946 269.246 225.181 271.739 223.581C275.179 221.466 277.294 222.255 275.445 224.635C273.595 227.015 268.305 229.653 269.365 232.829C270.426 236.004 276.764 239.962 276.764 239.962C276.764 239.962 277.559 233.359 279.409 231.244C281.259 229.13 281.259 231.51 280.728 235.209C280.463 236.784 280.286 238.374 280.198 239.969L287.596 242.614C288.806 240.772 290.13 239.007 291.561 237.33L292.921 235.97C292.921 235.97 287.107 230.952 286.841 227.81C286.576 224.669 290.806 227.81 292.125 228.341C293.444 228.871 295.559 232.57 295.559 232.57C295.559 232.57 296.885 226.491 297.15 224.376L297.415 222.262C297.415 222.262 291.86 220.147 289.745 220.147C287.63 220.147 286.576 221.731 286.576 219.623C286.576 217.515 288.691 216.182 291.071 216.448C293.224 216.808 295.346 217.337 297.415 218.032C297.415 218.032 299 216.713 298.469 212.748C297.939 208.784 296.62 208.784 293.451 209.838C290.282 210.892 288.161 213.279 285.781 213.279C283.401 213.279 284.727 210.368 286.311 209.58C287.895 208.791 291.86 207.2 292.655 206.934C293.451 206.669 288.426 202.97 285.781 202.44C283.135 201.909 279.715 203.8 279.967 206.404C280.463 211.919 272.534 213 270.419 210.6Z" fill="#CBCBCB"/>
<path d="M287.433 237.813C287.514 238.607 287.569 239.402 287.596 240.2" stroke="#263238" stroke-linecap="round" stroke-linejoin="round"/>
<path d="M282.122 218.841C284.452 224.074 286.13 229.574 287.12 235.216" stroke="#263238" stroke-linecap="round" stroke-linejoin="round"/>
<path d="M281.17 216.72C279.864 213.904 278.878 212.184 278.878 212.184C280.321 211.505 281.52 210.398 282.312 209.015C282.931 207.763 283.837 206.674 284.958 205.84" stroke="#263238" stroke-linecap="round" stroke-linejoin="round"/>
<path d="M269.63 221.16C269.63 221.16 279.15 217.196 279.15 217.984" stroke="#263238" stroke-linecap="round" stroke-linejoin="round"/>
<path d="M284.4 216.148C284.4 216.148 288.63 214.034 292.329 214.034" stroke="#263238" stroke-linecap="round" stroke-linejoin="round"/>
<path d="M282.843 222.52C281.008 224.028 279.325 225.711 277.817 227.545C276.275 229.364 275.027 231.413 274.118 233.618" stroke="#263238" stroke-linecap="round" stroke-linejoin="round"/>
<path d="M285.76 223.554C285.76 223.554 291.316 221.962 294.219 224.608" stroke="#263238" stroke-linecap="round" stroke-linejoin="round"/>
<path d="M295.804 187.84C292.927 186.14 289.745 186.099 288.181 184.304C286.617 182.509 289.684 181.584 291.322 182.264C292.961 182.944 296.762 184.896 297.476 185.317C298.19 185.739 297.701 179.531 296.368 177.157C295.035 174.784 291.384 173.451 289.568 175.369C285.726 179.401 279.728 174.111 280.136 170.956C280.544 167.801 277.6 164.407 271.296 166.393C264.993 168.379 267.332 169.487 267.332 169.487C267.332 169.487 271.82 172.241 274.703 173.941C277.586 175.641 282.346 177.103 281.32 178.341C280.293 179.578 277.539 178.823 275.234 176.981C272.928 175.138 266.312 170.731 265.632 172.37C264.952 174.009 262.572 178.524 262.572 178.524C265.501 178.973 268.398 179.616 271.242 180.449C275.091 181.659 275.88 183.774 272.874 183.937C269.868 184.1 264.401 181.843 262.674 184.719C260.947 187.595 262.137 194.98 262.137 194.98C262.137 194.98 267.645 191.254 270.453 191.261C273.262 191.267 271.466 192.831 268.325 194.858C266.962 195.69 265.648 196.598 264.388 197.578L267.244 204.901C269.428 204.606 271.629 204.447 273.833 204.425L275.696 204.561C275.696 204.561 275.696 196.877 277.899 194.599C280.102 192.321 280.497 197.591 280.966 198.938C281.435 200.284 280.028 204.303 280.028 204.303C280.028 204.303 285.468 201.318 287.249 200.128L289.024 198.945C289.024 198.945 286.984 193.362 285.59 191.771C284.196 190.179 282.319 190.411 283.91 189.051C285.502 187.691 287.895 188.371 289.255 190.37C290.395 192.23 291.384 194.179 292.213 196.197C292.213 196.197 294.253 196.531 296.898 193.532C299.544 190.533 298.68 189.54 295.804 187.84ZM270.8 196.299C268.685 195.239 273.704 193.124 273.704 193.124C275.56 192.865 272.908 197.36 270.8 196.299ZM274.356 186.433C273.459 185.984 276.158 185.073 276.158 185.073C280.062 185.8 275.254 186.881 274.35 186.433H274.356Z" fill="#CBCBCB"/>
<path d="M270.732 201.685C270.188 202.263 269.617 202.827 269.039 203.371" stroke="#263238" stroke-linecap="round" stroke-linejoin="round"/>
<path d="M281.578 185.236C279.149 190.421 276.091 195.288 272.473 199.726" stroke="#263238" stroke-linecap="round" stroke-linejoin="round"/>
<path d="M282.557 183.128C283.829 180.292 284.475 178.422 284.475 178.422C285.936 179.063 287.559 179.244 289.126 178.939C290.475 178.582 291.89 178.552 293.254 178.851" stroke="#263238" stroke-linecap="round" stroke-linejoin="round"/>
<path d="M280.259 182.434C280.857 181.911 271.629 177.327 271.629 177.327" stroke="#263238" stroke-linecap="round" stroke-linejoin="round"/>
<path d="M285.121 185.208C285.121 185.208 289.493 187.017 291.921 189.812" stroke="#263238" stroke-linecap="round" stroke-linejoin="round"/>
<path d="M279.293 188.173C276.953 187.776 274.58 187.608 272.208 187.67C269.821 187.7 267.453 188.101 265.19 188.86" stroke="#263238" stroke-linecap="round" stroke-linejoin="round"/>
<path d="M280.401 191.063C280.401 191.063 285.236 194.212 285.161 198.142" stroke="#263238" stroke-linecap="round" stroke-linejoin="round"/>
<path d="M254.731 224.458C252.419 223.098 249.856 223.064 248.611 221.616C247.367 220.167 249.815 219.44 251.134 219.984C252.453 220.528 255.513 222.105 256.091 222.445C256.669 222.785 256.268 217.781 255.194 215.897C254.119 214.013 251.182 212.919 249.72 214.455C246.626 217.706 241.798 213.442 242.131 210.906C242.464 208.369 240.091 205.636 234.998 207.234C229.905 208.832 231.809 209.723 231.809 209.723C231.809 209.723 235.419 211.939 237.738 213.306C240.057 214.673 243.892 215.856 243.063 216.849C242.233 217.842 240.023 217.243 238.167 215.754C236.31 214.265 230.986 210.722 230.442 212.041C229.898 213.361 227.98 216.992 227.98 216.992C230.337 217.355 232.668 217.873 234.957 218.542C238.051 219.515 238.683 221.215 236.263 221.344C233.842 221.473 229.463 219.657 228.103 221.976C226.743 224.295 227.667 230.238 227.667 230.238C227.667 230.238 232.101 227.233 234.359 227.239C236.616 227.246 235.175 228.504 232.652 230.136C231.555 230.806 230.497 231.537 229.483 232.326L231.775 238.215C233.533 237.979 235.305 237.854 237.079 237.841L238.581 237.943C238.581 237.943 238.581 231.761 240.356 229.925C242.131 228.089 242.444 232.333 242.818 233.421C243.192 234.509 242.063 237.739 242.063 237.739C242.063 237.739 246.456 235.331 247.877 234.379L249.305 233.421C249.305 233.421 247.659 228.933 246.544 227.647C245.429 226.362 243.906 226.559 245.184 225.444C246.463 224.329 248.387 224.914 249.482 226.498C250.4 227.997 251.198 229.566 251.869 231.19C251.869 231.19 253.507 231.455 255.636 229.048C257.764 226.641 257.05 225.832 254.731 224.458ZM234.603 231.258C232.903 230.408 236.943 228.708 236.943 228.708C238.432 228.504 236.303 232.122 234.603 231.265V231.258ZM237.48 223.329C236.752 222.962 238.928 222.241 238.928 222.241C242.063 222.847 238.194 223.69 237.48 223.329Z" fill="#CBCBCB"/>
<path d="M234.563 235.603C234.121 236.066 233.665 236.521 233.203 236.963" stroke="#263238" stroke-linecap="round" stroke-linejoin="round"/>
<path d="M243.287 222.364C241.334 226.537 238.874 230.454 235.963 234.026" stroke="#263238" stroke-linecap="round" stroke-linejoin="round"/>
<path d="M244.076 220.664C245.096 218.386 245.62 216.883 245.62 216.883C246.795 217.397 248.1 217.542 249.36 217.298C250.445 217.01 251.582 216.987 252.678 217.23" stroke="#263238" stroke-linecap="round" stroke-linejoin="round"/>
<path d="M235.277 215.999C235.277 215.999 242.709 219.691 242.226 220.079" stroke="#263238" stroke-linecap="round" stroke-linejoin="round"/>
<path d="M246.136 222.343C246.136 222.343 249.652 223.798 251.576 226.049" stroke="#263238" stroke-linecap="round" stroke-linejoin="round"/>
<path d="M241.444 224.73C239.563 224.411 237.654 224.277 235.746 224.329C233.826 224.347 231.921 224.671 230.102 225.288" stroke="#263238" stroke-linecap="round" stroke-linejoin="round"/>
<path d="M242.342 227.056C242.342 227.056 246.231 229.592 246.157 232.747" stroke="#263238" stroke-linecap="round" stroke-linejoin="round"/>
<path d="M245.293 180.816C245.293 180.816 242.383 182.93 240.533 180.816C238.684 178.701 241.329 174.471 238.684 172.887C236.038 171.302 231.816 174.206 231.816 174.206C231.816 174.206 235.25 175.002 235.25 176.851C235.25 178.701 233.665 179.496 233.4 178.701C233.135 177.905 231.285 173.941 228.64 175.797C227.878 176.31 227.228 176.973 226.729 177.744C226.23 178.515 225.892 179.38 225.736 180.285C225.736 180.285 232.074 179.231 232.604 181.611C233.135 183.991 229.966 181.346 227.321 181.346C224.676 181.346 222.296 181.876 222.561 183.461C222.705 184.867 222.705 186.284 222.561 187.69C223.93 186.409 225.712 185.659 227.586 185.576C230.49 185.576 230.49 187.425 227.851 187.425C225.213 187.425 223.091 190.07 223.091 190.07C223.091 190.07 225.736 194.035 228.905 195.884C232.074 197.734 233.135 196.938 233.4 195.354C233.665 193.77 232.604 189.805 234.454 189.805C236.304 189.805 231.816 196.938 234.189 197.204C236.562 197.469 238.418 196.673 238.949 195.089L239.479 193.504C239.479 193.504 238.418 189.54 238.684 187.956C238.949 186.371 239.479 187.956 240.003 189.805C240.526 191.655 241.064 196.143 241.859 195.884C242.655 195.626 245.028 192.178 245.558 190.859C246.089 189.54 241.859 185.841 241.859 185.045C241.859 184.25 245.028 185.576 245.558 186.364C246.089 187.153 246.612 188.214 246.612 188.214C246.612 188.214 248.462 186.895 248.197 183.196C247.932 179.496 245.293 180.816 245.293 180.816Z" fill="#CBCBCB"/>
<path d="M230.483 190.404C232.312 187.854 235.025 184.386 237.364 182.665" stroke="#263238" stroke-linecap="round" stroke-linejoin="round"/>
<path d="M228.375 193.504C228.375 193.504 228.844 192.77 229.599 191.668" stroke="#263238" stroke-linecap="round" stroke-linejoin="round"/>
<path d="M238.684 183.196C238.684 183.196 241.859 187.16 242.648 191.39" stroke="#263238" stroke-linecap="round" stroke-linejoin="round"/>
<path d="M235.515 185.841C235.515 185.841 236.303 185.311 236.303 190.601" stroke="#263238" stroke-linecap="round" stroke-linejoin="round"/>
<path d="M237.364 180.816C237.364 180.816 238.949 179.231 237.895 176.321" stroke="#263238" stroke-linecap="round" stroke-linejoin="round"/>
<path d="M235.249 183.461L233.93 181.346" stroke="#263238" stroke-linecap="round" stroke-linejoin="round"/>
<path d="M232.87 185.841C232.87 185.841 228.905 183.196 226.525 183.196" stroke="#263238" stroke-linecap="round" stroke-linejoin="round"/>
<path d="M271.983 240.03H251.549V269.44H271.983V240.03Z" fill="#263238" stroke="#263238" stroke-width="2" stroke-linecap="round" stroke-linejoin="round"/>
</svg>
